ISO-10303-21;
HEADER;
FILE_DESCRIPTION(('ViewDefinition[DesignTransferView]'),'2;1');
FILE_NAME('/dev/null','2026-09-14T16:07:16-05:00',(''),(''),'IfcOpenShell 0.8.5','IfcOpenShell 0.8.5','Nobody');
FILE_SCHEMA(('IFC4'));
ENDSEC;
DATA;
#1=IFCPROJECT('3MeBMW89n4w9XMWF7Og$WO',$,'Independent analytic boxes',$,$,$,$,(#11),#5);
#2=IFCSIUNIT(*,.LENGTHUNIT.,$,.METRE.);
#3=IFCSIUNIT(*,.AREAUNIT.,$,.SQUARE_METRE.);
#4=IFCSIUNIT(*,.VOLUMEUNIT.,$,.CUBIC_METRE.);
#5=IFCUNITASSIGNMENT((#2,#3,#4,#6));
#6=IFCSIUNIT(*,.PLANEANGLEUNIT.,$,.RADIAN.);
#7=IFCCARTESIANPOINT((0.,0.,0.));
#8=IFCDIRECTION((0.,0.,1.));
#9=IFCDIRECTION((1.,0.,0.));
#10=IFCAXIS2PLACEMENT3D(#7,#8,#9);
#11=IFCGEOMETRICREPRESENTATIONCONTEXT($,'Model',3,1.0000000000000001E-05,#10,$);
#12=IFCGEOMETRICREPRESENTATIONSUBCONTEXT('Body','Model',*,*,*,*,#11,$,.MODEL_VIEW.,$);
#13=IFCBUILDINGSTOREY('21ZiXpwU9A1fq4JDPijpBY',$,'Ground',$,$,$,$,$,$,$);
#14=IFCRELAGGREGATES('3MoH$vyRj81hIgxovHEHZ3',$,$,$,#1,(#13));
#15=IFCBUILDINGELEMENTPROXY('08e1RHyDrD5Afc8jBkg99k',$,'Analytic solid',$,$,#37,#26,$,$);
#16=IFCCARTESIANPOINTLIST2D(((0.,0.),(0.,2.),(2.,2.),(2.,0.),(0.,0.)));
#17=IFCINDEXEDPOLYCURVE(#16,$,.F.);
#18=IFCDIRECTION((0.,0.,1.));
#19=IFCARBITRARYCLOSEDPROFILEDEF(.AREA.,$,#17);
#20=IFCCARTESIANPOINT((0.,0.,0.));
#21=IFCDIRECTION((0.,0.,1.));
#22=IFCDIRECTION((1.,0.,0.));
#23=IFCAXIS2PLACEMENT3D(#20,#21,#22);
#24=IFCEXTRUDEDAREASOLID(#19,#23,#18,2.);
#25=IFCSHAPEREPRESENTATION(#12,'Body','SweptSolid',(#24));
#26=IFCPRODUCTDEFINITIONSHAPE($,$,(#25));
#32=IFCRELCONTAINEDINSPATIALSTRUCTURE('0$8jH1dRb4lx0fKOQlp5Qc',$,$,$,(#15),#13);
#33=IFCCARTESIANPOINT((0.,0.,0.));
#34=IFCDIRECTION((0.,0.,1.));
#35=IFCDIRECTION((1.,0.,0.));
#36=IFCAXIS2PLACEMENT3D(#33,#34,#35);
#37=IFCLOCALPLACEMENT($,#36);
#38=IFCSYSTEM('2PsGruvQTNdBQ1uv5jgm39',$,'example-shared-two-sink-network',$,'PRESSURE_PIPE');
#39=IFCCARTESIANPOINT((0.,0.,0.));
#40=IFCDIRECTION((0.,0.,1.));
#41=IFCDIRECTION((1.,0.,0.));
#42=IFCAXIS2PLACEMENT3D(#39,#40,#41);
#43=IFCLOCALPLACEMENT($,#42);
#44=IFCPIPESEGMENT('0oivFQM31MKPdM0L5nppnP',$,'example-shared-two-sink-network/trunk',$,'OMA_NETWORK_SEGMENT',#43,#55,$,.RIGIDSEGMENT.);
#45=IFCCARTESIANPOINT((0.,0.));
#46=IFCAXIS2PLACEMENT2D(#45,$);
#47=IFCCIRCLEPROFILEDEF(.AREA.,$,#46,0.020004999910000001);
#48=IFCCARTESIANPOINT((-1.,4.,3.));
#49=IFCDIRECTION((1.,0.,0.));
#50=IFCDIRECTION((0.,1.,0.));
#51=IFCAXIS2PLACEMENT3D(#48,#49,#50);
#52=IFCDIRECTION((0.,0.,1.));
#53=IFCEXTRUDEDAREASOLID(#47,#51,#52,0.80000000000000004);
#54=IFCSHAPEREPRESENTATION(#12,'Body','SweptSolid',(#53));
#55=IFCPRODUCTDEFINITIONSHAPE($,$,(#54));
#56=IFCCARTESIANPOINT((-1.,4.,3.));
#57=IFCDIRECTION((1.,-0.,-0.));
#58=IFCDIRECTION((0.,1.,0.));
#59=IFCAXIS2PLACEMENT3D(#56,#57,#58);
#60=IFCLOCALPLACEMENT(#43,#59);
#61=IFCDISTRIBUTIONPORT('3fjlYeA4fIqvJ$cOk4nn3t',$,'trunk/a',$,$,#60,$,.SINK.,.PIPE.,$);
#62=IFCRELNESTS('0ELF2QQd1Oee8swSwT8auo',$,$,$,#44,(#61));
#63=IFCCARTESIANPOINT((-0.20000000000000001,4.,3.));
#64=IFCDIRECTION((1.,0.,0.));
#65=IFCDIRECTION((0.,1.,0.));
#66=IFCAXIS2PLACEMENT3D(#63,#64,#65);
#67=IFCLOCALPLACEMENT(#43,#66);
#68=IFCDISTRIBUTIONPORT('3mGuRkbk5NqBZKx30JlF0I',$,'trunk/b',$,$,#67,$,.SOURCE.,.PIPE.,$);
#69=IFCRELNESTS('27SFVrKDvIQgndpr2NJkyj',$,$,$,#44,(#68));
#70=IFCCARTESIANPOINT((0.,0.,0.));
#71=IFCDIRECTION((0.,0.,1.));
#72=IFCDIRECTION((1.,0.,0.));
#73=IFCAXIS2PLACEMENT3D(#70,#71,#72);
#74=IFCLOCALPLACEMENT($,#73);
#75=IFCPIPEFITTING('2OB98M69TIoxEX1XVZ4glQ',$,'example-shared-two-sink-network/junction',$,'OMA_NETWORK_TEE',#74,#96,$,.JUNCTION.);
#76=IFCCARTESIANPOINT((0.,0.));
#77=IFCAXIS2PLACEMENT2D(#76,$);
#78=IFCCIRCLEPROFILEDEF(.AREA.,$,#77,0.020004999910000001);
#79=IFCCARTESIANPOINT((-0.20000000000000001,4.,3.));
#80=IFCDIRECTION((1.,0.,0.));
#81=IFCDIRECTION((0.,1.,0.));
#82=IFCAXIS2PLACEMENT3D(#79,#80,#81);
#83=IFCDIRECTION((0.,0.,1.));
#84=IFCEXTRUDEDAREASOLID(#78,#82,#83,0.40000000000000002);
#85=IFCCARTESIANPOINT((0.,0.));
#86=IFCAXIS2PLACEMENT2D(#85,$);
#87=IFCCIRCLEPROFILEDEF(.AREA.,$,#86,0.020004999910000001);
#88=IFCCARTESIANPOINT((0.,4.,3.));
#89=IFCDIRECTION((0.,1.,0.));
#90=IFCDIRECTION((1.,0.,0.));
#91=IFCAXIS2PLACEMENT3D(#88,#89,#90);
#92=IFCDIRECTION((0.,0.,1.));
#93=IFCEXTRUDEDAREASOLID(#87,#91,#92,0.20000000000000018);
#94=IFCBOOLEANRESULT(.UNION.,#84,#93);
#95=IFCSHAPEREPRESENTATION(#12,'Body','CSG',(#94));
#96=IFCPRODUCTDEFINITIONSHAPE($,$,(#95));
#97=IFCCARTESIANPOINT((-0.20000000000000001,4.,3.));
#98=IFCDIRECTION((1.,-0.,-0.));
#99=IFCDIRECTION((0.,1.,0.));
#100=IFCAXIS2PLACEMENT3D(#97,#98,#99);
#101=IFCLOCALPLACEMENT(#74,#100);
#102=IFCDISTRIBUTIONPORT('18bVmu1trG6enlZ4cihdye',$,'junction/a',$,$,#101,$,.SINK.,.PIPE.,$);
#103=IFCRELNESTS('22lm_terXRaOqEnlBK5hNn',$,$,$,#75,(#102));
#104=IFCCARTESIANPOINT((0.20000000000000001,4.,3.));
#105=IFCDIRECTION((1.,0.,0.));
#106=IFCDIRECTION((0.,1.,0.));
#107=IFCAXIS2PLACEMENT3D(#104,#105,#106);
#108=IFCLOCALPLACEMENT(#74,#107);
#109=IFCDISTRIBUTIONPORT('3ZR$rdkuHHSODod9SZLOQw',$,'junction/b',$,$,#108,$,.SOURCE.,.PIPE.,$);
#110=IFCRELNESTS('1wvCCJbZTScAWSOJ4YaXo0',$,$,$,#75,(#109));
#111=IFCCARTESIANPOINT((0.,4.2000000000000002,3.));
#112=IFCDIRECTION((0.,1.,0.));
#113=IFCDIRECTION((1.,0.,0.));
#114=IFCAXIS2PLACEMENT3D(#111,#112,#113);
#115=IFCLOCALPLACEMENT(#74,#114);
#116=IFCDISTRIBUTIONPORT('3xnOUdptLULQoghhpofvuj',$,'junction/branch',$,$,#115,$,.SOURCE.,.PIPE.,$);
#117=IFCRELNESTS('0wjCXJWa5OEQB_mUE0YkRV',$,$,$,#75,(#116));
#118=IFCCARTESIANPOINT((0.,0.,0.));
#119=IFCDIRECTION((0.,0.,1.));
#120=IFCDIRECTION((1.,0.,0.));
#121=IFCAXIS2PLACEMENT3D(#118,#119,#120);
#122=IFCLOCALPLACEMENT($,#121);
#123=IFCPIPESEGMENT('2K55BzoNvHtQKd4Mu2dswI',$,'example-shared-two-sink-network/arm-a',$,'OMA_NETWORK_SEGMENT',#122,#134,$,.RIGIDSEGMENT.);
#124=IFCCARTESIANPOINT((0.,0.));
#125=IFCAXIS2PLACEMENT2D(#124,$);
#126=IFCCIRCLEPROFILEDEF(.AREA.,$,#125,0.020004999910000001);
#127=IFCCARTESIANPOINT((0.20000000000000001,4.,3.));
#128=IFCDIRECTION((1.,0.,0.));
#129=IFCDIRECTION((0.,1.,0.));
#130=IFCAXIS2PLACEMENT3D(#127,#128,#129);
#131=IFCDIRECTION((0.,0.,1.));
#132=IFCEXTRUDEDAREASOLID(#126,#130,#131,0.80000000000000004);
#133=IFCSHAPEREPRESENTATION(#12,'Body','SweptSolid',(#132));
#134=IFCPRODUCTDEFINITIONSHAPE($,$,(#133));
#135=IFCCARTESIANPOINT((0.20000000000000001,4.,3.));
#136=IFCDIRECTION((1.,-0.,-0.));
#137=IFCDIRECTION((0.,1.,0.));
#138=IFCAXIS2PLACEMENT3D(#135,#136,#137);
#139=IFCLOCALPLACEMENT(#122,#138);
#140=IFCDISTRIBUTIONPORT('1ZlghoV0TVGuPlNQ0_A5Zg',$,'arm-a/a',$,$,#139,$,.SINK.,.PIPE.,$);
#141=IFCRELNESTS('1uKNa4uDbTDvyWTlOzQ4DM',$,$,$,#123,(#140));
#142=IFCCARTESIANPOINT((1.,4.,3.));
#143=IFCDIRECTION((1.,0.,0.));
#144=IFCDIRECTION((0.,1.,0.));
#145=IFCAXIS2PLACEMENT3D(#142,#143,#144);
#146=IFCLOCALPLACEMENT(#122,#145);
#147=IFCDISTRIBUTIONPORT('1LZouugr1IF9vojti9sjSl',$,'arm-a/b',$,$,#146,$,.SOURCE.,.PIPE.,$);
#148=IFCRELNESTS('20h8$0mC9PAvKnWjgXjj8v',$,$,$,#123,(#147));
#149=IFCCARTESIANPOINT((0.,0.,0.));
#150=IFCDIRECTION((0.,0.,1.));
#151=IFCDIRECTION((1.,0.,0.));
#152=IFCAXIS2PLACEMENT3D(#149,#150,#151);
#153=IFCLOCALPLACEMENT($,#152);
#154=IFCPIPESEGMENT('3YcevA4j9INRxshufidmA8',$,'example-shared-two-sink-network/arm-b',$,'OMA_NETWORK_SEGMENT',#153,#165,$,.RIGIDSEGMENT.);
#155=IFCCARTESIANPOINT((0.,0.));
#156=IFCAXIS2PLACEMENT2D(#155,$);
#157=IFCCIRCLEPROFILEDEF(.AREA.,$,#156,0.020004999910000001);
#158=IFCCARTESIANPOINT((0.,4.2000000000000002,3.));
#159=IFCDIRECTION((0.,1.,0.));
#160=IFCDIRECTION((1.,0.,0.));
#161=IFCAXIS2PLACEMENT3D(#158,#159,#160);
#162=IFCDIRECTION((0.,0.,1.));
#163=IFCEXTRUDEDAREASOLID(#157,#161,#162,0.79999999999999982);
#164=IFCSHAPEREPRESENTATION(#12,'Body','SweptSolid',(#163));
#165=IFCPRODUCTDEFINITIONSHAPE($,$,(#164));
#166=IFCCARTESIANPOINT((0.,4.2000000000000002,3.));
#167=IFCDIRECTION((-0.,1.,-0.));
#168=IFCDIRECTION((1.,0.,0.));
#169=IFCAXIS2PLACEMENT3D(#166,#167,#168);
#170=IFCLOCALPLACEMENT(#153,#169);
#171=IFCDISTRIBUTIONPORT('1Rg_SNaYXP9uHKJmqAxmqB',$,'arm-b/a',$,$,#170,$,.SINK.,.PIPE.,$);
#172=IFCRELNESTS('2Caxq28hvOdO393NYzAhwD',$,$,$,#154,(#171));
#173=IFCCARTESIANPOINT((0.,5.,3.));
#174=IFCDIRECTION((0.,1.,0.));
#175=IFCDIRECTION((1.,0.,0.));
#176=IFCAXIS2PLACEMENT3D(#173,#174,#175);
#177=IFCLOCALPLACEMENT(#153,#176);
#178=IFCDISTRIBUTIONPORT('3_EcxOpZ5VguJO_FTAfgVx',$,'arm-b/b',$,$,#177,$,.SOURCE.,.PIPE.,$);
#179=IFCRELNESTS('2mST9$dVvGDuswymC1YsDC',$,$,$,#154,(#178));
#180=IFCRELCONNECTSPORTS('2uR2uSvA9R3hlF2ZV9jRm3',$,$,$,#68,#102,$);
#181=IFCRELCONNECTSPORTS('2jcBnx7SXVZOZZR0A555T9',$,$,$,#109,#140,$);
#182=IFCRELCONNECTSPORTS('35irEVRGDKvxQX3ouMIKJl',$,$,$,#116,#171,$);
#183=IFCRELASSIGNSTOGROUP('2l3wiueqfJhwKOQRWbj_6g',$,$,$,(#44,#75,#123,#154),$,#38);
#184=IFCRELCONTAINEDINSPATIALSTRUCTURE('2DRGE_pKLImfoB6YA3atK_',$,$,$,(#44,#75,#123,#154),#13);
ENDSEC;
END-ISO-10303-21;
