ISO-10303-21;
HEADER;
FILE_DESCRIPTION(('ViewDefinition [CoordinationView]'),'2;1');
FILE_NAME('','2026-09-14T13:01:07',(''),(''),'IfcOpenShell 0.8.5-1c5b825','IfcOpenShell 0.8.5-1c5b825','');
FILE_SCHEMA(('IFC4'));
ENDSEC;
DATA;
#1=IFCCARTESIANPOINT((0.,0.,0.));
#2=IFCAXIS2PLACEMENT3D(#1,$,$);
#3=IFCGEOMETRICREPRESENTATIONCONTEXT($,'Model',3,9.9999999999999995E-07,#2,$);
#4=IFCSIUNIT(*,.LENGTHUNIT.,$,.METRE.);
#5=IFCSIUNIT(*,.PLANEANGLEUNIT.,$,.RADIAN.);
#6=IFCUNITASSIGNMENT((#4,#5));
#7=IFCPROJECT('3FTBiXEAb9ev9eYZBtjy5A',$,$,$,$,$,$,(#3),#6);
#8=IFCCARTESIANPOINT((0.,0.,0.));
#9=IFCDIRECTION((0.,0.,1.));
#10=IFCDIRECTION((1.,0.,0.));
#11=IFCAXIS2PLACEMENT3D(#8,#9,#10);
#12=IFCLOCALPLACEMENT($,#11);
#13=IFCCARTESIANPOINT((0.,0.));
#14=IFCAXIS2PLACEMENT2D(#13,$);
#15=IFCRECTANGLEPROFILEDEF(.AREA.,$,#14,4.,0.40000000000000002);
#16=IFCCARTESIANPOINT((0.,0.,0.));
#17=IFCDIRECTION((0.,0.,1.));
#18=IFCDIRECTION((1.,0.,0.));
#19=IFCAXIS2PLACEMENT3D(#16,#17,#18);
#20=IFCDIRECTION((0.,0.,1.));
#21=IFCEXTRUDEDAREASOLID(#15,#19,#20,3.);
#22=IFCSHAPEREPRESENTATION(#3,'Body','SweptSolid',(#21));
#23=IFCPRODUCTDEFINITIONSHAPE($,$,(#22));
#24=IFCWALL('3bkxl0AJr2lQFdxLY3pSGR',$,'Declared editable fixture host',$,$,#12,#23,$,$);
#25=IFCSYSTEM('0bT3467DDUIAEdYp$Q1J6o',$,'OMA certified-cell-analytic-0',$,'PRESSURE_PIPE');
#26=IFCCARTESIANPOINT((0.,0.,0.));
#27=IFCDIRECTION((0.,0.,1.));
#28=IFCDIRECTION((1.,0.,0.));
#29=IFCAXIS2PLACEMENT3D(#26,#27,#28);
#30=IFCLOCALPLACEMENT($,#29);
#31=IFCPIPESEGMENT('0PNpD7Dw5JpRdHPS6sOHkg',$,'certified-cell-analytic-0 straight 1',$,'ROUND_STRAIGHT',#30,#42,$,.RIGIDSEGMENT.);
#32=IFCCARTESIANPOINT((0.,0.));
#33=IFCAXIS2PLACEMENT2D(#32,$);
#34=IFCCIRCLEPROFILEDEF(.AREA.,$,#33,0.050000000000000003);
#35=IFCCARTESIANPOINT((0.,-1.,1.5));
#36=IFCDIRECTION((0.,0.,-1.));
#37=IFCDIRECTION((1.,0.,0.));
#38=IFCAXIS2PLACEMENT3D(#35,#36,#37);
#39=IFCDIRECTION((0.,0.,1.));
#40=IFCEXTRUDEDAREASOLID(#34,#38,#39,1.8416666666666666);
#41=IFCSHAPEREPRESENTATION(#3,'Body','SweptSolid',(#40));
#42=IFCPRODUCTDEFINITIONSHAPE($,$,(#41));
#43=IFCCARTESIANPOINT((0.,-1.,1.5));
#44=IFCDIRECTION((0.,0.,-1.));
#45=IFCDIRECTION((1.,0.,0.));
#46=IFCAXIS2PLACEMENT3D(#43,#44,#45);
#47=IFCLOCALPLACEMENT(#30,#46);
#48=IFCDISTRIBUTIONPORT('22E7UtThjIg9uzZpt3mrmp',$,'certified-cell-analytic-0/0/in',$,$,#47,$,.SINK.,.PIPE.,$);
#49=IFCRELNESTS('0mu7OzDafONxLufzu1H4Z9',$,$,$,#31,(#48));
#50=IFCCARTESIANPOINT((0.,-1.,-0.34166666666666667));
#51=IFCDIRECTION((0.,0.,-1.));
#52=IFCDIRECTION((1.,0.,0.));
#53=IFCAXIS2PLACEMENT3D(#50,#51,#52);
#54=IFCLOCALPLACEMENT(#30,#53);
#55=IFCDISTRIBUTIONPORT('3HV4w8OhjLDgSe8qOMl6sl',$,'certified-cell-analytic-0/0/out',$,$,#54,$,.SOURCE.,.PIPE.,$);
#56=IFCRELNESTS('3CnOxEtjnVzwdilx$BUauq',$,$,$,#31,(#55));
#57=IFCPROPERTYSINGLEVALUE('RouteId',$,IFCTEXT('certified-cell-analytic-0'),$);
#58=IFCPROPERTYSINGLEVALUE('SourceSHA256',$,IFCTEXT('83c1baf0f32191c5911a15f7244af5c15fac601f2e208ccb4cc8cb4379a84944'),$);
#59=IFCPROPERTYSINGLEVALUE('AssumptionRoot',$,IFCTEXT('EXPLICIT_ROUTE_SPEC'),$);
#60=IFCPROPERTYSINGLEVALUE('SystemFamily',$,IFCTEXT('PRESSURE_PIPE'),$);
#61=IFCPROPERTYSINGLEVALUE('PhysicalRepresentation',$,IFCTEXT('Outer service envelope including insulation'),$);
#62=IFCPROPERTYSINGLEVALUE('EngineeringStatus',$,IFCTEXT('DRAFT'),$);
#63=IFCPROPERTYSINGLEVALUE('Diameter_m',$,IFCREAL(0.10000000000000001),$);
#64=IFCPROPERTYSINGLEVALUE('Insulation_m',$,IFCREAL(0.),$);
#65=IFCPROPERTYSINGLEVALUE('CenterlineLength_m',$,IFCREAL(1.8416666666666666),$);
#66=IFCPROPERTYSET('1rurBJe3jVNPysaRf0PzPf',$,'OMA_RouteProvenance',$,(#57,#58,#59,#60,#61,#62,#63,#64,#65));
#67=IFCRELDEFINESBYPROPERTIES('1UgyILDNnMIPVikhG3xXZR',$,$,$,(#31),#66);
#68=IFCCARTESIANPOINT((0.,0.,0.));
#69=IFCDIRECTION((0.,0.,1.));
#70=IFCDIRECTION((1.,0.,0.));
#71=IFCAXIS2PLACEMENT3D(#68,#69,#70);
#72=IFCLOCALPLACEMENT($,#71);
#73=IFCPIPEFITTING('3_tXwGAAnU5ebSoTP76u5f',$,'certified-cell-analytic-0 elbow 2',$,'PARAMETRIC_ELBOW',#72,#86,$,.BEND.);
#74=IFCCARTESIANPOINT((0.20000000000000001,0.));
#75=IFCAXIS2PLACEMENT2D(#74,$);
#76=IFCCIRCLEPROFILEDEF(.AREA.,$,#75,0.050000000000000003);
#77=IFCCARTESIANPOINT((0.,-0.80000000000000004,-0.34166666666666667));
#78=IFCDIRECTION((0.,0.,-0.99999999999999978));
#79=IFCDIRECTION((0.,-0.99999999999999978,0.));
#80=IFCAXIS2PLACEMENT3D(#77,#78,#79);
#81=IFCCARTESIANPOINT((0.,0.,0.));
#82=IFCDIRECTION((0.,-1.,0.));
#83=IFCAXIS1PLACEMENT(#81,#82);
#84=IFCREVOLVEDAREASOLID(#76,#80,#83,1.5707963267948966);
#85=IFCSHAPEREPRESENTATION(#3,'Body','SweptSolid',(#84));
#86=IFCPRODUCTDEFINITIONSHAPE($,$,(#85));
#87=IFCCARTESIANPOINT((0.,-1.,-0.34166666666666667));
#88=IFCDIRECTION((0.,0.,-1.));
#89=IFCDIRECTION((1.,0.,0.));
#90=IFCAXIS2PLACEMENT3D(#87,#88,#89);
#91=IFCLOCALPLACEMENT(#72,#90);
#92=IFCDISTRIBUTIONPORT('1Ml5JMAYrSk9EZNOl1XvzW',$,'certified-cell-analytic-0/1/in',$,$,#91,$,.SINK.,.PIPE.,$);
#93=IFCRELNESTS('1tOjeBMIzK$A1ClWzy6P_n',$,$,$,#73,(#92));
#94=IFCCARTESIANPOINT((0.,-0.80000000000000004,-0.54166666666666663));
#95=IFCDIRECTION((0.,1.,0.));
#96=IFCDIRECTION((1.,0.,0.));
#97=IFCAXIS2PLACEMENT3D(#94,#95,#96);
#98=IFCLOCALPLACEMENT(#72,#97);
#99=IFCDISTRIBUTIONPORT('3CkOTI6yPI6wXu1jw_nclC',$,'certified-cell-analytic-0/1/out',$,$,#98,$,.SOURCE.,.PIPE.,$);
#100=IFCRELNESTS('078MQ7GX9UFB3Co4UV8yjJ',$,$,$,#73,(#99));
#101=IFCRELCONNECTSPORTS('052kbkWCvTdARCtVt1LmqG',$,$,$,#55,#92,#73);
#102=IFCPROPERTYSINGLEVALUE('RouteId',$,IFCTEXT('certified-cell-analytic-0'),$);
#103=IFCPROPERTYSINGLEVALUE('SourceSHA256',$,IFCTEXT('83c1baf0f32191c5911a15f7244af5c15fac601f2e208ccb4cc8cb4379a84944'),$);
#104=IFCPROPERTYSINGLEVALUE('AssumptionRoot',$,IFCTEXT('EXPLICIT_ROUTE_SPEC'),$);
#105=IFCPROPERTYSINGLEVALUE('SystemFamily',$,IFCTEXT('PRESSURE_PIPE'),$);
#106=IFCPROPERTYSINGLEVALUE('PhysicalRepresentation',$,IFCTEXT('Outer service envelope including insulation'),$);
#107=IFCPROPERTYSINGLEVALUE('EngineeringStatus',$,IFCTEXT('DRAFT'),$);
#108=IFCPROPERTYSINGLEVALUE('Diameter_m',$,IFCREAL(0.10000000000000001),$);
#109=IFCPROPERTYSINGLEVALUE('Insulation_m',$,IFCREAL(0.),$);
#110=IFCPROPERTYSINGLEVALUE('CenterlineLength_m',$,IFCREAL(0.31415926535897931),$);
#111=IFCPROPERTYSET('3p55Qc9zrN9v$e7LY8Je10',$,'OMA_RouteProvenance',$,(#102,#103,#104,#105,#106,#107,#108,#109,#110));
#112=IFCRELDEFINESBYPROPERTIES('3GqcnUADTL1whcma0jI7iW',$,$,$,(#73),#111);
#113=IFCCARTESIANPOINT((0.,0.,0.));
#114=IFCDIRECTION((0.,0.,1.));
#115=IFCDIRECTION((1.,0.,0.));
#116=IFCAXIS2PLACEMENT3D(#113,#114,#115);
#117=IFCLOCALPLACEMENT($,#116);
#118=IFCPIPESEGMENT('2q7vi3YRbUSuj2TyIRV6s4',$,'certified-cell-analytic-0 straight 3',$,'ROUND_STRAIGHT',#117,#129,$,.RIGIDSEGMENT.);
#119=IFCCARTESIANPOINT((0.,0.));
#120=IFCAXIS2PLACEMENT2D(#119,$);
#121=IFCCIRCLEPROFILEDEF(.AREA.,$,#120,0.050000000000000003);
#122=IFCCARTESIANPOINT((0.,-0.80000000000000004,-0.54166666666666663));
#123=IFCDIRECTION((0.,1.,0.));
#124=IFCDIRECTION((1.,0.,0.));
#125=IFCAXIS2PLACEMENT3D(#122,#123,#124);
#126=IFCDIRECTION((0.,0.,1.));
#127=IFCEXTRUDEDAREASOLID(#121,#125,#126,1.6000000000000001);
#128=IFCSHAPEREPRESENTATION(#3,'Body','SweptSolid',(#127));
#129=IFCPRODUCTDEFINITIONSHAPE($,$,(#128));
#130=IFCCARTESIANPOINT((0.,-0.80000000000000004,-0.54166666666666663));
#131=IFCDIRECTION((0.,1.,0.));
#132=IFCDIRECTION((1.,0.,0.));
#133=IFCAXIS2PLACEMENT3D(#130,#131,#132);
#134=IFCLOCALPLACEMENT(#117,#133);
#135=IFCDISTRIBUTIONPORT('029yEgc3DUbQQVRFMEkEJz',$,'certified-cell-analytic-0/2/in',$,$,#134,$,.SINK.,.PIPE.,$);
#136=IFCRELNESTS('1VY4e_$qbSFf$r1pBLWMyW',$,$,$,#118,(#135));
#137=IFCCARTESIANPOINT((0.,0.80000000000000004,-0.54166666666666663));
#138=IFCDIRECTION((0.,1.,0.));
#139=IFCDIRECTION((1.,0.,0.));
#140=IFCAXIS2PLACEMENT3D(#137,#138,#139);
#141=IFCLOCALPLACEMENT(#117,#140);
#142=IFCDISTRIBUTIONPORT('17DdN64EDNEAGKg_jK2UzZ',$,'certified-cell-analytic-0/2/out',$,$,#141,$,.SOURCE.,.PIPE.,$);
#143=IFCRELNESTS('36eECW41DMreDghX$YRg3E',$,$,$,#118,(#142));
#144=IFCRELCONNECTSPORTS('1uLuLBvrDKagOdWdediEp7',$,$,$,#99,#135,#118);
#145=IFCPROPERTYSINGLEVALUE('RouteId',$,IFCTEXT('certified-cell-analytic-0'),$);
#146=IFCPROPERTYSINGLEVALUE('SourceSHA256',$,IFCTEXT('83c1baf0f32191c5911a15f7244af5c15fac601f2e208ccb4cc8cb4379a84944'),$);
#147=IFCPROPERTYSINGLEVALUE('AssumptionRoot',$,IFCTEXT('EXPLICIT_ROUTE_SPEC'),$);
#148=IFCPROPERTYSINGLEVALUE('SystemFamily',$,IFCTEXT('PRESSURE_PIPE'),$);
#149=IFCPROPERTYSINGLEVALUE('PhysicalRepresentation',$,IFCTEXT('Outer service envelope including insulation'),$);
#150=IFCPROPERTYSINGLEVALUE('EngineeringStatus',$,IFCTEXT('DRAFT'),$);
#151=IFCPROPERTYSINGLEVALUE('Diameter_m',$,IFCREAL(0.10000000000000001),$);
#152=IFCPROPERTYSINGLEVALUE('Insulation_m',$,IFCREAL(0.),$);
#153=IFCPROPERTYSINGLEVALUE('CenterlineLength_m',$,IFCREAL(1.6000000000000001),$);
#154=IFCPROPERTYSET('2xcHSS2CzTRRt4Df54wTxG',$,'OMA_RouteProvenance',$,(#145,#146,#147,#148,#149,#150,#151,#152,#153));
#155=IFCRELDEFINESBYPROPERTIES('3Y7EfCHjLR0OUwhohzByrO',$,$,$,(#118),#154);
#156=IFCCARTESIANPOINT((0.,0.,0.));
#157=IFCDIRECTION((0.,0.,1.));
#158=IFCDIRECTION((1.,0.,0.));
#159=IFCAXIS2PLACEMENT3D(#156,#157,#158);
#160=IFCLOCALPLACEMENT($,#159);
#161=IFCPIPEFITTING('3hsgYVkATKLuNNTaFLJ7lA',$,'certified-cell-analytic-0 elbow 4',$,'PARAMETRIC_ELBOW',#160,#174,$,.BEND.);
#162=IFCCARTESIANPOINT((0.20000000000000001,0.));
#163=IFCAXIS2PLACEMENT2D(#162,$);
#164=IFCCIRCLEPROFILEDEF(.AREA.,$,#163,0.050000000000000003);
#165=IFCCARTESIANPOINT((0.,0.80000000000000004,-0.34166666666666662));
#166=IFCDIRECTION((-0.,1.,0.));
#167=IFCDIRECTION((0.,0.,-1.));
#168=IFCAXIS2PLACEMENT3D(#165,#166,#167);
#169=IFCCARTESIANPOINT((0.,0.,0.));
#170=IFCDIRECTION((0.,-1.,0.));
#171=IFCAXIS1PLACEMENT(#169,#170);
#172=IFCREVOLVEDAREASOLID(#164,#168,#171,1.5707963267948966);
#173=IFCSHAPEREPRESENTATION(#3,'Body','SweptSolid',(#172));
#174=IFCPRODUCTDEFINITIONSHAPE($,$,(#173));
#175=IFCCARTESIANPOINT((0.,0.80000000000000004,-0.54166666666666663));
#176=IFCDIRECTION((-0.,1.,0.));
#177=IFCDIRECTION((1.,0.,0.));
#178=IFCAXIS2PLACEMENT3D(#175,#176,#177);
#179=IFCLOCALPLACEMENT(#160,#178);
#180=IFCDISTRIBUTIONPORT('26kt8JHR5MdwQjry24fHGT',$,'certified-cell-analytic-0/3/in',$,$,#179,$,.SINK.,.PIPE.,$);
#181=IFCRELNESTS('0Ad4XCT81MFO8FaYYzqmXw',$,$,$,#161,(#180));
#182=IFCCARTESIANPOINT((0.,1.,-0.34166666666666667));
#183=IFCDIRECTION((-0.,2.7755575615628918E-16,1.));
#184=IFCDIRECTION((1.,0.,0.));
#185=IFCAXIS2PLACEMENT3D(#182,#183,#184);
#186=IFCLOCALPLACEMENT(#160,#185);
#187=IFCDISTRIBUTIONPORT('1EJNyXr9fHlfO2Mpgzb0Ct',$,'certified-cell-analytic-0/3/out',$,$,#186,$,.SOURCE.,.PIPE.,$);
#188=IFCRELNESTS('1lWi0brbvMyeR7A8M3rz9m',$,$,$,#161,(#187));
#189=IFCRELCONNECTSPORTS('3TQqSZmHLPdgMHEjr_FmoQ',$,$,$,#142,#180,#161);
#190=IFCPROPERTYSINGLEVALUE('RouteId',$,IFCTEXT('certified-cell-analytic-0'),$);
#191=IFCPROPERTYSINGLEVALUE('SourceSHA256',$,IFCTEXT('83c1baf0f32191c5911a15f7244af5c15fac601f2e208ccb4cc8cb4379a84944'),$);
#192=IFCPROPERTYSINGLEVALUE('AssumptionRoot',$,IFCTEXT('EXPLICIT_ROUTE_SPEC'),$);
#193=IFCPROPERTYSINGLEVALUE('SystemFamily',$,IFCTEXT('PRESSURE_PIPE'),$);
#194=IFCPROPERTYSINGLEVALUE('PhysicalRepresentation',$,IFCTEXT('Outer service envelope including insulation'),$);
#195=IFCPROPERTYSINGLEVALUE('EngineeringStatus',$,IFCTEXT('DRAFT'),$);
#196=IFCPROPERTYSINGLEVALUE('Diameter_m',$,IFCREAL(0.10000000000000001),$);
#197=IFCPROPERTYSINGLEVALUE('Insulation_m',$,IFCREAL(0.),$);
#198=IFCPROPERTYSINGLEVALUE('CenterlineLength_m',$,IFCREAL(0.31415926535897931),$);
#199=IFCPROPERTYSET('2W_gVDOHLTvg_smezGCvx5',$,'OMA_RouteProvenance',$,(#190,#191,#192,#193,#194,#195,#196,#197,#198));
#200=IFCRELDEFINESBYPROPERTIES('1ig_bWD49LruNqwN54Zn3g',$,$,$,(#161),#199);
#201=IFCCARTESIANPOINT((0.,0.,0.));
#202=IFCDIRECTION((0.,0.,1.));
#203=IFCDIRECTION((1.,0.,0.));
#204=IFCAXIS2PLACEMENT3D(#201,#202,#203);
#205=IFCLOCALPLACEMENT($,#204);
#206=IFCPIPESEGMENT('3Ty$bnz$LKqQkwYutLV6QA',$,'certified-cell-analytic-0 straight 5',$,'ROUND_STRAIGHT',#205,#217,$,.RIGIDSEGMENT.);
#207=IFCCARTESIANPOINT((0.,0.));
#208=IFCAXIS2PLACEMENT2D(#207,$);
#209=IFCCIRCLEPROFILEDEF(.AREA.,$,#208,0.050000000000000003);
#210=IFCCARTESIANPOINT((0.,1.,-0.34166666666666667));
#211=IFCDIRECTION((0.,0.,1.));
#212=IFCDIRECTION((1.,0.,0.));
#213=IFCAXIS2PLACEMENT3D(#210,#211,#212);
#214=IFCDIRECTION((0.,0.,1.));
#215=IFCEXTRUDEDAREASOLID(#209,#213,#214,1.8416666666666666);
#216=IFCSHAPEREPRESENTATION(#3,'Body','SweptSolid',(#215));
#217=IFCPRODUCTDEFINITIONSHAPE($,$,(#216));
#218=IFCCARTESIANPOINT((0.,1.,-0.34166666666666667));
#219=IFCDIRECTION((0.,0.,1.));
#220=IFCDIRECTION((1.,0.,0.));
#221=IFCAXIS2PLACEMENT3D(#218,#219,#220);
#222=IFCLOCALPLACEMENT(#205,#221);
#223=IFCDISTRIBUTIONPORT('0UmUHM0vnHDv72vkY_6ZiN',$,'certified-cell-analytic-0/4/in',$,$,#222,$,.SINK.,.PIPE.,$);
#224=IFCRELNESTS('0UO5DuiK5MTgsgaCLk1GbQ',$,$,$,#206,(#223));
#225=IFCCARTESIANPOINT((0.,1.,1.5));
#226=IFCDIRECTION((0.,0.,1.));
#227=IFCDIRECTION((1.,0.,0.));
#228=IFCAXIS2PLACEMENT3D(#225,#226,#227);
#229=IFCLOCALPLACEMENT(#205,#228);
#230=IFCDISTRIBUTIONPORT('2zQZ4CHH9NUARI8MPVfKAc',$,'certified-cell-analytic-0/4/out',$,$,#229,$,.SOURCE.,.PIPE.,$);
#231=IFCRELNESTS('2CokIDqmnOEAESPR$flNb0',$,$,$,#206,(#230));
#232=IFCRELCONNECTSPORTS('2M4cW3NsbH6PSQM8ZzejQH',$,$,$,#187,#223,#206);
#233=IFCPROPERTYSINGLEVALUE('RouteId',$,IFCTEXT('certified-cell-analytic-0'),$);
#234=IFCPROPERTYSINGLEVALUE('SourceSHA256',$,IFCTEXT('83c1baf0f32191c5911a15f7244af5c15fac601f2e208ccb4cc8cb4379a84944'),$);
#235=IFCPROPERTYSINGLEVALUE('AssumptionRoot',$,IFCTEXT('EXPLICIT_ROUTE_SPEC'),$);
#236=IFCPROPERTYSINGLEVALUE('SystemFamily',$,IFCTEXT('PRESSURE_PIPE'),$);
#237=IFCPROPERTYSINGLEVALUE('PhysicalRepresentation',$,IFCTEXT('Outer service envelope including insulation'),$);
#238=IFCPROPERTYSINGLEVALUE('EngineeringStatus',$,IFCTEXT('DRAFT'),$);
#239=IFCPROPERTYSINGLEVALUE('Diameter_m',$,IFCREAL(0.10000000000000001),$);
#240=IFCPROPERTYSINGLEVALUE('Insulation_m',$,IFCREAL(0.),$);
#241=IFCPROPERTYSINGLEVALUE('CenterlineLength_m',$,IFCREAL(1.8416666666666666),$);
#242=IFCPROPERTYSET('01NMZoa0DV2PtfRm1teDu5',$,'OMA_RouteProvenance',$,(#233,#234,#235,#236,#237,#238,#239,#240,#241));
#243=IFCRELDEFINESBYPROPERTIES('05y2Wl4PLSEgSLGjbzeMJ1',$,$,$,(#206),#242);
#244=IFCRELASSIGNSTOGROUP('1rX8ZWjxjIJ9mmvrtPK314',$,$,$,(#31,#73,#118,#161,#206),$,#25);
ENDSEC;
END-ISO-10303-21;
