ISO-10303-21;
HEADER;
FILE_DESCRIPTION(('ViewDefinition[DesignTransferView]'),'2;1');
FILE_NAME('/dev/null','2026-09-14T18:34:55-05:00',(''),(''),'IfcOpenShell 0.8.5','IfcOpenShell 0.8.5','Nobody');
FILE_SCHEMA(('IFC4'));
ENDSEC;
DATA;
#1=IFCPROJECT('3_4ZIf4R58mP_KDKIErgC1',$,'Frozen independent shared-tree catalogue source',$,$,$,$,(#11),#5);
#2=IFCSIUNIT(*,.LENGTHUNIT.,$,.METRE.);
#3=IFCSIUNIT(*,.AREAUNIT.,$,.SQUARE_METRE.);
#4=IFCSIUNIT(*,.VOLUMEUNIT.,$,.CUBIC_METRE.);
#5=IFCUNITASSIGNMENT((#2,#3,#4,#6));
#6=IFCSIUNIT(*,.PLANEANGLEUNIT.,$,.RADIAN.);
#7=IFCCARTESIANPOINT((0.,0.,0.));
#8=IFCDIRECTION((0.,0.,1.));
#9=IFCDIRECTION((1.,0.,0.));
#10=IFCAXIS2PLACEMENT3D(#7,#8,#9);
#11=IFCGEOMETRICREPRESENTATIONCONTEXT($,'Model',3,1.0000000000000001E-05,#10,$);
#12=IFCGEOMETRICREPRESENTATIONSUBCONTEXT('Body','Model',*,*,*,*,#11,$,.MODEL_VIEW.,$);
#13=IFCBUILDINGSTOREY('1gA3syb5f8XQnM87J$KrYE',$,'Protected original storey',$,$,$,$,$,$,$);
#14=IFCRELAGGREGATES('0Py4OUEcz45OwwKDDc0Uv5',$,$,$,#1,(#13));
#15=IFCBUILDINGELEMENTPROXY('3YK4LTNbrDEvkAPlEj__ZC',$,'Protected obstacle 0',$,$,#37,#26,$,$);
#16=IFCCARTESIANPOINTLIST2D(((0.,0.),(0.,2.),(2.,2.),(2.,0.),(0.,0.)));
#17=IFCINDEXEDPOLYCURVE(#16,$,.F.);
#18=IFCDIRECTION((0.,0.,1.));
#19=IFCARBITRARYCLOSEDPROFILEDEF(.AREA.,$,#17);
#20=IFCCARTESIANPOINT((0.,0.,0.));
#21=IFCDIRECTION((0.,0.,1.));
#22=IFCDIRECTION((1.,0.,0.));
#23=IFCAXIS2PLACEMENT3D(#20,#21,#22);
#24=IFCEXTRUDEDAREASOLID(#19,#23,#18,2.);
#25=IFCSHAPEREPRESENTATION(#12,'Body','SweptSolid',(#24));
#26=IFCPRODUCTDEFINITIONSHAPE($,$,(#25));
#32=IFCRELCONTAINEDINSPATIALSTRUCTURE('3_064gkfz4TekmJfby5B$2',$,$,$,(#38,#15),#13);
#33=IFCCARTESIANPOINT((0.,0.,0.));
#34=IFCDIRECTION((0.,0.,1.));
#35=IFCDIRECTION((1.,0.,0.));
#36=IFCAXIS2PLACEMENT3D(#33,#34,#35);
#37=IFCLOCALPLACEMENT($,#36);
#38=IFCBUILDINGELEMENTPROXY('3F8zfUaev5mA3411c58F0c',$,'Protected obstacle 1',$,$,#59,#49,$,$);
#39=IFCCARTESIANPOINTLIST2D(((0.,0.),(0.,0.25),(0.25,0.25),(0.25,0.),(0.,0.)));
#40=IFCINDEXEDPOLYCURVE(#39,$,.F.);
#41=IFCDIRECTION((0.,0.,1.));
#42=IFCARBITRARYCLOSEDPROFILEDEF(.AREA.,$,#40);
#43=IFCCARTESIANPOINT((0.,0.,0.));
#44=IFCDIRECTION((0.,0.,1.));
#45=IFCDIRECTION((1.,0.,0.));
#46=IFCAXIS2PLACEMENT3D(#43,#44,#45);
#47=IFCEXTRUDEDAREASOLID(#42,#46,#41,0.25);
#48=IFCSHAPEREPRESENTATION(#12,'Body','SweptSolid',(#47));
#49=IFCPRODUCTDEFINITIONSHAPE($,$,(#48));
#55=IFCCARTESIANPOINT((0.875,1.375,2.875));
#56=IFCDIRECTION((0.,0.,1.));
#57=IFCDIRECTION((1.,0.,0.));
#58=IFCAXIS2PLACEMENT3D(#55,#56,#57);
#59=IFCLOCALPLACEMENT($,#58);
#60=IFCSYSTEM('3HkZ9uLbzSC8EbkPs2QDKF',$,'reference-C-D',$,'PRESSURE_PIPE');
#61=IFCCARTESIANPOINT((0.,0.,0.));
#62=IFCDIRECTION((0.,0.,1.));
#63=IFCDIRECTION((1.,0.,0.));
#64=IFCAXIS2PLACEMENT3D(#61,#62,#63);
#65=IFCLOCALPLACEMENT($,#64);
#66=IFCPIPEFITTING('2t81lolYrVgvw6bcNa4R6L',$,'reference-C-D/C',$,'OMA_NETWORK_TEE',#65,#87,$,.JUNCTION.);
#67=IFCCARTESIANPOINT((0.,0.));
#68=IFCAXIS2PLACEMENT2D(#67,$);
#69=IFCCIRCLEPROFILEDEF(.AREA.,$,#68,0.09375);
#70=IFCCARTESIANPOINT((1.75,0.,3.));
#71=IFCDIRECTION((1.,0.,0.));
#72=IFCDIRECTION((0.,1.,0.));
#73=IFCAXIS2PLACEMENT3D(#70,#71,#72);
#74=IFCDIRECTION((0.,0.,1.));
#75=IFCEXTRUDEDAREASOLID(#69,#73,#74,0.5);
#76=IFCCARTESIANPOINT((0.,0.));
#77=IFCAXIS2PLACEMENT2D(#76,$);
#78=IFCCIRCLEPROFILEDEF(.AREA.,$,#77,0.09375);
#79=IFCCARTESIANPOINT((2.,0.,3.));
#80=IFCDIRECTION((0.,1.,0.));
#81=IFCDIRECTION((1.,0.,0.));
#82=IFCAXIS2PLACEMENT3D(#79,#80,#81);
#83=IFCDIRECTION((0.,0.,1.));
#84=IFCEXTRUDEDAREASOLID(#78,#82,#83,0.25);
#85=IFCBOOLEANRESULT(.UNION.,#75,#84);
#86=IFCSHAPEREPRESENTATION(#12,'Body','CSG',(#85));
#87=IFCPRODUCTDEFINITIONSHAPE($,$,(#86));
#88=IFCCARTESIANPOINT((1.75,0.,3.));
#89=IFCDIRECTION((1.,-0.,-0.));
#90=IFCDIRECTION((0.,1.,0.));
#91=IFCAXIS2PLACEMENT3D(#88,#89,#90);
#92=IFCLOCALPLACEMENT(#65,#91);
#93=IFCDISTRIBUTIONPORT('2ayj1EznfIIO11cXGwrVK6',$,'C/a',$,$,#92,$,.SINK.,.PIPE.,$);
#94=IFCRELNESTS('2pqkMMWUTS7RMv6ksvs5f7',$,$,$,#66,(#93));
#95=IFCCARTESIANPOINT((2.25,0.,3.));
#96=IFCDIRECTION((1.,0.,0.));
#97=IFCDIRECTION((0.,1.,0.));
#98=IFCAXIS2PLACEMENT3D(#95,#96,#97);
#99=IFCLOCALPLACEMENT(#65,#98);
#100=IFCDISTRIBUTIONPORT('0FUk2G$F1KR8VugCknykzV',$,'C/b',$,$,#99,$,.SOURCE.,.PIPE.,$);
#101=IFCRELNESTS('29fZ8dwz9StQ1_0yzKykbH',$,$,$,#66,(#100));
#102=IFCCARTESIANPOINT((2.,0.25,3.));
#103=IFCDIRECTION((0.,1.,0.));
#104=IFCDIRECTION((1.,0.,0.));
#105=IFCAXIS2PLACEMENT3D(#102,#103,#104);
#106=IFCLOCALPLACEMENT(#65,#105);
#107=IFCDISTRIBUTIONPORT('2YY4qgbsbNE8sjwkLEeSCX',$,'C/branch',$,$,#106,$,.SOURCE.,.PIPE.,$);
#108=IFCRELNESTS('36EH0NmcjJtwV93Q7epndk',$,$,$,#66,(#107));
#109=IFCCARTESIANPOINT((0.,0.,0.));
#110=IFCDIRECTION((0.,0.,1.));
#111=IFCDIRECTION((1.,0.,0.));
#112=IFCAXIS2PLACEMENT3D(#109,#110,#111);
#113=IFCLOCALPLACEMENT($,#112);
#114=IFCPIPEFITTING('3xWrPJ_ILSUwwPSQ9w9GHT',$,'reference-C-D/D',$,'OMA_NETWORK_TEE',#113,#135,$,.JUNCTION.);
#115=IFCCARTESIANPOINT((0.,0.));
#116=IFCAXIS2PLACEMENT2D(#115,$);
#117=IFCCIRCLEPROFILEDEF(.AREA.,$,#116,0.09375);
#118=IFCCARTESIANPOINT((2.75,0.,3.));
#119=IFCDIRECTION((1.,0.,0.));
#120=IFCDIRECTION((0.,1.,0.));
#121=IFCAXIS2PLACEMENT3D(#118,#119,#120);
#122=IFCDIRECTION((0.,0.,1.));
#123=IFCEXTRUDEDAREASOLID(#117,#121,#122,0.5);
#124=IFCCARTESIANPOINT((0.,0.));
#125=IFCAXIS2PLACEMENT2D(#124,$);
#126=IFCCIRCLEPROFILEDEF(.AREA.,$,#125,0.09375);
#127=IFCCARTESIANPOINT((3.,0.,3.));
#128=IFCDIRECTION((0.,1.,0.));
#129=IFCDIRECTION((1.,0.,0.));
#130=IFCAXIS2PLACEMENT3D(#127,#128,#129);
#131=IFCDIRECTION((0.,0.,1.));
#132=IFCEXTRUDEDAREASOLID(#126,#130,#131,0.25);
#133=IFCBOOLEANRESULT(.UNION.,#123,#132);
#134=IFCSHAPEREPRESENTATION(#12,'Body','CSG',(#133));
#135=IFCPRODUCTDEFINITIONSHAPE($,$,(#134));
#136=IFCCARTESIANPOINT((2.75,0.,3.));
#137=IFCDIRECTION((1.,-0.,-0.));
#138=IFCDIRECTION((0.,1.,0.));
#139=IFCAXIS2PLACEMENT3D(#136,#137,#138);
#140=IFCLOCALPLACEMENT(#113,#139);
#141=IFCDISTRIBUTIONPORT('2aY14PZvvImwiS_ZnMlofa',$,'D/a',$,$,#140,$,.SINK.,.PIPE.,$);
#142=IFCRELNESTS('2L7DMFrn1KiPp$nl6GLM4Z',$,$,$,#114,(#141));
#143=IFCCARTESIANPOINT((3.25,0.,3.));
#144=IFCDIRECTION((1.,0.,0.));
#145=IFCDIRECTION((0.,1.,0.));
#146=IFCAXIS2PLACEMENT3D(#143,#144,#145);
#147=IFCLOCALPLACEMENT(#113,#146);
#148=IFCDISTRIBUTIONPORT('0wRb1UCpPNYeMztWTr_3VM',$,'D/b',$,$,#147,$,.SOURCE.,.PIPE.,$);
#149=IFCRELNESTS('1p7IMviCXQDfyo3LR74HYp',$,$,$,#114,(#148));
#150=IFCCARTESIANPOINT((3.,0.25,3.));
#151=IFCDIRECTION((0.,1.,0.));
#152=IFCDIRECTION((1.,0.,0.));
#153=IFCAXIS2PLACEMENT3D(#150,#151,#152);
#154=IFCLOCALPLACEMENT(#113,#153);
#155=IFCDISTRIBUTIONPORT('0xtdu2ZFTPkOWV1tob7g1T',$,'D/branch',$,$,#154,$,.SOURCE.,.PIPE.,$);
#156=IFCRELNESTS('3dPvHVEoLPOwi70kgEnVrm',$,$,$,#114,(#155));
#157=IFCCARTESIANPOINT((0.,0.,0.));
#158=IFCDIRECTION((0.,0.,1.));
#159=IFCDIRECTION((1.,0.,0.));
#160=IFCAXIS2PLACEMENT3D(#157,#158,#159);
#161=IFCLOCALPLACEMENT($,#160);
#162=IFCPIPESEGMENT('0_Q7yMCsTRFwISwtt0EfaR',$,'reference-C-D/C-D-0',$,'OMA_NETWORK_SEGMENT',#161,#173,$,.RIGIDSEGMENT.);
#163=IFCCARTESIANPOINT((0.,0.));
#164=IFCAXIS2PLACEMENT2D(#163,$);
#165=IFCCIRCLEPROFILEDEF(.AREA.,$,#164,0.09375);
#166=IFCCARTESIANPOINT((2.25,0.,3.));
#167=IFCDIRECTION((1.,0.,0.));
#168=IFCDIRECTION((0.,1.,0.));
#169=IFCAXIS2PLACEMENT3D(#166,#167,#168);
#170=IFCDIRECTION((0.,0.,1.));
#171=IFCEXTRUDEDAREASOLID(#165,#169,#170,0.5);
#172=IFCSHAPEREPRESENTATION(#12,'Body','SweptSolid',(#171));
#173=IFCPRODUCTDEFINITIONSHAPE($,$,(#172));
#174=IFCCARTESIANPOINT((2.25,0.,3.));
#175=IFCDIRECTION((1.,-0.,-0.));
#176=IFCDIRECTION((0.,1.,0.));
#177=IFCAXIS2PLACEMENT3D(#174,#175,#176);
#178=IFCLOCALPLACEMENT(#161,#177);
#179=IFCDISTRIBUTIONPORT('3tf6Qi4_vRnxWwj2C6hZN$',$,'C-D-0/a',$,$,#178,$,.SINK.,.PIPE.,$);
#180=IFCRELNESTS('3$iHbPMdfPsgoC$ext9eBJ',$,$,$,#162,(#179));
#181=IFCCARTESIANPOINT((2.75,0.,3.));
#182=IFCDIRECTION((1.,0.,0.));
#183=IFCDIRECTION((0.,1.,0.));
#184=IFCAXIS2PLACEMENT3D(#181,#182,#183);
#185=IFCLOCALPLACEMENT(#161,#184);
#186=IFCDISTRIBUTIONPORT('1wK2Wvqj1IIAxcqv_eaznT',$,'C-D-0/b',$,$,#185,$,.SOURCE.,.PIPE.,$);
#187=IFCRELNESTS('1bo3OhMJPToRjDAvixYv28',$,$,$,#162,(#186));
#188=IFCCARTESIANPOINT((0.,0.,0.));
#189=IFCDIRECTION((0.,0.,1.));
#190=IFCDIRECTION((1.,0.,0.));
#191=IFCAXIS2PLACEMENT3D(#188,#189,#190);
#192=IFCLOCALPLACEMENT($,#191);
#193=IFCPIPESEGMENT('39Wq2ymNLQIAlSWhI85Og2',$,'reference-C-D/C-c-0',$,'OMA_NETWORK_SEGMENT',#192,#204,$,.RIGIDSEGMENT.);
#194=IFCCARTESIANPOINT((0.,0.));
#195=IFCAXIS2PLACEMENT2D(#194,$);
#196=IFCCIRCLEPROFILEDEF(.AREA.,$,#195,0.09375);
#197=IFCCARTESIANPOINT((2.,0.25,3.));
#198=IFCDIRECTION((0.,1.,0.));
#199=IFCDIRECTION((1.,0.,0.));
#200=IFCAXIS2PLACEMENT3D(#197,#198,#199);
#201=IFCDIRECTION((0.,0.,1.));
#202=IFCEXTRUDEDAREASOLID(#196,#200,#201,2.75);
#203=IFCSHAPEREPRESENTATION(#12,'Body','SweptSolid',(#202));
#204=IFCPRODUCTDEFINITIONSHAPE($,$,(#203));
#205=IFCCARTESIANPOINT((2.,0.25,3.));
#206=IFCDIRECTION((-0.,1.,-0.));
#207=IFCDIRECTION((1.,0.,0.));
#208=IFCAXIS2PLACEMENT3D(#205,#206,#207);
#209=IFCLOCALPLACEMENT(#192,#208);
#210=IFCDISTRIBUTIONPORT('3KZJN1YIDQ99PBwX8EFn3v',$,'C-c-0/a',$,$,#209,$,.SINK.,.PIPE.,$);
#211=IFCRELNESTS('1ArMXRjMzVq8RLJdba1r$o',$,$,$,#193,(#210));
#212=IFCCARTESIANPOINT((2.,3.,3.));
#213=IFCDIRECTION((0.,1.,0.));
#214=IFCDIRECTION((1.,0.,0.));
#215=IFCAXIS2PLACEMENT3D(#212,#213,#214);
#216=IFCLOCALPLACEMENT(#192,#215);
#217=IFCDISTRIBUTIONPORT('3FBlbafyPSPhXLuGD0rgSz',$,'C-c-0/b',$,$,#216,$,.SOURCE.,.PIPE.,$);
#218=IFCRELNESTS('245jznFz9TPQZZC0e1Kdf9',$,$,$,#193,(#217));
#219=IFCCARTESIANPOINT((0.,0.,0.));
#220=IFCDIRECTION((0.,0.,1.));
#221=IFCDIRECTION((1.,0.,0.));
#222=IFCAXIS2PLACEMENT3D(#219,#220,#221);
#223=IFCLOCALPLACEMENT($,#222);
#224=IFCPIPESEGMENT('1JtPMKc2nOAwZoX2i1jBFy',$,'reference-C-D/D-a-0',$,'OMA_NETWORK_SEGMENT',#223,#235,$,.RIGIDSEGMENT.);
#225=IFCCARTESIANPOINT((0.,0.));
#226=IFCAXIS2PLACEMENT2D(#225,$);
#227=IFCCIRCLEPROFILEDEF(.AREA.,$,#226,0.09375);
#228=IFCCARTESIANPOINT((3.,0.25,3.));
#229=IFCDIRECTION((0.,1.,0.));
#230=IFCDIRECTION((1.,0.,0.));
#231=IFCAXIS2PLACEMENT3D(#228,#229,#230);
#232=IFCDIRECTION((0.,0.,1.));
#233=IFCEXTRUDEDAREASOLID(#227,#231,#232,0.5);
#234=IFCSHAPEREPRESENTATION(#12,'Body','SweptSolid',(#233));
#235=IFCPRODUCTDEFINITIONSHAPE($,$,(#234));
#236=IFCCARTESIANPOINT((3.,0.25,3.));
#237=IFCDIRECTION((-0.,1.,-0.));
#238=IFCDIRECTION((1.,0.,0.));
#239=IFCAXIS2PLACEMENT3D(#236,#237,#238);
#240=IFCLOCALPLACEMENT(#223,#239);
#241=IFCDISTRIBUTIONPORT('3D8VTFB7LHw8h5FJZFtaQr',$,'D-a-0/a',$,$,#240,$,.SINK.,.PIPE.,$);
#242=IFCRELNESTS('1szGhrTPDInx8tU9obY6eo',$,$,$,#224,(#241));
#243=IFCCARTESIANPOINT((3.,0.75,3.));
#244=IFCDIRECTION((0.,1.,0.));
#245=IFCDIRECTION((1.,0.,0.));
#246=IFCAXIS2PLACEMENT3D(#243,#244,#245);
#247=IFCLOCALPLACEMENT(#223,#246);
#248=IFCDISTRIBUTIONPORT('0MaaYVEkLTHgDOTmhdqqSU',$,'D-a-0/b',$,$,#247,$,.SOURCE.,.PIPE.,$);
#249=IFCRELNESTS('0X7$UbuCrPZhTqCkW5N8tz',$,$,$,#224,(#248));
#250=IFCCARTESIANPOINT((0.,0.,0.));
#251=IFCDIRECTION((0.,0.,1.));
#252=IFCDIRECTION((1.,0.,0.));
#253=IFCAXIS2PLACEMENT3D(#250,#251,#252);
#254=IFCLOCALPLACEMENT($,#253);
#255=IFCPIPEFITTING('1H05mKt5XVQ9bY4f2j6_e5',$,'reference-C-D/D-a-1',$,'OMA_NETWORK_ELBOW',#254,#268,$,.BEND.);
#256=IFCCARTESIANPOINT((0.25,0.));
#257=IFCAXIS2PLACEMENT2D(#256,$);
#258=IFCCIRCLEPROFILEDEF(.AREA.,$,#257,0.09375);
#259=IFCCARTESIANPOINT((3.,0.75,3.25));
#260=IFCDIRECTION((0.,1.,0.));
#261=IFCDIRECTION((0.,0.,-1.));
#262=IFCAXIS2PLACEMENT3D(#259,#260,#261);
#263=IFCCARTESIANPOINT((0.,0.,0.));
#264=IFCDIRECTION((0.,-1.,0.));
#265=IFCAXIS1PLACEMENT(#263,#264);
#266=IFCREVOLVEDAREASOLID(#258,#262,#265,1.5707963267948966);
#267=IFCSHAPEREPRESENTATION(#12,'Body','SweptSolid',(#266));
#268=IFCPRODUCTDEFINITIONSHAPE($,$,(#267));
#269=IFCCARTESIANPOINT((3.,0.75,3.));
#270=IFCDIRECTION((-0.,1.,-0.));
#271=IFCDIRECTION((1.,0.,0.));
#272=IFCAXIS2PLACEMENT3D(#269,#270,#271);
#273=IFCLOCALPLACEMENT(#254,#272);
#274=IFCDISTRIBUTIONPORT('1Yk_46RLnUcuq4QR5GFuDv',$,'D-a-1/a',$,$,#273,$,.SINK.,.PIPE.,$);
#275=IFCRELNESTS('20VIop1yfIW9BogkpEG0$H',$,$,$,#255,(#274));
#276=IFCCARTESIANPOINT((3.,1.,3.25));
#277=IFCDIRECTION((0.,0.,1.));
#278=IFCDIRECTION((1.,0.,0.));
#279=IFCAXIS2PLACEMENT3D(#276,#277,#278);
#280=IFCLOCALPLACEMENT(#254,#279);
#281=IFCDISTRIBUTIONPORT('1iNR38ypzQfvQMVCngsjXr',$,'D-a-1/b',$,$,#280,$,.SOURCE.,.PIPE.,$);
#282=IFCRELNESTS('2Gt614Z4DGegYppALZkJ0V',$,$,$,#255,(#281));
#283=IFCCARTESIANPOINT((0.,0.,0.));
#284=IFCDIRECTION((0.,0.,1.));
#285=IFCDIRECTION((1.,0.,0.));
#286=IFCAXIS2PLACEMENT3D(#283,#284,#285);
#287=IFCLOCALPLACEMENT($,#286);
#288=IFCPIPESEGMENT('3eKxgsYQ5KJOpLdX1_eOa0',$,'reference-C-D/D-a-2',$,'OMA_NETWORK_SEGMENT',#287,#299,$,.RIGIDSEGMENT.);
#289=IFCCARTESIANPOINT((0.,0.));
#290=IFCAXIS2PLACEMENT2D(#289,$);
#291=IFCCIRCLEPROFILEDEF(.AREA.,$,#290,0.09375);
#292=IFCCARTESIANPOINT((3.,1.,3.25));
#293=IFCDIRECTION((0.,0.,1.));
#294=IFCDIRECTION((1.,0.,0.));
#295=IFCAXIS2PLACEMENT3D(#292,#293,#294);
#296=IFCDIRECTION((0.,0.,1.));
#297=IFCEXTRUDEDAREASOLID(#291,#295,#296,0.5);
#298=IFCSHAPEREPRESENTATION(#12,'Body','SweptSolid',(#297));
#299=IFCPRODUCTDEFINITIONSHAPE($,$,(#298));
#300=IFCCARTESIANPOINT((3.,1.,3.25));
#301=IFCDIRECTION((-0.,-0.,1.));
#302=IFCDIRECTION((1.,0.,0.));
#303=IFCAXIS2PLACEMENT3D(#300,#301,#302);
#304=IFCLOCALPLACEMENT(#287,#303);
#305=IFCDISTRIBUTIONPORT('06owgLGzbILBxmjWGTEq07',$,'D-a-2/a',$,$,#304,$,.SINK.,.PIPE.,$);
#306=IFCRELNESTS('0UD0m2u85TXPyGuBqjMgA5',$,$,$,#288,(#305));
#307=IFCCARTESIANPOINT((3.,1.,3.75));
#308=IFCDIRECTION((0.,0.,1.));
#309=IFCDIRECTION((1.,0.,0.));
#310=IFCAXIS2PLACEMENT3D(#307,#308,#309);
#311=IFCLOCALPLACEMENT(#287,#310);
#312=IFCDISTRIBUTIONPORT('2DPRaV171LDuv4tx24SIL6',$,'D-a-2/b',$,$,#311,$,.SOURCE.,.PIPE.,$);
#313=IFCRELNESTS('2X4U5GvcDL69F26vMLYTio',$,$,$,#288,(#312));
#314=IFCCARTESIANPOINT((0.,0.,0.));
#315=IFCDIRECTION((0.,0.,1.));
#316=IFCDIRECTION((1.,0.,0.));
#317=IFCAXIS2PLACEMENT3D(#314,#315,#316);
#318=IFCLOCALPLACEMENT($,#317);
#319=IFCPIPEFITTING('2bkea1VVfVXhh9PEGINGs$',$,'reference-C-D/D-a-3',$,'OMA_NETWORK_ELBOW',#318,#332,$,.BEND.);
#320=IFCCARTESIANPOINT((0.25,0.));
#321=IFCAXIS2PLACEMENT2D(#320,$);
#322=IFCCIRCLEPROFILEDEF(.AREA.,$,#321,0.09375);
#323=IFCCARTESIANPOINT((2.75,1.,3.75));
#324=IFCDIRECTION((0.,0.,1.));
#325=IFCDIRECTION((1.,0.,0.));
#326=IFCAXIS2PLACEMENT3D(#323,#324,#325);
#327=IFCCARTESIANPOINT((0.,0.,0.));
#328=IFCDIRECTION((0.,-1.,0.));
#329=IFCAXIS1PLACEMENT(#327,#328);
#330=IFCREVOLVEDAREASOLID(#322,#326,#329,1.5707963267948966);
#331=IFCSHAPEREPRESENTATION(#12,'Body','SweptSolid',(#330));
#332=IFCPRODUCTDEFINITIONSHAPE($,$,(#331));
#333=IFCCARTESIANPOINT((3.,1.,3.75));
#334=IFCDIRECTION((-0.,-0.,1.));
#335=IFCDIRECTION((1.,0.,0.));
#336=IFCAXIS2PLACEMENT3D(#333,#334,#335);
#337=IFCLOCALPLACEMENT(#318,#336);
#338=IFCDISTRIBUTIONPORT('2egFV4VhnK0hCQ66U_VFLA',$,'D-a-3/a',$,$,#337,$,.SINK.,.PIPE.,$);
#339=IFCRELNESTS('0dwzcEddTNuQIuyBKOCv6P',$,$,$,#319,(#338));
#340=IFCCARTESIANPOINT((2.75,1.,4.));
#341=IFCDIRECTION((-1.,0.,0.));
#342=IFCDIRECTION((0.,1.,0.));
#343=IFCAXIS2PLACEMENT3D(#340,#341,#342);
#344=IFCLOCALPLACEMENT(#318,#343);
#345=IFCDISTRIBUTIONPORT('32RX9FhcDS_eK$hDDswuHs',$,'D-a-3/b',$,$,#344,$,.SOURCE.,.PIPE.,$);
#346=IFCRELNESTS('3i4tWM6VvLfx2zD0mN2ct8',$,$,$,#319,(#345));
#347=IFCCARTESIANPOINT((0.,0.,0.));
#348=IFCDIRECTION((0.,0.,1.));
#349=IFCDIRECTION((1.,0.,0.));
#350=IFCAXIS2PLACEMENT3D(#347,#348,#349);
#351=IFCLOCALPLACEMENT($,#350);
#352=IFCPIPESEGMENT('3AqFRjr2jPieMjWdYHCpgj',$,'reference-C-D/D-a-4',$,'OMA_NETWORK_SEGMENT',#351,#363,$,.RIGIDSEGMENT.);
#353=IFCCARTESIANPOINT((0.,0.));
#354=IFCAXIS2PLACEMENT2D(#353,$);
#355=IFCCIRCLEPROFILEDEF(.AREA.,$,#354,0.09375);
#356=IFCCARTESIANPOINT((2.75,1.,4.));
#357=IFCDIRECTION((-1.,0.,0.));
#358=IFCDIRECTION((0.,1.,0.));
#359=IFCAXIS2PLACEMENT3D(#356,#357,#358);
#360=IFCDIRECTION((0.,0.,1.));
#361=IFCEXTRUDEDAREASOLID(#355,#359,#360,1.5);
#362=IFCSHAPEREPRESENTATION(#12,'Body','SweptSolid',(#361));
#363=IFCPRODUCTDEFINITIONSHAPE($,$,(#362));
#364=IFCCARTESIANPOINT((2.75,1.,4.));
#365=IFCDIRECTION((-1.,-0.,-0.));
#366=IFCDIRECTION((0.,1.,0.));
#367=IFCAXIS2PLACEMENT3D(#364,#365,#366);
#368=IFCLOCALPLACEMENT(#351,#367);
#369=IFCDISTRIBUTIONPORT('0YxU81x8bOZhfjETu73DnD',$,'D-a-4/a',$,$,#368,$,.SINK.,.PIPE.,$);
#370=IFCRELNESTS('3WJnIL5DjL5gXlXho2R0Eo',$,$,$,#352,(#369));
#371=IFCCARTESIANPOINT((1.25,1.,4.));
#372=IFCDIRECTION((-1.,0.,0.));
#373=IFCDIRECTION((0.,1.,0.));
#374=IFCAXIS2PLACEMENT3D(#371,#372,#373);
#375=IFCLOCALPLACEMENT(#351,#374);
#376=IFCDISTRIBUTIONPORT('0f2sdnH7XJfvln0weD$3rq',$,'D-a-4/b',$,$,#375,$,.SOURCE.,.PIPE.,$);
#377=IFCRELNESTS('05KufznCDHYRtAbooHaCpE',$,$,$,#352,(#376));
#378=IFCCARTESIANPOINT((0.,0.,0.));
#379=IFCDIRECTION((0.,0.,1.));
#380=IFCDIRECTION((1.,0.,0.));
#381=IFCAXIS2PLACEMENT3D(#378,#379,#380);
#382=IFCLOCALPLACEMENT($,#381);
#383=IFCPIPEFITTING('2Pmdkxu$XNJfXCsRVPvKT7',$,'reference-C-D/D-a-5',$,'OMA_NETWORK_ELBOW',#382,#396,$,.BEND.);
#384=IFCCARTESIANPOINT((0.25,0.));
#385=IFCAXIS2PLACEMENT2D(#384,$);
#386=IFCCIRCLEPROFILEDEF(.AREA.,$,#385,0.09375);
#387=IFCCARTESIANPOINT((1.25,1.25,4.));
#388=IFCDIRECTION((-1.,0.,0.));
#389=IFCDIRECTION((0.,-1.,0.));
#390=IFCAXIS2PLACEMENT3D(#387,#388,#389);
#391=IFCCARTESIANPOINT((0.,0.,0.));
#392=IFCDIRECTION((0.,-1.,0.));
#393=IFCAXIS1PLACEMENT(#391,#392);
#394=IFCREVOLVEDAREASOLID(#386,#390,#393,1.5707963267948966);
#395=IFCSHAPEREPRESENTATION(#12,'Body','SweptSolid',(#394));
#396=IFCPRODUCTDEFINITIONSHAPE($,$,(#395));
#397=IFCCARTESIANPOINT((1.25,1.,4.));
#398=IFCDIRECTION((-1.,-0.,-0.));
#399=IFCDIRECTION((0.,1.,0.));
#400=IFCAXIS2PLACEMENT3D(#397,#398,#399);
#401=IFCLOCALPLACEMENT(#382,#400);
#402=IFCDISTRIBUTIONPORT('1JhB90syDMHQJANA4Q$axL',$,'D-a-5/a',$,$,#401,$,.SINK.,.PIPE.,$);
#403=IFCRELNESTS('3PxzFFZ39JYP7HC5arI4rm',$,$,$,#383,(#402));
#404=IFCCARTESIANPOINT((1.,1.25,4.));
#405=IFCDIRECTION((0.,1.,0.));
#406=IFCDIRECTION((1.,0.,0.));
#407=IFCAXIS2PLACEMENT3D(#404,#405,#406);
#408=IFCLOCALPLACEMENT(#382,#407);
#409=IFCDISTRIBUTIONPORT('0bFiIkRirQRuCDq0ViKrzb',$,'D-a-5/b',$,$,#408,$,.SOURCE.,.PIPE.,$);
#410=IFCRELNESTS('12fj_3OPTLZv8QGGAtx1BF',$,$,$,#383,(#409));
#411=IFCCARTESIANPOINT((0.,0.,0.));
#412=IFCDIRECTION((0.,0.,1.));
#413=IFCDIRECTION((1.,0.,0.));
#414=IFCAXIS2PLACEMENT3D(#411,#412,#413);
#415=IFCLOCALPLACEMENT($,#414);
#416=IFCPIPESEGMENT('1x$5r2JPzR0hNoi3X6X3dD',$,'reference-C-D/D-a-6',$,'OMA_NETWORK_SEGMENT',#415,#427,$,.RIGIDSEGMENT.);
#417=IFCCARTESIANPOINT((0.,0.));
#418=IFCAXIS2PLACEMENT2D(#417,$);
#419=IFCCIRCLEPROFILEDEF(.AREA.,$,#418,0.09375);
#420=IFCCARTESIANPOINT((1.,1.25,4.));
#421=IFCDIRECTION((0.,1.,0.));
#422=IFCDIRECTION((1.,0.,0.));
#423=IFCAXIS2PLACEMENT3D(#420,#421,#422);
#424=IFCDIRECTION((0.,0.,1.));
#425=IFCEXTRUDEDAREASOLID(#419,#423,#424,0.75);
#426=IFCSHAPEREPRESENTATION(#12,'Body','SweptSolid',(#425));
#427=IFCPRODUCTDEFINITIONSHAPE($,$,(#426));
#428=IFCCARTESIANPOINT((1.,1.25,4.));
#429=IFCDIRECTION((-0.,1.,-0.));
#430=IFCDIRECTION((1.,0.,0.));
#431=IFCAXIS2PLACEMENT3D(#428,#429,#430);
#432=IFCLOCALPLACEMENT(#415,#431);
#433=IFCDISTRIBUTIONPORT('2F1LWq0xHKOO7xxFF4zgX7',$,'D-a-6/a',$,$,#432,$,.SINK.,.PIPE.,$);
#434=IFCRELNESTS('2VER5DWA5GXfVUol2$wX95',$,$,$,#416,(#433));
#435=IFCCARTESIANPOINT((1.,2.,4.));
#436=IFCDIRECTION((0.,1.,0.));
#437=IFCDIRECTION((1.,0.,0.));
#438=IFCAXIS2PLACEMENT3D(#435,#436,#437);
#439=IFCLOCALPLACEMENT(#415,#438);
#440=IFCDISTRIBUTIONPORT('1eEEYsW1bSoPRPRjtmJkb3',$,'D-a-6/b',$,$,#439,$,.SOURCE.,.PIPE.,$);
#441=IFCRELNESTS('1AdQICq8TM$vPOlwuIatQN',$,$,$,#416,(#440));
#442=IFCCARTESIANPOINT((0.,0.,0.));
#443=IFCDIRECTION((0.,0.,1.));
#444=IFCDIRECTION((1.,0.,0.));
#445=IFCAXIS2PLACEMENT3D(#442,#443,#444);
#446=IFCLOCALPLACEMENT($,#445);
#447=IFCPIPEFITTING('0E1nQb431RzuP4EffELlqF',$,'reference-C-D/D-a-7',$,'OMA_NETWORK_ELBOW',#446,#460,$,.BEND.);
#448=IFCCARTESIANPOINT((0.25,0.));
#449=IFCAXIS2PLACEMENT2D(#448,$);
#450=IFCCIRCLEPROFILEDEF(.AREA.,$,#449,0.09375);
#451=IFCCARTESIANPOINT((1.,2.,3.75));
#452=IFCDIRECTION((0.,1.,0.));
#453=IFCDIRECTION((0.,0.,1.));
#454=IFCAXIS2PLACEMENT3D(#451,#452,#453);
#455=IFCCARTESIANPOINT((0.,0.,0.));
#456=IFCDIRECTION((0.,-1.,0.));
#457=IFCAXIS1PLACEMENT(#455,#456);
#458=IFCREVOLVEDAREASOLID(#450,#454,#457,1.5707963267948966);
#459=IFCSHAPEREPRESENTATION(#12,'Body','SweptSolid',(#458));
#460=IFCPRODUCTDEFINITIONSHAPE($,$,(#459));
#461=IFCCARTESIANPOINT((1.,2.,4.));
#462=IFCDIRECTION((-0.,1.,-0.));
#463=IFCDIRECTION((1.,0.,0.));
#464=IFCAXIS2PLACEMENT3D(#461,#462,#463);
#465=IFCLOCALPLACEMENT(#446,#464);
#466=IFCDISTRIBUTIONPORT('2Roh1zvRvLK9W0$22Y8Ik6',$,'D-a-7/a',$,$,#465,$,.SINK.,.PIPE.,$);
#467=IFCRELNESTS('393yyryybQFwdx37$9YSKJ',$,$,$,#447,(#466));
#468=IFCCARTESIANPOINT((1.,2.25,3.75));
#469=IFCDIRECTION((0.,0.,-1.));
#470=IFCDIRECTION((1.,0.,0.));
#471=IFCAXIS2PLACEMENT3D(#468,#469,#470);
#472=IFCLOCALPLACEMENT(#446,#471);
#473=IFCDISTRIBUTIONPORT('2$ziQQ6uLMm8FVgUltpaLG',$,'D-a-7/b',$,$,#472,$,.SOURCE.,.PIPE.,$);
#474=IFCRELNESTS('3c4FLfOZ9G9uMJ1nDScTUV',$,$,$,#447,(#473));
#475=IFCCARTESIANPOINT((0.,0.,0.));
#476=IFCDIRECTION((0.,0.,1.));
#477=IFCDIRECTION((1.,0.,0.));
#478=IFCAXIS2PLACEMENT3D(#475,#476,#477);
#479=IFCLOCALPLACEMENT($,#478);
#480=IFCPIPESEGMENT('1dwrCjAebIO8_MTyqeedej',$,'reference-C-D/D-a-8',$,'OMA_NETWORK_SEGMENT',#479,#491,$,.RIGIDSEGMENT.);
#481=IFCCARTESIANPOINT((0.,0.));
#482=IFCAXIS2PLACEMENT2D(#481,$);
#483=IFCCIRCLEPROFILEDEF(.AREA.,$,#482,0.09375);
#484=IFCCARTESIANPOINT((1.,2.25,3.75));
#485=IFCDIRECTION((0.,0.,-1.));
#486=IFCDIRECTION((1.,0.,0.));
#487=IFCAXIS2PLACEMENT3D(#484,#485,#486);
#488=IFCDIRECTION((0.,0.,1.));
#489=IFCEXTRUDEDAREASOLID(#483,#487,#488,0.5);
#490=IFCSHAPEREPRESENTATION(#12,'Body','SweptSolid',(#489));
#491=IFCPRODUCTDEFINITIONSHAPE($,$,(#490));
#492=IFCCARTESIANPOINT((1.,2.25,3.75));
#493=IFCDIRECTION((-0.,-0.,-1.));
#494=IFCDIRECTION((1.,0.,0.));
#495=IFCAXIS2PLACEMENT3D(#492,#493,#494);
#496=IFCLOCALPLACEMENT(#479,#495);
#497=IFCDISTRIBUTIONPORT('182Pe3zuLOBQAlAX4CzFMd',$,'D-a-8/a',$,$,#496,$,.SINK.,.PIPE.,$);
#498=IFCRELNESTS('0qhp2945DOZB2J_6$rf9Q2',$,$,$,#480,(#497));
#499=IFCCARTESIANPOINT((1.,2.25,3.25));
#500=IFCDIRECTION((0.,0.,-1.));
#501=IFCDIRECTION((1.,0.,0.));
#502=IFCAXIS2PLACEMENT3D(#499,#500,#501);
#503=IFCLOCALPLACEMENT(#479,#502);
#504=IFCDISTRIBUTIONPORT('0tDjIlhZjGAB0QEMRiMbWP',$,'D-a-8/b',$,$,#503,$,.SOURCE.,.PIPE.,$);
#505=IFCRELNESTS('03BUCFIqjTJf$BiSCOXBdw',$,$,$,#480,(#504));
#506=IFCCARTESIANPOINT((0.,0.,0.));
#507=IFCDIRECTION((0.,0.,1.));
#508=IFCDIRECTION((1.,0.,0.));
#509=IFCAXIS2PLACEMENT3D(#506,#507,#508);
#510=IFCLOCALPLACEMENT($,#509);
#511=IFCPIPEFITTING('3ynT2$$djUfhg1$BnUkM3S',$,'reference-C-D/D-a-9',$,'OMA_NETWORK_ELBOW',#510,#524,$,.BEND.);
#512=IFCCARTESIANPOINT((0.25,0.));
#513=IFCAXIS2PLACEMENT2D(#512,$);
#514=IFCCIRCLEPROFILEDEF(.AREA.,$,#513,0.09375);
#515=IFCCARTESIANPOINT((1.,2.5,3.25));
#516=IFCDIRECTION((0.,0.,-1.));
#517=IFCDIRECTION((0.,-1.,0.));
#518=IFCAXIS2PLACEMENT3D(#515,#516,#517);
#519=IFCCARTESIANPOINT((0.,0.,0.));
#520=IFCDIRECTION((0.,-1.,0.));
#521=IFCAXIS1PLACEMENT(#519,#520);
#522=IFCREVOLVEDAREASOLID(#514,#518,#521,1.5707963267948966);
#523=IFCSHAPEREPRESENTATION(#12,'Body','SweptSolid',(#522));
#524=IFCPRODUCTDEFINITIONSHAPE($,$,(#523));
#525=IFCCARTESIANPOINT((1.,2.25,3.25));
#526=IFCDIRECTION((-0.,-0.,-1.));
#527=IFCDIRECTION((1.,0.,0.));
#528=IFCAXIS2PLACEMENT3D(#525,#526,#527);
#529=IFCLOCALPLACEMENT(#510,#528);
#530=IFCDISTRIBUTIONPORT('37qUAqf55V0AuWhA_ZwheU',$,'D-a-9/a',$,$,#529,$,.SINK.,.PIPE.,$);
#531=IFCRELNESTS('3JL6aR0FLMavKH16v_cEDA',$,$,$,#511,(#530));
#532=IFCCARTESIANPOINT((1.,2.5,3.));
#533=IFCDIRECTION((0.,1.,0.));
#534=IFCDIRECTION((1.,0.,0.));
#535=IFCAXIS2PLACEMENT3D(#532,#533,#534);
#536=IFCLOCALPLACEMENT(#510,#535);
#537=IFCDISTRIBUTIONPORT('2MbcAg8tPVYg5qEZ89fqND',$,'D-a-9/b',$,$,#536,$,.SOURCE.,.PIPE.,$);
#538=IFCRELNESTS('06cSukCbXIlwcidqo_I6Yj',$,$,$,#511,(#537));
#539=IFCCARTESIANPOINT((0.,0.,0.));
#540=IFCDIRECTION((0.,0.,1.));
#541=IFCDIRECTION((1.,0.,0.));
#542=IFCAXIS2PLACEMENT3D(#539,#540,#541);
#543=IFCLOCALPLACEMENT($,#542);
#544=IFCPIPESEGMENT('3duR7OCtHUXhG5RhVCuZrI',$,'reference-C-D/D-a-10',$,'OMA_NETWORK_SEGMENT',#543,#555,$,.RIGIDSEGMENT.);
#545=IFCCARTESIANPOINT((0.,0.));
#546=IFCAXIS2PLACEMENT2D(#545,$);
#547=IFCCIRCLEPROFILEDEF(.AREA.,$,#546,0.09375);
#548=IFCCARTESIANPOINT((1.,2.5,3.));
#549=IFCDIRECTION((0.,1.,0.));
#550=IFCDIRECTION((1.,0.,0.));
#551=IFCAXIS2PLACEMENT3D(#548,#549,#550);
#552=IFCDIRECTION((0.,0.,1.));
#553=IFCEXTRUDEDAREASOLID(#547,#551,#552,0.5);
#554=IFCSHAPEREPRESENTATION(#12,'Body','SweptSolid',(#553));
#555=IFCPRODUCTDEFINITIONSHAPE($,$,(#554));
#556=IFCCARTESIANPOINT((1.,2.5,3.));
#557=IFCDIRECTION((-0.,1.,-0.));
#558=IFCDIRECTION((1.,0.,0.));
#559=IFCAXIS2PLACEMENT3D(#556,#557,#558);
#560=IFCLOCALPLACEMENT(#543,#559);
#561=IFCDISTRIBUTIONPORT('2tFJ9TJlXPO93x_0Qonu7U',$,'D-a-10/a',$,$,#560,$,.SINK.,.PIPE.,$);
#562=IFCRELNESTS('2olLjJKHDI$vyzGtZ2sQkr',$,$,$,#544,(#561));
#563=IFCCARTESIANPOINT((1.,3.,3.));
#564=IFCDIRECTION((0.,1.,0.));
#565=IFCDIRECTION((1.,0.,0.));
#566=IFCAXIS2PLACEMENT3D(#563,#564,#565);
#567=IFCLOCALPLACEMENT(#543,#566);
#568=IFCDISTRIBUTIONPORT('0GWZvfihHVWR7F9PQIu0Ry',$,'D-a-10/b',$,$,#567,$,.SOURCE.,.PIPE.,$);
#569=IFCRELNESTS('2cZAODCx9GIgukxHGbi9kH',$,$,$,#544,(#568));
#570=IFCCARTESIANPOINT((0.,0.,0.));
#571=IFCDIRECTION((0.,0.,1.));
#572=IFCDIRECTION((1.,0.,0.));
#573=IFCAXIS2PLACEMENT3D(#570,#571,#572);
#574=IFCLOCALPLACEMENT($,#573);
#575=IFCPIPESEGMENT('3yW83UKG9Q6fYpxTspAC0a',$,'reference-C-D/D-b-0',$,'OMA_NETWORK_SEGMENT',#574,#586,$,.RIGIDSEGMENT.);
#576=IFCCARTESIANPOINT((0.,0.));
#577=IFCAXIS2PLACEMENT2D(#576,$);
#578=IFCCIRCLEPROFILEDEF(.AREA.,$,#577,0.09375);
#579=IFCCARTESIANPOINT((3.25,0.,3.));
#580=IFCDIRECTION((1.,0.,0.));
#581=IFCDIRECTION((0.,1.,0.));
#582=IFCAXIS2PLACEMENT3D(#579,#580,#581);
#583=IFCDIRECTION((0.,0.,1.));
#584=IFCEXTRUDEDAREASOLID(#578,#582,#583,0.75);
#585=IFCSHAPEREPRESENTATION(#12,'Body','SweptSolid',(#584));
#586=IFCPRODUCTDEFINITIONSHAPE($,$,(#585));
#587=IFCCARTESIANPOINT((3.25,0.,3.));
#588=IFCDIRECTION((1.,-0.,-0.));
#589=IFCDIRECTION((0.,1.,0.));
#590=IFCAXIS2PLACEMENT3D(#587,#588,#589);
#591=IFCLOCALPLACEMENT(#574,#590);
#592=IFCDISTRIBUTIONPORT('03MIvNRxvSifRY$eDSGjWm',$,'D-b-0/a',$,$,#591,$,.SINK.,.PIPE.,$);
#593=IFCRELNESTS('2eSY6J$ZfRXxVKBpLkyP10',$,$,$,#575,(#592));
#594=IFCCARTESIANPOINT((4.,0.,3.));
#595=IFCDIRECTION((1.,0.,0.));
#596=IFCDIRECTION((0.,1.,0.));
#597=IFCAXIS2PLACEMENT3D(#594,#595,#596);
#598=IFCLOCALPLACEMENT(#574,#597);
#599=IFCDISTRIBUTIONPORT('1pWiosD1zQRBPC188HPxrH',$,'D-b-0/b',$,$,#598,$,.SOURCE.,.PIPE.,$);
#600=IFCRELNESTS('0itTgxzyHMoO$JP7QqGczY',$,$,$,#575,(#599));
#601=IFCCARTESIANPOINT((0.,0.,0.));
#602=IFCDIRECTION((0.,0.,1.));
#603=IFCDIRECTION((1.,0.,0.));
#604=IFCAXIS2PLACEMENT3D(#601,#602,#603);
#605=IFCLOCALPLACEMENT($,#604);
#606=IFCPIPESEGMENT('21F_B6ufXI8BewbDS_a_ek',$,'reference-C-D/source-C-0',$,'OMA_NETWORK_SEGMENT',#605,#617,$,.RIGIDSEGMENT.);
#607=IFCCARTESIANPOINT((0.,0.));
#608=IFCAXIS2PLACEMENT2D(#607,$);
#609=IFCCIRCLEPROFILEDEF(.AREA.,$,#608,0.09375);
#610=IFCCARTESIANPOINT((-2.,0.,3.));
#611=IFCDIRECTION((1.,0.,0.));
#612=IFCDIRECTION((0.,1.,0.));
#613=IFCAXIS2PLACEMENT3D(#610,#611,#612);
#614=IFCDIRECTION((0.,0.,1.));
#615=IFCEXTRUDEDAREASOLID(#609,#613,#614,3.75);
#616=IFCSHAPEREPRESENTATION(#12,'Body','SweptSolid',(#615));
#617=IFCPRODUCTDEFINITIONSHAPE($,$,(#616));
#618=IFCCARTESIANPOINT((-2.,0.,3.));
#619=IFCDIRECTION((1.,-0.,-0.));
#620=IFCDIRECTION((0.,1.,0.));
#621=IFCAXIS2PLACEMENT3D(#618,#619,#620);
#622=IFCLOCALPLACEMENT(#605,#621);
#623=IFCDISTRIBUTIONPORT('1iSzWwlgbI8BveF2qVO0kQ',$,'source-C-0/a',$,$,#622,$,.SINK.,.PIPE.,$);
#624=IFCRELNESTS('2Hr49U5knGt93i_wFmTnLo',$,$,$,#606,(#623));
#625=IFCCARTESIANPOINT((1.75,0.,3.));
#626=IFCDIRECTION((1.,0.,0.));
#627=IFCDIRECTION((0.,1.,0.));
#628=IFCAXIS2PLACEMENT3D(#625,#626,#627);
#629=IFCLOCALPLACEMENT(#605,#628);
#630=IFCDISTRIBUTIONPORT('2prwONl89Vf8idC9Ng9oZ2',$,'source-C-0/b',$,$,#629,$,.SOURCE.,.PIPE.,$);
#631=IFCRELNESTS('3kwgbBMRTUw80mgBNFsw3t',$,$,$,#606,(#630));
#632=IFCRELCONNECTSPORTS('0LZv6apKLO5h3tCmioKwKi',$,$,$,#248,#274,$);
#633=IFCRELCONNECTSPORTS('3kGytJXhzGsh75w6ZBFzDh',$,$,$,#281,#305,$);
#634=IFCRELCONNECTSPORTS('0oaVrLweXR38VixEF2Bgb_',$,$,$,#312,#338,$);
#635=IFCRELCONNECTSPORTS('16l18Rqi5HZvx0OCbRBej3',$,$,$,#345,#369,$);
#636=IFCRELCONNECTSPORTS('0XmSAWoC9MCfgKuiQ8L$FF',$,$,$,#376,#402,$);
#637=IFCRELCONNECTSPORTS('2npU5ZgKLGU8Gp93RMYmby',$,$,$,#409,#433,$);
#638=IFCRELCONNECTSPORTS('3tbYzA23LV1wdpffIoXLNe',$,$,$,#440,#466,$);
#639=IFCRELCONNECTSPORTS('3oRwNpkNzH4Q__9hnPEKa1',$,$,$,#473,#497,$);
#640=IFCRELCONNECTSPORTS('3eNPHZRQrNgwwKSGtUGcrg',$,$,$,#504,#530,$);
#641=IFCRELCONNECTSPORTS('1cOXa$CA1PaA05tzxMadYg',$,$,$,#537,#561,$);
#642=IFCRELCONNECTSPORTS('12S0maTHTOhxBv5YCi$aTS',$,$,$,#100,#179,$);
#643=IFCRELCONNECTSPORTS('0jmpuehinGHvXXh9JCMAJf',$,$,$,#186,#141,$);
#644=IFCRELCONNECTSPORTS('35uobtFV1IRBNpXEji61_g',$,$,$,#107,#210,$);
#645=IFCRELCONNECTSPORTS('3xB8O_Q0vIUPAELjNGQVn8',$,$,$,#155,#241,$);
#646=IFCRELCONNECTSPORTS('2mzEvF0lvVoeCBrk08ZfAL',$,$,$,#148,#592,$);
#647=IFCRELCONNECTSPORTS('3HwfnVW$DHTwMfewyhcdBy',$,$,$,#630,#93,$);
#648=IFCRELASSIGNSTOGROUP('0cPuS4TGPS$wjZ$Q1BPhK$',$,$,$,(#66,#114,#162,#193,#224,#255,#288,#319,#352,#383,#416,#447,#480,#511,#544,#575,#606),$,#60);
#649=IFCRELCONTAINEDINSPATIALSTRUCTURE('27xz9YZpvTdw$yU5lmIV4U',$,$,$,(#66,#114,#162,#193,#224,#255,#288,#319,#352,#383,#416,#447,#480,#511,#544,#575,#606),#13);
ENDSEC;
END-ISO-10303-21;
