ISO-10303-21;
HEADER;
FILE_DESCRIPTION(('ViewDefinition[DesignTransferView]'),'2;1');
FILE_NAME('/dev/null','2026-09-14T15:10:57-05:00',(''),(''),'IfcOpenShell 0.8.5','IfcOpenShell 0.8.5','Nobody');
FILE_SCHEMA(('IFC4'));
ENDSEC;
DATA;
#1=IFCPROJECT('0RZi$HCyX3u8F3S3QObXL2',$,'Independent analytic boxes',$,$,$,$,(#11),#5);
#2=IFCSIUNIT(*,.LENGTHUNIT.,$,.METRE.);
#3=IFCSIUNIT(*,.AREAUNIT.,$,.SQUARE_METRE.);
#4=IFCSIUNIT(*,.VOLUMEUNIT.,$,.CUBIC_METRE.);
#5=IFCUNITASSIGNMENT((#3,#4,#2,#6));
#6=IFCSIUNIT(*,.PLANEANGLEUNIT.,$,.RADIAN.);
#7=IFCCARTESIANPOINT((0.,0.,0.));
#8=IFCDIRECTION((0.,0.,1.));
#9=IFCDIRECTION((1.,0.,0.));
#10=IFCAXIS2PLACEMENT3D(#7,#8,#9);
#11=IFCGEOMETRICREPRESENTATIONCONTEXT($,'Model',3,1.0000000000000001E-05,#10,$);
#12=IFCGEOMETRICREPRESENTATIONSUBCONTEXT('Body','Model',*,*,*,*,#11,$,.MODEL_VIEW.,$);
#13=IFCBUILDINGSTOREY('3_B$WTyYr6sBwh6TP5r_5K',$,'Ground',$,$,$,$,$,$,$);
#14=IFCRELAGGREGATES('0veL429Z1CIuNeVlGhF8aO',$,$,$,#1,(#13));
#15=IFCBUILDINGELEMENTPROXY('1KqbZA1098uuI7emecb7hz',$,'Analytic solid',$,$,#37,#26,$,$);
#16=IFCCARTESIANPOINTLIST2D(((0.,0.),(0.,2.),(2.,2.),(2.,0.),(0.,0.)));
#17=IFCINDEXEDPOLYCURVE(#16,$,.F.);
#18=IFCDIRECTION((0.,0.,1.));
#19=IFCARBITRARYCLOSEDPROFILEDEF(.AREA.,$,#17);
#20=IFCCARTESIANPOINT((0.,0.,0.));
#21=IFCDIRECTION((0.,0.,1.));
#22=IFCDIRECTION((1.,0.,0.));
#23=IFCAXIS2PLACEMENT3D(#20,#21,#22);
#24=IFCEXTRUDEDAREASOLID(#19,#23,#18,2.);
#25=IFCSHAPEREPRESENTATION(#12,'Body','SweptSolid',(#24));
#26=IFCPRODUCTDEFINITIONSHAPE($,$,(#25));
#32=IFCRELCONTAINEDINSPATIALSTRUCTURE('2jX7gQQ0v6Gv$DFJqDUjcU',$,$,$,(#15),#13);
#33=IFCCARTESIANPOINT((0.,0.,0.));
#34=IFCDIRECTION((0.,0.,1.));
#35=IFCDIRECTION((1.,0.,0.));
#36=IFCAXIS2PLACEMENT3D(#33,#34,#35);
#37=IFCLOCALPLACEMENT($,#36);
#38=IFCSYSTEM('1jazESbx9Srf9WNBuOQfPH',$,'OMA oma-d6f361cf52b4-002-00',$,'PRESSURE_PIPE');
#39=IFCCARTESIANPOINT((0.,0.,0.));
#40=IFCDIRECTION((0.,0.,1.));
#41=IFCDIRECTION((1.,0.,0.));
#42=IFCAXIS2PLACEMENT3D(#39,#40,#41);
#43=IFCLOCALPLACEMENT($,#42);
#44=IFCPIPESEGMENT('1S3A_WMB5SRerYff7X66Q8',$,'oma-d6f361cf52b4-002-00 straight 1',$,'ROUND_STRAIGHT',#43,#55,$,.RIGIDSEGMENT.);
#45=IFCCARTESIANPOINT((0.,0.));
#46=IFCAXIS2PLACEMENT2D(#45,$);
#47=IFCCIRCLEPROFILEDEF(.AREA.,$,#46,0.070000000000000007);
#48=IFCCARTESIANPOINT((-1.,1.,1.));
#49=IFCDIRECTION((1.,0.,0.));
#50=IFCDIRECTION((0.,1.,0.));
#51=IFCAXIS2PLACEMENT3D(#48,#49,#50);
#52=IFCDIRECTION((0.,0.,1.));
#53=IFCEXTRUDEDAREASOLID(#47,#51,#52,0.23505000000000004);
#54=IFCSHAPEREPRESENTATION(#11,'Body','SweptSolid',(#53));
#55=IFCPRODUCTDEFINITIONSHAPE($,$,(#54));
#56=IFCCARTESIANPOINT((-1.,1.,1.));
#57=IFCDIRECTION((1.,0.,0.));
#58=IFCDIRECTION((0.,1.,0.));
#59=IFCAXIS2PLACEMENT3D(#56,#57,#58);
#60=IFCLOCALPLACEMENT(#43,#59);
#61=IFCDISTRIBUTIONPORT('2PWa_7TtTImu9abX3_qPhK',$,'oma-d6f361cf52b4-002-00/0/in',$,$,#60,$,.SINK.,.PIPE.,$);
#62=IFCRELNESTS('3AzufNT2vP1RsK3ZzQf9ST',$,$,$,#44,(#61));
#63=IFCCARTESIANPOINT((-0.76495000000000002,1.,1.));
#64=IFCDIRECTION((1.,0.,0.));
#65=IFCDIRECTION((0.,1.,0.));
#66=IFCAXIS2PLACEMENT3D(#63,#64,#65);
#67=IFCLOCALPLACEMENT(#43,#66);
#68=IFCDISTRIBUTIONPORT('2I2h4W0V5LMeS85qMeMCqz',$,'oma-d6f361cf52b4-002-00/0/out',$,$,#67,$,.SOURCE.,.PIPE.,$);
#69=IFCRELNESTS('19yrDiiI1QyQqj9vOF19oy',$,$,$,#44,(#68));
#70=IFCPROPERTYSINGLEVALUE('RouteId',$,IFCTEXT('oma-d6f361cf52b4-002-00'),$);
#71=IFCPROPERTYSINGLEVALUE('SourceSHA256',$,IFCTEXT('bad8fdca87526a8b318e27f8b359f7a780b997d690bf08548405d5726467f42b'),$);
#72=IFCPROPERTYSINGLEVALUE('AssumptionRoot',$,IFCTEXT('73de768543c48a5108a88c493e16ff43434583a00d9a655009142091973dce48'),$);
#73=IFCPROPERTYSINGLEVALUE('SystemFamily',$,IFCTEXT('PRESSURE_PIPE'),$);
#74=IFCPROPERTYSINGLEVALUE('PhysicalRepresentation',$,IFCTEXT('Outer service envelope including insulation'),$);
#75=IFCPROPERTYSINGLEVALUE('EngineeringStatus',$,IFCTEXT('DRAFT'),$);
#76=IFCPROPERTYSINGLEVALUE('Diameter_m',$,IFCREAL(0.10000000000000001),$);
#77=IFCPROPERTYSINGLEVALUE('Insulation_m',$,IFCREAL(0.02),$);
#78=IFCPROPERTYSINGLEVALUE('CenterlineLength_m',$,IFCREAL(0.23505000000000004),$);
#79=IFCPROPERTYSET('1jjUU3OdHN7BQDrtKZ94E1',$,'OMA_RouteProvenance',$,(#70,#71,#72,#73,#74,#75,#76,#77,#78));
#80=IFCRELDEFINESBYPROPERTIES('0wrtXgGVbUa8WQmlqsfOQI',$,$,$,(#44),#79);
#81=IFCCARTESIANPOINT((0.,0.,0.));
#82=IFCDIRECTION((0.,0.,1.));
#83=IFCDIRECTION((1.,0.,0.));
#84=IFCAXIS2PLACEMENT3D(#81,#82,#83);
#85=IFCLOCALPLACEMENT($,#84);
#86=IFCPIPEFITTING('3KIaiSDHjPd9ixwYvyO$je',$,'oma-d6f361cf52b4-002-00 elbow 2',$,'PARAMETRIC_ELBOW',#85,#99,$,.BEND.);
#87=IFCCARTESIANPOINT((0.29999999999999999,0.));
#88=IFCAXIS2PLACEMENT2D(#87,$);
#89=IFCCIRCLEPROFILEDEF(.AREA.,$,#88,0.070000000000000007);
#90=IFCCARTESIANPOINT((-0.76495000000000002,0.69999999999999996,1.));
#91=IFCDIRECTION((1.,-0.,0.));
#92=IFCDIRECTION((0.,1.,0.));
#93=IFCAXIS2PLACEMENT3D(#90,#91,#92);
#94=IFCCARTESIANPOINT((0.,0.,0.));
#95=IFCDIRECTION((0.,-1.,0.));
#96=IFCAXIS1PLACEMENT(#94,#95);
#97=IFCREVOLVEDAREASOLID(#89,#93,#96,1.5707963267948966);
#98=IFCSHAPEREPRESENTATION(#11,'Body','SweptSolid',(#97));
#99=IFCPRODUCTDEFINITIONSHAPE($,$,(#98));
#100=IFCCARTESIANPOINT((-0.76495000000000002,1.,1.));
#101=IFCDIRECTION((1.,-0.,0.));
#102=IFCDIRECTION((0.,1.,0.));
#103=IFCAXIS2PLACEMENT3D(#100,#101,#102);
#104=IFCLOCALPLACEMENT(#85,#103);
#105=IFCDISTRIBUTIONPORT('3AO8rGIUbNB9$6lm1m9KLc',$,'oma-d6f361cf52b4-002-00/1/in',$,$,#104,$,.SINK.,.PIPE.,$);
#106=IFCRELNESTS('3w$Y8BvhvSaw3yDUAJm13x',$,$,$,#86,(#105));
#107=IFCCARTESIANPOINT((-0.46494999999999997,0.69999999999999996,1.));
#108=IFCDIRECTION((0.,-1.,0.));
#109=IFCDIRECTION((1.,0.,0.));
#110=IFCAXIS2PLACEMENT3D(#107,#108,#109);
#111=IFCLOCALPLACEMENT(#85,#110);
#112=IFCDISTRIBUTIONPORT('2Vwj_Ky_rRYOEKZrcxzXg1',$,'oma-d6f361cf52b4-002-00/1/out',$,$,#111,$,.SOURCE.,.PIPE.,$);
#113=IFCRELNESTS('0tl__QGSfHTvSrzsahDSRM',$,$,$,#86,(#112));
#114=IFCRELCONNECTSPORTS('2_FmxvpBrHs8E_y_HCh9Do',$,$,$,#68,#105,#86);
#115=IFCPROPERTYSINGLEVALUE('RouteId',$,IFCTEXT('oma-d6f361cf52b4-002-00'),$);
#116=IFCPROPERTYSINGLEVALUE('SourceSHA256',$,IFCTEXT('bad8fdca87526a8b318e27f8b359f7a780b997d690bf08548405d5726467f42b'),$);
#117=IFCPROPERTYSINGLEVALUE('AssumptionRoot',$,IFCTEXT('73de768543c48a5108a88c493e16ff43434583a00d9a655009142091973dce48'),$);
#118=IFCPROPERTYSINGLEVALUE('SystemFamily',$,IFCTEXT('PRESSURE_PIPE'),$);
#119=IFCPROPERTYSINGLEVALUE('PhysicalRepresentation',$,IFCTEXT('Outer service envelope including insulation'),$);
#120=IFCPROPERTYSINGLEVALUE('EngineeringStatus',$,IFCTEXT('DRAFT'),$);
#121=IFCPROPERTYSINGLEVALUE('Diameter_m',$,IFCREAL(0.10000000000000001),$);
#122=IFCPROPERTYSINGLEVALUE('Insulation_m',$,IFCREAL(0.02),$);
#123=IFCPROPERTYSINGLEVALUE('CenterlineLength_m',$,IFCREAL(0.47123889803846897),$);
#124=IFCPROPERTYSET('0sWFezClLMBwsm94g0Axy7',$,'OMA_RouteProvenance',$,(#115,#116,#117,#118,#119,#120,#121,#122,#123));
#125=IFCRELDEFINESBYPROPERTIES('16JK6FyE9PORAZOdXF95HJ',$,$,$,(#86),#124);
#126=IFCCARTESIANPOINT((0.,0.,0.));
#127=IFCDIRECTION((0.,0.,1.));
#128=IFCDIRECTION((1.,0.,0.));
#129=IFCAXIS2PLACEMENT3D(#126,#127,#128);
#130=IFCLOCALPLACEMENT($,#129);
#131=IFCPIPESEGMENT('0svMENrYrNlxbTTtmYuZAM',$,'oma-d6f361cf52b4-002-00 straight 3',$,'ROUND_STRAIGHT',#130,#142,$,.RIGIDSEGMENT.);
#132=IFCCARTESIANPOINT((0.,0.));
#133=IFCAXIS2PLACEMENT2D(#132,$);
#134=IFCCIRCLEPROFILEDEF(.AREA.,$,#133,0.070000000000000007);
#135=IFCCARTESIANPOINT((-0.46494999999999997,0.69999999999999996,1.));
#136=IFCDIRECTION((0.,-1.,0.));
#137=IFCDIRECTION((1.,0.,0.));
#138=IFCAXIS2PLACEMENT3D(#135,#136,#137);
#139=IFCDIRECTION((0.,0.,1.));
#140=IFCEXTRUDEDAREASOLID(#134,#138,#139,0.57002200000000003);
#141=IFCSHAPEREPRESENTATION(#11,'Body','SweptSolid',(#140));
#142=IFCPRODUCTDEFINITIONSHAPE($,$,(#141));
#143=IFCCARTESIANPOINT((-0.46494999999999997,0.69999999999999996,1.));
#144=IFCDIRECTION((0.,-1.,0.));
#145=IFCDIRECTION((1.,0.,0.));
#146=IFCAXIS2PLACEMENT3D(#143,#144,#145);
#147=IFCLOCALPLACEMENT(#130,#146);
#148=IFCDISTRIBUTIONPORT('2e30uFe$DIURHS8sVlptsj',$,'oma-d6f361cf52b4-002-00/2/in',$,$,#147,$,.SINK.,.PIPE.,$);
#149=IFCRELNESTS('0mW_NIoTDJeeFynS62S0xa',$,$,$,#131,(#148));
#150=IFCCARTESIANPOINT((-0.46494999999999997,0.12997799999999998,1.));
#151=IFCDIRECTION((0.,-1.,0.));
#152=IFCDIRECTION((1.,0.,0.));
#153=IFCAXIS2PLACEMENT3D(#150,#151,#152);
#154=IFCLOCALPLACEMENT(#130,#153);
#155=IFCDISTRIBUTIONPORT('0VPpSuBITQnAmE9nsFWk2f',$,'oma-d6f361cf52b4-002-00/2/out',$,$,#154,$,.SOURCE.,.PIPE.,$);
#156=IFCRELNESTS('2qIH95IsjM_8rVwtOAbocg',$,$,$,#131,(#155));
#157=IFCRELCONNECTSPORTS('1J_UEjqSDIoegdELhB$cPz',$,$,$,#112,#148,#131);
#158=IFCPROPERTYSINGLEVALUE('RouteId',$,IFCTEXT('oma-d6f361cf52b4-002-00'),$);
#159=IFCPROPERTYSINGLEVALUE('SourceSHA256',$,IFCTEXT('bad8fdca87526a8b318e27f8b359f7a780b997d690bf08548405d5726467f42b'),$);
#160=IFCPROPERTYSINGLEVALUE('AssumptionRoot',$,IFCTEXT('73de768543c48a5108a88c493e16ff43434583a00d9a655009142091973dce48'),$);
#161=IFCPROPERTYSINGLEVALUE('SystemFamily',$,IFCTEXT('PRESSURE_PIPE'),$);
#162=IFCPROPERTYSINGLEVALUE('PhysicalRepresentation',$,IFCTEXT('Outer service envelope including insulation'),$);
#163=IFCPROPERTYSINGLEVALUE('EngineeringStatus',$,IFCTEXT('DRAFT'),$);
#164=IFCPROPERTYSINGLEVALUE('Diameter_m',$,IFCREAL(0.10000000000000001),$);
#165=IFCPROPERTYSINGLEVALUE('Insulation_m',$,IFCREAL(0.02),$);
#166=IFCPROPERTYSINGLEVALUE('CenterlineLength_m',$,IFCREAL(0.57002200000000003),$);
#167=IFCPROPERTYSET('2cO765RHDIswzRYNzK$r8R',$,'OMA_RouteProvenance',$,(#158,#159,#160,#161,#162,#163,#164,#165,#166));
#168=IFCRELDEFINESBYPROPERTIES('3kICjri5PUsuVorLTWpgrf',$,$,$,(#131),#167);
#169=IFCCARTESIANPOINT((0.,0.,0.));
#170=IFCDIRECTION((0.,0.,1.));
#171=IFCDIRECTION((1.,0.,0.));
#172=IFCAXIS2PLACEMENT3D(#169,#170,#171);
#173=IFCLOCALPLACEMENT($,#172);
#174=IFCPIPEFITTING('23_ZEvVNzLdPwGHTVzhPUY',$,'oma-d6f361cf52b4-002-00 elbow 4',$,'PARAMETRIC_ELBOW',#173,#187,$,.BEND.);
#175=IFCCARTESIANPOINT((0.29999999999999999,0.));
#176=IFCAXIS2PLACEMENT2D(#175,$);
#177=IFCCIRCLEPROFILEDEF(.AREA.,$,#176,0.070000000000000007);
#178=IFCCARTESIANPOINT((-0.16494999999999999,0.12997799999999998,1.));
#179=IFCDIRECTION((0.,-1.,0.));
#180=IFCDIRECTION((-1.,0.,0.));
#181=IFCAXIS2PLACEMENT3D(#178,#179,#180);
#182=IFCCARTESIANPOINT((0.,0.,0.));
#183=IFCDIRECTION((0.,-1.,0.));
#184=IFCAXIS1PLACEMENT(#182,#183);
#185=IFCREVOLVEDAREASOLID(#177,#181,#184,1.5707963267948966);
#186=IFCSHAPEREPRESENTATION(#11,'Body','SweptSolid',(#185));
#187=IFCPRODUCTDEFINITIONSHAPE($,$,(#186));
#188=IFCCARTESIANPOINT((-0.46494999999999997,0.12997799999999998,1.));
#189=IFCDIRECTION((0.,-1.,0.));
#190=IFCDIRECTION((1.,0.,0.));
#191=IFCAXIS2PLACEMENT3D(#188,#189,#190);
#192=IFCLOCALPLACEMENT(#173,#191);
#193=IFCDISTRIBUTIONPORT('2f9Q$TRhHTR8mo3ZVk8FRj',$,'oma-d6f361cf52b4-002-00/3/in',$,$,#192,$,.SINK.,.PIPE.,$);
#194=IFCRELNESTS('0xj_j8ZfTLhBbfXVeedNqi',$,$,$,#174,(#193));
#195=IFCCARTESIANPOINT((-0.16494999999999999,-0.17002200000000001,1.));
#196=IFCDIRECTION((1.,0.,-0.));
#197=IFCDIRECTION((0.,1.,0.));
#198=IFCAXIS2PLACEMENT3D(#195,#196,#197);
#199=IFCLOCALPLACEMENT(#173,#198);
#200=IFCDISTRIBUTIONPORT('3gZx7imb5Jxw$7tCfNjMUQ',$,'oma-d6f361cf52b4-002-00/3/out',$,$,#199,$,.SOURCE.,.PIPE.,$);
#201=IFCRELNESTS('2Qq0yclYrNuB29gqBbl_pt',$,$,$,#174,(#200));
#202=IFCRELCONNECTSPORTS('1HuAdKZZXStgCQ0TymZ_Vi',$,$,$,#155,#193,#174);
#203=IFCPROPERTYSINGLEVALUE('RouteId',$,IFCTEXT('oma-d6f361cf52b4-002-00'),$);
#204=IFCPROPERTYSINGLEVALUE('SourceSHA256',$,IFCTEXT('bad8fdca87526a8b318e27f8b359f7a780b997d690bf08548405d5726467f42b'),$);
#205=IFCPROPERTYSINGLEVALUE('AssumptionRoot',$,IFCTEXT('73de768543c48a5108a88c493e16ff43434583a00d9a655009142091973dce48'),$);
#206=IFCPROPERTYSINGLEVALUE('SystemFamily',$,IFCTEXT('PRESSURE_PIPE'),$);
#207=IFCPROPERTYSINGLEVALUE('PhysicalRepresentation',$,IFCTEXT('Outer service envelope including insulation'),$);
#208=IFCPROPERTYSINGLEVALUE('EngineeringStatus',$,IFCTEXT('DRAFT'),$);
#209=IFCPROPERTYSINGLEVALUE('Diameter_m',$,IFCREAL(0.10000000000000001),$);
#210=IFCPROPERTYSINGLEVALUE('Insulation_m',$,IFCREAL(0.02),$);
#211=IFCPROPERTYSINGLEVALUE('CenterlineLength_m',$,IFCREAL(0.47123889803846897),$);
#212=IFCPROPERTYSET('00vRoiZ6bQ2BGXYPLTirHr',$,'OMA_RouteProvenance',$,(#203,#204,#205,#206,#207,#208,#209,#210,#211));
#213=IFCRELDEFINESBYPROPERTIES('3Yzd$8ezDNVxYipTS9XM8K',$,$,$,(#174),#212);
#214=IFCCARTESIANPOINT((0.,0.,0.));
#215=IFCDIRECTION((0.,0.,1.));
#216=IFCDIRECTION((1.,0.,0.));
#217=IFCAXIS2PLACEMENT3D(#214,#215,#216);
#218=IFCLOCALPLACEMENT($,#217);
#219=IFCPIPESEGMENT('1gSHin6XTTxf8UaWzBoW5Y',$,'oma-d6f361cf52b4-002-00 straight 5',$,'ROUND_STRAIGHT',#218,#230,$,.RIGIDSEGMENT.);
#220=IFCCARTESIANPOINT((0.,0.));
#221=IFCAXIS2PLACEMENT2D(#220,$);
#222=IFCCIRCLEPROFILEDEF(.AREA.,$,#221,0.070000000000000007);
#223=IFCCARTESIANPOINT((-0.16494999999999999,-0.17002200000000001,1.));
#224=IFCDIRECTION((1.,0.,0.));
#225=IFCDIRECTION((0.,1.,0.));
#226=IFCAXIS2PLACEMENT3D(#223,#224,#225);
#227=IFCDIRECTION((0.,0.,1.));
#228=IFCEXTRUDEDAREASOLID(#222,#226,#227,2.8649499999999999);
#229=IFCSHAPEREPRESENTATION(#11,'Body','SweptSolid',(#228));
#230=IFCPRODUCTDEFINITIONSHAPE($,$,(#229));
#231=IFCCARTESIANPOINT((-0.16494999999999999,-0.17002200000000001,1.));
#232=IFCDIRECTION((1.,0.,0.));
#233=IFCDIRECTION((0.,1.,0.));
#234=IFCAXIS2PLACEMENT3D(#231,#232,#233);
#235=IFCLOCALPLACEMENT(#218,#234);
#236=IFCDISTRIBUTIONPORT('0oG56Io4jRaQQrtMZ9YMQt',$,'oma-d6f361cf52b4-002-00/4/in',$,$,#235,$,.SINK.,.PIPE.,$);
#237=IFCRELNESTS('1Ndxo0BvXUTf7JgItVDkSf',$,$,$,#219,(#236));
#238=IFCCARTESIANPOINT((2.7000000000000002,-0.17002200000000001,1.));
#239=IFCDIRECTION((1.,0.,0.));
#240=IFCDIRECTION((0.,1.,0.));
#241=IFCAXIS2PLACEMENT3D(#238,#239,#240);
#242=IFCLOCALPLACEMENT(#218,#241);
#243=IFCDISTRIBUTIONPORT('3qMpMOexTIHh7qfvhRPx5g',$,'oma-d6f361cf52b4-002-00/4/out',$,$,#242,$,.SOURCE.,.PIPE.,$);
#244=IFCRELNESTS('3eBpPna6LPCOiJXrrxeKpo',$,$,$,#219,(#243));
#245=IFCRELCONNECTSPORTS('2M1fah5srJ9gVqW2fR4mtK',$,$,$,#200,#236,#219);
#246=IFCPROPERTYSINGLEVALUE('RouteId',$,IFCTEXT('oma-d6f361cf52b4-002-00'),$);
#247=IFCPROPERTYSINGLEVALUE('SourceSHA256',$,IFCTEXT('bad8fdca87526a8b318e27f8b359f7a780b997d690bf08548405d5726467f42b'),$);
#248=IFCPROPERTYSINGLEVALUE('AssumptionRoot',$,IFCTEXT('73de768543c48a5108a88c493e16ff43434583a00d9a655009142091973dce48'),$);
#249=IFCPROPERTYSINGLEVALUE('SystemFamily',$,IFCTEXT('PRESSURE_PIPE'),$);
#250=IFCPROPERTYSINGLEVALUE('PhysicalRepresentation',$,IFCTEXT('Outer service envelope including insulation'),$);
#251=IFCPROPERTYSINGLEVALUE('EngineeringStatus',$,IFCTEXT('DRAFT'),$);
#252=IFCPROPERTYSINGLEVALUE('Diameter_m',$,IFCREAL(0.10000000000000001),$);
#253=IFCPROPERTYSINGLEVALUE('Insulation_m',$,IFCREAL(0.02),$);
#254=IFCPROPERTYSINGLEVALUE('CenterlineLength_m',$,IFCREAL(2.8649499999999999),$);
#255=IFCPROPERTYSET('1wc8gCjfLSiueCMvDWVKdN',$,'OMA_RouteProvenance',$,(#246,#247,#248,#249,#250,#251,#252,#253,#254));
#256=IFCRELDEFINESBYPROPERTIES('3Foj7rDl5Ruhql4D35i3LM',$,$,$,(#219),#255);
#257=IFCCARTESIANPOINT((0.,0.,0.));
#258=IFCDIRECTION((0.,0.,1.));
#259=IFCDIRECTION((1.,0.,0.));
#260=IFCAXIS2PLACEMENT3D(#257,#258,#259);
#261=IFCLOCALPLACEMENT($,#260);
#262=IFCPIPEFITTING('3$MN$qLBrP7foV0$eMn$2i',$,'oma-d6f361cf52b4-002-00 elbow 6',$,'PARAMETRIC_ELBOW',#261,#275,$,.BEND.);
#263=IFCCARTESIANPOINT((0.29999999999999999,0.));
#264=IFCAXIS2PLACEMENT2D(#263,$);
#265=IFCCIRCLEPROFILEDEF(.AREA.,$,#264,0.070000000000000007);
#266=IFCCARTESIANPOINT((2.7000000000000002,0.12997799999999998,1.));
#267=IFCDIRECTION((1.,0.,-0.));
#268=IFCDIRECTION((0.,-1.,0.));
#269=IFCAXIS2PLACEMENT3D(#266,#267,#268);
#270=IFCCARTESIANPOINT((0.,0.,0.));
#271=IFCDIRECTION((0.,-1.,0.));
#272=IFCAXIS1PLACEMENT(#270,#271);
#273=IFCREVOLVEDAREASOLID(#265,#269,#272,1.5707963267948966);
#274=IFCSHAPEREPRESENTATION(#11,'Body','SweptSolid',(#273));
#275=IFCPRODUCTDEFINITIONSHAPE($,$,(#274));
#276=IFCCARTESIANPOINT((2.7000000000000002,-0.17002200000000001,1.));
#277=IFCDIRECTION((1.,0.,-0.));
#278=IFCDIRECTION((0.,1.,0.));
#279=IFCAXIS2PLACEMENT3D(#276,#277,#278);
#280=IFCLOCALPLACEMENT(#261,#279);
#281=IFCDISTRIBUTIONPORT('0nf8K$n1LUp85rsNpJtP0R',$,'oma-d6f361cf52b4-002-00/5/in',$,$,#280,$,.SINK.,.PIPE.,$);
#282=IFCRELNESTS('2V4X$i2xHK5AWc_BDx_GjF',$,$,$,#262,(#281));
#283=IFCCARTESIANPOINT((3.,0.12997799999999998,1.));
#284=IFCDIRECTION((0.,1.,0.));
#285=IFCDIRECTION((1.,0.,0.));
#286=IFCAXIS2PLACEMENT3D(#283,#284,#285);
#287=IFCLOCALPLACEMENT(#261,#286);
#288=IFCDISTRIBUTIONPORT('0DpNvgDebMkv1NMvqq9piK',$,'oma-d6f361cf52b4-002-00/5/out',$,$,#287,$,.SOURCE.,.PIPE.,$);
#289=IFCRELNESTS('2Exlcv4vTRnw$i0wxuYRz9',$,$,$,#262,(#288));
#290=IFCRELCONNECTSPORTS('1uqI$Y53nGSBUsu1c0NdBQ',$,$,$,#243,#281,#262);
#291=IFCPROPERTYSINGLEVALUE('RouteId',$,IFCTEXT('oma-d6f361cf52b4-002-00'),$);
#292=IFCPROPERTYSINGLEVALUE('SourceSHA256',$,IFCTEXT('bad8fdca87526a8b318e27f8b359f7a780b997d690bf08548405d5726467f42b'),$);
#293=IFCPROPERTYSINGLEVALUE('AssumptionRoot',$,IFCTEXT('73de768543c48a5108a88c493e16ff43434583a00d9a655009142091973dce48'),$);
#294=IFCPROPERTYSINGLEVALUE('SystemFamily',$,IFCTEXT('PRESSURE_PIPE'),$);
#295=IFCPROPERTYSINGLEVALUE('PhysicalRepresentation',$,IFCTEXT('Outer service envelope including insulation'),$);
#296=IFCPROPERTYSINGLEVALUE('EngineeringStatus',$,IFCTEXT('DRAFT'),$);
#297=IFCPROPERTYSINGLEVALUE('Diameter_m',$,IFCREAL(0.10000000000000001),$);
#298=IFCPROPERTYSINGLEVALUE('Insulation_m',$,IFCREAL(0.02),$);
#299=IFCPROPERTYSINGLEVALUE('CenterlineLength_m',$,IFCREAL(0.47123889803846897),$);
#300=IFCPROPERTYSET('0l$KfA1qXRv8A3zjDwn0PJ',$,'OMA_RouteProvenance',$,(#291,#292,#293,#294,#295,#296,#297,#298,#299));
#301=IFCRELDEFINESBYPROPERTIES('3RQEL21crKDxa2x0vcRiKE',$,$,$,(#262),#300);
#302=IFCCARTESIANPOINT((0.,0.,0.));
#303=IFCDIRECTION((0.,0.,1.));
#304=IFCDIRECTION((1.,0.,0.));
#305=IFCAXIS2PLACEMENT3D(#302,#303,#304);
#306=IFCLOCALPLACEMENT($,#305);
#307=IFCPIPESEGMENT('1zBoN_ei1SUgp_p81WJRg8',$,'oma-d6f361cf52b4-002-00 straight 7',$,'ROUND_STRAIGHT',#306,#318,$,.RIGIDSEGMENT.);
#308=IFCCARTESIANPOINT((0.,0.));
#309=IFCAXIS2PLACEMENT2D(#308,$);
#310=IFCCIRCLEPROFILEDEF(.AREA.,$,#309,0.070000000000000007);
#311=IFCCARTESIANPOINT((3.,0.12997799999999998,1.));
#312=IFCDIRECTION((0.,1.,0.));
#313=IFCDIRECTION((1.,0.,0.));
#314=IFCAXIS2PLACEMENT3D(#311,#312,#313);
#315=IFCDIRECTION((0.,0.,1.));
#316=IFCEXTRUDEDAREASOLID(#310,#314,#315,0.87002200000000007);
#317=IFCSHAPEREPRESENTATION(#11,'Body','SweptSolid',(#316));
#318=IFCPRODUCTDEFINITIONSHAPE($,$,(#317));
#319=IFCCARTESIANPOINT((3.,0.12997799999999998,1.));
#320=IFCDIRECTION((0.,1.,0.));
#321=IFCDIRECTION((1.,0.,0.));
#322=IFCAXIS2PLACEMENT3D(#319,#320,#321);
#323=IFCLOCALPLACEMENT(#306,#322);
#324=IFCDISTRIBUTIONPORT('27G$s778nPfx_lHZkHS$yJ',$,'oma-d6f361cf52b4-002-00/6/in',$,$,#323,$,.SINK.,.PIPE.,$);
#325=IFCRELNESTS('3c1vDHNvHIuxbc802j0lgY',$,$,$,#307,(#324));
#326=IFCCARTESIANPOINT((3.,1.,1.));
#327=IFCDIRECTION((0.,1.,0.));
#328=IFCDIRECTION((1.,0.,0.));
#329=IFCAXIS2PLACEMENT3D(#326,#327,#328);
#330=IFCLOCALPLACEMENT(#306,#329);
#331=IFCDISTRIBUTIONPORT('1fIO5Kp4jJugYp2i54CI4l',$,'oma-d6f361cf52b4-002-00/6/out',$,$,#330,$,.SOURCE.,.PIPE.,$);
#332=IFCRELNESTS('3beLf6$KDUjPJDlHft3xmu',$,$,$,#307,(#331));
#333=IFCRELCONNECTSPORTS('1T9bCfb8zMoRIqu30GHPhp',$,$,$,#288,#324,#307);
#334=IFCPROPERTYSINGLEVALUE('RouteId',$,IFCTEXT('oma-d6f361cf52b4-002-00'),$);
#335=IFCPROPERTYSINGLEVALUE('SourceSHA256',$,IFCTEXT('bad8fdca87526a8b318e27f8b359f7a780b997d690bf08548405d5726467f42b'),$);
#336=IFCPROPERTYSINGLEVALUE('AssumptionRoot',$,IFCTEXT('73de768543c48a5108a88c493e16ff43434583a00d9a655009142091973dce48'),$);
#337=IFCPROPERTYSINGLEVALUE('SystemFamily',$,IFCTEXT('PRESSURE_PIPE'),$);
#338=IFCPROPERTYSINGLEVALUE('PhysicalRepresentation',$,IFCTEXT('Outer service envelope including insulation'),$);
#339=IFCPROPERTYSINGLEVALUE('EngineeringStatus',$,IFCTEXT('DRAFT'),$);
#340=IFCPROPERTYSINGLEVALUE('Diameter_m',$,IFCREAL(0.10000000000000001),$);
#341=IFCPROPERTYSINGLEVALUE('Insulation_m',$,IFCREAL(0.02),$);
#342=IFCPROPERTYSINGLEVALUE('CenterlineLength_m',$,IFCREAL(0.87002200000000007),$);
#343=IFCPROPERTYSET('3lD49q2gXSSwMNygZK$tqo',$,'OMA_RouteProvenance',$,(#334,#335,#336,#337,#338,#339,#340,#341,#342));
#344=IFCRELDEFINESBYPROPERTIES('3Eje6uac1V1RIls3SnaLF_',$,$,$,(#307),#343);
#345=IFCRELASSIGNSTOGROUP('0h0kqY93jTNBc1FjQKJTas',$,$,$,(#44,#86,#131,#174,#219,#262,#307),$,#38);
#346=IFCRELCONTAINEDINSPATIALSTRUCTURE('3kDYvmcmnLZhZc1W0YgoTP',$,$,$,(#44,#86,#131,#174,#219,#262,#307),#13);
#347=IFCSYSTEM('2EoQ7RwXbSbeUdqGNj8xWL',$,'OMA oma-d6f361cf52b4-002-01',$,'PRESSURE_PIPE');
#348=IFCCARTESIANPOINT((0.,0.,0.));
#349=IFCDIRECTION((0.,0.,1.));
#350=IFCDIRECTION((1.,0.,0.));
#351=IFCAXIS2PLACEMENT3D(#348,#349,#350);
#352=IFCLOCALPLACEMENT($,#351);
#353=IFCPIPESEGMENT('0uQjaF2zfJFvVw0Vkhv8N_',$,'oma-d6f361cf52b4-002-01 straight 1',$,'ROUND_STRAIGHT',#352,#364,$,.RIGIDSEGMENT.);
#354=IFCCARTESIANPOINT((0.,0.));
#355=IFCAXIS2PLACEMENT2D(#354,$);
#356=IFCCIRCLEPROFILEDEF(.AREA.,$,#355,0.070000000000000007);
#357=IFCCARTESIANPOINT((-1.,3.5,3.5));
#358=IFCDIRECTION((1.,0.,0.));
#359=IFCDIRECTION((0.,1.,0.));
#360=IFCAXIS2PLACEMENT3D(#357,#358,#359);
#361=IFCDIRECTION((0.,0.,1.));
#362=IFCEXTRUDEDAREASOLID(#356,#360,#361,4.);
#363=IFCSHAPEREPRESENTATION(#11,'Body','SweptSolid',(#362));
#364=IFCPRODUCTDEFINITIONSHAPE($,$,(#363));
#365=IFCCARTESIANPOINT((-1.,3.5,3.5));
#366=IFCDIRECTION((1.,0.,0.));
#367=IFCDIRECTION((0.,1.,0.));
#368=IFCAXIS2PLACEMENT3D(#365,#366,#367);
#369=IFCLOCALPLACEMENT(#352,#368);
#370=IFCDISTRIBUTIONPORT('2FGuOGxtzPqQPKMpNgXhbc',$,'oma-d6f361cf52b4-002-01/0/in',$,$,#369,$,.SINK.,.PIPE.,$);
#371=IFCRELNESTS('31DHild4bN_O3PJDZSucOJ',$,$,$,#353,(#370));
#372=IFCCARTESIANPOINT((3.,3.5,3.5));
#373=IFCDIRECTION((1.,0.,0.));
#374=IFCDIRECTION((0.,1.,0.));
#375=IFCAXIS2PLACEMENT3D(#372,#373,#374);
#376=IFCLOCALPLACEMENT(#352,#375);
#377=IFCDISTRIBUTIONPORT('3dIvXsK8vKFfBDcA7wxTtP',$,'oma-d6f361cf52b4-002-01/0/out',$,$,#376,$,.SOURCE.,.PIPE.,$);
#378=IFCRELNESTS('1wIvSHIYzTJPxbDQR0QIPs',$,$,$,#353,(#377));
#379=IFCPROPERTYSINGLEVALUE('RouteId',$,IFCTEXT('oma-d6f361cf52b4-002-01'),$);
#380=IFCPROPERTYSINGLEVALUE('SourceSHA256',$,IFCTEXT('fa0b3fd207c4734ecf38cdb68e99b4266da3dad634a462b96b4c1df0be6066fa'),$);
#381=IFCPROPERTYSINGLEVALUE('AssumptionRoot',$,IFCTEXT('f9c20465f6c6c52b96826215765693659937ab8359a8dc21f435c84d2f4d3e81'),$);
#382=IFCPROPERTYSINGLEVALUE('SystemFamily',$,IFCTEXT('PRESSURE_PIPE'),$);
#383=IFCPROPERTYSINGLEVALUE('PhysicalRepresentation',$,IFCTEXT('Outer service envelope including insulation'),$);
#384=IFCPROPERTYSINGLEVALUE('EngineeringStatus',$,IFCTEXT('DRAFT'),$);
#385=IFCPROPERTYSINGLEVALUE('Diameter_m',$,IFCREAL(0.10000000000000001),$);
#386=IFCPROPERTYSINGLEVALUE('Insulation_m',$,IFCREAL(0.02),$);
#387=IFCPROPERTYSINGLEVALUE('CenterlineLength_m',$,IFCREAL(4.),$);
#388=IFCPROPERTYSET('0TFVqpDw1Px8vfIhMDgRmH',$,'OMA_RouteProvenance',$,(#379,#380,#381,#382,#383,#384,#385,#386,#387));
#389=IFCRELDEFINESBYPROPERTIES('1PMUEX10XKmQUsu9Bd46Oi',$,$,$,(#353),#388);
#390=IFCRELASSIGNSTOGROUP('1a2ZIECOLKwhEcCBffkNKQ',$,$,$,(#353),$,#347);
#391=IFCRELCONTAINEDINSPATIALSTRUCTURE('13XCUTj3fVcPEWyGXKWQDb',$,$,$,(#353),#13);
ENDSEC;
END-ISO-10303-21;
