ISO-10303-21;
HEADER;
FILE_DESCRIPTION(('ViewDefinition[DesignTransferView]'),'2;1');
FILE_NAME('/dev/null','2026-09-14T20:52:57-05:00',(''),(''),'IfcOpenShell 0.8.5','IfcOpenShell 0.8.5','Nobody');
FILE_SCHEMA(('IFC4'));
ENDSEC;
DATA;
#1=IFCPROJECT('2JNH5_UeDA9h25x79yNWjH',$,'Frozen independent shared-tree catalogue source',$,$,$,$,(#11),#5);
#2=IFCSIUNIT(*,.LENGTHUNIT.,$,.METRE.);
#3=IFCSIUNIT(*,.AREAUNIT.,$,.SQUARE_METRE.);
#4=IFCSIUNIT(*,.VOLUMEUNIT.,$,.CUBIC_METRE.);
#5=IFCUNITASSIGNMENT((#4,#2,#3,#6));
#6=IFCSIUNIT(*,.PLANEANGLEUNIT.,$,.RADIAN.);
#7=IFCCARTESIANPOINT((0.,0.,0.));
#8=IFCDIRECTION((0.,0.,1.));
#9=IFCDIRECTION((1.,0.,0.));
#10=IFCAXIS2PLACEMENT3D(#7,#8,#9);
#11=IFCGEOMETRICREPRESENTATIONCONTEXT($,'Model',3,1.0000000000000001E-05,#10,$);
#12=IFCGEOMETRICREPRESENTATIONSUBCONTEXT('Body','Model',*,*,*,*,#11,$,.MODEL_VIEW.,$);
#13=IFCBUILDINGSTOREY('1BbER1PYb5BwRs4nVS8A0W',$,'Protected original storey',$,$,$,$,$,$,$);
#14=IFCRELAGGREGATES('0im395WpzB98v_2ZEmg0Ru',$,$,$,#1,(#13));
#15=IFCBUILDINGELEMENTPROXY('1y8KxsZ911Yv6YXQJthu2o',$,'Protected obstacle 0',$,$,#37,#26,$,$);
#16=IFCCARTESIANPOINTLIST2D(((0.,0.),(0.,2.),(2.,2.),(2.,0.),(0.,0.)));
#17=IFCINDEXEDPOLYCURVE(#16,$,.F.);
#18=IFCDIRECTION((0.,0.,1.));
#19=IFCARBITRARYCLOSEDPROFILEDEF(.AREA.,$,#17);
#20=IFCCARTESIANPOINT((0.,0.,0.));
#21=IFCDIRECTION((0.,0.,1.));
#22=IFCDIRECTION((1.,0.,0.));
#23=IFCAXIS2PLACEMENT3D(#20,#21,#22);
#24=IFCEXTRUDEDAREASOLID(#19,#23,#18,2.);
#25=IFCSHAPEREPRESENTATION(#12,'Body','SweptSolid',(#24));
#26=IFCPRODUCTDEFINITIONSHAPE($,$,(#25));
#32=IFCRELCONTAINEDINSPATIALSTRUCTURE('0GHF5L39b1PgtNLSwQYBwD',$,$,$,(#38,#15),#13);
#33=IFCCARTESIANPOINT((0.,0.,0.));
#34=IFCDIRECTION((0.,0.,1.));
#35=IFCDIRECTION((1.,0.,0.));
#36=IFCAXIS2PLACEMENT3D(#33,#34,#35);
#37=IFCLOCALPLACEMENT($,#36);
#38=IFCBUILDINGELEMENTPROXY('38qvYdVdD4OuYWfg$j0dAI',$,'Protected obstacle 1',$,$,#59,#49,$,$);
#39=IFCCARTESIANPOINTLIST2D(((0.,0.),(0.,0.25),(0.25,0.25),(0.25,0.),(0.,0.)));
#40=IFCINDEXEDPOLYCURVE(#39,$,.F.);
#41=IFCDIRECTION((0.,0.,1.));
#42=IFCARBITRARYCLOSEDPROFILEDEF(.AREA.,$,#40);
#43=IFCCARTESIANPOINT((0.,0.,0.));
#44=IFCDIRECTION((0.,0.,1.));
#45=IFCDIRECTION((1.,0.,0.));
#46=IFCAXIS2PLACEMENT3D(#43,#44,#45);
#47=IFCEXTRUDEDAREASOLID(#42,#46,#41,0.25);
#48=IFCSHAPEREPRESENTATION(#12,'Body','SweptSolid',(#47));
#49=IFCPRODUCTDEFINITIONSHAPE($,$,(#48));
#55=IFCCARTESIANPOINT((0.875,1.375,2.875));
#56=IFCDIRECTION((0.,0.,1.));
#57=IFCDIRECTION((1.,0.,0.));
#58=IFCAXIS2PLACEMENT3D(#55,#56,#57);
#59=IFCLOCALPLACEMENT($,#58);
#60=IFCSYSTEM('1wBQerw41R_xR4k1uKmYaS',$,'generated-b2cbb1f08730aeadd3fa0b45',$,'PRESSURE_PIPE');
#61=IFCCARTESIANPOINT((0.,0.,0.));
#62=IFCDIRECTION((0.,0.,1.));
#63=IFCDIRECTION((1.,0.,0.));
#64=IFCAXIS2PLACEMENT3D(#61,#62,#63);
#65=IFCLOCALPLACEMENT($,#64);
#66=IFCPIPEFITTING('00hNGP_pzHTx4uk2oYekXm',$,'generated-b2cbb1f08730aeadd3fa0b45/tee-0',$,'OMA_NETWORK_TEE',#65,#87,$,.JUNCTION.);
#67=IFCCARTESIANPOINT((0.,0.));
#68=IFCAXIS2PLACEMENT2D(#67,$);
#69=IFCCIRCLEPROFILEDEF(.AREA.,$,#68,0.0625);
#70=IFCCARTESIANPOINT((-0.25,0.,3.));
#71=IFCDIRECTION((1.,0.,0.));
#72=IFCDIRECTION((0.,1.,0.));
#73=IFCAXIS2PLACEMENT3D(#70,#71,#72);
#74=IFCDIRECTION((0.,0.,1.));
#75=IFCEXTRUDEDAREASOLID(#69,#73,#74,0.5);
#76=IFCCARTESIANPOINT((0.,0.));
#77=IFCAXIS2PLACEMENT2D(#76,$);
#78=IFCCIRCLEPROFILEDEF(.AREA.,$,#77,0.0625);
#79=IFCCARTESIANPOINT((0.,0.,3.));
#80=IFCDIRECTION((0.,1.,0.));
#81=IFCDIRECTION((1.,0.,0.));
#82=IFCAXIS2PLACEMENT3D(#79,#80,#81);
#83=IFCDIRECTION((0.,0.,1.));
#84=IFCEXTRUDEDAREASOLID(#78,#82,#83,0.25);
#85=IFCBOOLEANRESULT(.UNION.,#75,#84);
#86=IFCSHAPEREPRESENTATION(#12,'Body','CSG',(#85));
#87=IFCPRODUCTDEFINITIONSHAPE($,$,(#86));
#88=IFCCARTESIANPOINT((-0.25,0.,3.));
#89=IFCDIRECTION((1.,-0.,-0.));
#90=IFCDIRECTION((0.,1.,0.));
#91=IFCAXIS2PLACEMENT3D(#88,#89,#90);
#92=IFCLOCALPLACEMENT(#65,#91);
#93=IFCDISTRIBUTIONPORT('3i9B$M3efSVxGy86rkH5gM',$,'tee-0/a',$,$,#92,$,.SINK.,.PIPE.,$);
#94=IFCRELNESTS('3bDlOgcu5Jjhyrs0qEFR_s',$,$,$,#66,(#93));
#95=IFCCARTESIANPOINT((0.25,0.,3.));
#96=IFCDIRECTION((1.,0.,0.));
#97=IFCDIRECTION((0.,1.,0.));
#98=IFCAXIS2PLACEMENT3D(#95,#96,#97);
#99=IFCLOCALPLACEMENT(#65,#98);
#100=IFCDISTRIBUTIONPORT('2gcc$PlCDL0hV_OgjItHRz',$,'tee-0/b',$,$,#99,$,.SOURCE.,.PIPE.,$);
#101=IFCRELNESTS('0MZJISpFHNRACMyZDFuEWq',$,$,$,#66,(#100));
#102=IFCCARTESIANPOINT((0.,0.25,3.));
#103=IFCDIRECTION((0.,1.,0.));
#104=IFCDIRECTION((1.,0.,0.));
#105=IFCAXIS2PLACEMENT3D(#102,#103,#104);
#106=IFCLOCALPLACEMENT(#65,#105);
#107=IFCDISTRIBUTIONPORT('0qKd$nMrbQXvFRmCp9Th8J',$,'tee-0/branch',$,$,#106,$,.SOURCE.,.PIPE.,$);
#108=IFCRELNESTS('1zuTWeOLDHiQ5E_VuTxg2_',$,$,$,#66,(#107));
#109=IFCCARTESIANPOINT((0.,0.,0.));
#110=IFCDIRECTION((0.,0.,1.));
#111=IFCDIRECTION((1.,0.,0.));
#112=IFCAXIS2PLACEMENT3D(#109,#110,#111);
#113=IFCLOCALPLACEMENT($,#112);
#114=IFCPIPEFITTING('3tQ_5w2JLRgRoJsnzE3sDD',$,'generated-b2cbb1f08730aeadd3fa0b45/tee-1',$,'OMA_NETWORK_TEE',#113,#135,$,.JUNCTION.);
#115=IFCCARTESIANPOINT((0.,0.));
#116=IFCAXIS2PLACEMENT2D(#115,$);
#117=IFCCIRCLEPROFILEDEF(.AREA.,$,#116,0.0625);
#118=IFCCARTESIANPOINT((1.75,0.,3.));
#119=IFCDIRECTION((1.,0.,0.));
#120=IFCDIRECTION((0.,1.,0.));
#121=IFCAXIS2PLACEMENT3D(#118,#119,#120);
#122=IFCDIRECTION((0.,0.,1.));
#123=IFCEXTRUDEDAREASOLID(#117,#121,#122,0.5);
#124=IFCCARTESIANPOINT((0.,0.));
#125=IFCAXIS2PLACEMENT2D(#124,$);
#126=IFCCIRCLEPROFILEDEF(.AREA.,$,#125,0.0625);
#127=IFCCARTESIANPOINT((2.,0.,3.));
#128=IFCDIRECTION((0.,1.,0.));
#129=IFCDIRECTION((1.,0.,0.));
#130=IFCAXIS2PLACEMENT3D(#127,#128,#129);
#131=IFCDIRECTION((0.,0.,1.));
#132=IFCEXTRUDEDAREASOLID(#126,#130,#131,0.25);
#133=IFCBOOLEANRESULT(.UNION.,#123,#132);
#134=IFCSHAPEREPRESENTATION(#12,'Body','CSG',(#133));
#135=IFCPRODUCTDEFINITIONSHAPE($,$,(#134));
#136=IFCCARTESIANPOINT((1.75,0.,3.));
#137=IFCDIRECTION((1.,-0.,-0.));
#138=IFCDIRECTION((0.,1.,0.));
#139=IFCAXIS2PLACEMENT3D(#136,#137,#138);
#140=IFCLOCALPLACEMENT(#113,#139);
#141=IFCDISTRIBUTIONPORT('2oqtDatPPMshuwkfo3B3vx',$,'tee-1/a',$,$,#140,$,.SINK.,.PIPE.,$);
#142=IFCRELNESTS('0aT9PD3DrUERfTkLfXmNKm',$,$,$,#114,(#141));
#143=IFCCARTESIANPOINT((2.25,0.,3.));
#144=IFCDIRECTION((1.,0.,0.));
#145=IFCDIRECTION((0.,1.,0.));
#146=IFCAXIS2PLACEMENT3D(#143,#144,#145);
#147=IFCLOCALPLACEMENT(#113,#146);
#148=IFCDISTRIBUTIONPORT('33BWsLmVjN4xVGrNDOULIC',$,'tee-1/b',$,$,#147,$,.SOURCE.,.PIPE.,$);
#149=IFCRELNESTS('0AIBo3qcvHlhZQXuQM4OeR',$,$,$,#114,(#148));
#150=IFCCARTESIANPOINT((2.,0.25,3.));
#151=IFCDIRECTION((0.,1.,0.));
#152=IFCDIRECTION((1.,0.,0.));
#153=IFCAXIS2PLACEMENT3D(#150,#151,#152);
#154=IFCLOCALPLACEMENT(#113,#153);
#155=IFCDISTRIBUTIONPORT('2_ZLRV7ATLYxoZUV6jY7n_',$,'tee-1/branch',$,$,#154,$,.SOURCE.,.PIPE.,$);
#156=IFCRELNESTS('2X71R2aaLRQuhPUq9hWPgo',$,$,$,#114,(#155));
#157=IFCCARTESIANPOINT((0.,0.,0.));
#158=IFCDIRECTION((0.,0.,1.));
#159=IFCDIRECTION((1.,0.,0.));
#160=IFCAXIS2PLACEMENT3D(#157,#158,#159);
#161=IFCLOCALPLACEMENT($,#160);
#162=IFCPIPEFITTING('3CHZjiP81PaAusZMi$pIHV',$,'generated-b2cbb1f08730aeadd3fa0b45/tee-2',$,'OMA_NETWORK_TEE',#161,#183,$,.JUNCTION.);
#163=IFCCARTESIANPOINT((0.,0.));
#164=IFCAXIS2PLACEMENT2D(#163,$);
#165=IFCCIRCLEPROFILEDEF(.AREA.,$,#164,0.0625);
#166=IFCCARTESIANPOINT((3.75,0.,3.));
#167=IFCDIRECTION((1.,0.,0.));
#168=IFCDIRECTION((0.,1.,0.));
#169=IFCAXIS2PLACEMENT3D(#166,#167,#168);
#170=IFCDIRECTION((0.,0.,1.));
#171=IFCEXTRUDEDAREASOLID(#165,#169,#170,0.5);
#172=IFCCARTESIANPOINT((0.,0.));
#173=IFCAXIS2PLACEMENT2D(#172,$);
#174=IFCCIRCLEPROFILEDEF(.AREA.,$,#173,0.0625);
#175=IFCCARTESIANPOINT((4.,0.,3.));
#176=IFCDIRECTION((0.,1.,0.));
#177=IFCDIRECTION((1.,0.,0.));
#178=IFCAXIS2PLACEMENT3D(#175,#176,#177);
#179=IFCDIRECTION((0.,0.,1.));
#180=IFCEXTRUDEDAREASOLID(#174,#178,#179,0.25);
#181=IFCBOOLEANRESULT(.UNION.,#171,#180);
#182=IFCSHAPEREPRESENTATION(#12,'Body','CSG',(#181));
#183=IFCPRODUCTDEFINITIONSHAPE($,$,(#182));
#184=IFCCARTESIANPOINT((3.75,0.,3.));
#185=IFCDIRECTION((1.,-0.,-0.));
#186=IFCDIRECTION((0.,1.,0.));
#187=IFCAXIS2PLACEMENT3D(#184,#185,#186);
#188=IFCLOCALPLACEMENT(#161,#187);
#189=IFCDISTRIBUTIONPORT('3J73PCtrjJ3ve7wH1vqQFz',$,'tee-2/a',$,$,#188,$,.SINK.,.PIPE.,$);
#190=IFCRELNESTS('2FZwrhxNTPXervFaQAAIN6',$,$,$,#162,(#189));
#191=IFCCARTESIANPOINT((4.25,0.,3.));
#192=IFCDIRECTION((1.,0.,0.));
#193=IFCDIRECTION((0.,1.,0.));
#194=IFCAXIS2PLACEMENT3D(#191,#192,#193);
#195=IFCLOCALPLACEMENT(#161,#194);
#196=IFCDISTRIBUTIONPORT('3Wn92$ngXOaAL6CPMeyu6q',$,'tee-2/b',$,$,#195,$,.SOURCE.,.PIPE.,$);
#197=IFCRELNESTS('3uKwaYpy5TMxQKN_97xODN',$,$,$,#162,(#196));
#198=IFCCARTESIANPOINT((4.,0.25,3.));
#199=IFCDIRECTION((0.,1.,0.));
#200=IFCDIRECTION((1.,0.,0.));
#201=IFCAXIS2PLACEMENT3D(#198,#199,#200);
#202=IFCLOCALPLACEMENT(#161,#201);
#203=IFCDISTRIBUTIONPORT('0vPNXB6AnQyRWm4ufIAV3m',$,'tee-2/branch',$,$,#202,$,.SOURCE.,.PIPE.,$);
#204=IFCRELNESTS('0EamSSyxjMKBhza89SnYou',$,$,$,#162,(#203));
#205=IFCCARTESIANPOINT((0.,0.,0.));
#206=IFCDIRECTION((0.,0.,1.));
#207=IFCDIRECTION((1.,0.,0.));
#208=IFCAXIS2PLACEMENT3D(#205,#206,#207);
#209=IFCLOCALPLACEMENT($,#208);
#210=IFCPIPEFITTING('2PB31jHDrOKuOMgD$BKG7c',$,'generated-b2cbb1f08730aeadd3fa0b45/tee-3',$,'OMA_NETWORK_TEE',#209,#231,$,.JUNCTION.);
#211=IFCCARTESIANPOINT((0.,0.));
#212=IFCAXIS2PLACEMENT2D(#211,$);
#213=IFCCIRCLEPROFILEDEF(.AREA.,$,#212,0.0625);
#214=IFCCARTESIANPOINT((5.75,0.,3.));
#215=IFCDIRECTION((1.,0.,0.));
#216=IFCDIRECTION((0.,1.,0.));
#217=IFCAXIS2PLACEMENT3D(#214,#215,#216);
#218=IFCDIRECTION((0.,0.,1.));
#219=IFCEXTRUDEDAREASOLID(#213,#217,#218,0.5);
#220=IFCCARTESIANPOINT((0.,0.));
#221=IFCAXIS2PLACEMENT2D(#220,$);
#222=IFCCIRCLEPROFILEDEF(.AREA.,$,#221,0.0625);
#223=IFCCARTESIANPOINT((6.,0.,3.));
#224=IFCDIRECTION((0.,1.,0.));
#225=IFCDIRECTION((1.,0.,0.));
#226=IFCAXIS2PLACEMENT3D(#223,#224,#225);
#227=IFCDIRECTION((0.,0.,1.));
#228=IFCEXTRUDEDAREASOLID(#222,#226,#227,0.25);
#229=IFCBOOLEANRESULT(.UNION.,#219,#228);
#230=IFCSHAPEREPRESENTATION(#12,'Body','CSG',(#229));
#231=IFCPRODUCTDEFINITIONSHAPE($,$,(#230));
#232=IFCCARTESIANPOINT((5.75,0.,3.));
#233=IFCDIRECTION((1.,-0.,-0.));
#234=IFCDIRECTION((0.,1.,0.));
#235=IFCAXIS2PLACEMENT3D(#232,#233,#234);
#236=IFCLOCALPLACEMENT(#209,#235);
#237=IFCDISTRIBUTIONPORT('22soO1e6jVVeZDgP73YwrG',$,'tee-3/a',$,$,#236,$,.SINK.,.PIPE.,$);
#238=IFCRELNESTS('36qhx2ZE9J5hTLc1B7syIK',$,$,$,#210,(#237));
#239=IFCCARTESIANPOINT((6.25,0.,3.));
#240=IFCDIRECTION((1.,0.,0.));
#241=IFCDIRECTION((0.,1.,0.));
#242=IFCAXIS2PLACEMENT3D(#239,#240,#241);
#243=IFCLOCALPLACEMENT(#209,#242);
#244=IFCDISTRIBUTIONPORT('1tTiIU49LV5BFSJb43Fqyj',$,'tee-3/b',$,$,#243,$,.SOURCE.,.PIPE.,$);
#245=IFCRELNESTS('3bR3UXBxbUXAEMCo7CjbnA',$,$,$,#210,(#244));
#246=IFCCARTESIANPOINT((6.,0.25,3.));
#247=IFCDIRECTION((0.,1.,0.));
#248=IFCDIRECTION((1.,0.,0.));
#249=IFCAXIS2PLACEMENT3D(#246,#247,#248);
#250=IFCLOCALPLACEMENT(#209,#249);
#251=IFCDISTRIBUTIONPORT('3eQp6IUjTQ98XP$LLYjP0T',$,'tee-3/branch',$,$,#250,$,.SOURCE.,.PIPE.,$);
#252=IFCRELNESTS('2bfI$mp7XVBONBuDbn6K5g',$,$,$,#210,(#251));
#253=IFCCARTESIANPOINT((0.,0.,0.));
#254=IFCDIRECTION((0.,0.,1.));
#255=IFCDIRECTION((1.,0.,0.));
#256=IFCAXIS2PLACEMENT3D(#253,#254,#255);
#257=IFCLOCALPLACEMENT($,#256);
#258=IFCPIPEFITTING('3Dfft94GnRLw_DCvlEak_y',$,'generated-b2cbb1f08730aeadd3fa0b45/tee-4',$,'OMA_NETWORK_TEE',#257,#279,$,.JUNCTION.);
#259=IFCCARTESIANPOINT((0.,0.));
#260=IFCAXIS2PLACEMENT2D(#259,$);
#261=IFCCIRCLEPROFILEDEF(.AREA.,$,#260,0.0625);
#262=IFCCARTESIANPOINT((7.75,0.,3.));
#263=IFCDIRECTION((1.,0.,0.));
#264=IFCDIRECTION((0.,1.,0.));
#265=IFCAXIS2PLACEMENT3D(#262,#263,#264);
#266=IFCDIRECTION((0.,0.,1.));
#267=IFCEXTRUDEDAREASOLID(#261,#265,#266,0.5);
#268=IFCCARTESIANPOINT((0.,0.));
#269=IFCAXIS2PLACEMENT2D(#268,$);
#270=IFCCIRCLEPROFILEDEF(.AREA.,$,#269,0.0625);
#271=IFCCARTESIANPOINT((8.,0.,3.));
#272=IFCDIRECTION((0.,1.,0.));
#273=IFCDIRECTION((1.,0.,0.));
#274=IFCAXIS2PLACEMENT3D(#271,#272,#273);
#275=IFCDIRECTION((0.,0.,1.));
#276=IFCEXTRUDEDAREASOLID(#270,#274,#275,0.25);
#277=IFCBOOLEANRESULT(.UNION.,#267,#276);
#278=IFCSHAPEREPRESENTATION(#12,'Body','CSG',(#277));
#279=IFCPRODUCTDEFINITIONSHAPE($,$,(#278));
#280=IFCCARTESIANPOINT((7.75,0.,3.));
#281=IFCDIRECTION((1.,-0.,-0.));
#282=IFCDIRECTION((0.,1.,0.));
#283=IFCAXIS2PLACEMENT3D(#280,#281,#282);
#284=IFCLOCALPLACEMENT(#257,#283);
#285=IFCDISTRIBUTIONPORT('3mqrIdq0PSABNz_u2d5oRg',$,'tee-4/a',$,$,#284,$,.SINK.,.PIPE.,$);
#286=IFCRELNESTS('2zf1x5QFrRbfhG9$F08WCX',$,$,$,#258,(#285));
#287=IFCCARTESIANPOINT((8.25,0.,3.));
#288=IFCDIRECTION((1.,0.,0.));
#289=IFCDIRECTION((0.,1.,0.));
#290=IFCAXIS2PLACEMENT3D(#287,#288,#289);
#291=IFCLOCALPLACEMENT(#257,#290);
#292=IFCDISTRIBUTIONPORT('3bgzOCSYrLxOLs0jqa$9LE',$,'tee-4/b',$,$,#291,$,.SOURCE.,.PIPE.,$);
#293=IFCRELNESTS('2tTxEvXlDTc96Ed6LAhQBo',$,$,$,#258,(#292));
#294=IFCCARTESIANPOINT((8.,0.25,3.));
#295=IFCDIRECTION((0.,1.,0.));
#296=IFCDIRECTION((1.,0.,0.));
#297=IFCAXIS2PLACEMENT3D(#294,#295,#296);
#298=IFCLOCALPLACEMENT(#257,#297);
#299=IFCDISTRIBUTIONPORT('3bVaue9UjRufIqx1tXX03H',$,'tee-4/branch',$,$,#298,$,.SOURCE.,.PIPE.,$);
#300=IFCRELNESTS('2REDj0kaHOZwcIcr7$bSbO',$,$,$,#258,(#299));
#301=IFCCARTESIANPOINT((0.,0.,0.));
#302=IFCDIRECTION((0.,0.,1.));
#303=IFCDIRECTION((1.,0.,0.));
#304=IFCAXIS2PLACEMENT3D(#301,#302,#303);
#305=IFCLOCALPLACEMENT($,#304);
#306=IFCPIPEFITTING('3MLANOYPfSbvqxa$skhGE5',$,'generated-b2cbb1f08730aeadd3fa0b45/tee-5',$,'OMA_NETWORK_TEE',#305,#327,$,.JUNCTION.);
#307=IFCCARTESIANPOINT((0.,0.));
#308=IFCAXIS2PLACEMENT2D(#307,$);
#309=IFCCIRCLEPROFILEDEF(.AREA.,$,#308,0.0625);
#310=IFCCARTESIANPOINT((9.75,0.,3.));
#311=IFCDIRECTION((1.,0.,0.));
#312=IFCDIRECTION((0.,1.,0.));
#313=IFCAXIS2PLACEMENT3D(#310,#311,#312);
#314=IFCDIRECTION((0.,0.,1.));
#315=IFCEXTRUDEDAREASOLID(#309,#313,#314,0.5);
#316=IFCCARTESIANPOINT((0.,0.));
#317=IFCAXIS2PLACEMENT2D(#316,$);
#318=IFCCIRCLEPROFILEDEF(.AREA.,$,#317,0.0625);
#319=IFCCARTESIANPOINT((10.,0.,3.));
#320=IFCDIRECTION((0.,1.,0.));
#321=IFCDIRECTION((1.,0.,0.));
#322=IFCAXIS2PLACEMENT3D(#319,#320,#321);
#323=IFCDIRECTION((0.,0.,1.));
#324=IFCEXTRUDEDAREASOLID(#318,#322,#323,0.25);
#325=IFCBOOLEANRESULT(.UNION.,#315,#324);
#326=IFCSHAPEREPRESENTATION(#12,'Body','CSG',(#325));
#327=IFCPRODUCTDEFINITIONSHAPE($,$,(#326));
#328=IFCCARTESIANPOINT((9.75,0.,3.));
#329=IFCDIRECTION((1.,-0.,-0.));
#330=IFCDIRECTION((0.,1.,0.));
#331=IFCAXIS2PLACEMENT3D(#328,#329,#330);
#332=IFCLOCALPLACEMENT(#305,#331);
#333=IFCDISTRIBUTIONPORT('0ZD98Nt6fMwQdfc5qfN7mO',$,'tee-5/a',$,$,#332,$,.SINK.,.PIPE.,$);
#334=IFCRELNESTS('2gt8t1FAXSIQmhVEbj5jAS',$,$,$,#306,(#333));
#335=IFCCARTESIANPOINT((10.25,0.,3.));
#336=IFCDIRECTION((1.,0.,0.));
#337=IFCDIRECTION((0.,1.,0.));
#338=IFCAXIS2PLACEMENT3D(#335,#336,#337);
#339=IFCLOCALPLACEMENT(#305,#338);
#340=IFCDISTRIBUTIONPORT('34jRkBOt1T3gU_JUGy7lmV',$,'tee-5/b',$,$,#339,$,.SOURCE.,.PIPE.,$);
#341=IFCRELNESTS('3EPEfx_DbGTOT7N5VBL$KO',$,$,$,#306,(#340));
#342=IFCCARTESIANPOINT((10.,0.25,3.));
#343=IFCDIRECTION((0.,1.,0.));
#344=IFCDIRECTION((1.,0.,0.));
#345=IFCAXIS2PLACEMENT3D(#342,#343,#344);
#346=IFCLOCALPLACEMENT(#305,#345);
#347=IFCDISTRIBUTIONPORT('0xA78D1QfS0vAJqBexejNZ',$,'tee-5/branch',$,$,#346,$,.SOURCE.,.PIPE.,$);
#348=IFCRELNESTS('3c$s$dJhfU3fG6eX5EwDBw',$,$,$,#306,(#347));
#349=IFCCARTESIANPOINT((0.,0.,0.));
#350=IFCDIRECTION((0.,0.,1.));
#351=IFCDIRECTION((1.,0.,0.));
#352=IFCAXIS2PLACEMENT3D(#349,#350,#351);
#353=IFCLOCALPLACEMENT($,#352);
#354=IFCPIPESEGMENT('3Dvq2EyeXIkRRG4RFIvlJc',$,'generated-b2cbb1f08730aeadd3fa0b45/connector-0da587aec7b61b8576787aef-p0',$,'OMA_NETWORK_SEGMENT',#353,#365,$,.RIGIDSEGMENT.);
#355=IFCCARTESIANPOINT((0.,0.));
#356=IFCAXIS2PLACEMENT2D(#355,$);
#357=IFCCIRCLEPROFILEDEF(.AREA.,$,#356,0.0625);
#358=IFCCARTESIANPOINT((10.,0.25,3.));
#359=IFCDIRECTION((0.,1.,0.));
#360=IFCDIRECTION((1.,0.,0.));
#361=IFCAXIS2PLACEMENT3D(#358,#359,#360);
#362=IFCDIRECTION((0.,0.,1.));
#363=IFCEXTRUDEDAREASOLID(#357,#361,#362,2.75);
#364=IFCSHAPEREPRESENTATION(#12,'Body','SweptSolid',(#363));
#365=IFCPRODUCTDEFINITIONSHAPE($,$,(#364));
#366=IFCCARTESIANPOINT((10.,0.25,3.));
#367=IFCDIRECTION((-0.,1.,-0.));
#368=IFCDIRECTION((1.,0.,0.));
#369=IFCAXIS2PLACEMENT3D(#366,#367,#368);
#370=IFCLOCALPLACEMENT(#353,#369);
#371=IFCDISTRIBUTIONPORT('2yzmeTCVPGxBqtl$IhGB1b',$,'connector-0da587aec7b61b8576787aef-p0/a',$,$,#370,$,.SINK.,.PIPE.,$);
#372=IFCRELNESTS('1d_wGJojLO0AV0j6$MDEhx',$,$,$,#354,(#371));
#373=IFCCARTESIANPOINT((10.,3.,3.));
#374=IFCDIRECTION((0.,1.,0.));
#375=IFCDIRECTION((1.,0.,0.));
#376=IFCAXIS2PLACEMENT3D(#373,#374,#375);
#377=IFCLOCALPLACEMENT(#353,#376);
#378=IFCDISTRIBUTIONPORT('0rHF3tHSXNGPrCSxs8XoUj',$,'connector-0da587aec7b61b8576787aef-p0/b',$,$,#377,$,.SOURCE.,.PIPE.,$);
#379=IFCRELNESTS('3Dqwyp50PNwQnLgyx6AP8v',$,$,$,#354,(#378));
#380=IFCCARTESIANPOINT((0.,0.,0.));
#381=IFCDIRECTION((0.,0.,1.));
#382=IFCDIRECTION((1.,0.,0.));
#383=IFCAXIS2PLACEMENT3D(#380,#381,#382);
#384=IFCLOCALPLACEMENT($,#383);
#385=IFCPIPESEGMENT('0NCvYVfwnGBwZ$cUR9Rtyn',$,'generated-b2cbb1f08730aeadd3fa0b45/connector-1e66afa7a72e3b5640a64c92-p0',$,'OMA_NETWORK_SEGMENT',#384,#396,$,.RIGIDSEGMENT.);
#386=IFCCARTESIANPOINT((0.,0.));
#387=IFCAXIS2PLACEMENT2D(#386,$);
#388=IFCCIRCLEPROFILEDEF(.AREA.,$,#387,0.0625);
#389=IFCCARTESIANPOINT((6.25,0.,3.));
#390=IFCDIRECTION((1.,0.,0.));
#391=IFCDIRECTION((0.,1.,0.));
#392=IFCAXIS2PLACEMENT3D(#389,#390,#391);
#393=IFCDIRECTION((0.,0.,1.));
#394=IFCEXTRUDEDAREASOLID(#388,#392,#393,1.5);
#395=IFCSHAPEREPRESENTATION(#12,'Body','SweptSolid',(#394));
#396=IFCPRODUCTDEFINITIONSHAPE($,$,(#395));
#397=IFCCARTESIANPOINT((6.25,0.,3.));
#398=IFCDIRECTION((1.,-0.,-0.));
#399=IFCDIRECTION((0.,1.,0.));
#400=IFCAXIS2PLACEMENT3D(#397,#398,#399);
#401=IFCLOCALPLACEMENT(#384,#400);
#402=IFCDISTRIBUTIONPORT('3M0PLuDanQzuY6FVLAzR5t',$,'connector-1e66afa7a72e3b5640a64c92-p0/a',$,$,#401,$,.SINK.,.PIPE.,$);
#403=IFCRELNESTS('2XoEta3OvL3xLHnLEfcviP',$,$,$,#385,(#402));
#404=IFCCARTESIANPOINT((7.75,0.,3.));
#405=IFCDIRECTION((1.,0.,0.));
#406=IFCDIRECTION((0.,1.,0.));
#407=IFCAXIS2PLACEMENT3D(#404,#405,#406);
#408=IFCLOCALPLACEMENT(#384,#407);
#409=IFCDISTRIBUTIONPORT('3XWu4GoIvJDObT9ZgJzy9C',$,'connector-1e66afa7a72e3b5640a64c92-p0/b',$,$,#408,$,.SOURCE.,.PIPE.,$);
#410=IFCRELNESTS('0S7CW1AIHN6PmIZHoRljJJ',$,$,$,#385,(#409));
#411=IFCCARTESIANPOINT((0.,0.,0.));
#412=IFCDIRECTION((0.,0.,1.));
#413=IFCDIRECTION((1.,0.,0.));
#414=IFCAXIS2PLACEMENT3D(#411,#412,#413);
#415=IFCLOCALPLACEMENT($,#414);
#416=IFCPIPESEGMENT('1ZM$SjmEjGlhYFAmbmDmIX',$,'generated-b2cbb1f08730aeadd3fa0b45/connector-2237e3cce47cd2c8812eade3-p0',$,'OMA_NETWORK_SEGMENT',#415,#427,$,.RIGIDSEGMENT.);
#417=IFCCARTESIANPOINT((0.,0.));
#418=IFCAXIS2PLACEMENT2D(#417,$);
#419=IFCCIRCLEPROFILEDEF(.AREA.,$,#418,0.0625);
#420=IFCCARTESIANPOINT((8.,0.25,3.));
#421=IFCDIRECTION((0.,1.,0.));
#422=IFCDIRECTION((1.,0.,0.));
#423=IFCAXIS2PLACEMENT3D(#420,#421,#422);
#424=IFCDIRECTION((0.,0.,1.));
#425=IFCEXTRUDEDAREASOLID(#419,#423,#424,2.75);
#426=IFCSHAPEREPRESENTATION(#12,'Body','SweptSolid',(#425));
#427=IFCPRODUCTDEFINITIONSHAPE($,$,(#426));
#428=IFCCARTESIANPOINT((8.,0.25,3.));
#429=IFCDIRECTION((-0.,1.,-0.));
#430=IFCDIRECTION((1.,0.,0.));
#431=IFCAXIS2PLACEMENT3D(#428,#429,#430);
#432=IFCLOCALPLACEMENT(#415,#431);
#433=IFCDISTRIBUTIONPORT('2ZWU18ZkvIj9FHTsByO33D',$,'connector-2237e3cce47cd2c8812eade3-p0/a',$,$,#432,$,.SINK.,.PIPE.,$);
#434=IFCRELNESTS('1ofz6ctzHV5gOgljKY5BNL',$,$,$,#416,(#433));
#435=IFCCARTESIANPOINT((8.,3.,3.));
#436=IFCDIRECTION((0.,1.,0.));
#437=IFCDIRECTION((1.,0.,0.));
#438=IFCAXIS2PLACEMENT3D(#435,#436,#437);
#439=IFCLOCALPLACEMENT(#415,#438);
#440=IFCDISTRIBUTIONPORT('0zeLO14YLQDRoaOvQuHUIh',$,'connector-2237e3cce47cd2c8812eade3-p0/b',$,$,#439,$,.SOURCE.,.PIPE.,$);
#441=IFCRELNESTS('3EtA6HnY1HCQM0l_6H3H6h',$,$,$,#416,(#440));
#442=IFCCARTESIANPOINT((0.,0.,0.));
#443=IFCDIRECTION((0.,0.,1.));
#444=IFCDIRECTION((1.,0.,0.));
#445=IFCAXIS2PLACEMENT3D(#442,#443,#444);
#446=IFCLOCALPLACEMENT($,#445);
#447=IFCPIPESEGMENT('0w3cC8VeLGOR10GvEUpYKa',$,'generated-b2cbb1f08730aeadd3fa0b45/connector-33b62574439265f598c1d012-p0',$,'OMA_NETWORK_SEGMENT',#446,#458,$,.RIGIDSEGMENT.);
#448=IFCCARTESIANPOINT((0.,0.));
#449=IFCAXIS2PLACEMENT2D(#448,$);
#450=IFCCIRCLEPROFILEDEF(.AREA.,$,#449,0.0625);
#451=IFCCARTESIANPOINT((8.25,0.,3.));
#452=IFCDIRECTION((1.,0.,0.));
#453=IFCDIRECTION((0.,1.,0.));
#454=IFCAXIS2PLACEMENT3D(#451,#452,#453);
#455=IFCDIRECTION((0.,0.,1.));
#456=IFCEXTRUDEDAREASOLID(#450,#454,#455,1.5);
#457=IFCSHAPEREPRESENTATION(#12,'Body','SweptSolid',(#456));
#458=IFCPRODUCTDEFINITIONSHAPE($,$,(#457));
#459=IFCCARTESIANPOINT((8.25,0.,3.));
#460=IFCDIRECTION((1.,-0.,-0.));
#461=IFCDIRECTION((0.,1.,0.));
#462=IFCAXIS2PLACEMENT3D(#459,#460,#461);
#463=IFCLOCALPLACEMENT(#446,#462);
#464=IFCDISTRIBUTIONPORT('04eg$_flPTSBC6nauO_3Gv',$,'connector-33b62574439265f598c1d012-p0/a',$,$,#463,$,.SINK.,.PIPE.,$);
#465=IFCRELNESTS('2D6Ak2S4zLTAOKPjnpQDOO',$,$,$,#447,(#464));
#466=IFCCARTESIANPOINT((9.75,0.,3.));
#467=IFCDIRECTION((1.,0.,0.));
#468=IFCDIRECTION((0.,1.,0.));
#469=IFCAXIS2PLACEMENT3D(#466,#467,#468);
#470=IFCLOCALPLACEMENT(#446,#469);
#471=IFCDISTRIBUTIONPORT('0XmLf1NU5O3eufLxebp7NS',$,'connector-33b62574439265f598c1d012-p0/b',$,$,#470,$,.SOURCE.,.PIPE.,$);
#472=IFCRELNESTS('3Xz8celvnK2hBKkgUTXldY',$,$,$,#447,(#471));
#473=IFCCARTESIANPOINT((0.,0.,0.));
#474=IFCDIRECTION((0.,0.,1.));
#475=IFCDIRECTION((1.,0.,0.));
#476=IFCAXIS2PLACEMENT3D(#473,#474,#475);
#477=IFCLOCALPLACEMENT($,#476);
#478=IFCPIPESEGMENT('2gWLOo2L5IneR8CaEr6UI6',$,'generated-b2cbb1f08730aeadd3fa0b45/connector-443108ba2ee05a9129f30e0e-p0',$,'OMA_NETWORK_SEGMENT',#477,#489,$,.RIGIDSEGMENT.);
#479=IFCCARTESIANPOINT((0.,0.));
#480=IFCAXIS2PLACEMENT2D(#479,$);
#481=IFCCIRCLEPROFILEDEF(.AREA.,$,#480,0.0625);
#482=IFCCARTESIANPOINT((4.25,0.,3.));
#483=IFCDIRECTION((1.,0.,0.));
#484=IFCDIRECTION((0.,1.,0.));
#485=IFCAXIS2PLACEMENT3D(#482,#483,#484);
#486=IFCDIRECTION((0.,0.,1.));
#487=IFCEXTRUDEDAREASOLID(#481,#485,#486,1.5);
#488=IFCSHAPEREPRESENTATION(#12,'Body','SweptSolid',(#487));
#489=IFCPRODUCTDEFINITIONSHAPE($,$,(#488));
#490=IFCCARTESIANPOINT((4.25,0.,3.));
#491=IFCDIRECTION((1.,-0.,-0.));
#492=IFCDIRECTION((0.,1.,0.));
#493=IFCAXIS2PLACEMENT3D(#490,#491,#492);
#494=IFCLOCALPLACEMENT(#477,#493);
#495=IFCDISTRIBUTIONPORT('3AcdKb1snGnxBQag2fZfji',$,'connector-443108ba2ee05a9129f30e0e-p0/a',$,$,#494,$,.SINK.,.PIPE.,$);
#496=IFCRELNESTS('0WFy9PNETNZ83GZAVzskzT',$,$,$,#478,(#495));
#497=IFCCARTESIANPOINT((5.75,0.,3.));
#498=IFCDIRECTION((1.,0.,0.));
#499=IFCDIRECTION((0.,1.,0.));
#500=IFCAXIS2PLACEMENT3D(#497,#498,#499);
#501=IFCLOCALPLACEMENT(#477,#500);
#502=IFCDISTRIBUTIONPORT('1bA2QI8wXNl88RmbokxBW6',$,'connector-443108ba2ee05a9129f30e0e-p0/b',$,$,#501,$,.SOURCE.,.PIPE.,$);
#503=IFCRELNESTS('110Oa9gYnKlh5sNH2CH2_I',$,$,$,#478,(#502));
#504=IFCCARTESIANPOINT((0.,0.,0.));
#505=IFCDIRECTION((0.,0.,1.));
#506=IFCDIRECTION((1.,0.,0.));
#507=IFCAXIS2PLACEMENT3D(#504,#505,#506);
#508=IFCLOCALPLACEMENT($,#507);
#509=IFCPIPESEGMENT('0KzZtgs0PS1uPiMlPTMnB4',$,'generated-b2cbb1f08730aeadd3fa0b45/connector-5f4d533bfcbd34340c589965-p0',$,'OMA_NETWORK_SEGMENT',#508,#520,$,.RIGIDSEGMENT.);
#510=IFCCARTESIANPOINT((0.,0.));
#511=IFCAXIS2PLACEMENT2D(#510,$);
#512=IFCCIRCLEPROFILEDEF(.AREA.,$,#511,0.0625);
#513=IFCCARTESIANPOINT((0.,0.25,3.));
#514=IFCDIRECTION((0.,1.,0.));
#515=IFCDIRECTION((1.,0.,0.));
#516=IFCAXIS2PLACEMENT3D(#513,#514,#515);
#517=IFCDIRECTION((0.,0.,1.));
#518=IFCEXTRUDEDAREASOLID(#512,#516,#517,1.75);
#519=IFCSHAPEREPRESENTATION(#12,'Body','SweptSolid',(#518));
#520=IFCPRODUCTDEFINITIONSHAPE($,$,(#519));
#521=IFCCARTESIANPOINT((0.,0.25,3.));
#522=IFCDIRECTION((-0.,1.,-0.));
#523=IFCDIRECTION((1.,0.,0.));
#524=IFCAXIS2PLACEMENT3D(#521,#522,#523);
#525=IFCLOCALPLACEMENT(#508,#524);
#526=IFCDISTRIBUTIONPORT('3TssGDMQDTgvBpVfTNkaGs',$,'connector-5f4d533bfcbd34340c589965-p0/a',$,$,#525,$,.SINK.,.PIPE.,$);
#527=IFCRELNESTS('1M58chaizRnw77d97MI700',$,$,$,#509,(#526));
#528=IFCCARTESIANPOINT((0.,2.,3.));
#529=IFCDIRECTION((0.,1.,0.));
#530=IFCDIRECTION((1.,0.,0.));
#531=IFCAXIS2PLACEMENT3D(#528,#529,#530);
#532=IFCLOCALPLACEMENT(#508,#531);
#533=IFCDISTRIBUTIONPORT('1Y_WT0_NXOs9crIZLuTxvo',$,'connector-5f4d533bfcbd34340c589965-p0/b',$,$,#532,$,.SOURCE.,.PIPE.,$);
#534=IFCRELNESTS('1WcXCjgpXRxRLpJfaehAyC',$,$,$,#509,(#533));
#535=IFCCARTESIANPOINT((0.,0.,0.));
#536=IFCDIRECTION((0.,0.,1.));
#537=IFCDIRECTION((1.,0.,0.));
#538=IFCAXIS2PLACEMENT3D(#535,#536,#537);
#539=IFCLOCALPLACEMENT($,#538);
#540=IFCPIPEFITTING('36s8qCULvR_gsIhmPm9v36',$,'generated-b2cbb1f08730aeadd3fa0b45/connector-5f4d533bfcbd34340c589965-p1',$,'OMA_NETWORK_ELBOW',#539,#553,$,.BEND.);
#541=IFCCARTESIANPOINT((0.25,0.));
#542=IFCAXIS2PLACEMENT2D(#541,$);
#543=IFCCIRCLEPROFILEDEF(.AREA.,$,#542,0.0625);
#544=IFCCARTESIANPOINT((0.25,2.,3.));
#545=IFCDIRECTION((0.,1.,0.));
#546=IFCDIRECTION((-1.,0.,0.));
#547=IFCAXIS2PLACEMENT3D(#544,#545,#546);
#548=IFCCARTESIANPOINT((0.,0.,0.));
#549=IFCDIRECTION((0.,-1.,0.));
#550=IFCAXIS1PLACEMENT(#548,#549);
#551=IFCREVOLVEDAREASOLID(#543,#547,#550,1.5707963267948966);
#552=IFCSHAPEREPRESENTATION(#12,'Body','SweptSolid',(#551));
#553=IFCPRODUCTDEFINITIONSHAPE($,$,(#552));
#554=IFCCARTESIANPOINT((0.,2.,3.));
#555=IFCDIRECTION((-0.,1.,-0.));
#556=IFCDIRECTION((1.,0.,0.));
#557=IFCAXIS2PLACEMENT3D(#554,#555,#556);
#558=IFCLOCALPLACEMENT(#539,#557);
#559=IFCDISTRIBUTIONPORT('13LFVPUsvPZRod4B67OSho',$,'connector-5f4d533bfcbd34340c589965-p1/a',$,$,#558,$,.SINK.,.PIPE.,$);
#560=IFCRELNESTS('0$tYtbnUXRivyHCV_WcdSX',$,$,$,#540,(#559));
#561=IFCCARTESIANPOINT((0.25,2.25,3.));
#562=IFCDIRECTION((1.,0.,0.));
#563=IFCDIRECTION((0.,1.,0.));
#564=IFCAXIS2PLACEMENT3D(#561,#562,#563);
#565=IFCLOCALPLACEMENT(#539,#564);
#566=IFCDISTRIBUTIONPORT('3MuebR7e9OKA2usEsmrpH3',$,'connector-5f4d533bfcbd34340c589965-p1/b',$,$,#565,$,.SOURCE.,.PIPE.,$);
#567=IFCRELNESTS('3QNA2_0ITKBgnkwnbTVmdJ',$,$,$,#540,(#566));
#568=IFCCARTESIANPOINT((0.,0.,0.));
#569=IFCDIRECTION((0.,0.,1.));
#570=IFCDIRECTION((1.,0.,0.));
#571=IFCAXIS2PLACEMENT3D(#568,#569,#570);
#572=IFCLOCALPLACEMENT($,#571);
#573=IFCPIPESEGMENT('24ZYQaxlXJ3RXl_FwXXqxE',$,'generated-b2cbb1f08730aeadd3fa0b45/connector-5f4d533bfcbd34340c589965-p2',$,'OMA_NETWORK_SEGMENT',#572,#584,$,.RIGIDSEGMENT.);
#574=IFCCARTESIANPOINT((0.,0.));
#575=IFCAXIS2PLACEMENT2D(#574,$);
#576=IFCCIRCLEPROFILEDEF(.AREA.,$,#575,0.0625);
#577=IFCCARTESIANPOINT((0.25,2.25,3.));
#578=IFCDIRECTION((1.,0.,0.));
#579=IFCDIRECTION((0.,1.,0.));
#580=IFCAXIS2PLACEMENT3D(#577,#578,#579);
#581=IFCDIRECTION((0.,0.,1.));
#582=IFCEXTRUDEDAREASOLID(#576,#580,#581,0.5);
#583=IFCSHAPEREPRESENTATION(#12,'Body','SweptSolid',(#582));
#584=IFCPRODUCTDEFINITIONSHAPE($,$,(#583));
#585=IFCCARTESIANPOINT((0.25,2.25,3.));
#586=IFCDIRECTION((1.,-0.,-0.));
#587=IFCDIRECTION((0.,1.,0.));
#588=IFCAXIS2PLACEMENT3D(#585,#586,#587);
#589=IFCLOCALPLACEMENT(#572,#588);
#590=IFCDISTRIBUTIONPORT('12Zp6O6ObTGfzOhVn$PZHj',$,'connector-5f4d533bfcbd34340c589965-p2/a',$,$,#589,$,.SINK.,.PIPE.,$);
#591=IFCRELNESTS('12SvQe0pLS5wRfBXCH0a1a',$,$,$,#573,(#590));
#592=IFCCARTESIANPOINT((0.75,2.25,3.));
#593=IFCDIRECTION((1.,0.,0.));
#594=IFCDIRECTION((0.,1.,0.));
#595=IFCAXIS2PLACEMENT3D(#592,#593,#594);
#596=IFCLOCALPLACEMENT(#572,#595);
#597=IFCDISTRIBUTIONPORT('3F9XA29BDMmR78BE46ODUX',$,'connector-5f4d533bfcbd34340c589965-p2/b',$,$,#596,$,.SOURCE.,.PIPE.,$);
#598=IFCRELNESTS('0S8PFDJHLKKfVRstOq3zJ1',$,$,$,#573,(#597));
#599=IFCCARTESIANPOINT((0.,0.,0.));
#600=IFCDIRECTION((0.,0.,1.));
#601=IFCDIRECTION((1.,0.,0.));
#602=IFCAXIS2PLACEMENT3D(#599,#600,#601);
#603=IFCLOCALPLACEMENT($,#602);
#604=IFCPIPEFITTING('0ozDIJvqnGMxvK74VfJFIh',$,'generated-b2cbb1f08730aeadd3fa0b45/connector-5f4d533bfcbd34340c589965-p3',$,'OMA_NETWORK_ELBOW',#603,#617,$,.BEND.);
#605=IFCCARTESIANPOINT((0.25,0.));
#606=IFCAXIS2PLACEMENT2D(#605,$);
#607=IFCCIRCLEPROFILEDEF(.AREA.,$,#606,0.0625);
#608=IFCCARTESIANPOINT((0.75,2.5,3.));
#609=IFCDIRECTION((1.,0.,0.));
#610=IFCDIRECTION((0.,-1.,0.));
#611=IFCAXIS2PLACEMENT3D(#608,#609,#610);
#612=IFCCARTESIANPOINT((0.,0.,0.));
#613=IFCDIRECTION((0.,-1.,0.));
#614=IFCAXIS1PLACEMENT(#612,#613);
#615=IFCREVOLVEDAREASOLID(#607,#611,#614,1.5707963267948966);
#616=IFCSHAPEREPRESENTATION(#12,'Body','SweptSolid',(#615));
#617=IFCPRODUCTDEFINITIONSHAPE($,$,(#616));
#618=IFCCARTESIANPOINT((0.75,2.25,3.));
#619=IFCDIRECTION((1.,-0.,-0.));
#620=IFCDIRECTION((0.,1.,0.));
#621=IFCAXIS2PLACEMENT3D(#618,#619,#620);
#622=IFCLOCALPLACEMENT(#603,#621);
#623=IFCDISTRIBUTIONPORT('3M89zNiCzVFxTnRpDQ3ajD',$,'connector-5f4d533bfcbd34340c589965-p3/a',$,$,#622,$,.SINK.,.PIPE.,$);
#624=IFCRELNESTS('0ZgE3GFvrOXwxPiJxFcS0q',$,$,$,#604,(#623));
#625=IFCCARTESIANPOINT((1.,2.5,3.));
#626=IFCDIRECTION((0.,1.,0.));
#627=IFCDIRECTION((1.,0.,0.));
#628=IFCAXIS2PLACEMENT3D(#625,#626,#627);
#629=IFCLOCALPLACEMENT(#603,#628);
#630=IFCDISTRIBUTIONPORT('2KiSF$IxPNEvtcAKU2ABfy',$,'connector-5f4d533bfcbd34340c589965-p3/b',$,$,#629,$,.SOURCE.,.PIPE.,$);
#631=IFCRELNESTS('34Dz_SNVDVTOAo4scF9XES',$,$,$,#604,(#630));
#632=IFCCARTESIANPOINT((0.,0.,0.));
#633=IFCDIRECTION((0.,0.,1.));
#634=IFCDIRECTION((1.,0.,0.));
#635=IFCAXIS2PLACEMENT3D(#632,#633,#634);
#636=IFCLOCALPLACEMENT($,#635);
#637=IFCPIPESEGMENT('1B8nYTqR9M_vgSDd62XxHh',$,'generated-b2cbb1f08730aeadd3fa0b45/connector-5f4d533bfcbd34340c589965-p4',$,'OMA_NETWORK_SEGMENT',#636,#648,$,.RIGIDSEGMENT.);
#638=IFCCARTESIANPOINT((0.,0.));
#639=IFCAXIS2PLACEMENT2D(#638,$);
#640=IFCCIRCLEPROFILEDEF(.AREA.,$,#639,0.0625);
#641=IFCCARTESIANPOINT((1.,2.5,3.));
#642=IFCDIRECTION((0.,1.,0.));
#643=IFCDIRECTION((1.,0.,0.));
#644=IFCAXIS2PLACEMENT3D(#641,#642,#643);
#645=IFCDIRECTION((0.,0.,1.));
#646=IFCEXTRUDEDAREASOLID(#640,#644,#645,0.5);
#647=IFCSHAPEREPRESENTATION(#12,'Body','SweptSolid',(#646));
#648=IFCPRODUCTDEFINITIONSHAPE($,$,(#647));
#649=IFCCARTESIANPOINT((1.,2.5,3.));
#650=IFCDIRECTION((-0.,1.,-0.));
#651=IFCDIRECTION((1.,0.,0.));
#652=IFCAXIS2PLACEMENT3D(#649,#650,#651);
#653=IFCLOCALPLACEMENT(#636,#652);
#654=IFCDISTRIBUTIONPORT('0tySjzBLPVHBj2ld4D1UEi',$,'connector-5f4d533bfcbd34340c589965-p4/a',$,$,#653,$,.SINK.,.PIPE.,$);
#655=IFCRELNESTS('1ZZpFRcrPVPAU2uNDKVtxR',$,$,$,#637,(#654));
#656=IFCCARTESIANPOINT((1.,3.,3.));
#657=IFCDIRECTION((0.,1.,0.));
#658=IFCDIRECTION((1.,0.,0.));
#659=IFCAXIS2PLACEMENT3D(#656,#657,#658);
#660=IFCLOCALPLACEMENT(#636,#659);
#661=IFCDISTRIBUTIONPORT('0BenOVEprNARij6JkiGLgX',$,'connector-5f4d533bfcbd34340c589965-p4/b',$,$,#660,$,.SOURCE.,.PIPE.,$);
#662=IFCRELNESTS('0Ed9p8C9TQ3OIFP0KEQFJZ',$,$,$,#637,(#661));
#663=IFCCARTESIANPOINT((0.,0.,0.));
#664=IFCDIRECTION((0.,0.,1.));
#665=IFCDIRECTION((1.,0.,0.));
#666=IFCAXIS2PLACEMENT3D(#663,#664,#665);
#667=IFCLOCALPLACEMENT($,#666);
#668=IFCPIPESEGMENT('12m$omv_LVRvCdACHZ$VQM',$,'generated-b2cbb1f08730aeadd3fa0b45/connector-7d11bed117588215abe8f19d-p0',$,'OMA_NETWORK_SEGMENT',#667,#679,$,.RIGIDSEGMENT.);
#669=IFCCARTESIANPOINT((0.,0.));
#670=IFCAXIS2PLACEMENT2D(#669,$);
#671=IFCCIRCLEPROFILEDEF(.AREA.,$,#670,0.0625);
#672=IFCCARTESIANPOINT((0.25,0.,3.));
#673=IFCDIRECTION((1.,0.,0.));
#674=IFCDIRECTION((0.,1.,0.));
#675=IFCAXIS2PLACEMENT3D(#672,#673,#674);
#676=IFCDIRECTION((0.,0.,1.));
#677=IFCEXTRUDEDAREASOLID(#671,#675,#676,1.5);
#678=IFCSHAPEREPRESENTATION(#12,'Body','SweptSolid',(#677));
#679=IFCPRODUCTDEFINITIONSHAPE($,$,(#678));
#680=IFCCARTESIANPOINT((0.25,0.,3.));
#681=IFCDIRECTION((1.,-0.,-0.));
#682=IFCDIRECTION((0.,1.,0.));
#683=IFCAXIS2PLACEMENT3D(#680,#681,#682);
#684=IFCLOCALPLACEMENT(#667,#683);
#685=IFCDISTRIBUTIONPORT('1wighbc4vRfw41FXzG_7$c',$,'connector-7d11bed117588215abe8f19d-p0/a',$,$,#684,$,.SINK.,.PIPE.,$);
#686=IFCRELNESTS('3H3h5A7CPQ5gYx1797cqWs',$,$,$,#668,(#685));
#687=IFCCARTESIANPOINT((1.75,0.,3.));
#688=IFCDIRECTION((1.,0.,0.));
#689=IFCDIRECTION((0.,1.,0.));
#690=IFCAXIS2PLACEMENT3D(#687,#688,#689);
#691=IFCLOCALPLACEMENT(#667,#690);
#692=IFCDISTRIBUTIONPORT('3RoXT1RYDOW9x$40mqy8yb',$,'connector-7d11bed117588215abe8f19d-p0/b',$,$,#691,$,.SOURCE.,.PIPE.,$);
#693=IFCRELNESTS('2S1EXEW9HKyBN0MAipbxW2',$,$,$,#668,(#692));
#694=IFCCARTESIANPOINT((0.,0.,0.));
#695=IFCDIRECTION((0.,0.,1.));
#696=IFCDIRECTION((1.,0.,0.));
#697=IFCAXIS2PLACEMENT3D(#694,#695,#696);
#698=IFCLOCALPLACEMENT($,#697);
#699=IFCPIPESEGMENT('3nq5Re9RLNoe91zX3TrHWx',$,'generated-b2cbb1f08730aeadd3fa0b45/connector-85edc313e625ec7a9c38e5e9-p0',$,'OMA_NETWORK_SEGMENT',#698,#710,$,.RIGIDSEGMENT.);
#700=IFCCARTESIANPOINT((0.,0.));
#701=IFCAXIS2PLACEMENT2D(#700,$);
#702=IFCCIRCLEPROFILEDEF(.AREA.,$,#701,0.0625);
#703=IFCCARTESIANPOINT((-2.,0.,3.));
#704=IFCDIRECTION((1.,0.,0.));
#705=IFCDIRECTION((0.,1.,0.));
#706=IFCAXIS2PLACEMENT3D(#703,#704,#705);
#707=IFCDIRECTION((0.,0.,1.));
#708=IFCEXTRUDEDAREASOLID(#702,#706,#707,1.75);
#709=IFCSHAPEREPRESENTATION(#12,'Body','SweptSolid',(#708));
#710=IFCPRODUCTDEFINITIONSHAPE($,$,(#709));
#711=IFCCARTESIANPOINT((-2.,0.,3.));
#712=IFCDIRECTION((1.,-0.,-0.));
#713=IFCDIRECTION((0.,1.,0.));
#714=IFCAXIS2PLACEMENT3D(#711,#712,#713);
#715=IFCLOCALPLACEMENT(#698,#714);
#716=IFCDISTRIBUTIONPORT('3T5s4yi4TRyObpgaJjiU4B',$,'connector-85edc313e625ec7a9c38e5e9-p0/a',$,$,#715,$,.SINK.,.PIPE.,$);
#717=IFCRELNESTS('0aeH0z23jKLRf6V9n3vURO',$,$,$,#699,(#716));
#718=IFCCARTESIANPOINT((-0.25,0.,3.));
#719=IFCDIRECTION((1.,0.,0.));
#720=IFCDIRECTION((0.,1.,0.));
#721=IFCAXIS2PLACEMENT3D(#718,#719,#720);
#722=IFCLOCALPLACEMENT(#698,#721);
#723=IFCDISTRIBUTIONPORT('00tOhPpXrNKRXcsm76BMpC',$,'connector-85edc313e625ec7a9c38e5e9-p0/b',$,$,#722,$,.SOURCE.,.PIPE.,$);
#724=IFCRELNESTS('06UnRkI7nI9A1nu5a94S6o',$,$,$,#699,(#723));
#725=IFCCARTESIANPOINT((0.,0.,0.));
#726=IFCDIRECTION((0.,0.,1.));
#727=IFCDIRECTION((1.,0.,0.));
#728=IFCAXIS2PLACEMENT3D(#725,#726,#727);
#729=IFCLOCALPLACEMENT($,#728);
#730=IFCPIPESEGMENT('0JBzqnixzNqflgaatFOkDJ',$,'generated-b2cbb1f08730aeadd3fa0b45/connector-91dd85b1e98941d48fcb1f31-p0',$,'OMA_NETWORK_SEGMENT',#729,#741,$,.RIGIDSEGMENT.);
#731=IFCCARTESIANPOINT((0.,0.));
#732=IFCAXIS2PLACEMENT2D(#731,$);
#733=IFCCIRCLEPROFILEDEF(.AREA.,$,#732,0.0625);
#734=IFCCARTESIANPOINT((2.25,0.,3.));
#735=IFCDIRECTION((1.,0.,0.));
#736=IFCDIRECTION((0.,1.,0.));
#737=IFCAXIS2PLACEMENT3D(#734,#735,#736);
#738=IFCDIRECTION((0.,0.,1.));
#739=IFCEXTRUDEDAREASOLID(#733,#737,#738,1.5);
#740=IFCSHAPEREPRESENTATION(#12,'Body','SweptSolid',(#739));
#741=IFCPRODUCTDEFINITIONSHAPE($,$,(#740));
#742=IFCCARTESIANPOINT((2.25,0.,3.));
#743=IFCDIRECTION((1.,-0.,-0.));
#744=IFCDIRECTION((0.,1.,0.));
#745=IFCAXIS2PLACEMENT3D(#742,#743,#744);
#746=IFCLOCALPLACEMENT(#729,#745);
#747=IFCDISTRIBUTIONPORT('05ejr$J9vRNQsVDRZg1gtA',$,'connector-91dd85b1e98941d48fcb1f31-p0/a',$,$,#746,$,.SINK.,.PIPE.,$);
#748=IFCRELNESTS('0PH8VR9pDR2e_6ncPv$BQu',$,$,$,#730,(#747));
#749=IFCCARTESIANPOINT((3.75,0.,3.));
#750=IFCDIRECTION((1.,0.,0.));
#751=IFCDIRECTION((0.,1.,0.));
#752=IFCAXIS2PLACEMENT3D(#749,#750,#751);
#753=IFCLOCALPLACEMENT(#729,#752);
#754=IFCDISTRIBUTIONPORT('0IYDOQVIzGoODGrhF1avOT',$,'connector-91dd85b1e98941d48fcb1f31-p0/b',$,$,#753,$,.SOURCE.,.PIPE.,$);
#755=IFCRELNESTS('2kJIyomlXRae00fELSgQd_',$,$,$,#730,(#754));
#756=IFCCARTESIANPOINT((0.,0.,0.));
#757=IFCDIRECTION((0.,0.,1.));
#758=IFCDIRECTION((1.,0.,0.));
#759=IFCAXIS2PLACEMENT3D(#756,#757,#758);
#760=IFCLOCALPLACEMENT($,#759);
#761=IFCPIPESEGMENT('2F0JzXRtLJZ98yzxvO2Uqa',$,'generated-b2cbb1f08730aeadd3fa0b45/connector-934fb3dd22875770e9fae3c6-p0',$,'OMA_NETWORK_SEGMENT',#760,#772,$,.RIGIDSEGMENT.);
#762=IFCCARTESIANPOINT((0.,0.));
#763=IFCAXIS2PLACEMENT2D(#762,$);
#764=IFCCIRCLEPROFILEDEF(.AREA.,$,#763,0.0625);
#765=IFCCARTESIANPOINT((6.,0.25,3.));
#766=IFCDIRECTION((0.,1.,0.));
#767=IFCDIRECTION((1.,0.,0.));
#768=IFCAXIS2PLACEMENT3D(#765,#766,#767);
#769=IFCDIRECTION((0.,0.,1.));
#770=IFCEXTRUDEDAREASOLID(#764,#768,#769,2.75);
#771=IFCSHAPEREPRESENTATION(#12,'Body','SweptSolid',(#770));
#772=IFCPRODUCTDEFINITIONSHAPE($,$,(#771));
#773=IFCCARTESIANPOINT((6.,0.25,3.));
#774=IFCDIRECTION((-0.,1.,-0.));
#775=IFCDIRECTION((1.,0.,0.));
#776=IFCAXIS2PLACEMENT3D(#773,#774,#775);
#777=IFCLOCALPLACEMENT(#760,#776);
#778=IFCDISTRIBUTIONPORT('08uOysD7vRfw1imS84PCmQ',$,'connector-934fb3dd22875770e9fae3c6-p0/a',$,$,#777,$,.SINK.,.PIPE.,$);
#779=IFCRELNESTS('1PGEfKi1PSbPzpFjkt9Wlf',$,$,$,#761,(#778));
#780=IFCCARTESIANPOINT((6.,3.,3.));
#781=IFCDIRECTION((0.,1.,0.));
#782=IFCDIRECTION((1.,0.,0.));
#783=IFCAXIS2PLACEMENT3D(#780,#781,#782);
#784=IFCLOCALPLACEMENT(#760,#783);
#785=IFCDISTRIBUTIONPORT('0tpoJujNTLsPO80Z87h4f6',$,'connector-934fb3dd22875770e9fae3c6-p0/b',$,$,#784,$,.SOURCE.,.PIPE.,$);
#786=IFCRELNESTS('0wSlb$EOvNpvr_nJf8uH_s',$,$,$,#761,(#785));
#787=IFCCARTESIANPOINT((0.,0.,0.));
#788=IFCDIRECTION((0.,0.,1.));
#789=IFCDIRECTION((1.,0.,0.));
#790=IFCAXIS2PLACEMENT3D(#787,#788,#789);
#791=IFCLOCALPLACEMENT($,#790);
#792=IFCPIPESEGMENT('3RFeG8rljMNBLJktnS0Z_4',$,'generated-b2cbb1f08730aeadd3fa0b45/connector-ab082257969acef2995cd924-p0',$,'OMA_NETWORK_SEGMENT',#791,#803,$,.RIGIDSEGMENT.);
#793=IFCCARTESIANPOINT((0.,0.));
#794=IFCAXIS2PLACEMENT2D(#793,$);
#795=IFCCIRCLEPROFILEDEF(.AREA.,$,#794,0.0625);
#796=IFCCARTESIANPOINT((2.,0.25,3.));
#797=IFCDIRECTION((0.,1.,0.));
#798=IFCDIRECTION((1.,0.,0.));
#799=IFCAXIS2PLACEMENT3D(#796,#797,#798);
#800=IFCDIRECTION((0.,0.,1.));
#801=IFCEXTRUDEDAREASOLID(#795,#799,#800,2.75);
#802=IFCSHAPEREPRESENTATION(#12,'Body','SweptSolid',(#801));
#803=IFCPRODUCTDEFINITIONSHAPE($,$,(#802));
#804=IFCCARTESIANPOINT((2.,0.25,3.));
#805=IFCDIRECTION((-0.,1.,-0.));
#806=IFCDIRECTION((1.,0.,0.));
#807=IFCAXIS2PLACEMENT3D(#804,#805,#806);
#808=IFCLOCALPLACEMENT(#791,#807);
#809=IFCDISTRIBUTIONPORT('1Zyysyge5KYQ6sv1Ar5KX3',$,'connector-ab082257969acef2995cd924-p0/a',$,$,#808,$,.SINK.,.PIPE.,$);
#810=IFCRELNESTS('2Fdh9PvjTKFewsVSZXzvss',$,$,$,#792,(#809));
#811=IFCCARTESIANPOINT((2.,3.,3.));
#812=IFCDIRECTION((0.,1.,0.));
#813=IFCDIRECTION((1.,0.,0.));
#814=IFCAXIS2PLACEMENT3D(#811,#812,#813);
#815=IFCLOCALPLACEMENT(#791,#814);
#816=IFCDISTRIBUTIONPORT('25l9mcUWbG89DRSe178cTA',$,'connector-ab082257969acef2995cd924-p0/b',$,$,#815,$,.SOURCE.,.PIPE.,$);
#817=IFCRELNESTS('28m$wvUOPJZvs$GZqqnOX2',$,$,$,#792,(#816));
#818=IFCCARTESIANPOINT((0.,0.,0.));
#819=IFCDIRECTION((0.,0.,1.));
#820=IFCDIRECTION((1.,0.,0.));
#821=IFCAXIS2PLACEMENT3D(#818,#819,#820);
#822=IFCLOCALPLACEMENT($,#821);
#823=IFCPIPESEGMENT('0KN2i2rnLGBwUm1$f2Mcrh',$,'generated-b2cbb1f08730aeadd3fa0b45/connector-acfb79496f2f201e4e500601-p0',$,'OMA_NETWORK_SEGMENT',#822,#834,$,.RIGIDSEGMENT.);
#824=IFCCARTESIANPOINT((0.,0.));
#825=IFCAXIS2PLACEMENT2D(#824,$);
#826=IFCCIRCLEPROFILEDEF(.AREA.,$,#825,0.0625);
#827=IFCCARTESIANPOINT((10.25,0.,3.));
#828=IFCDIRECTION((1.,0.,0.));
#829=IFCDIRECTION((0.,1.,0.));
#830=IFCAXIS2PLACEMENT3D(#827,#828,#829);
#831=IFCDIRECTION((0.,0.,1.));
#832=IFCEXTRUDEDAREASOLID(#826,#830,#831,1.75);
#833=IFCSHAPEREPRESENTATION(#12,'Body','SweptSolid',(#832));
#834=IFCPRODUCTDEFINITIONSHAPE($,$,(#833));
#835=IFCCARTESIANPOINT((10.25,0.,3.));
#836=IFCDIRECTION((1.,-0.,-0.));
#837=IFCDIRECTION((0.,1.,0.));
#838=IFCAXIS2PLACEMENT3D(#835,#836,#837);
#839=IFCLOCALPLACEMENT(#822,#838);
#840=IFCDISTRIBUTIONPORT('0CGfbHTSjM9h1Ohg6zC3NB',$,'connector-acfb79496f2f201e4e500601-p0/a',$,$,#839,$,.SINK.,.PIPE.,$);
#841=IFCRELNESTS('0CRIb3iOPR9esHeELgC$lx',$,$,$,#823,(#840));
#842=IFCCARTESIANPOINT((12.,0.,3.));
#843=IFCDIRECTION((1.,0.,0.));
#844=IFCDIRECTION((0.,1.,0.));
#845=IFCAXIS2PLACEMENT3D(#842,#843,#844);
#846=IFCLOCALPLACEMENT(#822,#845);
#847=IFCDISTRIBUTIONPORT('1mxUkBNwjNmht0LeZagUqB',$,'connector-acfb79496f2f201e4e500601-p0/b',$,$,#846,$,.SOURCE.,.PIPE.,$);
#848=IFCRELNESTS('38XykN$iLSTRMngLPrMWa1',$,$,$,#823,(#847));
#849=IFCCARTESIANPOINT((0.,0.,0.));
#850=IFCDIRECTION((0.,0.,1.));
#851=IFCDIRECTION((1.,0.,0.));
#852=IFCAXIS2PLACEMENT3D(#849,#850,#851);
#853=IFCLOCALPLACEMENT($,#852);
#854=IFCPIPESEGMENT('27D4sCY$XS5QRb4AxTImHw',$,'generated-b2cbb1f08730aeadd3fa0b45/connector-da739e797b947d00fa67ccaf-p0',$,'OMA_NETWORK_SEGMENT',#853,#865,$,.RIGIDSEGMENT.);
#855=IFCCARTESIANPOINT((0.,0.));
#856=IFCAXIS2PLACEMENT2D(#855,$);
#857=IFCCIRCLEPROFILEDEF(.AREA.,$,#856,0.0625);
#858=IFCCARTESIANPOINT((4.,0.25,3.));
#859=IFCDIRECTION((0.,1.,0.));
#860=IFCDIRECTION((1.,0.,0.));
#861=IFCAXIS2PLACEMENT3D(#858,#859,#860);
#862=IFCDIRECTION((0.,0.,1.));
#863=IFCEXTRUDEDAREASOLID(#857,#861,#862,2.75);
#864=IFCSHAPEREPRESENTATION(#12,'Body','SweptSolid',(#863));
#865=IFCPRODUCTDEFINITIONSHAPE($,$,(#864));
#866=IFCCARTESIANPOINT((4.,0.25,3.));
#867=IFCDIRECTION((-0.,1.,-0.));
#868=IFCDIRECTION((1.,0.,0.));
#869=IFCAXIS2PLACEMENT3D(#866,#867,#868);
#870=IFCLOCALPLACEMENT(#853,#869);
#871=IFCDISTRIBUTIONPORT('1x8bi$nFjNjhLVrysTnqHY',$,'connector-da739e797b947d00fa67ccaf-p0/a',$,$,#870,$,.SINK.,.PIPE.,$);
#872=IFCRELNESTS('0H3jaXC3XLbP6Cc90orc3i',$,$,$,#854,(#871));
#873=IFCCARTESIANPOINT((4.,3.,3.));
#874=IFCDIRECTION((0.,1.,0.));
#875=IFCDIRECTION((1.,0.,0.));
#876=IFCAXIS2PLACEMENT3D(#873,#874,#875);
#877=IFCLOCALPLACEMENT(#853,#876);
#878=IFCDISTRIBUTIONPORT('19_166hVzOb8KHwv1IugRv',$,'connector-da739e797b947d00fa67ccaf-p0/b',$,$,#877,$,.SOURCE.,.PIPE.,$);
#879=IFCRELNESTS('2mTYaJb8HQxQszwF6eTBVs',$,$,$,#854,(#878));
#880=IFCRELCONNECTSPORTS('1nd6EajyXRyQMEWT8CECjF',$,$,$,#347,#371,$);
#881=IFCRELCONNECTSPORTS('2DKmCqqhbQ2e5G6dkqoE00',$,$,$,#244,#402,$);
#882=IFCRELCONNECTSPORTS('3Uscd3$gDKgRrhNXJgUKHA',$,$,$,#409,#285,$);
#883=IFCRELCONNECTSPORTS('2e_y7V0WPMmfZ$9KZafFW0',$,$,$,#299,#433,$);
#884=IFCRELCONNECTSPORTS('11cE5BFQbGLOJwRAn7sA4q',$,$,$,#292,#464,$);
#885=IFCRELCONNECTSPORTS('2ccBSU06HVlwoqTb8UE27T',$,$,$,#471,#333,$);
#886=IFCRELCONNECTSPORTS('1VPw_0mDvTRujS14PYWuRa',$,$,$,#196,#495,$);
#887=IFCRELCONNECTSPORTS('1QAmoWGJjQSP9ROIvNnvBI',$,$,$,#502,#237,$);
#888=IFCRELCONNECTSPORTS('1lcZXkVBDO4vz_dFV4I2Bq',$,$,$,#533,#559,$);
#889=IFCRELCONNECTSPORTS('0SBD7feE5O1f6CfJmGUCJd',$,$,$,#566,#590,$);
#890=IFCRELCONNECTSPORTS('1vv5mRKd1TehUTGf4_t81f',$,$,$,#597,#623,$);
#891=IFCRELCONNECTSPORTS('0NK4feFcnVMBTvbWy8XTe_',$,$,$,#630,#654,$);
#892=IFCRELCONNECTSPORTS('096QXPLAPOivJOwWuqMu6o',$,$,$,#107,#526,$);
#893=IFCRELCONNECTSPORTS('11osuoN5zNAPnUgQlb4J5o',$,$,$,#100,#685,$);
#894=IFCRELCONNECTSPORTS('0gyqrpva9Vge3UDCD0d6Lf',$,$,$,#692,#141,$);
#895=IFCRELCONNECTSPORTS('3UtYH8BkvRdODUKChAJGhj',$,$,$,#723,#93,$);
#896=IFCRELCONNECTSPORTS('1uVUzd1DDLXhjfhZ837eEd',$,$,$,#148,#747,$);
#897=IFCRELCONNECTSPORTS('2IgYW3FNDGsAGkDSLMXLRE',$,$,$,#754,#189,$);
#898=IFCRELCONNECTSPORTS('2J$B_sQLDLYgYsDtS$Jiej',$,$,$,#251,#778,$);
#899=IFCRELCONNECTSPORTS('3zgZQvQUDJpfzNkB8KLAWA',$,$,$,#155,#809,$);
#900=IFCRELCONNECTSPORTS('1qB_3qD5nL5x3lQBdCAtqr',$,$,$,#340,#840,$);
#901=IFCRELCONNECTSPORTS('3kMy4WNS9SvO45yJ4_QgyM',$,$,$,#203,#871,$);
#902=IFCRELASSIGNSTOGROUP('3BQ3HsxN5M08UMpzPKjIpA',$,$,$,(#66,#114,#162,#210,#258,#306,#354,#385,#416,#447,#478,#509,#540,#573,#604,#637,#668,#699,#730,#761,#792,#823,#854),$,#60);
#903=IFCRELCONTAINEDINSPATIALSTRUCTURE('32Oecd8GXH9uJmr7KzjPZk',$,$,$,(#66,#114,#162,#210,#258,#306,#354,#385,#416,#447,#478,#509,#540,#573,#604,#637,#668,#699,#730,#761,#792,#823,#854),#13);
ENDSEC;
END-ISO-10303-21;
