ISO-10303-21;
HEADER;
FILE_DESCRIPTION(('ViewDefinition[DesignTransferView]'),'2;1');
FILE_NAME('/dev/null','2026-09-14T18:45:20-05:00',(''),(''),'IfcOpenShell 0.8.5','IfcOpenShell 0.8.5','Nobody');
FILE_SCHEMA(('IFC4'));
ENDSEC;
DATA;
#1=IFCPROJECT('0k2syG7ED7G9UN1tNWxiBR',$,'Frozen independent shared-tree catalogue source',$,$,$,$,(#11),#5);
#2=IFCSIUNIT(*,.LENGTHUNIT.,$,.METRE.);
#3=IFCSIUNIT(*,.AREAUNIT.,$,.SQUARE_METRE.);
#4=IFCSIUNIT(*,.VOLUMEUNIT.,$,.CUBIC_METRE.);
#5=IFCUNITASSIGNMENT((#3,#4,#2,#6));
#6=IFCSIUNIT(*,.PLANEANGLEUNIT.,$,.RADIAN.);
#7=IFCCARTESIANPOINT((0.,0.,0.));
#8=IFCDIRECTION((0.,0.,1.));
#9=IFCDIRECTION((1.,0.,0.));
#10=IFCAXIS2PLACEMENT3D(#7,#8,#9);
#11=IFCGEOMETRICREPRESENTATIONCONTEXT($,'Model',3,1.0000000000000001E-05,#10,$);
#12=IFCGEOMETRICREPRESENTATIONSUBCONTEXT('Body','Model',*,*,*,*,#11,$,.MODEL_VIEW.,$);
#13=IFCBUILDINGSTOREY('2aCprZtBfFJOuCt1O$qs7x',$,'Protected original storey',$,$,$,$,$,$,$);
#14=IFCRELAGGREGATES('24G1Jy3mnEsuBSYzuUuVMV',$,$,$,#1,(#13));
#15=IFCBUILDINGELEMENTPROXY('0YyiihI4LFHvaCsFzTW76_',$,'Protected obstacle 0',$,$,#37,#26,$,$);
#16=IFCCARTESIANPOINTLIST2D(((0.,0.),(0.,2.),(2.,2.),(2.,0.),(0.,0.)));
#17=IFCINDEXEDPOLYCURVE(#16,$,.F.);
#18=IFCDIRECTION((0.,0.,1.));
#19=IFCARBITRARYCLOSEDPROFILEDEF(.AREA.,$,#17);
#20=IFCCARTESIANPOINT((0.,0.,0.));
#21=IFCDIRECTION((0.,0.,1.));
#22=IFCDIRECTION((1.,0.,0.));
#23=IFCAXIS2PLACEMENT3D(#20,#21,#22);
#24=IFCEXTRUDEDAREASOLID(#19,#23,#18,2.);
#25=IFCSHAPEREPRESENTATION(#12,'Body','SweptSolid',(#24));
#26=IFCPRODUCTDEFINITIONSHAPE($,$,(#25));
#32=IFCRELCONTAINEDINSPATIALSTRUCTURE('0j_WKSE5vDvPvBJmVIkoei',$,$,$,(#38,#15),#13);
#33=IFCCARTESIANPOINT((0.,0.,0.));
#34=IFCDIRECTION((0.,0.,1.));
#35=IFCDIRECTION((1.,0.,0.));
#36=IFCAXIS2PLACEMENT3D(#33,#34,#35);
#37=IFCLOCALPLACEMENT($,#36);
#38=IFCBUILDINGELEMENTPROXY('0DdaymiD57hA$7DTbM5hZs',$,'Protected obstacle 1',$,$,#59,#49,$,$);
#39=IFCCARTESIANPOINTLIST2D(((0.,0.),(0.,0.25),(0.25,0.25),(0.25,0.),(0.,0.)));
#40=IFCINDEXEDPOLYCURVE(#39,$,.F.);
#41=IFCDIRECTION((0.,0.,1.));
#42=IFCARBITRARYCLOSEDPROFILEDEF(.AREA.,$,#40);
#43=IFCCARTESIANPOINT((0.,0.,0.));
#44=IFCDIRECTION((0.,0.,1.));
#45=IFCDIRECTION((1.,0.,0.));
#46=IFCAXIS2PLACEMENT3D(#43,#44,#45);
#47=IFCEXTRUDEDAREASOLID(#42,#46,#41,0.25);
#48=IFCSHAPEREPRESENTATION(#12,'Body','SweptSolid',(#47));
#49=IFCPRODUCTDEFINITIONSHAPE($,$,(#48));
#55=IFCCARTESIANPOINT((0.875,1.375,2.875));
#56=IFCDIRECTION((0.,0.,1.));
#57=IFCDIRECTION((1.,0.,0.));
#58=IFCAXIS2PLACEMENT3D(#55,#56,#57);
#59=IFCLOCALPLACEMENT($,#58);
#60=IFCSYSTEM('3zs7WN0OHUeBfBv$S5_LaK',$,'generated-03fa32df6f4243e0ae24ef16',$,'PRESSURE_PIPE');
#61=IFCCARTESIANPOINT((0.,0.,0.));
#62=IFCDIRECTION((0.,0.,1.));
#63=IFCDIRECTION((1.,0.,0.));
#64=IFCAXIS2PLACEMENT3D(#61,#62,#63);
#65=IFCLOCALPLACEMENT($,#64);
#66=IFCPIPEFITTING('2EaFbGq0XI4gWldBfP8Ec_',$,'generated-03fa32df6f4243e0ae24ef16/tee-a',$,'OMA_NETWORK_TEE',#65,#87,$,.JUNCTION.);
#67=IFCCARTESIANPOINT((0.,0.));
#68=IFCAXIS2PLACEMENT2D(#67,$);
#69=IFCCIRCLEPROFILEDEF(.AREA.,$,#68,0.09375);
#70=IFCCARTESIANPOINT((-0.25,0.,3.));
#71=IFCDIRECTION((1.,0.,0.));
#72=IFCDIRECTION((0.,1.,0.));
#73=IFCAXIS2PLACEMENT3D(#70,#71,#72);
#74=IFCDIRECTION((0.,0.,1.));
#75=IFCEXTRUDEDAREASOLID(#69,#73,#74,0.5);
#76=IFCCARTESIANPOINT((0.,0.));
#77=IFCAXIS2PLACEMENT2D(#76,$);
#78=IFCCIRCLEPROFILEDEF(.AREA.,$,#77,0.09375);
#79=IFCCARTESIANPOINT((0.,0.,3.));
#80=IFCDIRECTION((0.,1.,0.));
#81=IFCDIRECTION((1.,0.,0.));
#82=IFCAXIS2PLACEMENT3D(#79,#80,#81);
#83=IFCDIRECTION((0.,0.,1.));
#84=IFCEXTRUDEDAREASOLID(#78,#82,#83,0.25);
#85=IFCBOOLEANRESULT(.UNION.,#75,#84);
#86=IFCSHAPEREPRESENTATION(#12,'Body','CSG',(#85));
#87=IFCPRODUCTDEFINITIONSHAPE($,$,(#86));
#88=IFCCARTESIANPOINT((-0.25,0.,3.));
#89=IFCDIRECTION((1.,-0.,-0.));
#90=IFCDIRECTION((0.,1.,0.));
#91=IFCAXIS2PLACEMENT3D(#88,#89,#90);
#92=IFCLOCALPLACEMENT(#65,#91);
#93=IFCDISTRIBUTIONPORT('2nBfqxQLfHbfUX94GR57l7',$,'tee-a/a',$,$,#92,$,.SINK.,.PIPE.,$);
#94=IFCRELNESTS('2EyGgrnDXHiPeI_$r4P7Ln',$,$,$,#66,(#93));
#95=IFCCARTESIANPOINT((0.25,0.,3.));
#96=IFCDIRECTION((1.,0.,0.));
#97=IFCDIRECTION((0.,1.,0.));
#98=IFCAXIS2PLACEMENT3D(#95,#96,#97);
#99=IFCLOCALPLACEMENT(#65,#98);
#100=IFCDISTRIBUTIONPORT('39ZpFkXCXN3BAcExLqVemg',$,'tee-a/b',$,$,#99,$,.SOURCE.,.PIPE.,$);
#101=IFCRELNESTS('3nQYQhlqPSfv5cL3F4iXp3',$,$,$,#66,(#100));
#102=IFCCARTESIANPOINT((0.,0.25,3.));
#103=IFCDIRECTION((0.,1.,0.));
#104=IFCDIRECTION((1.,0.,0.));
#105=IFCAXIS2PLACEMENT3D(#102,#103,#104);
#106=IFCLOCALPLACEMENT(#65,#105);
#107=IFCDISTRIBUTIONPORT('29JEY4ZenMRuG2F3iaBiJ2',$,'tee-a/branch',$,$,#106,$,.SOURCE.,.PIPE.,$);
#108=IFCRELNESTS('10qQxru25LTgTK0ItUzj1z',$,$,$,#66,(#107));
#109=IFCCARTESIANPOINT((0.,0.,0.));
#110=IFCDIRECTION((0.,0.,1.));
#111=IFCDIRECTION((1.,0.,0.));
#112=IFCAXIS2PLACEMENT3D(#109,#110,#111);
#113=IFCLOCALPLACEMENT($,#112);
#114=IFCPIPESEGMENT('0CcaKj7lHTmOxyLO8kbKky',$,'generated-03fa32df6f4243e0ae24ef16/connector-11c22a5ea00c88e524ebe33b-p0',$,'OMA_NETWORK_SEGMENT',#113,#125,$,.RIGIDSEGMENT.);
#115=IFCCARTESIANPOINT((0.,0.));
#116=IFCAXIS2PLACEMENT2D(#115,$);
#117=IFCCIRCLEPROFILEDEF(.AREA.,$,#116,0.09375);
#118=IFCCARTESIANPOINT((-2.,0.,3.));
#119=IFCDIRECTION((1.,0.,0.));
#120=IFCDIRECTION((0.,1.,0.));
#121=IFCAXIS2PLACEMENT3D(#118,#119,#120);
#122=IFCDIRECTION((0.,0.,1.));
#123=IFCEXTRUDEDAREASOLID(#117,#121,#122,1.75);
#124=IFCSHAPEREPRESENTATION(#12,'Body','SweptSolid',(#123));
#125=IFCPRODUCTDEFINITIONSHAPE($,$,(#124));
#126=IFCCARTESIANPOINT((-2.,0.,3.));
#127=IFCDIRECTION((1.,-0.,-0.));
#128=IFCDIRECTION((0.,1.,0.));
#129=IFCAXIS2PLACEMENT3D(#126,#127,#128);
#130=IFCLOCALPLACEMENT(#113,#129);
#131=IFCDISTRIBUTIONPORT('3qT52oYbTQiR0GVWNMlMTV',$,'connector-11c22a5ea00c88e524ebe33b-p0/a',$,$,#130,$,.SINK.,.PIPE.,$);
#132=IFCRELNESTS('0fXir5L3PLRAnxKTm8WluX',$,$,$,#114,(#131));
#133=IFCCARTESIANPOINT((-0.25,0.,3.));
#134=IFCDIRECTION((1.,0.,0.));
#135=IFCDIRECTION((0.,1.,0.));
#136=IFCAXIS2PLACEMENT3D(#133,#134,#135);
#137=IFCLOCALPLACEMENT(#113,#136);
#138=IFCDISTRIBUTIONPORT('36NLTHieLRC9cjC7445O27',$,'connector-11c22a5ea00c88e524ebe33b-p0/b',$,$,#137,$,.SOURCE.,.PIPE.,$);
#139=IFCRELNESTS('1xr_4DkAXPwBUlE4oirO62',$,$,$,#114,(#138));
#140=IFCCARTESIANPOINT((0.,0.,0.));
#141=IFCDIRECTION((0.,0.,1.));
#142=IFCDIRECTION((1.,0.,0.));
#143=IFCAXIS2PLACEMENT3D(#140,#141,#142);
#144=IFCLOCALPLACEMENT($,#143);
#145=IFCPIPESEGMENT('2dOHFk61bIJOUD$qa$TmSq',$,'generated-03fa32df6f4243e0ae24ef16/connector-927ae894f80dd1f94f2beb37-p0',$,'OMA_NETWORK_SEGMENT',#144,#156,$,.RIGIDSEGMENT.);
#146=IFCCARTESIANPOINT((0.,0.));
#147=IFCAXIS2PLACEMENT2D(#146,$);
#148=IFCCIRCLEPROFILEDEF(.AREA.,$,#147,0.09375);
#149=IFCCARTESIANPOINT((0.,0.25,3.));
#150=IFCDIRECTION((0.,1.,0.));
#151=IFCDIRECTION((1.,0.,0.));
#152=IFCAXIS2PLACEMENT3D(#149,#150,#151);
#153=IFCDIRECTION((0.,0.,1.));
#154=IFCEXTRUDEDAREASOLID(#148,#152,#153,1.75);
#155=IFCSHAPEREPRESENTATION(#12,'Body','SweptSolid',(#154));
#156=IFCPRODUCTDEFINITIONSHAPE($,$,(#155));
#157=IFCCARTESIANPOINT((0.,0.25,3.));
#158=IFCDIRECTION((-0.,1.,-0.));
#159=IFCDIRECTION((1.,0.,0.));
#160=IFCAXIS2PLACEMENT3D(#157,#158,#159);
#161=IFCLOCALPLACEMENT(#144,#160);
#162=IFCDISTRIBUTIONPORT('0QN_N2_gvOJgnBKyDACN3a',$,'connector-927ae894f80dd1f94f2beb37-p0/a',$,$,#161,$,.SINK.,.PIPE.,$);
#163=IFCRELNESTS('2t19oGuEbGoPR0YcyYU4Tk',$,$,$,#145,(#162));
#164=IFCCARTESIANPOINT((0.,2.,3.));
#165=IFCDIRECTION((0.,1.,0.));
#166=IFCDIRECTION((1.,0.,0.));
#167=IFCAXIS2PLACEMENT3D(#164,#165,#166);
#168=IFCLOCALPLACEMENT(#144,#167);
#169=IFCDISTRIBUTIONPORT('2J5f1I1LrGVeOxOXHJYyO8',$,'connector-927ae894f80dd1f94f2beb37-p0/b',$,$,#168,$,.SOURCE.,.PIPE.,$);
#170=IFCRELNESTS('3MX8Ms5oLRTxRD2acoR0SP',$,$,$,#145,(#169));
#171=IFCCARTESIANPOINT((0.,0.,0.));
#172=IFCDIRECTION((0.,0.,1.));
#173=IFCDIRECTION((1.,0.,0.));
#174=IFCAXIS2PLACEMENT3D(#171,#172,#173);
#175=IFCLOCALPLACEMENT($,#174);
#176=IFCPIPEFITTING('3orBj4zVbHOxva5HYA1RTu',$,'generated-03fa32df6f4243e0ae24ef16/connector-927ae894f80dd1f94f2beb37-p1',$,'OMA_NETWORK_ELBOW',#175,#189,$,.BEND.);
#177=IFCCARTESIANPOINT((0.25,0.));
#178=IFCAXIS2PLACEMENT2D(#177,$);
#179=IFCCIRCLEPROFILEDEF(.AREA.,$,#178,0.09375);
#180=IFCCARTESIANPOINT((0.25,2.,3.));
#181=IFCDIRECTION((0.,1.,0.));
#182=IFCDIRECTION((-1.,0.,0.));
#183=IFCAXIS2PLACEMENT3D(#180,#181,#182);
#184=IFCCARTESIANPOINT((0.,0.,0.));
#185=IFCDIRECTION((0.,-1.,0.));
#186=IFCAXIS1PLACEMENT(#184,#185);
#187=IFCREVOLVEDAREASOLID(#179,#183,#186,1.5707963267948966);
#188=IFCSHAPEREPRESENTATION(#12,'Body','SweptSolid',(#187));
#189=IFCPRODUCTDEFINITIONSHAPE($,$,(#188));
#190=IFCCARTESIANPOINT((0.,2.,3.));
#191=IFCDIRECTION((-0.,1.,-0.));
#192=IFCDIRECTION((1.,0.,0.));
#193=IFCAXIS2PLACEMENT3D(#190,#191,#192);
#194=IFCLOCALPLACEMENT(#175,#193);
#195=IFCDISTRIBUTIONPORT('2jLFYj3PnOIfJEc7a1bd_D',$,'connector-927ae894f80dd1f94f2beb37-p1/a',$,$,#194,$,.SINK.,.PIPE.,$);
#196=IFCRELNESTS('2MGfprNnnUbR$zCzhBk4lj',$,$,$,#176,(#195));
#197=IFCCARTESIANPOINT((0.25,2.25,3.));
#198=IFCDIRECTION((1.,0.,0.));
#199=IFCDIRECTION((0.,1.,0.));
#200=IFCAXIS2PLACEMENT3D(#197,#198,#199);
#201=IFCLOCALPLACEMENT(#175,#200);
#202=IFCDISTRIBUTIONPORT('2gqSr_6SDVBwfwgDYmT5n1',$,'connector-927ae894f80dd1f94f2beb37-p1/b',$,$,#201,$,.SOURCE.,.PIPE.,$);
#203=IFCRELNESTS('2j4Kuy3EbTefVTsmDQQ37U',$,$,$,#176,(#202));
#204=IFCCARTESIANPOINT((0.,0.,0.));
#205=IFCDIRECTION((0.,0.,1.));
#206=IFCDIRECTION((1.,0.,0.));
#207=IFCAXIS2PLACEMENT3D(#204,#205,#206);
#208=IFCLOCALPLACEMENT($,#207);
#209=IFCPIPESEGMENT('2QO32ZUqPOefs4X$lrNXyW',$,'generated-03fa32df6f4243e0ae24ef16/connector-927ae894f80dd1f94f2beb37-p2',$,'OMA_NETWORK_SEGMENT',#208,#220,$,.RIGIDSEGMENT.);
#210=IFCCARTESIANPOINT((0.,0.));
#211=IFCAXIS2PLACEMENT2D(#210,$);
#212=IFCCIRCLEPROFILEDEF(.AREA.,$,#211,0.09375);
#213=IFCCARTESIANPOINT((0.25,2.25,3.));
#214=IFCDIRECTION((1.,0.,0.));
#215=IFCDIRECTION((0.,1.,0.));
#216=IFCAXIS2PLACEMENT3D(#213,#214,#215);
#217=IFCDIRECTION((0.,0.,1.));
#218=IFCEXTRUDEDAREASOLID(#212,#216,#217,0.5);
#219=IFCSHAPEREPRESENTATION(#12,'Body','SweptSolid',(#218));
#220=IFCPRODUCTDEFINITIONSHAPE($,$,(#219));
#221=IFCCARTESIANPOINT((0.25,2.25,3.));
#222=IFCDIRECTION((1.,-0.,-0.));
#223=IFCDIRECTION((0.,1.,0.));
#224=IFCAXIS2PLACEMENT3D(#221,#222,#223);
#225=IFCLOCALPLACEMENT(#208,#224);
#226=IFCDISTRIBUTIONPORT('1iEVGwIVjM4u8DC8frEmzF',$,'connector-927ae894f80dd1f94f2beb37-p2/a',$,$,#225,$,.SINK.,.PIPE.,$);
#227=IFCRELNESTS('19Lbn$NWrLo8u0EB9H6lWj',$,$,$,#209,(#226));
#228=IFCCARTESIANPOINT((0.75,2.25,3.));
#229=IFCDIRECTION((1.,0.,0.));
#230=IFCDIRECTION((0.,1.,0.));
#231=IFCAXIS2PLACEMENT3D(#228,#229,#230);
#232=IFCLOCALPLACEMENT(#208,#231);
#233=IFCDISTRIBUTIONPORT('1JvwpjdfPIgQtzAdCKaONn',$,'connector-927ae894f80dd1f94f2beb37-p2/b',$,$,#232,$,.SOURCE.,.PIPE.,$);
#234=IFCRELNESTS('0EBXa_gKTK5upRxqgrlsQr',$,$,$,#209,(#233));
#235=IFCCARTESIANPOINT((0.,0.,0.));
#236=IFCDIRECTION((0.,0.,1.));
#237=IFCDIRECTION((1.,0.,0.));
#238=IFCAXIS2PLACEMENT3D(#235,#236,#237);
#239=IFCLOCALPLACEMENT($,#238);
#240=IFCPIPEFITTING('1kiKXunnXRvx67f80P2zTl',$,'generated-03fa32df6f4243e0ae24ef16/connector-927ae894f80dd1f94f2beb37-p3',$,'OMA_NETWORK_ELBOW',#239,#253,$,.BEND.);
#241=IFCCARTESIANPOINT((0.25,0.));
#242=IFCAXIS2PLACEMENT2D(#241,$);
#243=IFCCIRCLEPROFILEDEF(.AREA.,$,#242,0.09375);
#244=IFCCARTESIANPOINT((0.75,2.5,3.));
#245=IFCDIRECTION((1.,0.,0.));
#246=IFCDIRECTION((0.,-1.,0.));
#247=IFCAXIS2PLACEMENT3D(#244,#245,#246);
#248=IFCCARTESIANPOINT((0.,0.,0.));
#249=IFCDIRECTION((0.,-1.,0.));
#250=IFCAXIS1PLACEMENT(#248,#249);
#251=IFCREVOLVEDAREASOLID(#243,#247,#250,1.5707963267948966);
#252=IFCSHAPEREPRESENTATION(#12,'Body','SweptSolid',(#251));
#253=IFCPRODUCTDEFINITIONSHAPE($,$,(#252));
#254=IFCCARTESIANPOINT((0.75,2.25,3.));
#255=IFCDIRECTION((1.,-0.,-0.));
#256=IFCDIRECTION((0.,1.,0.));
#257=IFCAXIS2PLACEMENT3D(#254,#255,#256);
#258=IFCLOCALPLACEMENT(#239,#257);
#259=IFCDISTRIBUTIONPORT('3FAnlTT3zT7xGEeVy6D0ON',$,'connector-927ae894f80dd1f94f2beb37-p3/a',$,$,#258,$,.SINK.,.PIPE.,$);
#260=IFCRELNESTS('3Sak7IDf5RaOnFhY0nNrEh',$,$,$,#240,(#259));
#261=IFCCARTESIANPOINT((1.,2.5,3.));
#262=IFCDIRECTION((0.,1.,0.));
#263=IFCDIRECTION((1.,0.,0.));
#264=IFCAXIS2PLACEMENT3D(#261,#262,#263);
#265=IFCLOCALPLACEMENT(#239,#264);
#266=IFCDISTRIBUTIONPORT('3cYcZJE_9N89IDHJgPs_WR',$,'connector-927ae894f80dd1f94f2beb37-p3/b',$,$,#265,$,.SOURCE.,.PIPE.,$);
#267=IFCRELNESTS('0dvvYGasDI4RaJqo9$c4Wg',$,$,$,#240,(#266));
#268=IFCCARTESIANPOINT((0.,0.,0.));
#269=IFCDIRECTION((0.,0.,1.));
#270=IFCDIRECTION((1.,0.,0.));
#271=IFCAXIS2PLACEMENT3D(#268,#269,#270);
#272=IFCLOCALPLACEMENT($,#271);
#273=IFCPIPESEGMENT('1QSzulCpLRARhg9NnuY1id',$,'generated-03fa32df6f4243e0ae24ef16/connector-927ae894f80dd1f94f2beb37-p4',$,'OMA_NETWORK_SEGMENT',#272,#284,$,.RIGIDSEGMENT.);
#274=IFCCARTESIANPOINT((0.,0.));
#275=IFCAXIS2PLACEMENT2D(#274,$);
#276=IFCCIRCLEPROFILEDEF(.AREA.,$,#275,0.09375);
#277=IFCCARTESIANPOINT((1.,2.5,3.));
#278=IFCDIRECTION((0.,1.,0.));
#279=IFCDIRECTION((1.,0.,0.));
#280=IFCAXIS2PLACEMENT3D(#277,#278,#279);
#281=IFCDIRECTION((0.,0.,1.));
#282=IFCEXTRUDEDAREASOLID(#276,#280,#281,0.5);
#283=IFCSHAPEREPRESENTATION(#12,'Body','SweptSolid',(#282));
#284=IFCPRODUCTDEFINITIONSHAPE($,$,(#283));
#285=IFCCARTESIANPOINT((1.,2.5,3.));
#286=IFCDIRECTION((-0.,1.,-0.));
#287=IFCDIRECTION((1.,0.,0.));
#288=IFCAXIS2PLACEMENT3D(#285,#286,#287);
#289=IFCLOCALPLACEMENT(#272,#288);
#290=IFCDISTRIBUTIONPORT('1v_ETToyHSNRzvK3ciq0og',$,'connector-927ae894f80dd1f94f2beb37-p4/a',$,$,#289,$,.SINK.,.PIPE.,$);
#291=IFCRELNESTS('3z_G7u1yPJu9GZxQBf$dKc',$,$,$,#273,(#290));
#292=IFCCARTESIANPOINT((1.,3.,3.));
#293=IFCDIRECTION((0.,1.,0.));
#294=IFCDIRECTION((1.,0.,0.));
#295=IFCAXIS2PLACEMENT3D(#292,#293,#294);
#296=IFCLOCALPLACEMENT(#272,#295);
#297=IFCDISTRIBUTIONPORT('1kJdnCXYHK5fpAj8vbGxNg',$,'connector-927ae894f80dd1f94f2beb37-p4/b',$,$,#296,$,.SOURCE.,.PIPE.,$);
#298=IFCRELNESTS('2S9J3jjwLSJwIzgMPyIbBp',$,$,$,#273,(#297));
#299=IFCCARTESIANPOINT((0.,0.,0.));
#300=IFCDIRECTION((0.,0.,1.));
#301=IFCDIRECTION((1.,0.,0.));
#302=IFCAXIS2PLACEMENT3D(#299,#300,#301);
#303=IFCLOCALPLACEMENT($,#302);
#304=IFCPIPESEGMENT('3TfWdLqBTPTAtzKHYuj6i4',$,'generated-03fa32df6f4243e0ae24ef16/connector-ac5c011fd53fc1ae41b90487-p0',$,'OMA_NETWORK_SEGMENT',#303,#315,$,.RIGIDSEGMENT.);
#305=IFCCARTESIANPOINT((0.,0.));
#306=IFCAXIS2PLACEMENT2D(#305,$);
#307=IFCCIRCLEPROFILEDEF(.AREA.,$,#306,0.09375);
#308=IFCCARTESIANPOINT((0.25,0.,3.));
#309=IFCDIRECTION((1.,0.,0.));
#310=IFCDIRECTION((0.,1.,0.));
#311=IFCAXIS2PLACEMENT3D(#308,#309,#310);
#312=IFCDIRECTION((0.,0.,1.));
#313=IFCEXTRUDEDAREASOLID(#307,#311,#312,2.75);
#314=IFCSHAPEREPRESENTATION(#12,'Body','SweptSolid',(#313));
#315=IFCPRODUCTDEFINITIONSHAPE($,$,(#314));
#316=IFCCARTESIANPOINT((0.25,0.,3.));
#317=IFCDIRECTION((1.,-0.,-0.));
#318=IFCDIRECTION((0.,1.,0.));
#319=IFCAXIS2PLACEMENT3D(#316,#317,#318);
#320=IFCLOCALPLACEMENT(#303,#319);
#321=IFCDISTRIBUTIONPORT('0Y6X0EDcfGMfdI_1a9FH6M',$,'connector-ac5c011fd53fc1ae41b90487-p0/a',$,$,#320,$,.SINK.,.PIPE.,$);
#322=IFCRELNESTS('2cAZci8iDR7Q3h13gvEhJc',$,$,$,#304,(#321));
#323=IFCCARTESIANPOINT((3.,0.,3.));
#324=IFCDIRECTION((1.,0.,0.));
#325=IFCDIRECTION((0.,1.,0.));
#326=IFCAXIS2PLACEMENT3D(#323,#324,#325);
#327=IFCLOCALPLACEMENT(#303,#326);
#328=IFCDISTRIBUTIONPORT('2JpwUPRBHV98_AewOTGfsD',$,'connector-ac5c011fd53fc1ae41b90487-p0/b',$,$,#327,$,.SOURCE.,.PIPE.,$);
#329=IFCRELNESTS('0i9EOASarN2f3mirVdQ3gO',$,$,$,#304,(#328));
#330=IFCRELCONNECTSPORTS('3BxpinqWTQpe9rmy0bKhnO',$,$,$,#138,#93,$);
#331=IFCRELCONNECTSPORTS('1CWwLzhqbNYxuV2SUfdZ7b',$,$,$,#169,#195,$);
#332=IFCRELCONNECTSPORTS('2NRoG067nH0eBYvyq2XyT7',$,$,$,#202,#226,$);
#333=IFCRELCONNECTSPORTS('3eFE3EH3nTRQylrdhfNxaM',$,$,$,#233,#259,$);
#334=IFCRELCONNECTSPORTS('2OE6DSElTQ8Bt9pUWzFtXb',$,$,$,#266,#290,$);
#335=IFCRELCONNECTSPORTS('1C0agm7N1JDvuCn4008oai',$,$,$,#107,#162,$);
#336=IFCRELCONNECTSPORTS('2D12hjiujMegmLDmoe_$Uc',$,$,$,#100,#321,$);
#337=IFCRELASSIGNSTOGROUP('2pJQ8ApXTTjRTnReARCT60',$,$,$,(#66,#114,#145,#176,#209,#240,#273,#304),$,#60);
#338=IFCRELCONTAINEDINSPATIALSTRUCTURE('0mTfBCKYLL4AqNOvCyJFzk',$,$,$,(#66,#114,#145,#176,#209,#240,#273,#304),#13);
ENDSEC;
END-ISO-10303-21;
