ISO-10303-21;
HEADER;
FILE_DESCRIPTION(('ViewDefinition[DesignTransferView]'),'2;1');
FILE_NAME('/dev/null','2026-09-14T19:10:29-05:00',(''),(''),'IfcOpenShell 0.8.5','IfcOpenShell 0.8.5','Nobody');
FILE_SCHEMA(('IFC4'));
ENDSEC;
DATA;
#1=IFCPROJECT('3NV4yw0JjAN8VhB1vMqRAC',$,'Frozen independent shared-tree catalogue source',$,$,$,$,(#11),#5);
#2=IFCSIUNIT(*,.LENGTHUNIT.,$,.METRE.);
#3=IFCSIUNIT(*,.AREAUNIT.,$,.SQUARE_METRE.);
#4=IFCSIUNIT(*,.VOLUMEUNIT.,$,.CUBIC_METRE.);
#5=IFCUNITASSIGNMENT((#4,#2,#3,#6));
#6=IFCSIUNIT(*,.PLANEANGLEUNIT.,$,.RADIAN.);
#7=IFCCARTESIANPOINT((0.,0.,0.));
#8=IFCDIRECTION((0.,0.,1.));
#9=IFCDIRECTION((1.,0.,0.));
#10=IFCAXIS2PLACEMENT3D(#7,#8,#9);
#11=IFCGEOMETRICREPRESENTATIONCONTEXT($,'Model',3,1.0000000000000001E-05,#10,$);
#12=IFCGEOMETRICREPRESENTATIONSUBCONTEXT('Body','Model',*,*,*,*,#11,$,.MODEL_VIEW.,$);
#13=IFCBUILDINGSTOREY('3BqPdgsaXF_vQPRo0JV9US',$,'Protected original storey',$,$,$,$,$,$,$);
#14=IFCRELAGGREGATES('1r$$tQdK9CcgEG4WKxHQT4',$,$,$,#1,(#13));
#15=IFCBUILDINGELEMENTPROXY('1TuQlYIkb8wO31mq2lP6uQ',$,'Protected obstacle 0',$,$,#37,#26,$,$);
#16=IFCCARTESIANPOINTLIST2D(((0.,0.),(0.,2.),(2.,2.),(2.,0.),(0.,0.)));
#17=IFCINDEXEDPOLYCURVE(#16,$,.F.);
#18=IFCDIRECTION((0.,0.,1.));
#19=IFCARBITRARYCLOSEDPROFILEDEF(.AREA.,$,#17);
#20=IFCCARTESIANPOINT((0.,0.,0.));
#21=IFCDIRECTION((0.,0.,1.));
#22=IFCDIRECTION((1.,0.,0.));
#23=IFCAXIS2PLACEMENT3D(#20,#21,#22);
#24=IFCEXTRUDEDAREASOLID(#19,#23,#18,2.);
#25=IFCSHAPEREPRESENTATION(#12,'Body','SweptSolid',(#24));
#26=IFCPRODUCTDEFINITIONSHAPE($,$,(#25));
#32=IFCRELCONTAINEDINSPATIALSTRUCTURE('3VGWK6kb189eWvbkegCFP9',$,$,$,(#15,#38),#13);
#33=IFCCARTESIANPOINT((0.,0.,0.));
#34=IFCDIRECTION((0.,0.,1.));
#35=IFCDIRECTION((1.,0.,0.));
#36=IFCAXIS2PLACEMENT3D(#33,#34,#35);
#37=IFCLOCALPLACEMENT($,#36);
#38=IFCBUILDINGELEMENTPROXY('0ABMaH8Gn2KBN$6CBC786E',$,'Protected obstacle 1',$,$,#59,#49,$,$);
#39=IFCCARTESIANPOINTLIST2D(((0.,0.),(0.,0.25),(0.25,0.25),(0.25,0.),(0.,0.)));
#40=IFCINDEXEDPOLYCURVE(#39,$,.F.);
#41=IFCDIRECTION((0.,0.,1.));
#42=IFCARBITRARYCLOSEDPROFILEDEF(.AREA.,$,#40);
#43=IFCCARTESIANPOINT((0.,0.,0.));
#44=IFCDIRECTION((0.,0.,1.));
#45=IFCDIRECTION((1.,0.,0.));
#46=IFCAXIS2PLACEMENT3D(#43,#44,#45);
#47=IFCEXTRUDEDAREASOLID(#42,#46,#41,0.25);
#48=IFCSHAPEREPRESENTATION(#12,'Body','SweptSolid',(#47));
#49=IFCPRODUCTDEFINITIONSHAPE($,$,(#48));
#55=IFCCARTESIANPOINT((0.875,1.375,2.875));
#56=IFCDIRECTION((0.,0.,1.));
#57=IFCDIRECTION((1.,0.,0.));
#58=IFCAXIS2PLACEMENT3D(#55,#56,#57);
#59=IFCLOCALPLACEMENT($,#58);
#60=IFCSYSTEM('39LS42mafTiPTrXtyCvOQw',$,'generated-9e07ce7e51f5c2d0a4ddac64',$,'PRESSURE_PIPE');
#61=IFCCARTESIANPOINT((0.,0.,0.));
#62=IFCDIRECTION((0.,0.,1.));
#63=IFCDIRECTION((1.,0.,0.));
#64=IFCAXIS2PLACEMENT3D(#61,#62,#63);
#65=IFCLOCALPLACEMENT($,#64);
#66=IFCPIPEFITTING('28vb8F84jGQhbcqv4jFssa',$,'generated-9e07ce7e51f5c2d0a4ddac64/tee-a',$,'OMA_NETWORK_TEE',#65,#87,$,.JUNCTION.);
#67=IFCCARTESIANPOINT((0.,0.));
#68=IFCAXIS2PLACEMENT2D(#67,$);
#69=IFCCIRCLEPROFILEDEF(.AREA.,$,#68,0.09375);
#70=IFCCARTESIANPOINT((-0.25,0.,3.));
#71=IFCDIRECTION((1.,0.,0.));
#72=IFCDIRECTION((0.,1.,0.));
#73=IFCAXIS2PLACEMENT3D(#70,#71,#72);
#74=IFCDIRECTION((0.,0.,1.));
#75=IFCEXTRUDEDAREASOLID(#69,#73,#74,0.5);
#76=IFCCARTESIANPOINT((0.,0.));
#77=IFCAXIS2PLACEMENT2D(#76,$);
#78=IFCCIRCLEPROFILEDEF(.AREA.,$,#77,0.09375);
#79=IFCCARTESIANPOINT((0.,0.,3.));
#80=IFCDIRECTION((0.,1.,0.));
#81=IFCDIRECTION((1.,0.,0.));
#82=IFCAXIS2PLACEMENT3D(#79,#80,#81);
#83=IFCDIRECTION((0.,0.,1.));
#84=IFCEXTRUDEDAREASOLID(#78,#82,#83,0.25);
#85=IFCBOOLEANRESULT(.UNION.,#75,#84);
#86=IFCSHAPEREPRESENTATION(#12,'Body','CSG',(#85));
#87=IFCPRODUCTDEFINITIONSHAPE($,$,(#86));
#88=IFCCARTESIANPOINT((-0.25,0.,3.));
#89=IFCDIRECTION((1.,-0.,-0.));
#90=IFCDIRECTION((0.,1.,0.));
#91=IFCAXIS2PLACEMENT3D(#88,#89,#90);
#92=IFCLOCALPLACEMENT(#65,#91);
#93=IFCDISTRIBUTIONPORT('17QtagF7LM2hSg61N5CFeg',$,'tee-a/a',$,$,#92,$,.SINK.,.PIPE.,$);
#94=IFCRELNESTS('0OvlmBxCzVIxfSjwk7bGsA',$,$,$,#66,(#93));
#95=IFCCARTESIANPOINT((0.25,0.,3.));
#96=IFCDIRECTION((1.,0.,0.));
#97=IFCDIRECTION((0.,1.,0.));
#98=IFCAXIS2PLACEMENT3D(#95,#96,#97);
#99=IFCLOCALPLACEMENT(#65,#98);
#100=IFCDISTRIBUTIONPORT('0mDImnBSfOMg2HzqP9yN$O',$,'tee-a/b',$,$,#99,$,.SOURCE.,.PIPE.,$);
#101=IFCRELNESTS('0xNlc_$yTThR8$9mbnpDl1',$,$,$,#66,(#100));
#102=IFCCARTESIANPOINT((0.,0.25,3.));
#103=IFCDIRECTION((0.,1.,0.));
#104=IFCDIRECTION((1.,0.,0.));
#105=IFCAXIS2PLACEMENT3D(#102,#103,#104);
#106=IFCLOCALPLACEMENT(#65,#105);
#107=IFCDISTRIBUTIONPORT('2n6lXj2tvQoO3DRkqpPoAZ',$,'tee-a/branch',$,$,#106,$,.SOURCE.,.PIPE.,$);
#108=IFCRELNESTS('1Ji6n7zejJ1hh9NctGnO_B',$,$,$,#66,(#107));
#109=IFCCARTESIANPOINT((0.,0.,0.));
#110=IFCDIRECTION((0.,0.,1.));
#111=IFCDIRECTION((1.,0.,0.));
#112=IFCAXIS2PLACEMENT3D(#109,#110,#111);
#113=IFCLOCALPLACEMENT($,#112);
#114=IFCPIPEFITTING('1sYtSCHFHPCQN1605oGnrf',$,'generated-9e07ce7e51f5c2d0a4ddac64/tee-c',$,'OMA_NETWORK_TEE',#113,#135,$,.JUNCTION.);
#115=IFCCARTESIANPOINT((0.,0.));
#116=IFCAXIS2PLACEMENT2D(#115,$);
#117=IFCCIRCLEPROFILEDEF(.AREA.,$,#116,0.09375);
#118=IFCCARTESIANPOINT((1.75,0.,3.));
#119=IFCDIRECTION((1.,0.,0.));
#120=IFCDIRECTION((0.,1.,0.));
#121=IFCAXIS2PLACEMENT3D(#118,#119,#120);
#122=IFCDIRECTION((0.,0.,1.));
#123=IFCEXTRUDEDAREASOLID(#117,#121,#122,0.5);
#124=IFCCARTESIANPOINT((0.,0.));
#125=IFCAXIS2PLACEMENT2D(#124,$);
#126=IFCCIRCLEPROFILEDEF(.AREA.,$,#125,0.09375);
#127=IFCCARTESIANPOINT((2.,0.,3.));
#128=IFCDIRECTION((0.,1.,0.));
#129=IFCDIRECTION((1.,0.,0.));
#130=IFCAXIS2PLACEMENT3D(#127,#128,#129);
#131=IFCDIRECTION((0.,0.,1.));
#132=IFCEXTRUDEDAREASOLID(#126,#130,#131,0.25);
#133=IFCBOOLEANRESULT(.UNION.,#123,#132);
#134=IFCSHAPEREPRESENTATION(#12,'Body','CSG',(#133));
#135=IFCPRODUCTDEFINITIONSHAPE($,$,(#134));
#136=IFCCARTESIANPOINT((1.75,0.,3.));
#137=IFCDIRECTION((1.,-0.,-0.));
#138=IFCDIRECTION((0.,1.,0.));
#139=IFCAXIS2PLACEMENT3D(#136,#137,#138);
#140=IFCLOCALPLACEMENT(#113,#139);
#141=IFCDISTRIBUTIONPORT('0K0Sci531TIBCn9Y2rde85',$,'tee-c/a',$,$,#140,$,.SINK.,.PIPE.,$);
#142=IFCRELNESTS('386r$TR71NEPsE3LbcMYAn',$,$,$,#114,(#141));
#143=IFCCARTESIANPOINT((2.25,0.,3.));
#144=IFCDIRECTION((1.,0.,0.));
#145=IFCDIRECTION((0.,1.,0.));
#146=IFCAXIS2PLACEMENT3D(#143,#144,#145);
#147=IFCLOCALPLACEMENT(#113,#146);
#148=IFCDISTRIBUTIONPORT('3IZJcgBHPVn8Ph1MS2l6ty',$,'tee-c/b',$,$,#147,$,.SOURCE.,.PIPE.,$);
#149=IFCRELNESTS('3RcdRJCtDMFAphLxE1pEQc',$,$,$,#114,(#148));
#150=IFCCARTESIANPOINT((2.,0.25,3.));
#151=IFCDIRECTION((0.,1.,0.));
#152=IFCDIRECTION((1.,0.,0.));
#153=IFCAXIS2PLACEMENT3D(#150,#151,#152);
#154=IFCLOCALPLACEMENT(#113,#153);
#155=IFCDISTRIBUTIONPORT('36YbM9jurITRS3OuVWu3Uj',$,'tee-c/branch',$,$,#154,$,.SOURCE.,.PIPE.,$);
#156=IFCRELNESTS('1aSsZfdVzJEBapm1eCZbFn',$,$,$,#114,(#155));
#157=IFCCARTESIANPOINT((0.,0.,0.));
#158=IFCDIRECTION((0.,0.,1.));
#159=IFCDIRECTION((1.,0.,0.));
#160=IFCAXIS2PLACEMENT3D(#157,#158,#159);
#161=IFCLOCALPLACEMENT($,#160);
#162=IFCPIPESEGMENT('2hXbeSKDvKQfL80EZkamf4',$,'generated-9e07ce7e51f5c2d0a4ddac64/connector-01eb8c0a7de055b083acfad7-p0',$,'OMA_NETWORK_SEGMENT',#161,#173,$,.RIGIDSEGMENT.);
#163=IFCCARTESIANPOINT((0.,0.));
#164=IFCAXIS2PLACEMENT2D(#163,$);
#165=IFCCIRCLEPROFILEDEF(.AREA.,$,#164,0.09375);
#166=IFCCARTESIANPOINT((2.25,0.,3.));
#167=IFCDIRECTION((1.,0.,0.));
#168=IFCDIRECTION((0.,1.,0.));
#169=IFCAXIS2PLACEMENT3D(#166,#167,#168);
#170=IFCDIRECTION((0.,0.,1.));
#171=IFCEXTRUDEDAREASOLID(#165,#169,#170,1.75);
#172=IFCSHAPEREPRESENTATION(#12,'Body','SweptSolid',(#171));
#173=IFCPRODUCTDEFINITIONSHAPE($,$,(#172));
#174=IFCCARTESIANPOINT((2.25,0.,3.));
#175=IFCDIRECTION((1.,-0.,-0.));
#176=IFCDIRECTION((0.,1.,0.));
#177=IFCAXIS2PLACEMENT3D(#174,#175,#176);
#178=IFCLOCALPLACEMENT(#161,#177);
#179=IFCDISTRIBUTIONPORT('0fqkB83InRxgmtZHoGMFkG',$,'connector-01eb8c0a7de055b083acfad7-p0/a',$,$,#178,$,.SINK.,.PIPE.,$);
#180=IFCRELNESTS('1fMXYWXBTRDBzotS3o3jMo',$,$,$,#162,(#179));
#181=IFCCARTESIANPOINT((4.,0.,3.));
#182=IFCDIRECTION((1.,0.,0.));
#183=IFCDIRECTION((0.,1.,0.));
#184=IFCAXIS2PLACEMENT3D(#181,#182,#183);
#185=IFCLOCALPLACEMENT(#161,#184);
#186=IFCDISTRIBUTIONPORT('2Ae460AzfKlf5CfgkRlaoq',$,'connector-01eb8c0a7de055b083acfad7-p0/b',$,$,#185,$,.SOURCE.,.PIPE.,$);
#187=IFCRELNESTS('13yB4Dw8HOKBg4rOt$SA6B',$,$,$,#162,(#186));
#188=IFCCARTESIANPOINT((0.,0.,0.));
#189=IFCDIRECTION((0.,0.,1.));
#190=IFCDIRECTION((1.,0.,0.));
#191=IFCAXIS2PLACEMENT3D(#188,#189,#190);
#192=IFCLOCALPLACEMENT($,#191);
#193=IFCPIPESEGMENT('1f2LMZ3prMcRqt1Llytngw',$,'generated-9e07ce7e51f5c2d0a4ddac64/connector-11c22a5ea00c88e524ebe33b-p0',$,'OMA_NETWORK_SEGMENT',#192,#204,$,.RIGIDSEGMENT.);
#194=IFCCARTESIANPOINT((0.,0.));
#195=IFCAXIS2PLACEMENT2D(#194,$);
#196=IFCCIRCLEPROFILEDEF(.AREA.,$,#195,0.09375);
#197=IFCCARTESIANPOINT((-2.,0.,3.));
#198=IFCDIRECTION((1.,0.,0.));
#199=IFCDIRECTION((0.,1.,0.));
#200=IFCAXIS2PLACEMENT3D(#197,#198,#199);
#201=IFCDIRECTION((0.,0.,1.));
#202=IFCEXTRUDEDAREASOLID(#196,#200,#201,1.75);
#203=IFCSHAPEREPRESENTATION(#12,'Body','SweptSolid',(#202));
#204=IFCPRODUCTDEFINITIONSHAPE($,$,(#203));
#205=IFCCARTESIANPOINT((-2.,0.,3.));
#206=IFCDIRECTION((1.,-0.,-0.));
#207=IFCDIRECTION((0.,1.,0.));
#208=IFCAXIS2PLACEMENT3D(#205,#206,#207);
#209=IFCLOCALPLACEMENT(#192,#208);
#210=IFCDISTRIBUTIONPORT('1TU35TPqbJTf38E7ENvTIs',$,'connector-11c22a5ea00c88e524ebe33b-p0/a',$,$,#209,$,.SINK.,.PIPE.,$);
#211=IFCRELNESTS('1CUnU8WETGZwBgq_T8f2W_',$,$,$,#193,(#210));
#212=IFCCARTESIANPOINT((-0.25,0.,3.));
#213=IFCDIRECTION((1.,0.,0.));
#214=IFCDIRECTION((0.,1.,0.));
#215=IFCAXIS2PLACEMENT3D(#212,#213,#214);
#216=IFCLOCALPLACEMENT(#192,#215);
#217=IFCDISTRIBUTIONPORT('3ZHkqTb2rNW8T0mXBeyYBa',$,'connector-11c22a5ea00c88e524ebe33b-p0/b',$,$,#216,$,.SOURCE.,.PIPE.,$);
#218=IFCRELNESTS('0nEN4B4kHGH9yT$VNAVBQx',$,$,$,#193,(#217));
#219=IFCCARTESIANPOINT((0.,0.,0.));
#220=IFCDIRECTION((0.,0.,1.));
#221=IFCDIRECTION((1.,0.,0.));
#222=IFCAXIS2PLACEMENT3D(#219,#220,#221);
#223=IFCLOCALPLACEMENT($,#222);
#224=IFCPIPESEGMENT('1gKwfrLHrJKwQ14ijIgPZr',$,'generated-9e07ce7e51f5c2d0a4ddac64/connector-2103dab94f9c5f495e6ea0de-p0',$,'OMA_NETWORK_SEGMENT',#223,#235,$,.RIGIDSEGMENT.);
#225=IFCCARTESIANPOINT((0.,0.));
#226=IFCAXIS2PLACEMENT2D(#225,$);
#227=IFCCIRCLEPROFILEDEF(.AREA.,$,#226,0.09375);
#228=IFCCARTESIANPOINT((2.,0.25,3.));
#229=IFCDIRECTION((0.,1.,0.));
#230=IFCDIRECTION((1.,0.,0.));
#231=IFCAXIS2PLACEMENT3D(#228,#229,#230);
#232=IFCDIRECTION((0.,0.,1.));
#233=IFCEXTRUDEDAREASOLID(#227,#231,#232,2.75);
#234=IFCSHAPEREPRESENTATION(#12,'Body','SweptSolid',(#233));
#235=IFCPRODUCTDEFINITIONSHAPE($,$,(#234));
#236=IFCCARTESIANPOINT((2.,0.25,3.));
#237=IFCDIRECTION((-0.,1.,-0.));
#238=IFCDIRECTION((1.,0.,0.));
#239=IFCAXIS2PLACEMENT3D(#236,#237,#238);
#240=IFCLOCALPLACEMENT(#223,#239);
#241=IFCDISTRIBUTIONPORT('1HYLv9OizVvOTtE0gOz8Y1',$,'connector-2103dab94f9c5f495e6ea0de-p0/a',$,$,#240,$,.SINK.,.PIPE.,$);
#242=IFCRELNESTS('3qisQqutDUVx2NHdRgD9HH',$,$,$,#224,(#241));
#243=IFCCARTESIANPOINT((2.,3.,3.));
#244=IFCDIRECTION((0.,1.,0.));
#245=IFCDIRECTION((1.,0.,0.));
#246=IFCAXIS2PLACEMENT3D(#243,#244,#245);
#247=IFCLOCALPLACEMENT(#223,#246);
#248=IFCDISTRIBUTIONPORT('3N0KvxLcDQ78Igupyh6LrH',$,'connector-2103dab94f9c5f495e6ea0de-p0/b',$,$,#247,$,.SOURCE.,.PIPE.,$);
#249=IFCRELNESTS('0aQ3IuzQ9LRRPpARQo1IYS',$,$,$,#224,(#248));
#250=IFCCARTESIANPOINT((0.,0.,0.));
#251=IFCDIRECTION((0.,0.,1.));
#252=IFCDIRECTION((1.,0.,0.));
#253=IFCAXIS2PLACEMENT3D(#250,#251,#252);
#254=IFCLOCALPLACEMENT($,#253);
#255=IFCPIPESEGMENT('2IebefZFvS9h_w4rp4WetW',$,'generated-9e07ce7e51f5c2d0a4ddac64/connector-37d62ea456ab80108cc6b0e7-p0',$,'OMA_NETWORK_SEGMENT',#254,#266,$,.RIGIDSEGMENT.);
#256=IFCCARTESIANPOINT((0.,0.));
#257=IFCAXIS2PLACEMENT2D(#256,$);
#258=IFCCIRCLEPROFILEDEF(.AREA.,$,#257,0.09375);
#259=IFCCARTESIANPOINT((0.,0.25,3.));
#260=IFCDIRECTION((0.,1.,0.));
#261=IFCDIRECTION((1.,0.,0.));
#262=IFCAXIS2PLACEMENT3D(#259,#260,#261);
#263=IFCDIRECTION((0.,0.,1.));
#264=IFCEXTRUDEDAREASOLID(#258,#262,#263,0.5);
#265=IFCSHAPEREPRESENTATION(#12,'Body','SweptSolid',(#264));
#266=IFCPRODUCTDEFINITIONSHAPE($,$,(#265));
#267=IFCCARTESIANPOINT((0.,0.25,3.));
#268=IFCDIRECTION((-0.,1.,-0.));
#269=IFCDIRECTION((1.,0.,0.));
#270=IFCAXIS2PLACEMENT3D(#267,#268,#269);
#271=IFCLOCALPLACEMENT(#254,#270);
#272=IFCDISTRIBUTIONPORT('0K4GO5301I2RFc5I8k$imA',$,'connector-37d62ea456ab80108cc6b0e7-p0/a',$,$,#271,$,.SINK.,.PIPE.,$);
#273=IFCRELNESTS('0Zrs5OAVvSCxZWqOaT6f_B',$,$,$,#255,(#272));
#274=IFCCARTESIANPOINT((0.,0.75,3.));
#275=IFCDIRECTION((0.,1.,0.));
#276=IFCDIRECTION((1.,0.,0.));
#277=IFCAXIS2PLACEMENT3D(#274,#275,#276);
#278=IFCLOCALPLACEMENT(#254,#277);
#279=IFCDISTRIBUTIONPORT('2QXpN2f$zN0wlnP57CJ$UB',$,'connector-37d62ea456ab80108cc6b0e7-p0/b',$,$,#278,$,.SOURCE.,.PIPE.,$);
#280=IFCRELNESTS('1tL4NG9RzI7gWYCWmMMB3A',$,$,$,#255,(#279));
#281=IFCCARTESIANPOINT((0.,0.,0.));
#282=IFCDIRECTION((0.,0.,1.));
#283=IFCDIRECTION((1.,0.,0.));
#284=IFCAXIS2PLACEMENT3D(#281,#282,#283);
#285=IFCLOCALPLACEMENT($,#284);
#286=IFCPIPEFITTING('2qvVWY2BfJ_PQMH9CiNE3o',$,'generated-9e07ce7e51f5c2d0a4ddac64/connector-37d62ea456ab80108cc6b0e7-p1',$,'OMA_NETWORK_ELBOW',#285,#299,$,.BEND.);
#287=IFCCARTESIANPOINT((0.25,0.));
#288=IFCAXIS2PLACEMENT2D(#287,$);
#289=IFCCIRCLEPROFILEDEF(.AREA.,$,#288,0.09375);
#290=IFCCARTESIANPOINT((0.25,0.75,3.));
#291=IFCDIRECTION((0.,1.,0.));
#292=IFCDIRECTION((-1.,0.,0.));
#293=IFCAXIS2PLACEMENT3D(#290,#291,#292);
#294=IFCCARTESIANPOINT((0.,0.,0.));
#295=IFCDIRECTION((0.,-1.,0.));
#296=IFCAXIS1PLACEMENT(#294,#295);
#297=IFCREVOLVEDAREASOLID(#289,#293,#296,1.5707963267948966);
#298=IFCSHAPEREPRESENTATION(#12,'Body','SweptSolid',(#297));
#299=IFCPRODUCTDEFINITIONSHAPE($,$,(#298));
#300=IFCCARTESIANPOINT((0.,0.75,3.));
#301=IFCDIRECTION((-0.,1.,-0.));
#302=IFCDIRECTION((1.,0.,0.));
#303=IFCAXIS2PLACEMENT3D(#300,#301,#302);
#304=IFCLOCALPLACEMENT(#285,#303);
#305=IFCDISTRIBUTIONPORT('0XDf2q6iPH2fmU3vpbWeyB',$,'connector-37d62ea456ab80108cc6b0e7-p1/a',$,$,#304,$,.SINK.,.PIPE.,$);
#306=IFCRELNESTS('3GljhECPHHshvaXuRbztK_',$,$,$,#286,(#305));
#307=IFCCARTESIANPOINT((0.25,1.,3.));
#308=IFCDIRECTION((1.,0.,0.));
#309=IFCDIRECTION((0.,1.,0.));
#310=IFCAXIS2PLACEMENT3D(#307,#308,#309);
#311=IFCLOCALPLACEMENT(#285,#310);
#312=IFCDISTRIBUTIONPORT('08L6O7kbTJo8wYUp02pWmu',$,'connector-37d62ea456ab80108cc6b0e7-p1/b',$,$,#311,$,.SOURCE.,.PIPE.,$);
#313=IFCRELNESTS('3xyv2v0enQYhRXCfQEVtSH',$,$,$,#286,(#312));
#314=IFCCARTESIANPOINT((0.,0.,0.));
#315=IFCDIRECTION((0.,0.,1.));
#316=IFCDIRECTION((1.,0.,0.));
#317=IFCAXIS2PLACEMENT3D(#314,#315,#316);
#318=IFCLOCALPLACEMENT($,#317);
#319=IFCPIPESEGMENT('2sCqdBMkHRGRJMmExUHJeU',$,'generated-9e07ce7e51f5c2d0a4ddac64/connector-37d62ea456ab80108cc6b0e7-p2',$,'OMA_NETWORK_SEGMENT',#318,#330,$,.RIGIDSEGMENT.);
#320=IFCCARTESIANPOINT((0.,0.));
#321=IFCAXIS2PLACEMENT2D(#320,$);
#322=IFCCIRCLEPROFILEDEF(.AREA.,$,#321,0.09375);
#323=IFCCARTESIANPOINT((0.25,1.,3.));
#324=IFCDIRECTION((1.,0.,0.));
#325=IFCDIRECTION((0.,1.,0.));
#326=IFCAXIS2PLACEMENT3D(#323,#324,#325);
#327=IFCDIRECTION((0.,0.,1.));
#328=IFCEXTRUDEDAREASOLID(#322,#326,#327,0.5);
#329=IFCSHAPEREPRESENTATION(#12,'Body','SweptSolid',(#328));
#330=IFCPRODUCTDEFINITIONSHAPE($,$,(#329));
#331=IFCCARTESIANPOINT((0.25,1.,3.));
#332=IFCDIRECTION((1.,-0.,-0.));
#333=IFCDIRECTION((0.,1.,0.));
#334=IFCAXIS2PLACEMENT3D(#331,#332,#333);
#335=IFCLOCALPLACEMENT(#318,#334);
#336=IFCDISTRIBUTIONPORT('16HoMRu8fGmRAxVF1foew$',$,'connector-37d62ea456ab80108cc6b0e7-p2/a',$,$,#335,$,.SINK.,.PIPE.,$);
#337=IFCRELNESTS('20mFDr$2jQNQoBTsXYWR6j',$,$,$,#319,(#336));
#338=IFCCARTESIANPOINT((0.75,1.,3.));
#339=IFCDIRECTION((1.,0.,0.));
#340=IFCDIRECTION((0.,1.,0.));
#341=IFCAXIS2PLACEMENT3D(#338,#339,#340);
#342=IFCLOCALPLACEMENT(#318,#341);
#343=IFCDISTRIBUTIONPORT('0WK_t2CJjRCuUxb2ziWjLx',$,'connector-37d62ea456ab80108cc6b0e7-p2/b',$,$,#342,$,.SOURCE.,.PIPE.,$);
#344=IFCRELNESTS('03G0zSTJjQohvUeamZTtIH',$,$,$,#319,(#343));
#345=IFCCARTESIANPOINT((0.,0.,0.));
#346=IFCDIRECTION((0.,0.,1.));
#347=IFCDIRECTION((1.,0.,0.));
#348=IFCAXIS2PLACEMENT3D(#345,#346,#347);
#349=IFCLOCALPLACEMENT($,#348);
#350=IFCPIPEFITTING('0l4$NTYy5TTgpiDda8mN2H',$,'generated-9e07ce7e51f5c2d0a4ddac64/connector-37d62ea456ab80108cc6b0e7-p3',$,'OMA_NETWORK_ELBOW',#349,#363,$,.BEND.);
#351=IFCCARTESIANPOINT((0.25,0.));
#352=IFCAXIS2PLACEMENT2D(#351,$);
#353=IFCCIRCLEPROFILEDEF(.AREA.,$,#352,0.09375);
#354=IFCCARTESIANPOINT((0.75,1.25,3.));
#355=IFCDIRECTION((1.,0.,0.));
#356=IFCDIRECTION((0.,-1.,0.));
#357=IFCAXIS2PLACEMENT3D(#354,#355,#356);
#358=IFCCARTESIANPOINT((0.,0.,0.));
#359=IFCDIRECTION((0.,-1.,0.));
#360=IFCAXIS1PLACEMENT(#358,#359);
#361=IFCREVOLVEDAREASOLID(#353,#357,#360,1.5707963267948966);
#362=IFCSHAPEREPRESENTATION(#12,'Body','SweptSolid',(#361));
#363=IFCPRODUCTDEFINITIONSHAPE($,$,(#362));
#364=IFCCARTESIANPOINT((0.75,1.,3.));
#365=IFCDIRECTION((1.,-0.,-0.));
#366=IFCDIRECTION((0.,1.,0.));
#367=IFCAXIS2PLACEMENT3D(#364,#365,#366);
#368=IFCLOCALPLACEMENT(#349,#367);
#369=IFCDISTRIBUTIONPORT('1Rph3_$RzGjAn0EgYb$dxb',$,'connector-37d62ea456ab80108cc6b0e7-p3/a',$,$,#368,$,.SINK.,.PIPE.,$);
#370=IFCRELNESTS('1wZZ0fAybP6hbegob1DXb2',$,$,$,#350,(#369));
#371=IFCCARTESIANPOINT((1.,1.25,3.));
#372=IFCDIRECTION((0.,1.,0.));
#373=IFCDIRECTION((1.,0.,0.));
#374=IFCAXIS2PLACEMENT3D(#371,#372,#373);
#375=IFCLOCALPLACEMENT(#349,#374);
#376=IFCDISTRIBUTIONPORT('13xgasz49O1BZXdnMV9Cuy',$,'connector-37d62ea456ab80108cc6b0e7-p3/b',$,$,#375,$,.SOURCE.,.PIPE.,$);
#377=IFCRELNESTS('1CWLSjcNrK2hepuza66$wI',$,$,$,#350,(#376));
#378=IFCCARTESIANPOINT((0.,0.,0.));
#379=IFCDIRECTION((0.,0.,1.));
#380=IFCDIRECTION((1.,0.,0.));
#381=IFCAXIS2PLACEMENT3D(#378,#379,#380);
#382=IFCLOCALPLACEMENT($,#381);
#383=IFCPIPESEGMENT('2A_cZkTlLSUPKOgWeKf_N7',$,'generated-9e07ce7e51f5c2d0a4ddac64/connector-37d62ea456ab80108cc6b0e7-p4',$,'OMA_NETWORK_SEGMENT',#382,#394,$,.RIGIDSEGMENT.);
#384=IFCCARTESIANPOINT((0.,0.));
#385=IFCAXIS2PLACEMENT2D(#384,$);
#386=IFCCIRCLEPROFILEDEF(.AREA.,$,#385,0.09375);
#387=IFCCARTESIANPOINT((1.,1.25,3.));
#388=IFCDIRECTION((0.,1.,0.));
#389=IFCDIRECTION((1.,0.,0.));
#390=IFCAXIS2PLACEMENT3D(#387,#388,#389);
#391=IFCDIRECTION((0.,0.,1.));
#392=IFCEXTRUDEDAREASOLID(#386,#390,#391,1.75);
#393=IFCSHAPEREPRESENTATION(#12,'Body','SweptSolid',(#392));
#394=IFCPRODUCTDEFINITIONSHAPE($,$,(#393));
#395=IFCCARTESIANPOINT((1.,1.25,3.));
#396=IFCDIRECTION((-0.,1.,-0.));
#397=IFCDIRECTION((1.,0.,0.));
#398=IFCAXIS2PLACEMENT3D(#395,#396,#397);
#399=IFCLOCALPLACEMENT(#382,#398);
#400=IFCDISTRIBUTIONPORT('1A7$lnb0vSfuKkXQXCp91a',$,'connector-37d62ea456ab80108cc6b0e7-p4/a',$,$,#399,$,.SINK.,.PIPE.,$);
#401=IFCRELNESTS('1rAmeJXofITvQyUoNAUIgM',$,$,$,#383,(#400));
#402=IFCCARTESIANPOINT((1.,3.,3.));
#403=IFCDIRECTION((0.,1.,0.));
#404=IFCDIRECTION((1.,0.,0.));
#405=IFCAXIS2PLACEMENT3D(#402,#403,#404);
#406=IFCLOCALPLACEMENT(#382,#405);
#407=IFCDISTRIBUTIONPORT('1_yTTL9XbU7ewPPFrdoSHB',$,'connector-37d62ea456ab80108cc6b0e7-p4/b',$,$,#406,$,.SOURCE.,.PIPE.,$);
#408=IFCRELNESTS('2Eol2Rs7fHe82wkt_l5ehk',$,$,$,#383,(#407));
#409=IFCCARTESIANPOINT((0.,0.,0.));
#410=IFCDIRECTION((0.,0.,1.));
#411=IFCDIRECTION((1.,0.,0.));
#412=IFCAXIS2PLACEMENT3D(#409,#410,#411);
#413=IFCLOCALPLACEMENT($,#412);
#414=IFCPIPESEGMENT('0rGOliqzHRKBnFbsSNzURG',$,'generated-9e07ce7e51f5c2d0a4ddac64/connector-69f4ba41780805cfabb9fa7e-p0',$,'OMA_NETWORK_SEGMENT',#413,#425,$,.RIGIDSEGMENT.);
#415=IFCCARTESIANPOINT((0.,0.));
#416=IFCAXIS2PLACEMENT2D(#415,$);
#417=IFCCIRCLEPROFILEDEF(.AREA.,$,#416,0.09375);
#418=IFCCARTESIANPOINT((0.25,0.,3.));
#419=IFCDIRECTION((1.,0.,0.));
#420=IFCDIRECTION((0.,1.,0.));
#421=IFCAXIS2PLACEMENT3D(#418,#419,#420);
#422=IFCDIRECTION((0.,0.,1.));
#423=IFCEXTRUDEDAREASOLID(#417,#421,#422,1.5);
#424=IFCSHAPEREPRESENTATION(#12,'Body','SweptSolid',(#423));
#425=IFCPRODUCTDEFINITIONSHAPE($,$,(#424));
#426=IFCCARTESIANPOINT((0.25,0.,3.));
#427=IFCDIRECTION((1.,-0.,-0.));
#428=IFCDIRECTION((0.,1.,0.));
#429=IFCAXIS2PLACEMENT3D(#426,#427,#428);
#430=IFCLOCALPLACEMENT(#413,#429);
#431=IFCDISTRIBUTIONPORT('0PQwZEk4LItwpnz3VHg5NH',$,'connector-69f4ba41780805cfabb9fa7e-p0/a',$,$,#430,$,.SINK.,.PIPE.,$);
#432=IFCRELNESTS('3jJXXNrYfPTPiXeJ2o8F3W',$,$,$,#414,(#431));
#433=IFCCARTESIANPOINT((1.75,0.,3.));
#434=IFCDIRECTION((1.,0.,0.));
#435=IFCDIRECTION((0.,1.,0.));
#436=IFCAXIS2PLACEMENT3D(#433,#434,#435);
#437=IFCLOCALPLACEMENT(#413,#436);
#438=IFCDISTRIBUTIONPORT('3l1duySHHO7ejlFHl_9rD7',$,'connector-69f4ba41780805cfabb9fa7e-p0/b',$,$,#437,$,.SOURCE.,.PIPE.,$);
#439=IFCRELNESTS('3wRnG7M3vV3ukf$zNDUbMu',$,$,$,#414,(#438));
#440=IFCRELCONNECTSPORTS('0BmAd29yjQuORct1LcK5Mx',$,$,$,#148,#179,$);
#441=IFCRELCONNECTSPORTS('1pj7BGmeDNWQAhK0H4LyQA',$,$,$,#217,#93,$);
#442=IFCRELCONNECTSPORTS('1WVd4bJNzHngwbzrhmhlEJ',$,$,$,#155,#241,$);
#443=IFCRELCONNECTSPORTS('1exiwoRjnSWQVSljRLeSyQ',$,$,$,#279,#305,$);
#444=IFCRELCONNECTSPORTS('3WJrMM5O1KeeDCDeJa2_kF',$,$,$,#312,#336,$);
#445=IFCRELCONNECTSPORTS('1msH0qWx9MpRfpwRepm_Dc',$,$,$,#343,#369,$);
#446=IFCRELCONNECTSPORTS('0ljQuz84rUyvUdy7pvcO3p',$,$,$,#376,#400,$);
#447=IFCRELCONNECTSPORTS('2kzwFpfCfPkA7seOdjNUui',$,$,$,#107,#272,$);
#448=IFCRELCONNECTSPORTS('3sCPkKlBDSvBEijLYtIRqD',$,$,$,#100,#431,$);
#449=IFCRELCONNECTSPORTS('0WW_wspg9VBuLWNccRzm$f',$,$,$,#438,#141,$);
#450=IFCRELASSIGNSTOGROUP('0Z1$3ro1nNuRet57AgB_2Z',$,$,$,(#66,#114,#162,#193,#224,#255,#286,#319,#350,#383,#414),$,#60);
#451=IFCRELCONTAINEDINSPATIALSTRUCTURE('3PgMJRYhXI8xjbigg2qaDh',$,$,$,(#66,#114,#162,#193,#224,#255,#286,#319,#350,#383,#414),#13);
ENDSEC;
END-ISO-10303-21;
