ISO-10303-21;
HEADER;
FILE_DESCRIPTION(('ViewDefinition[DesignTransferView]'),'2;1');
FILE_NAME('/dev/null','2026-09-14T20:31:20-05:00',(''),(''),'IfcOpenShell 0.8.5','IfcOpenShell 0.8.5','Nobody');
FILE_SCHEMA(('IFC4'));
ENDSEC;
DATA;
#1=IFCPROJECT('2jC5nNawT4Kvp8mUh8v_0o',$,'Frozen independent shared-tree catalogue source',$,$,$,$,(#11),#5);
#2=IFCSIUNIT(*,.LENGTHUNIT.,$,.METRE.);
#3=IFCSIUNIT(*,.AREAUNIT.,$,.SQUARE_METRE.);
#4=IFCSIUNIT(*,.VOLUMEUNIT.,$,.CUBIC_METRE.);
#5=IFCUNITASSIGNMENT((#3,#4,#2,#6));
#6=IFCSIUNIT(*,.PLANEANGLEUNIT.,$,.RADIAN.);
#7=IFCCARTESIANPOINT((0.,0.,0.));
#8=IFCDIRECTION((0.,0.,1.));
#9=IFCDIRECTION((1.,0.,0.));
#10=IFCAXIS2PLACEMENT3D(#7,#8,#9);
#11=IFCGEOMETRICREPRESENTATIONCONTEXT($,'Model',3,1.0000000000000001E-05,#10,$);
#12=IFCGEOMETRICREPRESENTATIONSUBCONTEXT('Body','Model',*,*,*,*,#11,$,.MODEL_VIEW.,$);
#13=IFCBUILDINGSTOREY('0RUpPqtgb5ifXwlUS56O2r',$,'Protected original storey',$,$,$,$,$,$,$);
#14=IFCRELAGGREGATES('0HcIyXhH9BsBEZSg61Dl9D',$,$,$,#1,(#13));
#15=IFCBUILDINGELEMENTPROXY('3sdxjlQ7zCmvQgF66cXcs9',$,'Protected obstacle 0',$,$,#37,#26,$,$);
#16=IFCCARTESIANPOINTLIST2D(((0.,0.),(0.,2.),(2.,2.),(2.,0.),(0.,0.)));
#17=IFCINDEXEDPOLYCURVE(#16,$,.F.);
#18=IFCDIRECTION((0.,0.,1.));
#19=IFCARBITRARYCLOSEDPROFILEDEF(.AREA.,$,#17);
#20=IFCCARTESIANPOINT((0.,0.,0.));
#21=IFCDIRECTION((0.,0.,1.));
#22=IFCDIRECTION((1.,0.,0.));
#23=IFCAXIS2PLACEMENT3D(#20,#21,#22);
#24=IFCEXTRUDEDAREASOLID(#19,#23,#18,2.);
#25=IFCSHAPEREPRESENTATION(#12,'Body','SweptSolid',(#24));
#26=IFCPRODUCTDEFINITIONSHAPE($,$,(#25));
#32=IFCRELCONTAINEDINSPATIALSTRUCTURE('25xpKtozPEGuZ$1Whnd_mg',$,$,$,(#38,#15),#13);
#33=IFCCARTESIANPOINT((0.,0.,0.));
#34=IFCDIRECTION((0.,0.,1.));
#35=IFCDIRECTION((1.,0.,0.));
#36=IFCAXIS2PLACEMENT3D(#33,#34,#35);
#37=IFCLOCALPLACEMENT($,#36);
#38=IFCBUILDINGELEMENTPROXY('0EAgHhcgj6cgg9bpL_Wb_u',$,'Protected obstacle 1',$,$,#59,#49,$,$);
#39=IFCCARTESIANPOINTLIST2D(((0.,0.),(0.,0.25),(0.25,0.25),(0.25,0.),(0.,0.)));
#40=IFCINDEXEDPOLYCURVE(#39,$,.F.);
#41=IFCDIRECTION((0.,0.,1.));
#42=IFCARBITRARYCLOSEDPROFILEDEF(.AREA.,$,#40);
#43=IFCCARTESIANPOINT((0.,0.,0.));
#44=IFCDIRECTION((0.,0.,1.));
#45=IFCDIRECTION((1.,0.,0.));
#46=IFCAXIS2PLACEMENT3D(#43,#44,#45);
#47=IFCEXTRUDEDAREASOLID(#42,#46,#41,0.25);
#48=IFCSHAPEREPRESENTATION(#12,'Body','SweptSolid',(#47));
#49=IFCPRODUCTDEFINITIONSHAPE($,$,(#48));
#55=IFCCARTESIANPOINT((0.875,1.375,2.875));
#56=IFCDIRECTION((0.,0.,1.));
#57=IFCDIRECTION((1.,0.,0.));
#58=IFCAXIS2PLACEMENT3D(#55,#56,#57);
#59=IFCLOCALPLACEMENT($,#58);
#60=IFCSYSTEM('2BP$zwI0jUGfMVynUhBj31',$,'generated-5540932e0a93d1c581a57973',$,'PRESSURE_PIPE');
#61=IFCCARTESIANPOINT((0.,0.,0.));
#62=IFCDIRECTION((0.,0.,1.));
#63=IFCDIRECTION((1.,0.,0.));
#64=IFCAXIS2PLACEMENT3D(#61,#62,#63);
#65=IFCLOCALPLACEMENT($,#64);
#66=IFCPIPEFITTING('1NGHVziAnSB8jtxerpm0Ny',$,'generated-5540932e0a93d1c581a57973/tee-0',$,'OMA_NETWORK_TEE',#65,#87,$,.JUNCTION.);
#67=IFCCARTESIANPOINT((0.,0.));
#68=IFCAXIS2PLACEMENT2D(#67,$);
#69=IFCCIRCLEPROFILEDEF(.AREA.,$,#68,0.0625);
#70=IFCCARTESIANPOINT((-0.25,0.,3.));
#71=IFCDIRECTION((1.,0.,0.));
#72=IFCDIRECTION((0.,1.,0.));
#73=IFCAXIS2PLACEMENT3D(#70,#71,#72);
#74=IFCDIRECTION((0.,0.,1.));
#75=IFCEXTRUDEDAREASOLID(#69,#73,#74,0.5);
#76=IFCCARTESIANPOINT((0.,0.));
#77=IFCAXIS2PLACEMENT2D(#76,$);
#78=IFCCIRCLEPROFILEDEF(.AREA.,$,#77,0.0625);
#79=IFCCARTESIANPOINT((0.,0.,3.));
#80=IFCDIRECTION((0.,1.,0.));
#81=IFCDIRECTION((1.,0.,0.));
#82=IFCAXIS2PLACEMENT3D(#79,#80,#81);
#83=IFCDIRECTION((0.,0.,1.));
#84=IFCEXTRUDEDAREASOLID(#78,#82,#83,0.25);
#85=IFCBOOLEANRESULT(.UNION.,#75,#84);
#86=IFCSHAPEREPRESENTATION(#12,'Body','CSG',(#85));
#87=IFCPRODUCTDEFINITIONSHAPE($,$,(#86));
#88=IFCCARTESIANPOINT((-0.25,0.,3.));
#89=IFCDIRECTION((1.,-0.,-0.));
#90=IFCDIRECTION((0.,1.,0.));
#91=IFCAXIS2PLACEMENT3D(#88,#89,#90);
#92=IFCLOCALPLACEMENT(#65,#91);
#93=IFCDISTRIBUTIONPORT('0MRHYfdsLNkOiMZfYFZn8R',$,'tee-0/a',$,$,#92,$,.SINK.,.PIPE.,$);
#94=IFCRELNESTS('2ScCMTgYrJ1ffSvHxxX_Se',$,$,$,#66,(#93));
#95=IFCCARTESIANPOINT((0.25,0.,3.));
#96=IFCDIRECTION((1.,0.,0.));
#97=IFCDIRECTION((0.,1.,0.));
#98=IFCAXIS2PLACEMENT3D(#95,#96,#97);
#99=IFCLOCALPLACEMENT(#65,#98);
#100=IFCDISTRIBUTIONPORT('0dBTX6JDbS5gLA6_K7BpxS',$,'tee-0/b',$,$,#99,$,.SOURCE.,.PIPE.,$);
#101=IFCRELNESTS('081KCTg1vOdBfa4zMJqmqM',$,$,$,#66,(#100));
#102=IFCCARTESIANPOINT((0.,0.25,3.));
#103=IFCDIRECTION((0.,1.,0.));
#104=IFCDIRECTION((1.,0.,0.));
#105=IFCAXIS2PLACEMENT3D(#102,#103,#104);
#106=IFCLOCALPLACEMENT(#65,#105);
#107=IFCDISTRIBUTIONPORT('0n5TqqBFPVzwd3WKyjI9UW',$,'tee-0/branch',$,$,#106,$,.SOURCE.,.PIPE.,$);
#108=IFCRELNESTS('1rCmMuzf9MWOu1rdMFPOxC',$,$,$,#66,(#107));
#109=IFCCARTESIANPOINT((0.,0.,0.));
#110=IFCDIRECTION((0.,0.,1.));
#111=IFCDIRECTION((1.,0.,0.));
#112=IFCAXIS2PLACEMENT3D(#109,#110,#111);
#113=IFCLOCALPLACEMENT($,#112);
#114=IFCPIPEFITTING('1Ju_iNa$5Q9fUCS$OZIaDS',$,'generated-5540932e0a93d1c581a57973/tee-1',$,'OMA_NETWORK_TEE',#113,#135,$,.JUNCTION.);
#115=IFCCARTESIANPOINT((0.,0.));
#116=IFCAXIS2PLACEMENT2D(#115,$);
#117=IFCCIRCLEPROFILEDEF(.AREA.,$,#116,0.0625);
#118=IFCCARTESIANPOINT((1.75,0.,3.));
#119=IFCDIRECTION((1.,0.,0.));
#120=IFCDIRECTION((0.,1.,0.));
#121=IFCAXIS2PLACEMENT3D(#118,#119,#120);
#122=IFCDIRECTION((0.,0.,1.));
#123=IFCEXTRUDEDAREASOLID(#117,#121,#122,0.5);
#124=IFCCARTESIANPOINT((0.,0.));
#125=IFCAXIS2PLACEMENT2D(#124,$);
#126=IFCCIRCLEPROFILEDEF(.AREA.,$,#125,0.0625);
#127=IFCCARTESIANPOINT((2.,0.,3.));
#128=IFCDIRECTION((0.,1.,0.));
#129=IFCDIRECTION((1.,0.,0.));
#130=IFCAXIS2PLACEMENT3D(#127,#128,#129);
#131=IFCDIRECTION((0.,0.,1.));
#132=IFCEXTRUDEDAREASOLID(#126,#130,#131,0.25);
#133=IFCBOOLEANRESULT(.UNION.,#123,#132);
#134=IFCSHAPEREPRESENTATION(#12,'Body','CSG',(#133));
#135=IFCPRODUCTDEFINITIONSHAPE($,$,(#134));
#136=IFCCARTESIANPOINT((1.75,0.,3.));
#137=IFCDIRECTION((1.,-0.,-0.));
#138=IFCDIRECTION((0.,1.,0.));
#139=IFCAXIS2PLACEMENT3D(#136,#137,#138);
#140=IFCLOCALPLACEMENT(#113,#139);
#141=IFCDISTRIBUTIONPORT('0m71EbAqLK2Pnr4tBHH_Kp',$,'tee-1/a',$,$,#140,$,.SINK.,.PIPE.,$);
#142=IFCRELNESTS('1beYvZYQjKV9h_eLWW_tVd',$,$,$,#114,(#141));
#143=IFCCARTESIANPOINT((2.25,0.,3.));
#144=IFCDIRECTION((1.,0.,0.));
#145=IFCDIRECTION((0.,1.,0.));
#146=IFCAXIS2PLACEMENT3D(#143,#144,#145);
#147=IFCLOCALPLACEMENT(#113,#146);
#148=IFCDISTRIBUTIONPORT('1tas46iZDJSgdMprSucT2s',$,'tee-1/b',$,$,#147,$,.SOURCE.,.PIPE.,$);
#149=IFCRELNESTS('2Q1q6GejzThOviFBuBDv8r',$,$,$,#114,(#148));
#150=IFCCARTESIANPOINT((2.,0.25,3.));
#151=IFCDIRECTION((0.,1.,0.));
#152=IFCDIRECTION((1.,0.,0.));
#153=IFCAXIS2PLACEMENT3D(#150,#151,#152);
#154=IFCLOCALPLACEMENT(#113,#153);
#155=IFCDISTRIBUTIONPORT('37xLz2xkTVauYJ2yU1_xEd',$,'tee-1/branch',$,$,#154,$,.SOURCE.,.PIPE.,$);
#156=IFCRELNESTS('2OriEC_BrK0OrcDMzPthQ3',$,$,$,#114,(#155));
#157=IFCCARTESIANPOINT((0.,0.,0.));
#158=IFCDIRECTION((0.,0.,1.));
#159=IFCDIRECTION((1.,0.,0.));
#160=IFCAXIS2PLACEMENT3D(#157,#158,#159);
#161=IFCLOCALPLACEMENT($,#160);
#162=IFCPIPEFITTING('13Exrr$OTQBg6T6FRlnQXp',$,'generated-5540932e0a93d1c581a57973/tee-2',$,'OMA_NETWORK_TEE',#161,#183,$,.JUNCTION.);
#163=IFCCARTESIANPOINT((0.,0.));
#164=IFCAXIS2PLACEMENT2D(#163,$);
#165=IFCCIRCLEPROFILEDEF(.AREA.,$,#164,0.0625);
#166=IFCCARTESIANPOINT((3.75,0.,3.));
#167=IFCDIRECTION((1.,0.,0.));
#168=IFCDIRECTION((0.,1.,0.));
#169=IFCAXIS2PLACEMENT3D(#166,#167,#168);
#170=IFCDIRECTION((0.,0.,1.));
#171=IFCEXTRUDEDAREASOLID(#165,#169,#170,0.5);
#172=IFCCARTESIANPOINT((0.,0.));
#173=IFCAXIS2PLACEMENT2D(#172,$);
#174=IFCCIRCLEPROFILEDEF(.AREA.,$,#173,0.0625);
#175=IFCCARTESIANPOINT((4.,0.,3.));
#176=IFCDIRECTION((0.,1.,0.));
#177=IFCDIRECTION((1.,0.,0.));
#178=IFCAXIS2PLACEMENT3D(#175,#176,#177);
#179=IFCDIRECTION((0.,0.,1.));
#180=IFCEXTRUDEDAREASOLID(#174,#178,#179,0.25);
#181=IFCBOOLEANRESULT(.UNION.,#171,#180);
#182=IFCSHAPEREPRESENTATION(#12,'Body','CSG',(#181));
#183=IFCPRODUCTDEFINITIONSHAPE($,$,(#182));
#184=IFCCARTESIANPOINT((3.75,0.,3.));
#185=IFCDIRECTION((1.,-0.,-0.));
#186=IFCDIRECTION((0.,1.,0.));
#187=IFCAXIS2PLACEMENT3D(#184,#185,#186);
#188=IFCLOCALPLACEMENT(#161,#187);
#189=IFCDISTRIBUTIONPORT('1ktuVWcgnOGgp5hz4WnGw$',$,'tee-2/a',$,$,#188,$,.SINK.,.PIPE.,$);
#190=IFCRELNESTS('3DeU1LLoPHve5ybnHEu07E',$,$,$,#162,(#189));
#191=IFCCARTESIANPOINT((4.25,0.,3.));
#192=IFCDIRECTION((1.,0.,0.));
#193=IFCDIRECTION((0.,1.,0.));
#194=IFCAXIS2PLACEMENT3D(#191,#192,#193);
#195=IFCLOCALPLACEMENT(#161,#194);
#196=IFCDISTRIBUTIONPORT('2CmyLleDfQze15qstAnSX2',$,'tee-2/b',$,$,#195,$,.SOURCE.,.PIPE.,$);
#197=IFCRELNESTS('0CVUBT0hnNAg53Pqcbc5nW',$,$,$,#162,(#196));
#198=IFCCARTESIANPOINT((4.,0.25,3.));
#199=IFCDIRECTION((0.,1.,0.));
#200=IFCDIRECTION((1.,0.,0.));
#201=IFCAXIS2PLACEMENT3D(#198,#199,#200);
#202=IFCLOCALPLACEMENT(#161,#201);
#203=IFCDISTRIBUTIONPORT('3FdB1aBQTRPhUrMn8PjlFe',$,'tee-2/branch',$,$,#202,$,.SOURCE.,.PIPE.,$);
#204=IFCRELNESTS('3oWONbh5PGXx$fJOnLQMap',$,$,$,#162,(#203));
#205=IFCCARTESIANPOINT((0.,0.,0.));
#206=IFCDIRECTION((0.,0.,1.));
#207=IFCDIRECTION((1.,0.,0.));
#208=IFCAXIS2PLACEMENT3D(#205,#206,#207);
#209=IFCLOCALPLACEMENT($,#208);
#210=IFCPIPEFITTING('0Igd5jYprPTvJZS8JmHMSe',$,'generated-5540932e0a93d1c581a57973/tee-3',$,'OMA_NETWORK_TEE',#209,#231,$,.JUNCTION.);
#211=IFCCARTESIANPOINT((0.,0.));
#212=IFCAXIS2PLACEMENT2D(#211,$);
#213=IFCCIRCLEPROFILEDEF(.AREA.,$,#212,0.0625);
#214=IFCCARTESIANPOINT((5.75,0.,3.));
#215=IFCDIRECTION((1.,0.,0.));
#216=IFCDIRECTION((0.,1.,0.));
#217=IFCAXIS2PLACEMENT3D(#214,#215,#216);
#218=IFCDIRECTION((0.,0.,1.));
#219=IFCEXTRUDEDAREASOLID(#213,#217,#218,0.5);
#220=IFCCARTESIANPOINT((0.,0.));
#221=IFCAXIS2PLACEMENT2D(#220,$);
#222=IFCCIRCLEPROFILEDEF(.AREA.,$,#221,0.0625);
#223=IFCCARTESIANPOINT((6.,0.,3.));
#224=IFCDIRECTION((0.,1.,0.));
#225=IFCDIRECTION((1.,0.,0.));
#226=IFCAXIS2PLACEMENT3D(#223,#224,#225);
#227=IFCDIRECTION((0.,0.,1.));
#228=IFCEXTRUDEDAREASOLID(#222,#226,#227,0.25);
#229=IFCBOOLEANRESULT(.UNION.,#219,#228);
#230=IFCSHAPEREPRESENTATION(#12,'Body','CSG',(#229));
#231=IFCPRODUCTDEFINITIONSHAPE($,$,(#230));
#232=IFCCARTESIANPOINT((5.75,0.,3.));
#233=IFCDIRECTION((1.,-0.,-0.));
#234=IFCDIRECTION((0.,1.,0.));
#235=IFCAXIS2PLACEMENT3D(#232,#233,#234);
#236=IFCLOCALPLACEMENT(#209,#235);
#237=IFCDISTRIBUTIONPORT('2N9rOF6dfQVhFxdDpy8Chy',$,'tee-3/a',$,$,#236,$,.SINK.,.PIPE.,$);
#238=IFCRELNESTS('0Wjz2bjN1MKeTXVIv9dgGp',$,$,$,#210,(#237));
#239=IFCCARTESIANPOINT((6.25,0.,3.));
#240=IFCDIRECTION((1.,0.,0.));
#241=IFCDIRECTION((0.,1.,0.));
#242=IFCAXIS2PLACEMENT3D(#239,#240,#241);
#243=IFCLOCALPLACEMENT(#209,#242);
#244=IFCDISTRIBUTIONPORT('04PV0KkufS7gWAg5mEy2oJ',$,'tee-3/b',$,$,#243,$,.SOURCE.,.PIPE.,$);
#245=IFCRELNESTS('0s8e$KA4fNBOoxj4lbPY0C',$,$,$,#210,(#244));
#246=IFCCARTESIANPOINT((6.,0.25,3.));
#247=IFCDIRECTION((0.,1.,0.));
#248=IFCDIRECTION((1.,0.,0.));
#249=IFCAXIS2PLACEMENT3D(#246,#247,#248);
#250=IFCLOCALPLACEMENT(#209,#249);
#251=IFCDISTRIBUTIONPORT('3q2xDQKhTSXBgP2C2dCtkI',$,'tee-3/branch',$,$,#250,$,.SOURCE.,.PIPE.,$);
#252=IFCRELNESTS('1AaV1jWv5OmBkPjtSPB7JC',$,$,$,#210,(#251));
#253=IFCCARTESIANPOINT((0.,0.,0.));
#254=IFCDIRECTION((0.,0.,1.));
#255=IFCDIRECTION((1.,0.,0.));
#256=IFCAXIS2PLACEMENT3D(#253,#254,#255);
#257=IFCLOCALPLACEMENT($,#256);
#258=IFCPIPESEGMENT('0MFVfz9t9QQO4LXPNVf4n8',$,'generated-5540932e0a93d1c581a57973/connector-443108ba2ee05a9129f30e0e-p0',$,'OMA_NETWORK_SEGMENT',#257,#269,$,.RIGIDSEGMENT.);
#259=IFCCARTESIANPOINT((0.,0.));
#260=IFCAXIS2PLACEMENT2D(#259,$);
#261=IFCCIRCLEPROFILEDEF(.AREA.,$,#260,0.0625);
#262=IFCCARTESIANPOINT((4.25,0.,3.));
#263=IFCDIRECTION((1.,0.,0.));
#264=IFCDIRECTION((0.,1.,0.));
#265=IFCAXIS2PLACEMENT3D(#262,#263,#264);
#266=IFCDIRECTION((0.,0.,1.));
#267=IFCEXTRUDEDAREASOLID(#261,#265,#266,1.5);
#268=IFCSHAPEREPRESENTATION(#12,'Body','SweptSolid',(#267));
#269=IFCPRODUCTDEFINITIONSHAPE($,$,(#268));
#270=IFCCARTESIANPOINT((4.25,0.,3.));
#271=IFCDIRECTION((1.,-0.,-0.));
#272=IFCDIRECTION((0.,1.,0.));
#273=IFCAXIS2PLACEMENT3D(#270,#271,#272);
#274=IFCLOCALPLACEMENT(#257,#273);
#275=IFCDISTRIBUTIONPORT('2AVX57trLKGuKZIPwmQdkD',$,'connector-443108ba2ee05a9129f30e0e-p0/a',$,$,#274,$,.SINK.,.PIPE.,$);
#276=IFCRELNESTS('1lueKL8kTU38VqCLr8jvJM',$,$,$,#258,(#275));
#277=IFCCARTESIANPOINT((5.75,0.,3.));
#278=IFCDIRECTION((1.,0.,0.));
#279=IFCDIRECTION((0.,1.,0.));
#280=IFCAXIS2PLACEMENT3D(#277,#278,#279);
#281=IFCLOCALPLACEMENT(#257,#280);
#282=IFCDISTRIBUTIONPORT('2Fu5DKB19Vuu9lKCGEB4V6',$,'connector-443108ba2ee05a9129f30e0e-p0/b',$,$,#281,$,.SOURCE.,.PIPE.,$);
#283=IFCRELNESTS('1Gg7ZVAg5RF97kojSbTvW1',$,$,$,#258,(#282));
#284=IFCCARTESIANPOINT((0.,0.,0.));
#285=IFCDIRECTION((0.,0.,1.));
#286=IFCDIRECTION((1.,0.,0.));
#287=IFCAXIS2PLACEMENT3D(#284,#285,#286);
#288=IFCLOCALPLACEMENT($,#287);
#289=IFCPIPESEGMENT('0ctwbj4pHQZOG6Xl46lTDP',$,'generated-5540932e0a93d1c581a57973/connector-5f4d533bfcbd34340c589965-p0',$,'OMA_NETWORK_SEGMENT',#288,#300,$,.RIGIDSEGMENT.);
#290=IFCCARTESIANPOINT((0.,0.));
#291=IFCAXIS2PLACEMENT2D(#290,$);
#292=IFCCIRCLEPROFILEDEF(.AREA.,$,#291,0.0625);
#293=IFCCARTESIANPOINT((0.,0.25,3.));
#294=IFCDIRECTION((0.,1.,0.));
#295=IFCDIRECTION((1.,0.,0.));
#296=IFCAXIS2PLACEMENT3D(#293,#294,#295);
#297=IFCDIRECTION((0.,0.,1.));
#298=IFCEXTRUDEDAREASOLID(#292,#296,#297,1.75);
#299=IFCSHAPEREPRESENTATION(#12,'Body','SweptSolid',(#298));
#300=IFCPRODUCTDEFINITIONSHAPE($,$,(#299));
#301=IFCCARTESIANPOINT((0.,0.25,3.));
#302=IFCDIRECTION((-0.,1.,-0.));
#303=IFCDIRECTION((1.,0.,0.));
#304=IFCAXIS2PLACEMENT3D(#301,#302,#303);
#305=IFCLOCALPLACEMENT(#288,#304);
#306=IFCDISTRIBUTIONPORT('37qXPp0kXQ9AzsmMMFb3B0',$,'connector-5f4d533bfcbd34340c589965-p0/a',$,$,#305,$,.SINK.,.PIPE.,$);
#307=IFCRELNESTS('1Vx3Aj1qvQcRhdvxpVTjIG',$,$,$,#289,(#306));
#308=IFCCARTESIANPOINT((0.,2.,3.));
#309=IFCDIRECTION((0.,1.,0.));
#310=IFCDIRECTION((1.,0.,0.));
#311=IFCAXIS2PLACEMENT3D(#308,#309,#310);
#312=IFCLOCALPLACEMENT(#288,#311);
#313=IFCDISTRIBUTIONPORT('3DKoUicGfNxeoe2b3Uo6jq',$,'connector-5f4d533bfcbd34340c589965-p0/b',$,$,#312,$,.SOURCE.,.PIPE.,$);
#314=IFCRELNESTS('0J9MIrDRfOtQ_L_t_5PckZ',$,$,$,#289,(#313));
#315=IFCCARTESIANPOINT((0.,0.,0.));
#316=IFCDIRECTION((0.,0.,1.));
#317=IFCDIRECTION((1.,0.,0.));
#318=IFCAXIS2PLACEMENT3D(#315,#316,#317);
#319=IFCLOCALPLACEMENT($,#318);
#320=IFCPIPEFITTING('1UhYV5CgLUahFVomDbh3oS',$,'generated-5540932e0a93d1c581a57973/connector-5f4d533bfcbd34340c589965-p1',$,'OMA_NETWORK_ELBOW',#319,#333,$,.BEND.);
#321=IFCCARTESIANPOINT((0.25,0.));
#322=IFCAXIS2PLACEMENT2D(#321,$);
#323=IFCCIRCLEPROFILEDEF(.AREA.,$,#322,0.0625);
#324=IFCCARTESIANPOINT((0.25,2.,3.));
#325=IFCDIRECTION((0.,1.,0.));
#326=IFCDIRECTION((-1.,0.,0.));
#327=IFCAXIS2PLACEMENT3D(#324,#325,#326);
#328=IFCCARTESIANPOINT((0.,0.,0.));
#329=IFCDIRECTION((0.,-1.,0.));
#330=IFCAXIS1PLACEMENT(#328,#329);
#331=IFCREVOLVEDAREASOLID(#323,#327,#330,1.5707963267948966);
#332=IFCSHAPEREPRESENTATION(#12,'Body','SweptSolid',(#331));
#333=IFCPRODUCTDEFINITIONSHAPE($,$,(#332));
#334=IFCCARTESIANPOINT((0.,2.,3.));
#335=IFCDIRECTION((-0.,1.,-0.));
#336=IFCDIRECTION((1.,0.,0.));
#337=IFCAXIS2PLACEMENT3D(#334,#335,#336);
#338=IFCLOCALPLACEMENT(#319,#337);
#339=IFCDISTRIBUTIONPORT('3w8wsAh99Oauf50XtmK922',$,'connector-5f4d533bfcbd34340c589965-p1/a',$,$,#338,$,.SINK.,.PIPE.,$);
#340=IFCRELNESTS('2cqGpd0PHGO9KWhmOUkn1y',$,$,$,#320,(#339));
#341=IFCCARTESIANPOINT((0.25,2.25,3.));
#342=IFCDIRECTION((1.,0.,0.));
#343=IFCDIRECTION((0.,1.,0.));
#344=IFCAXIS2PLACEMENT3D(#341,#342,#343);
#345=IFCLOCALPLACEMENT(#319,#344);
#346=IFCDISTRIBUTIONPORT('3F_FVId9vJu8d4SYAd1kGC',$,'connector-5f4d533bfcbd34340c589965-p1/b',$,$,#345,$,.SOURCE.,.PIPE.,$);
#347=IFCRELNESTS('1PMHwIQLHUReOOauwBBzwY',$,$,$,#320,(#346));
#348=IFCCARTESIANPOINT((0.,0.,0.));
#349=IFCDIRECTION((0.,0.,1.));
#350=IFCDIRECTION((1.,0.,0.));
#351=IFCAXIS2PLACEMENT3D(#348,#349,#350);
#352=IFCLOCALPLACEMENT($,#351);
#353=IFCPIPESEGMENT('0XFQOhYdTIgvDNIJkfcjQX',$,'generated-5540932e0a93d1c581a57973/connector-5f4d533bfcbd34340c589965-p2',$,'OMA_NETWORK_SEGMENT',#352,#364,$,.RIGIDSEGMENT.);
#354=IFCCARTESIANPOINT((0.,0.));
#355=IFCAXIS2PLACEMENT2D(#354,$);
#356=IFCCIRCLEPROFILEDEF(.AREA.,$,#355,0.0625);
#357=IFCCARTESIANPOINT((0.25,2.25,3.));
#358=IFCDIRECTION((1.,0.,0.));
#359=IFCDIRECTION((0.,1.,0.));
#360=IFCAXIS2PLACEMENT3D(#357,#358,#359);
#361=IFCDIRECTION((0.,0.,1.));
#362=IFCEXTRUDEDAREASOLID(#356,#360,#361,0.5);
#363=IFCSHAPEREPRESENTATION(#12,'Body','SweptSolid',(#362));
#364=IFCPRODUCTDEFINITIONSHAPE($,$,(#363));
#365=IFCCARTESIANPOINT((0.25,2.25,3.));
#366=IFCDIRECTION((1.,-0.,-0.));
#367=IFCDIRECTION((0.,1.,0.));
#368=IFCAXIS2PLACEMENT3D(#365,#366,#367);
#369=IFCLOCALPLACEMENT(#352,#368);
#370=IFCDISTRIBUTIONPORT('2b$NIbBXLQbf$yNXUL2cqC',$,'connector-5f4d533bfcbd34340c589965-p2/a',$,$,#369,$,.SINK.,.PIPE.,$);
#371=IFCRELNESTS('0W9EMqKmHH28MuLixHOebP',$,$,$,#353,(#370));
#372=IFCCARTESIANPOINT((0.75,2.25,3.));
#373=IFCDIRECTION((1.,0.,0.));
#374=IFCDIRECTION((0.,1.,0.));
#375=IFCAXIS2PLACEMENT3D(#372,#373,#374);
#376=IFCLOCALPLACEMENT(#352,#375);
#377=IFCDISTRIBUTIONPORT('3kxuzqZUnOKhgT6g6fxakK',$,'connector-5f4d533bfcbd34340c589965-p2/b',$,$,#376,$,.SOURCE.,.PIPE.,$);
#378=IFCRELNESTS('0adadN_gbJuBx6SCsBZ1O5',$,$,$,#353,(#377));
#379=IFCCARTESIANPOINT((0.,0.,0.));
#380=IFCDIRECTION((0.,0.,1.));
#381=IFCDIRECTION((1.,0.,0.));
#382=IFCAXIS2PLACEMENT3D(#379,#380,#381);
#383=IFCLOCALPLACEMENT($,#382);
#384=IFCPIPEFITTING('3FvBZ5PIzP7vTliABmlvd3',$,'generated-5540932e0a93d1c581a57973/connector-5f4d533bfcbd34340c589965-p3',$,'OMA_NETWORK_ELBOW',#383,#397,$,.BEND.);
#385=IFCCARTESIANPOINT((0.25,0.));
#386=IFCAXIS2PLACEMENT2D(#385,$);
#387=IFCCIRCLEPROFILEDEF(.AREA.,$,#386,0.0625);
#388=IFCCARTESIANPOINT((0.75,2.5,3.));
#389=IFCDIRECTION((1.,0.,0.));
#390=IFCDIRECTION((0.,-1.,0.));
#391=IFCAXIS2PLACEMENT3D(#388,#389,#390);
#392=IFCCARTESIANPOINT((0.,0.,0.));
#393=IFCDIRECTION((0.,-1.,0.));
#394=IFCAXIS1PLACEMENT(#392,#393);
#395=IFCREVOLVEDAREASOLID(#387,#391,#394,1.5707963267948966);
#396=IFCSHAPEREPRESENTATION(#12,'Body','SweptSolid',(#395));
#397=IFCPRODUCTDEFINITIONSHAPE($,$,(#396));
#398=IFCCARTESIANPOINT((0.75,2.25,3.));
#399=IFCDIRECTION((1.,-0.,-0.));
#400=IFCDIRECTION((0.,1.,0.));
#401=IFCAXIS2PLACEMENT3D(#398,#399,#400);
#402=IFCLOCALPLACEMENT(#383,#401);
#403=IFCDISTRIBUTIONPORT('0a1RsKmjrVIvDcJgEhPWBx',$,'connector-5f4d533bfcbd34340c589965-p3/a',$,$,#402,$,.SINK.,.PIPE.,$);
#404=IFCRELNESTS('1AwZ3IhJnSRhYDR5gdC6DM',$,$,$,#384,(#403));
#405=IFCCARTESIANPOINT((1.,2.5,3.));
#406=IFCDIRECTION((0.,1.,0.));
#407=IFCDIRECTION((1.,0.,0.));
#408=IFCAXIS2PLACEMENT3D(#405,#406,#407);
#409=IFCLOCALPLACEMENT(#383,#408);
#410=IFCDISTRIBUTIONPORT('2_wsfJmmjRJOq8fLcGgKer',$,'connector-5f4d533bfcbd34340c589965-p3/b',$,$,#409,$,.SOURCE.,.PIPE.,$);
#411=IFCRELNESTS('0iMaeevb5MKgU7C7wxID1r',$,$,$,#384,(#410));
#412=IFCCARTESIANPOINT((0.,0.,0.));
#413=IFCDIRECTION((0.,0.,1.));
#414=IFCDIRECTION((1.,0.,0.));
#415=IFCAXIS2PLACEMENT3D(#412,#413,#414);
#416=IFCLOCALPLACEMENT($,#415);
#417=IFCPIPESEGMENT('3ajQivzbzPSxgbPExrH9D2',$,'generated-5540932e0a93d1c581a57973/connector-5f4d533bfcbd34340c589965-p4',$,'OMA_NETWORK_SEGMENT',#416,#428,$,.RIGIDSEGMENT.);
#418=IFCCARTESIANPOINT((0.,0.));
#419=IFCAXIS2PLACEMENT2D(#418,$);
#420=IFCCIRCLEPROFILEDEF(.AREA.,$,#419,0.0625);
#421=IFCCARTESIANPOINT((1.,2.5,3.));
#422=IFCDIRECTION((0.,1.,0.));
#423=IFCDIRECTION((1.,0.,0.));
#424=IFCAXIS2PLACEMENT3D(#421,#422,#423);
#425=IFCDIRECTION((0.,0.,1.));
#426=IFCEXTRUDEDAREASOLID(#420,#424,#425,0.5);
#427=IFCSHAPEREPRESENTATION(#12,'Body','SweptSolid',(#426));
#428=IFCPRODUCTDEFINITIONSHAPE($,$,(#427));
#429=IFCCARTESIANPOINT((1.,2.5,3.));
#430=IFCDIRECTION((-0.,1.,-0.));
#431=IFCDIRECTION((1.,0.,0.));
#432=IFCAXIS2PLACEMENT3D(#429,#430,#431);
#433=IFCLOCALPLACEMENT(#416,#432);
#434=IFCDISTRIBUTIONPORT('0QMK3J$mTP79TxX_V5L_Lh',$,'connector-5f4d533bfcbd34340c589965-p4/a',$,$,#433,$,.SINK.,.PIPE.,$);
#435=IFCRELNESTS('2NOFqTS$LLWPA1fXoq67Wu',$,$,$,#417,(#434));
#436=IFCCARTESIANPOINT((1.,3.,3.));
#437=IFCDIRECTION((0.,1.,0.));
#438=IFCDIRECTION((1.,0.,0.));
#439=IFCAXIS2PLACEMENT3D(#436,#437,#438);
#440=IFCLOCALPLACEMENT(#416,#439);
#441=IFCDISTRIBUTIONPORT('1_qhtdExPSf9RixPDXJkmw',$,'connector-5f4d533bfcbd34340c589965-p4/b',$,$,#440,$,.SOURCE.,.PIPE.,$);
#442=IFCRELNESTS('1ZhNAjTMfIdgC$yr89I$49',$,$,$,#417,(#441));
#443=IFCCARTESIANPOINT((0.,0.,0.));
#444=IFCDIRECTION((0.,0.,1.));
#445=IFCDIRECTION((1.,0.,0.));
#446=IFCAXIS2PLACEMENT3D(#443,#444,#445);
#447=IFCLOCALPLACEMENT($,#446);
#448=IFCPIPESEGMENT('3BTDoaD1nH2ew$7lI4E82v',$,'generated-5540932e0a93d1c581a57973/connector-7d11bed117588215abe8f19d-p0',$,'OMA_NETWORK_SEGMENT',#447,#459,$,.RIGIDSEGMENT.);
#449=IFCCARTESIANPOINT((0.,0.));
#450=IFCAXIS2PLACEMENT2D(#449,$);
#451=IFCCIRCLEPROFILEDEF(.AREA.,$,#450,0.0625);
#452=IFCCARTESIANPOINT((0.25,0.,3.));
#453=IFCDIRECTION((1.,0.,0.));
#454=IFCDIRECTION((0.,1.,0.));
#455=IFCAXIS2PLACEMENT3D(#452,#453,#454);
#456=IFCDIRECTION((0.,0.,1.));
#457=IFCEXTRUDEDAREASOLID(#451,#455,#456,1.5);
#458=IFCSHAPEREPRESENTATION(#12,'Body','SweptSolid',(#457));
#459=IFCPRODUCTDEFINITIONSHAPE($,$,(#458));
#460=IFCCARTESIANPOINT((0.25,0.,3.));
#461=IFCDIRECTION((1.,-0.,-0.));
#462=IFCDIRECTION((0.,1.,0.));
#463=IFCAXIS2PLACEMENT3D(#460,#461,#462);
#464=IFCLOCALPLACEMENT(#447,#463);
#465=IFCDISTRIBUTIONPORT('30BINfjr9VqeLybIGzu_nK',$,'connector-7d11bed117588215abe8f19d-p0/a',$,$,#464,$,.SINK.,.PIPE.,$);
#466=IFCRELNESTS('0JYyRSrKPG7QYZLsoPfvdM',$,$,$,#448,(#465));
#467=IFCCARTESIANPOINT((1.75,0.,3.));
#468=IFCDIRECTION((1.,0.,0.));
#469=IFCDIRECTION((0.,1.,0.));
#470=IFCAXIS2PLACEMENT3D(#467,#468,#469);
#471=IFCLOCALPLACEMENT(#447,#470);
#472=IFCDISTRIBUTIONPORT('3Y$XmFytLSx98HVr2WQalu',$,'connector-7d11bed117588215abe8f19d-p0/b',$,$,#471,$,.SOURCE.,.PIPE.,$);
#473=IFCRELNESTS('3ytesZ7tvLVOm9t1uTgNKf',$,$,$,#448,(#472));
#474=IFCCARTESIANPOINT((0.,0.,0.));
#475=IFCDIRECTION((0.,0.,1.));
#476=IFCDIRECTION((1.,0.,0.));
#477=IFCAXIS2PLACEMENT3D(#474,#475,#476);
#478=IFCLOCALPLACEMENT($,#477);
#479=IFCPIPESEGMENT('3l0zJwZNfOLP28Wfgw$SWX',$,'generated-5540932e0a93d1c581a57973/connector-85edc313e625ec7a9c38e5e9-p0',$,'OMA_NETWORK_SEGMENT',#478,#490,$,.RIGIDSEGMENT.);
#480=IFCCARTESIANPOINT((0.,0.));
#481=IFCAXIS2PLACEMENT2D(#480,$);
#482=IFCCIRCLEPROFILEDEF(.AREA.,$,#481,0.0625);
#483=IFCCARTESIANPOINT((-2.,0.,3.));
#484=IFCDIRECTION((1.,0.,0.));
#485=IFCDIRECTION((0.,1.,0.));
#486=IFCAXIS2PLACEMENT3D(#483,#484,#485);
#487=IFCDIRECTION((0.,0.,1.));
#488=IFCEXTRUDEDAREASOLID(#482,#486,#487,1.75);
#489=IFCSHAPEREPRESENTATION(#12,'Body','SweptSolid',(#488));
#490=IFCPRODUCTDEFINITIONSHAPE($,$,(#489));
#491=IFCCARTESIANPOINT((-2.,0.,3.));
#492=IFCDIRECTION((1.,-0.,-0.));
#493=IFCDIRECTION((0.,1.,0.));
#494=IFCAXIS2PLACEMENT3D(#491,#492,#493);
#495=IFCLOCALPLACEMENT(#478,#494);
#496=IFCDISTRIBUTIONPORT('2sZOdypxTSvAsX9Qgi1quA',$,'connector-85edc313e625ec7a9c38e5e9-p0/a',$,$,#495,$,.SINK.,.PIPE.,$);
#497=IFCRELNESTS('3fRM1vranIKgcSEKxDWbAR',$,$,$,#479,(#496));
#498=IFCCARTESIANPOINT((-0.25,0.,3.));
#499=IFCDIRECTION((1.,0.,0.));
#500=IFCDIRECTION((0.,1.,0.));
#501=IFCAXIS2PLACEMENT3D(#498,#499,#500);
#502=IFCLOCALPLACEMENT(#478,#501);
#503=IFCDISTRIBUTIONPORT('0_SPQRqPrHLQ_g9kMymqJQ',$,'connector-85edc313e625ec7a9c38e5e9-p0/b',$,$,#502,$,.SOURCE.,.PIPE.,$);
#504=IFCRELNESTS('2vFZDt4x5LHv9kJ65g5$pf',$,$,$,#479,(#503));
#505=IFCCARTESIANPOINT((0.,0.,0.));
#506=IFCDIRECTION((0.,0.,1.));
#507=IFCDIRECTION((1.,0.,0.));
#508=IFCAXIS2PLACEMENT3D(#505,#506,#507);
#509=IFCLOCALPLACEMENT($,#508);
#510=IFCPIPESEGMENT('3l0_DgkFHSGPROR_4n12HA',$,'generated-5540932e0a93d1c581a57973/connector-91dd85b1e98941d48fcb1f31-p0',$,'OMA_NETWORK_SEGMENT',#509,#521,$,.RIGIDSEGMENT.);
#511=IFCCARTESIANPOINT((0.,0.));
#512=IFCAXIS2PLACEMENT2D(#511,$);
#513=IFCCIRCLEPROFILEDEF(.AREA.,$,#512,0.0625);
#514=IFCCARTESIANPOINT((2.25,0.,3.));
#515=IFCDIRECTION((1.,0.,0.));
#516=IFCDIRECTION((0.,1.,0.));
#517=IFCAXIS2PLACEMENT3D(#514,#515,#516);
#518=IFCDIRECTION((0.,0.,1.));
#519=IFCEXTRUDEDAREASOLID(#513,#517,#518,1.5);
#520=IFCSHAPEREPRESENTATION(#12,'Body','SweptSolid',(#519));
#521=IFCPRODUCTDEFINITIONSHAPE($,$,(#520));
#522=IFCCARTESIANPOINT((2.25,0.,3.));
#523=IFCDIRECTION((1.,-0.,-0.));
#524=IFCDIRECTION((0.,1.,0.));
#525=IFCAXIS2PLACEMENT3D(#522,#523,#524);
#526=IFCLOCALPLACEMENT(#509,#525);
#527=IFCDISTRIBUTIONPORT('1FTQ170_PMyRn302Kgc1m6',$,'connector-91dd85b1e98941d48fcb1f31-p0/a',$,$,#526,$,.SINK.,.PIPE.,$);
#528=IFCRELNESTS('3SCnXeeenPFRSbBWBorgng',$,$,$,#510,(#527));
#529=IFCCARTESIANPOINT((3.75,0.,3.));
#530=IFCDIRECTION((1.,0.,0.));
#531=IFCDIRECTION((0.,1.,0.));
#532=IFCAXIS2PLACEMENT3D(#529,#530,#531);
#533=IFCLOCALPLACEMENT(#509,#532);
#534=IFCDISTRIBUTIONPORT('0amYweCbnPJA7FCzUaSuJo',$,'connector-91dd85b1e98941d48fcb1f31-p0/b',$,$,#533,$,.SOURCE.,.PIPE.,$);
#535=IFCRELNESTS('0k3rFyuW5KpwGVuHj_lC3$',$,$,$,#510,(#534));
#536=IFCCARTESIANPOINT((0.,0.,0.));
#537=IFCDIRECTION((0.,0.,1.));
#538=IFCDIRECTION((1.,0.,0.));
#539=IFCAXIS2PLACEMENT3D(#536,#537,#538);
#540=IFCLOCALPLACEMENT($,#539);
#541=IFCPIPESEGMENT('0APxdX9p5VwQVYKmyE4rTm',$,'generated-5540932e0a93d1c581a57973/connector-934fb3dd22875770e9fae3c6-p0',$,'OMA_NETWORK_SEGMENT',#540,#552,$,.RIGIDSEGMENT.);
#542=IFCCARTESIANPOINT((0.,0.));
#543=IFCAXIS2PLACEMENT2D(#542,$);
#544=IFCCIRCLEPROFILEDEF(.AREA.,$,#543,0.0625);
#545=IFCCARTESIANPOINT((6.,0.25,3.));
#546=IFCDIRECTION((0.,1.,0.));
#547=IFCDIRECTION((1.,0.,0.));
#548=IFCAXIS2PLACEMENT3D(#545,#546,#547);
#549=IFCDIRECTION((0.,0.,1.));
#550=IFCEXTRUDEDAREASOLID(#544,#548,#549,2.75);
#551=IFCSHAPEREPRESENTATION(#12,'Body','SweptSolid',(#550));
#552=IFCPRODUCTDEFINITIONSHAPE($,$,(#551));
#553=IFCCARTESIANPOINT((6.,0.25,3.));
#554=IFCDIRECTION((-0.,1.,-0.));
#555=IFCDIRECTION((1.,0.,0.));
#556=IFCAXIS2PLACEMENT3D(#553,#554,#555);
#557=IFCLOCALPLACEMENT(#540,#556);
#558=IFCDISTRIBUTIONPORT('32nXxw5qzMARjgJu9LHXpb',$,'connector-934fb3dd22875770e9fae3c6-p0/a',$,$,#557,$,.SINK.,.PIPE.,$);
#559=IFCRELNESTS('3q_9Ymo$HIqeYBSASRHX1C',$,$,$,#541,(#558));
#560=IFCCARTESIANPOINT((6.,3.,3.));
#561=IFCDIRECTION((0.,1.,0.));
#562=IFCDIRECTION((1.,0.,0.));
#563=IFCAXIS2PLACEMENT3D(#560,#561,#562);
#564=IFCLOCALPLACEMENT(#540,#563);
#565=IFCDISTRIBUTIONPORT('05pbmCAonK3f2PWUGoZEFj',$,'connector-934fb3dd22875770e9fae3c6-p0/b',$,$,#564,$,.SOURCE.,.PIPE.,$);
#566=IFCRELNESTS('01UoAgq2nHkwuHW8g_OWwm',$,$,$,#541,(#565));
#567=IFCCARTESIANPOINT((0.,0.,0.));
#568=IFCDIRECTION((0.,0.,1.));
#569=IFCDIRECTION((1.,0.,0.));
#570=IFCAXIS2PLACEMENT3D(#567,#568,#569);
#571=IFCLOCALPLACEMENT($,#570);
#572=IFCPIPESEGMENT('2CTla6GsjHMQSTevD17BcZ',$,'generated-5540932e0a93d1c581a57973/connector-ab082257969acef2995cd924-p0',$,'OMA_NETWORK_SEGMENT',#571,#583,$,.RIGIDSEGMENT.);
#573=IFCCARTESIANPOINT((0.,0.));
#574=IFCAXIS2PLACEMENT2D(#573,$);
#575=IFCCIRCLEPROFILEDEF(.AREA.,$,#574,0.0625);
#576=IFCCARTESIANPOINT((2.,0.25,3.));
#577=IFCDIRECTION((0.,1.,0.));
#578=IFCDIRECTION((1.,0.,0.));
#579=IFCAXIS2PLACEMENT3D(#576,#577,#578);
#580=IFCDIRECTION((0.,0.,1.));
#581=IFCEXTRUDEDAREASOLID(#575,#579,#580,2.75);
#582=IFCSHAPEREPRESENTATION(#12,'Body','SweptSolid',(#581));
#583=IFCPRODUCTDEFINITIONSHAPE($,$,(#582));
#584=IFCCARTESIANPOINT((2.,0.25,3.));
#585=IFCDIRECTION((-0.,1.,-0.));
#586=IFCDIRECTION((1.,0.,0.));
#587=IFCAXIS2PLACEMENT3D(#584,#585,#586);
#588=IFCLOCALPLACEMENT(#571,#587);
#589=IFCDISTRIBUTIONPORT('22thM0q9LUNQ36B$Vc_pkb',$,'connector-ab082257969acef2995cd924-p0/a',$,$,#588,$,.SINK.,.PIPE.,$);
#590=IFCRELNESTS('1cjzMWZNLKgwQJKzEvN1li',$,$,$,#572,(#589));
#591=IFCCARTESIANPOINT((2.,3.,3.));
#592=IFCDIRECTION((0.,1.,0.));
#593=IFCDIRECTION((1.,0.,0.));
#594=IFCAXIS2PLACEMENT3D(#591,#592,#593);
#595=IFCLOCALPLACEMENT(#571,#594);
#596=IFCDISTRIBUTIONPORT('3ce$EDR59U$gF92CLGZyBF',$,'connector-ab082257969acef2995cd924-p0/b',$,$,#595,$,.SOURCE.,.PIPE.,$);
#597=IFCRELNESTS('25IiHUVynJfw8q606vTuY7',$,$,$,#572,(#596));
#598=IFCCARTESIANPOINT((0.,0.,0.));
#599=IFCDIRECTION((0.,0.,1.));
#600=IFCDIRECTION((1.,0.,0.));
#601=IFCAXIS2PLACEMENT3D(#598,#599,#600);
#602=IFCLOCALPLACEMENT($,#601);
#603=IFCPIPESEGMENT('1meuw3DdbOtPRCGgnYZcwU',$,'generated-5540932e0a93d1c581a57973/connector-da739e797b947d00fa67ccaf-p0',$,'OMA_NETWORK_SEGMENT',#602,#614,$,.RIGIDSEGMENT.);
#604=IFCCARTESIANPOINT((0.,0.));
#605=IFCAXIS2PLACEMENT2D(#604,$);
#606=IFCCIRCLEPROFILEDEF(.AREA.,$,#605,0.0625);
#607=IFCCARTESIANPOINT((4.,0.25,3.));
#608=IFCDIRECTION((0.,1.,0.));
#609=IFCDIRECTION((1.,0.,0.));
#610=IFCAXIS2PLACEMENT3D(#607,#608,#609);
#611=IFCDIRECTION((0.,0.,1.));
#612=IFCEXTRUDEDAREASOLID(#606,#610,#611,2.75);
#613=IFCSHAPEREPRESENTATION(#12,'Body','SweptSolid',(#612));
#614=IFCPRODUCTDEFINITIONSHAPE($,$,(#613));
#615=IFCCARTESIANPOINT((4.,0.25,3.));
#616=IFCDIRECTION((-0.,1.,-0.));
#617=IFCDIRECTION((1.,0.,0.));
#618=IFCAXIS2PLACEMENT3D(#615,#616,#617);
#619=IFCLOCALPLACEMENT(#602,#618);
#620=IFCDISTRIBUTIONPORT('3N4lUVcOPMgeiURpA6WK1B',$,'connector-da739e797b947d00fa67ccaf-p0/a',$,$,#619,$,.SINK.,.PIPE.,$);
#621=IFCRELNESTS('1LdX8nqK5TwuRWsI9uCM0J',$,$,$,#603,(#620));
#622=IFCCARTESIANPOINT((4.,3.,3.));
#623=IFCDIRECTION((0.,1.,0.));
#624=IFCDIRECTION((1.,0.,0.));
#625=IFCAXIS2PLACEMENT3D(#622,#623,#624);
#626=IFCLOCALPLACEMENT(#602,#625);
#627=IFCDISTRIBUTIONPORT('2T1sBD$3XIB8nal$2B0Ffc',$,'connector-da739e797b947d00fa67ccaf-p0/b',$,$,#626,$,.SOURCE.,.PIPE.,$);
#628=IFCRELNESTS('2AXpa02K9MLBCWTUH1sBr9',$,$,$,#603,(#627));
#629=IFCCARTESIANPOINT((0.,0.,0.));
#630=IFCDIRECTION((0.,0.,1.));
#631=IFCDIRECTION((1.,0.,0.));
#632=IFCAXIS2PLACEMENT3D(#629,#630,#631);
#633=IFCLOCALPLACEMENT($,#632);
#634=IFCPIPESEGMENT('1djaW0EM1VChys1e2OlfXb',$,'generated-5540932e0a93d1c581a57973/connector-f706c3d9428c806dc3a34e6a-p0',$,'OMA_NETWORK_SEGMENT',#633,#645,$,.RIGIDSEGMENT.);
#635=IFCCARTESIANPOINT((0.,0.));
#636=IFCAXIS2PLACEMENT2D(#635,$);
#637=IFCCIRCLEPROFILEDEF(.AREA.,$,#636,0.0625);
#638=IFCCARTESIANPOINT((6.25,0.,3.));
#639=IFCDIRECTION((1.,0.,0.));
#640=IFCDIRECTION((0.,1.,0.));
#641=IFCAXIS2PLACEMENT3D(#638,#639,#640);
#642=IFCDIRECTION((0.,0.,1.));
#643=IFCEXTRUDEDAREASOLID(#637,#641,#642,1.75);
#644=IFCSHAPEREPRESENTATION(#12,'Body','SweptSolid',(#643));
#645=IFCPRODUCTDEFINITIONSHAPE($,$,(#644));
#646=IFCCARTESIANPOINT((6.25,0.,3.));
#647=IFCDIRECTION((1.,-0.,-0.));
#648=IFCDIRECTION((0.,1.,0.));
#649=IFCAXIS2PLACEMENT3D(#646,#647,#648);
#650=IFCLOCALPLACEMENT(#633,#649);
#651=IFCDISTRIBUTIONPORT('1_Uxa8IFTOkuzwTTSF7fq0',$,'connector-f706c3d9428c806dc3a34e6a-p0/a',$,$,#650,$,.SINK.,.PIPE.,$);
#652=IFCRELNESTS('2Bn0UOPCXQPuRNjmsCyIpn',$,$,$,#634,(#651));
#653=IFCCARTESIANPOINT((8.,0.,3.));
#654=IFCDIRECTION((1.,0.,0.));
#655=IFCDIRECTION((0.,1.,0.));
#656=IFCAXIS2PLACEMENT3D(#653,#654,#655);
#657=IFCLOCALPLACEMENT(#633,#656);
#658=IFCDISTRIBUTIONPORT('3OFH$xdTXR7h0uJjD4jRp3',$,'connector-f706c3d9428c806dc3a34e6a-p0/b',$,$,#657,$,.SOURCE.,.PIPE.,$);
#659=IFCRELNESTS('3ueOBgkXfLARHKOyDVxAV1',$,$,$,#634,(#658));
#660=IFCRELCONNECTSPORTS('0EmcvVzBvQuv52P3snfmjY',$,$,$,#196,#275,$);
#661=IFCRELCONNECTSPORTS('2u$QiczT1OHftc0qg7ZZAV',$,$,$,#282,#237,$);
#662=IFCRELCONNECTSPORTS('2Rzm1rmj1TaBtJ9I9Fl8w7',$,$,$,#313,#339,$);
#663=IFCRELCONNECTSPORTS('2ZWesNGl9HgfrNKPNPcnFj',$,$,$,#346,#370,$);
#664=IFCRELCONNECTSPORTS('2OQzYHKQTGlBdH3g_1FueP',$,$,$,#377,#403,$);
#665=IFCRELCONNECTSPORTS('3n11F8SGrNixjAySbWkr4r',$,$,$,#410,#434,$);
#666=IFCRELCONNECTSPORTS('3TVbhVE3bMNvHI5FbvXlTf',$,$,$,#107,#306,$);
#667=IFCRELCONNECTSPORTS('3xsitXAxjQYA9tBpPjcHH0',$,$,$,#100,#465,$);
#668=IFCRELCONNECTSPORTS('3_dLrc7GnN5xVvUbPPfN_$',$,$,$,#472,#141,$);
#669=IFCRELCONNECTSPORTS('36aHtTwDjVrwhhHQHOZzAp',$,$,$,#503,#93,$);
#670=IFCRELCONNECTSPORTS('2XADRnf35P$BseRmApELWF',$,$,$,#148,#527,$);
#671=IFCRELCONNECTSPORTS('2ai3WY_D5T2QPfBd$veOOZ',$,$,$,#534,#189,$);
#672=IFCRELCONNECTSPORTS('0hEPk5aU5GDwuWxZndccOf',$,$,$,#251,#558,$);
#673=IFCRELCONNECTSPORTS('2bdOhAHurQoxuMCzl7HaYd',$,$,$,#155,#589,$);
#674=IFCRELCONNECTSPORTS('2N$FjQ9CfTUebidoGErbJd',$,$,$,#203,#620,$);
#675=IFCRELCONNECTSPORTS('3t2102$gfGtPjyslmPfJ6t',$,$,$,#244,#651,$);
#676=IFCRELASSIGNSTOGROUP('3ZoXfqFOvRqximFd4bcc$x',$,$,$,(#66,#114,#162,#210,#258,#289,#320,#353,#384,#417,#448,#479,#510,#541,#572,#603,#634),$,#60);
#677=IFCRELCONTAINEDINSPATIALSTRUCTURE('3tRZBc$L9Vz8sALU3APhqu',$,$,$,(#66,#114,#162,#210,#258,#289,#320,#353,#384,#417,#448,#479,#510,#541,#572,#603,#634),#13);
ENDSEC;
END-ISO-10303-21;
