DBRep_DrawableShape

CASCADE Topology V3, (c) Open Cascade
Locations 11
1
              1               0               0               0 
              0               1               0               0 
              0               0               1               0 
1
              0               0               1          32.875 
              1               0               0              64 
              0               1               0         173.875 
1
              1               0               0              33 
             -0               0               1              64 
              0              -1               0         173.875 
2  2 -1 0
1
              1               0               0               0 
              0               1               0               0 
              0               0               1            0.25 
2  5 -1 0
2  5 1 2 1 0
2  3 -1 0
1
              1               0               0               0 
              0               1               0               0 
              0               0               1           0.125 
2  9 1 3 1 0
2  9 -1 0
Curve2ds 16
7 0 0  5 6 2  1.5707963267948966 -0.125  1.2566370614359172 -0.13972621556370216  0.94247779607674964 -0.15446575996602707  0.62831853071805632 -0.16610795733832351  0.31415926535897931 -0.171875  0 -0.171875 
 1.5707963267948966 6 3.1415926535897931 6
7 0 0  5 6 2  4.7123889803846897 0  5.026548245743669 -0.014726215563702153  5.3407075111027051 -0.029465759966034677  5.6548667764615068 -0.041107957338325063  5.9690260418206069 -0.046875  6.2831853071795862 -0.046875 
 1.5707963267948966 6 3.1415926535897931 6
7 0 0  5 6 2  1.5707963267948966 -0.125  1.2566370614359172 -0.11027378443629784  0.94247779607674964 -0.095534240033973372  0.62831853071805632 -0.083892042661676713  0.31415926535897931 -0.078125  0 -0.078125 
 4.7123889803846897 6 6.2831853071795862 6
7 0 0  5 6 2  4.7123889803846897 0  4.3982297150257104 -0.014726215563702153  4.0840704496666831 -0.029465759966034677  3.7699111843078654 -0.041107957338325063  3.4557519189487724 -0.046874999999999993  3.1415926535897931 -0.046875 
 4.7123889803846897 6 6.2831853071795862 6
1 0 0 0 -1 
1 6.2831853071795862 0 0 -1 
1 0 0 1 0 
1 0 -0.25 1 0 
7 0 0  5 6 2  6.2831853071795862 -0.078125  5.9690260418206069 -0.078125  5.6548667764615335 -0.083892042661676713  5.340707511102833 -0.095534240033973372  5.026548245743669 -0.11027378443629784  4.7123889803846897 -0.125 
 0 6 1.5707963267948966 6
7 0 0  5 6 2  3.1415926535897931 -0.046875  2.8274333882308138 -0.046875  2.5132741228717208 -0.041107957338325118  2.1991148575129174 -0.029465759966034621  1.8849555921538759 -0.014726215563702153  1.5707963267948966 0 
 0 6 1.5707963267948966 6
7 0 0  5 6 2  6.2831853071795862 -0.171875  5.9690260418206069 -0.171875  5.6548667764615335 -0.16610795733832373  5.340707511102833 -0.15446575996602685  5.026548245743669 -0.13972621556370216  4.7123889803846897 -0.125 
 3.1415926535897931 6 4.7123889803846897 6
7 0 0  5 6 2  0 -0.046875  0.31415926535897931 -0.046875  0.62831853071807942 -0.041107957338325118  0.94247779607688109 -0.029465759966034621  1.2566370614359172 -0.014726215563702153  1.5707963267948966 0 
 3.1415926535897931 6 4.7123889803846897 6
1 0 0 0 -1 
1 6.2831853071795862 0 0 -1 
1 0 0 1 0 
1 0 -0.125 1 0 
Curves 8
3 33 64 173.875 -0.70710678118654757 0.70710678118654757 0 -0.70710678118654757 -0.70710678118654757 0 0 0 1 0.066291260736238825 0.046875
3 33 64 173.875 -0.70710678118654757 -0.70710678118654757 0 -0.70710678118654757 0.70710678118654757 0 -0 0 -1 0.066291260736238825 0.046875
1 0.046875 0 0 0 0 1 
2 0 0 0 0 0 1 1 0 -0 -0 1 0 0.046875
3 33 64 173.875 -0.70710678118654757 -0.70710678118654757 0 -0.70710678118654757 0.70710678118654757 0 -0 0 -1 0.066291260736238825 0.046875
3 33 64 173.875 -0.70710678118654757 0.70710678118654757 0 -0.70710678118654757 -0.70710678118654757 0 0 0 1 0.066291260736238825 0.046875
1 0.046875 0 0 0 0 1 
2 0 0 0 0 0 1 1 0 -0 -0 1 0 0.046875
Polygon3D 0
PolygonOnTriangulations 0
Surfaces 4
2 0 0 0 -0 -0 -1 1 0 -0 -0 1 -0 0.046875
2 0 0 0 -0 -0 -1 1 0 -0 -0 1 -0 0.046875
1 -3.5610420118214143e-18 -1.3298961775703233e-19 0 0 0 1 1 0 -0 -0 1 0 
1 -3.5610420118214143e-18 -1.3298961775703233e-19 0 0 0 1 1 0 -0 -0 1 0 
Triangulations 0

TShapes 27
Ve
2.000001e-06
33 64 173.921875
0 0

0101101
*
Ve
1.31262039152047e-06
33.046875 64.046875 173.875
0 0

0101101
*
Ed
 1.31261939152047e-06 1 1 0
1  1 0 1.5707963267949 3.14159265358979
2  1 1 2 1.5707963267949 3.14159265358979
2  2 2 3 1.5707963267949 3.14159265358979
0

0101000
+27 0 -26 0 *
Ve
2.000001e-06
32.953125 64.046875 173.875
0 0

0101101
*
Ed
 1.31261939152047e-06 1 1 0
1  2 0 4.71238898038469 6.28318530717959
2  3 1 2 4.71238898038469 6.28318530717959
2  4 2 3 4.71238898038469 6.28318530717959
0

0101000
+27 0 -24 0 *
Ve
1e-06
0.046875 0 0
0 0

0101101
*
Ed
 1e-06 1 1 0
1  3 0 0 0.078125
3  5 6CN 1 0 0 0.078125
0

0101000
+22 0 -24 4 *
Ed
 1e-06 1 1 0
1  4 0 0 6.28318530717959
2  7 1 0 0 6.28318530717959
2  8 1 6 0 6.28318530717959
0

0101000
+22 0 -22 0 *
Ve
2.000001e-06
33 64 173.828125
0 0

0101101
*
Ed
 1.31261939152047e-06 1 1 0
1  5 0 0 1.5707963267949
2  9 1 2 0 1.5707963267949
2  10 2 3 0 1.5707963267949
0

0101000
+24 0 -19 0 *
Ed
 1.31261939152047e-06 1 1 0
1  6 0 3.14159265358979 4.71238898038469
2  11 1 2 3.14159265358979 4.71238898038469
2  12 2 3 3.14159265358979 4.71238898038469
0

0101000
+26 0 -19 0 *
Ed
 1e-06 1 1 0
1  3 0 0.171875 0.25
3  5 6CN 1 0 0.171875 0.25
0

0101000
+26 4 -22 5 *
Wi

0101100
+25 0 -23 0 +21 2 -20 2 -21 2 -18 0 +17 0 -16 2 +20 7 +16 2 
*
Fa
0  1e-06 1 2

0101000
+15 0 *
Ve
1e-06
0.046875 0 0
0 0

0101101
*
Ed
 1e-06 1 1 0
1  7 0 0.046875 0.125
3  13 14CN 2 0 0.046875 0.125
0

0101000
+26 8 -13 9 *
Ed
 1e-06 1 1 0
1  8 0 0 6.28318530717959
2  15 2 0 0 6.28318530717959
2  16 2 11 0 6.28318530717959
0

0101000
+13 0 -13 0 *
Wi

0101100
-17 0 +18 0 +23 0 -25 0 -12 3 +11 10 +12 3 *
Fa
0  1e-06 2 3

0101000
+10 0 *
Wi

0101100
+20 0 *
Fa
0  1e-07 3 0

0111000
+8 0 *
Wi

0101100
+11 0 *
Fa
0  1e-07 4 0

0111000
+6 0 *
Sh

0101100
-14 0 -9 0 -7 2 +7 7 +5 10 *
So

0100000
+4 0 *
Co

0100000
+3 0 *
Co

1100000
+2 1 *

+1 0 