DBRep_DrawableShape

CASCADE Topology V3, (c) Open Cascade
Locations 11
1
              1               0               0               0 
              0               1               0               0 
              0               0               1               0 
1
              0               0               1          32.875 
              1               0               0              64 
              0               1               0         173.875 
1
              1               0               0              33 
             -0               0               1              64 
              0              -1               0         173.875 
2  2 -1 0
1
              1               0               0               0 
              0               1               0               0 
              0               0               1            0.25 
2  5 -1 0
2  5 1 2 1 0
2  3 -1 0
1
              1               0               0               0 
              0               1               0               0 
              0               0               1           0.125 
2  9 1 3 1 0
2  9 -1 0
Curve2ds 16
7 0 0  5 6 2  1.5707945032086037 -0.12500008548061459  1.2566356025669121 -0.13972628394816938  0.9424767019239777 -0.15446580063288073  0.62831780128416348 -0.16610797066653915  0.31415890064169155 -0.171875  0 -0.171875 
 1.5707981503813353 6 3.1415926535897931 6
7 0 0  5 6 2  4.7123908039711342 -8.548060748125863e-08  5.026549704612826 -0.014726283948162283  5.3407086052543384 -0.029465800632936412  5.6548675058962701 -0.041107970666503235  5.9690264065378944 -0.046875  6.2831853071795862 -0.046875 
 1.5707981503813353 6 3.1415926535897931 6
7 0 0  5 6 2  1.5707945032086037 -0.12499991451938541  1.2566356025669123 -0.11027371605183062  0.94247670192397592 -0.095534199367116712  0.62831780128416526 -0.083892029333470064  0.3141589006416915 -0.078125  0 -0.078125 
 4.7123908039711289 6 6.2831853071795862 6
7 0 0  5 6 2  4.7123871567982452 -8.548060748125863e-08  4.3982282561565533 -0.014726283948162281  4.0840693555150054 -0.029465800632936412  3.7699104548732194 -0.041107970666503235  3.4557515542314845 -0.046874999999999993  3.1415926535897931 -0.046875 
 4.7123908039711289 6 6.2831853071795862 6
1 0 0 0 -1 
1 6.2831853071795862 0 0 -1 
1 0 0 1 0 
1 0 -0.25 1 0 
7 0 0  5 6 2  6.2831853071795862 -0.078125  5.9690264065378944 -0.078125  5.654867505895421 -0.08389202933346096  5.3407086052556103 -0.09553419936711971  5.0265497046126733 -0.11027371605183062  4.7123908039709823 -0.12499991451938541 
 0 6 1.5707945032084578 6
7 0 0  5 6 2  3.1415926535897931 -0.046875  2.8274337529481017 -0.046875  2.5132748523064805 -0.041107970666503291  2.1991159516645489 -0.029465800632936356  1.8849570510230325 -0.014726283948162283  1.5707981503813411 -8.548060748125863e-08 
 0 6 1.5707945032084578 6
7 0 0  5 6 2  6.2831853071795862 -0.171875  5.9690264065378944 -0.171875  5.654867505895421 -0.16610797066653915  5.3407086052556103 -0.15446580063288073  5.0265497046126733 -0.13972628394816938  4.7123908039709823 -0.12500008548061459 
 3.1415926535897931 6 4.7123871567982505 6
7 0 0  5 6 2  0 -0.046875  0.3141589006416915 -0.046875  0.62831780128331438 -0.041107970666503291  0.94247670192524957 -0.029465800632936356  1.2566356025667607 -0.014726283948162281  1.570794503208452 -8.548060748125863e-08 
 3.1415926535897931 6 4.7123871567982505 6
1 0 0 0 -1 
1 6.2831853071795862 0 0 -1 
1 0 0 1 0 
1 0 -0.125 1 0 
Curves 8
3 33 64 173.875 -0.70710678118654757 0.70710678118654757 0 -0.70710678118654757 -0.70710678118654757 0 0 0 1 0.066291260736238825 0.046875
3 33 64 173.875 -0.70710678118654757 -0.70710678118654757 0 -0.70710678118654757 0.70710678118654757 0 -0 0 -1 0.066291260736238825 0.046875
1 0.046875 0 0 0 0 1 
2 0 0 0 0 0 1 1 0 -0 -0 1 0 0.046875
3 33 64 173.875 -0.70710678118654757 -0.70710678118654757 0 -0.70710678118654757 0.70710678118654757 0 -0 0 -1 0.066291260736238825 0.046875
3 33 64 173.875 -0.70710678118654757 0.70710678118654757 0 -0.70710678118654757 -0.70710678118654757 0 0 0 1 0.066291260736238825 0.046875
1 0.046875 0 0 0 0 1 
2 0 0 0 0 0 1 1 0 -0 -0 1 0 0.046875
Polygon3D 0
PolygonOnTriangulations 0
Surfaces 4
2 0 0 0 -0 -0 -1 1 0 -0 -0 1 -0 0.046875
2 0 0 0 -0 -0 -1 1 0 -0 -0 1 -0 0.046875
1 -3.5610420118214143e-18 -1.3298961775703233e-19 0 0 0 1 1 0 -0 -0 1 0 
1 -3.5610420118214143e-18 -1.3298961775703233e-19 0 0 0 1 1 0 -0 -0 1 0 
Triangulations 0

TShapes 27
Ve
1.01208878394442e-05
33 64 173.921875
0 0

0101101
*
Ve
1e-05
33.046875 64.046875 173.875
0 0

0101101
*
Ed
 1e-05 1 1 0
1  1 0 1.57079815038134 3.14159265358979
2  1 1 2 1.57079815038134 3.14159265358979
2  2 2 3 1.57079815038134 3.14159265358979
0

0101000
+27 0 -26 0 *
Ve
1e-05
32.953125 64.046875 173.875
0 0

0101101
*
Ed
 1e-05 1 1 0
1  2 0 4.71239080397113 6.28318530717959
2  3 1 2 4.71239080397113 6.28318530717959
2  4 2 3 4.71239080397113 6.28318530717959
0

0101000
+27 0 -24 0 *
Ve
1e-05
0.046875 0 0
0 0

0101101
*
Ed
 1e-05 1 1 0
1  3 0 0 0.078125
3  5 6CN 1 0 0 0.078125
0

0101000
+22 0 -24 4 *
Ed
 1e-05 1 1 0
1  4 0 0 6.28318530717959
2  7 1 0 0 6.28318530717959
2  8 1 6 0 6.28318530717959
0

0101000
+22 0 -22 0 *
Ve
1.01208878394442e-05
33 64 173.828125
0 0

0101101
*
Ed
 1e-05 1 1 0
1  5 0 0 1.57079450320846
2  9 1 2 0 1.57079450320846
2  10 2 3 0 1.57079450320846
0

0101000
+24 0 -19 0 *
Ed
 1e-05 1 1 0
1  6 0 3.14159265358979 4.71238715679825
2  11 1 2 3.14159265358979 4.71238715679825
2  12 2 3 3.14159265358979 4.71238715679825
0

0101000
+26 0 -19 0 *
Ed
 1e-05 1 1 0
1  3 0 0.171875 0.25
3  5 6CN 1 0 0.171875 0.25
0

0101000
+26 4 -22 5 *
Wi

0101100
+25 0 -23 0 +21 2 -20 2 -21 2 -18 0 +17 0 -16 2 +20 7 +16 2 
*
Fa
0  1e-05 1 2

0101000
+15 0 *
Ve
1e-05
0.046875 0 0
0 0

0101101
*
Ed
 1e-05 1 1 0
1  7 0 0.046875 0.125
3  13 14CN 2 0 0.046875 0.125
0

0101000
+26 8 -13 9 *
Ed
 1e-05 1 1 0
1  8 0 0 6.28318530717959
2  15 2 0 0 6.28318530717959
2  16 2 11 0 6.28318530717959
0

0101000
+13 0 -13 0 *
Wi

0101100
-17 0 +18 0 +23 0 -25 0 -12 3 +11 10 +12 3 *
Fa
0  1e-05 2 3

0101000
+10 0 *
Wi

0101100
+20 0 *
Fa
0  1e-07 3 0

0111000
+8 0 *
Wi

0101100
+11 0 *
Fa
0  1e-07 4 0

0111000
+6 0 *
Sh

0101100
-14 0 -9 0 -7 2 +7 7 +5 10 *
So

0100000
+4 0 *
Co

0100000
+3 0 *
Co

1100000
+2 1 *

+1 0 