DBRep_DrawableShape

CASCADE Topology V3, (c) Open Cascade
Locations 11
1
              1               0               0               0 
              0               1               0               0 
              0               0               1               0 
1
              0               0               1          32.875 
              1               0               0              64 
              0               1               0         173.875 
1
              1               0               0              33 
             -0               0               1              64 
              0              -1               0         173.875 
2  2 -1 0
1
              1               0               0               0 
              0               1               0               0 
              0               0               1            0.25 
2  5 -1 0
2  5 1 2 1 0
2  3 -1 0
1
              1               0               0               0 
              0               1               0               0 
              0               0               1           0.125 
2  9 1 3 1 0
2  9 -1 0
Curve2ds 16
7 0 0  5 6 2  1.5707964299462993 -0.124999995164778  1.2566371439570472 -0.13972621169552413  0.94247785796799732 -0.15446575766570336  0.62831857197833152 -0.16610795658441235  0.31415928598925225 -0.171875  0 -0.171875 
 1.5707962236435318 6 3.1415926535897931 6
7 0 0  5 6 2  4.7123888772332867 4.835222000565409e-09  5.0265481632225386 -0.014726211695524119  5.3407074492117452 -0.029465757665689485  5.6548667352011854 -0.041107956584423289  5.9690260211903343 -0.046875  6.2831853071795862 -0.046875 
 1.5707962236435318 6 3.1415926535897931 6
7 0 0  5 6 2  1.5707964299462993 -0.125000004835222  1.2566371439570472 -0.11027378830447589  0.94247785796799732 -0.095534242334296859  0.62831857197833152 -0.08389204341558798  0.31415928598925225 -0.078125  0 -0.078125 
 4.7123888772333249 6 6.2831853071795862 6
7 0 0  5 6 2  4.7123890835360918 4.835222000565409e-09  4.3982297975468398 -0.014726211695524119  4.0840705115576412 -0.029465757665689485  3.7699112255681939 -0.041107956584423289  3.4557519395790455 -0.046874999999999993  3.1415926535897931 -0.046875 
 4.7123888772333249 6 6.2831853071795862 6
1 0 0 0 -1 
1 6.2831853071795862 0 0 -1 
1 0 0 1 0 
1 0 -0.25 1 0 
7 0 0  5 6 2  6.2831853071795862 -0.078125  5.9690260211903343 -0.078125  5.6548667352012529 -0.083892043415588313  5.3407074492115942 -0.095534242334296526  5.0265481632225386 -0.11027378830447589  4.7123888772332867 -0.125000004835222 
 0 6 1.5707964299462613 6
7 0 0  5 6 2  3.1415926535897931 -0.046875  2.8274333676005408 -0.046875  2.5132740816113994 -0.041107956584423233  2.1991147956219557 -0.02946575766568954  1.8849555096327462 -0.014726211695524119  1.570796223643494 4.835222000565409e-09 
 0 6 1.5707964299462613 6
7 0 0  5 6 2  6.2831853071795862 -0.171875  5.9690260211903343 -0.171875  5.6548667352012529 -0.16610795658441191  5.3407074492115942 -0.15446575766570381  5.0265481632225386 -0.13972621169552413  4.7123888772332867 -0.124999995164778 
 3.1415926535897931 6 4.7123890835360545 6
7 0 0  5 6 2  0 -0.046875  0.31415928598925225 -0.046875  0.62831857197839902 -0.041107956584423233  0.94247785796784278 -0.02946575766568954  1.2566371439570472 -0.014726211695524119  1.5707964299462993 4.835222000565409e-09 
 3.1415926535897931 6 4.7123890835360545 6
1 0 0 0 -1 
1 6.2831853071795862 0 0 -1 
1 0 0 1 0 
1 0 -0.125 1 0 
Curves 8
3 32.999999999999993 64.000000000000014 173.875 -0.70710678118654757 0.70710678118654757 0 -0.70710678118654757 -0.70710678118654757 0 0 0 1 0.066291260736238825 0.046875
3 32.999999999999993 64.000000000000014 173.875 -0.70710678118654757 -0.70710678118654757 0 -0.70710678118654757 0.70710678118654757 0 -0 0 -1 0.066291260736238825 0.046875
1 0.046875 0 0 0 0 1 
2 0 0 0 0 0 1 1 0 -0 -0 1 0 0.046875
3 32.999999999999993 64.000000000000014 173.875 -0.70710678118654757 -0.70710678118654757 0 -0.70710678118654757 0.70710678118654757 0 -0 0 -1 0.066291260736238825 0.046875
3 32.999999999999993 64.000000000000014 173.875 -0.70710678118654757 0.70710678118654757 0 -0.70710678118654757 -0.70710678118654757 0 0 0 1 0.066291260736238825 0.046875
1 0.046875 0 0 0 0 1 
2 0 0 0 0 0 1 1 0 -0 -0 1 0 0.046875
Polygon3D 0
PolygonOnTriangulations 0
Surfaces 4
2 0 0 0 -0 -0 -1 1 0 -0 -0 1 -0 0.046875
2 0 0 0 -0 -0 -1 1 0 -0 -0 1 -0 0.046875
1 -3.5610420118214143e-18 -1.3298961775703233e-19 0 0 0 1 1 0 -0 -0 1 0 
1 -3.5610420118214143e-18 -1.3298961775703233e-19 0 0 0 1 1 0 -0 -0 1 0 
Triangulations 0

TShapes 27
Ve
1.00068380365303e-05
33 64 173.921875
0 0

0101101
*
Ve
1e-05
33.046875 64.046875 173.875
0 0

0101101
*
Ed
 1e-05 1 1 0
1  1 0 1.57079622364353 3.14159265358979
2  1 1 2 1.57079622364353 3.14159265358979
2  2 2 3 1.57079622364353 3.14159265358979
0

0101000
+27 0 -26 0 *
Ve
1e-05
32.953125 64.046875 173.875
0 0

0101101
*
Ed
 1e-05 1 1 0
1  2 0 4.71238887723332 6.28318530717959
2  3 1 2 4.71238887723332 6.28318530717959
2  4 2 3 4.71238887723332 6.28318530717959
0

0101000
+27 0 -24 0 *
Ve
1e-05
0.046875 0 0
0 0

0101101
*
Ed
 1e-05 1 1 0
1  3 0 0 0.078125
3  5 6CN 1 0 0 0.078125
0

0101000
+22 0 -24 4 *
Ed
 1e-05 1 1 0
1  4 0 0 6.28318530717959
2  7 1 0 0 6.28318530717959
2  8 1 6 0 6.28318530717959
0

0101000
+22 0 -22 0 *
Ve
1.00068380365303e-05
33 64 173.828125
0 0

0101101
*
Ed
 1e-05 1 1 0
1  5 0 0 1.57079642994626
2  9 1 2 0 1.57079642994626
2  10 2 3 0 1.57079642994626
0

0101000
+24 0 -19 0 *
Ed
 1e-05 1 1 0
1  6 0 3.14159265358979 4.71238908353605
2  11 1 2 3.14159265358979 4.71238908353605
2  12 2 3 3.14159265358979 4.71238908353605
0

0101000
+26 0 -19 0 *
Ed
 1e-05 1 1 0
1  3 0 0.171875 0.25
3  5 6CN 1 0 0.171875 0.25
0

0101000
+26 4 -22 5 *
Wi

0101100
+25 0 -23 0 +21 2 -20 2 -21 2 -18 0 +17 0 -16 2 +20 7 +16 2 
*
Fa
0  1e-05 1 2

0101000
+15 0 *
Ve
1e-05
0.046875 0 0
0 0

0101101
*
Ed
 1e-05 1 1 0
1  7 0 0.046875 0.125
3  13 14CN 2 0 0.046875 0.125
0

0101000
+26 8 -13 9 *
Ed
 1e-05 1 1 0
1  8 0 0 6.28318530717959
2  15 2 0 0 6.28318530717959
2  16 2 11 0 6.28318530717959
0

0101000
+13 0 -13 0 *
Wi

0101100
-17 0 +18 0 +23 0 -25 0 -12 3 +11 10 +12 3 *
Fa
0  1e-05 2 3

0101000
+10 0 *
Wi

0101100
+20 0 *
Fa
0  1e-07 3 0

0111000
+8 0 *
Wi

0101100
+11 0 *
Fa
0  1e-07 4 0

0111000
+6 0 *
Sh

0101100
-14 0 -9 0 -7 2 +7 7 +5 10 *
So

0100000
+4 0 *
Co

0100000
+3 0 *
Co

1100000
+2 1 *

+1 0 