ISO-10303-21;
HEADER;
FILE_DESCRIPTION(('ViewDefinition[DesignTransferView]'),'2;1');
FILE_NAME('/dev/null','2026-09-14T20:01:47-05:00',(''),(''),'IfcOpenShell 0.8.5','IfcOpenShell 0.8.5','Nobody');
FILE_SCHEMA(('IFC4'));
ENDSEC;
DATA;
#1=IFCPROJECT('13VRlDMW95sBHR2LuzhOcZ',$,'Frozen independent shared-tree catalogue source',$,$,$,$,(#11),#5);
#2=IFCSIUNIT(*,.LENGTHUNIT.,$,.METRE.);
#3=IFCSIUNIT(*,.AREAUNIT.,$,.SQUARE_METRE.);
#4=IFCSIUNIT(*,.VOLUMEUNIT.,$,.CUBIC_METRE.);
#5=IFCUNITASSIGNMENT((#2,#3,#4,#6));
#6=IFCSIUNIT(*,.PLANEANGLEUNIT.,$,.RADIAN.);
#7=IFCCARTESIANPOINT((0.,0.,0.));
#8=IFCDIRECTION((0.,0.,1.));
#9=IFCDIRECTION((1.,0.,0.));
#10=IFCAXIS2PLACEMENT3D(#7,#8,#9);
#11=IFCGEOMETRICREPRESENTATIONCONTEXT($,'Model',3,1.0000000000000001E-05,#10,$);
#12=IFCGEOMETRICREPRESENTATIONSUBCONTEXT('Body','Model',*,*,*,*,#11,$,.MODEL_VIEW.,$);
#13=IFCBUILDINGSTOREY('1QLAKvBsLCsAX4A5jBo92N',$,'Protected original storey',$,$,$,$,$,$,$);
#14=IFCRELAGGREGATES('3j8hVddcPEYxOXAnuzDjII',$,$,$,#1,(#13));
#15=IFCBUILDINGELEMENTPROXY('0seSo9zF1DLhw0A6RlcPLQ',$,'Protected obstacle 0',$,$,#37,#26,$,$);
#16=IFCCARTESIANPOINTLIST2D(((0.,0.),(0.,2.),(2.,2.),(2.,0.),(0.,0.)));
#17=IFCINDEXEDPOLYCURVE(#16,$,.F.);
#18=IFCDIRECTION((0.,0.,1.));
#19=IFCARBITRARYCLOSEDPROFILEDEF(.AREA.,$,#17);
#20=IFCCARTESIANPOINT((0.,0.,0.));
#21=IFCDIRECTION((0.,0.,1.));
#22=IFCDIRECTION((1.,0.,0.));
#23=IFCAXIS2PLACEMENT3D(#20,#21,#22);
#24=IFCEXTRUDEDAREASOLID(#19,#23,#18,2.);
#25=IFCSHAPEREPRESENTATION(#12,'Body','SweptSolid',(#24));
#26=IFCPRODUCTDEFINITIONSHAPE($,$,(#25));
#32=IFCRELCONTAINEDINSPATIALSTRUCTURE('3rxI1bXHz2ewBb1xgoMsKD',$,$,$,(#38,#15),#13);
#33=IFCCARTESIANPOINT((0.,0.,0.));
#34=IFCDIRECTION((0.,0.,1.));
#35=IFCDIRECTION((1.,0.,0.));
#36=IFCAXIS2PLACEMENT3D(#33,#34,#35);
#37=IFCLOCALPLACEMENT($,#36);
#38=IFCBUILDINGELEMENTPROXY('0ZBGpVX$L10BPdWihfJ67_',$,'Protected obstacle 1',$,$,#59,#49,$,$);
#39=IFCCARTESIANPOINTLIST2D(((0.,0.),(0.,0.25),(0.25,0.25),(0.25,0.),(0.,0.)));
#40=IFCINDEXEDPOLYCURVE(#39,$,.F.);
#41=IFCDIRECTION((0.,0.,1.));
#42=IFCARBITRARYCLOSEDPROFILEDEF(.AREA.,$,#40);
#43=IFCCARTESIANPOINT((0.,0.,0.));
#44=IFCDIRECTION((0.,0.,1.));
#45=IFCDIRECTION((1.,0.,0.));
#46=IFCAXIS2PLACEMENT3D(#43,#44,#45);
#47=IFCEXTRUDEDAREASOLID(#42,#46,#41,0.25);
#48=IFCSHAPEREPRESENTATION(#12,'Body','SweptSolid',(#47));
#49=IFCPRODUCTDEFINITIONSHAPE($,$,(#48));
#55=IFCCARTESIANPOINT((0.875,1.375,2.875));
#56=IFCDIRECTION((0.,0.,1.));
#57=IFCDIRECTION((1.,0.,0.));
#58=IFCAXIS2PLACEMENT3D(#55,#56,#57);
#59=IFCLOCALPLACEMENT($,#58);
#60=IFCSYSTEM('29mOxALC9NMeIyBnJeLk9X',$,'generated-c4f44025c450f9ba6cfaf47a',$,'PRESSURE_PIPE');
#61=IFCCARTESIANPOINT((0.,0.,0.));
#62=IFCDIRECTION((0.,0.,1.));
#63=IFCDIRECTION((1.,0.,0.));
#64=IFCAXIS2PLACEMENT3D(#61,#62,#63);
#65=IFCLOCALPLACEMENT($,#64);
#66=IFCPIPEFITTING('0eLXAzK9LVHuQECUuJH3Rd',$,'generated-c4f44025c450f9ba6cfaf47a/tee-0',$,'OMA_NETWORK_TEE',#65,#87,$,.JUNCTION.);
#67=IFCCARTESIANPOINT((0.,0.));
#68=IFCAXIS2PLACEMENT2D(#67,$);
#69=IFCCIRCLEPROFILEDEF(.AREA.,$,#68,0.0625);
#70=IFCCARTESIANPOINT((-0.25,0.,3.));
#71=IFCDIRECTION((1.,0.,0.));
#72=IFCDIRECTION((0.,1.,0.));
#73=IFCAXIS2PLACEMENT3D(#70,#71,#72);
#74=IFCDIRECTION((0.,0.,1.));
#75=IFCEXTRUDEDAREASOLID(#69,#73,#74,0.5);
#76=IFCCARTESIANPOINT((0.,0.));
#77=IFCAXIS2PLACEMENT2D(#76,$);
#78=IFCCIRCLEPROFILEDEF(.AREA.,$,#77,0.0625);
#79=IFCCARTESIANPOINT((0.,0.,3.));
#80=IFCDIRECTION((0.,1.,0.));
#81=IFCDIRECTION((1.,0.,0.));
#82=IFCAXIS2PLACEMENT3D(#79,#80,#81);
#83=IFCDIRECTION((0.,0.,1.));
#84=IFCEXTRUDEDAREASOLID(#78,#82,#83,0.25);
#85=IFCBOOLEANRESULT(.UNION.,#75,#84);
#86=IFCSHAPEREPRESENTATION(#12,'Body','CSG',(#85));
#87=IFCPRODUCTDEFINITIONSHAPE($,$,(#86));
#88=IFCCARTESIANPOINT((-0.25,0.,3.));
#89=IFCDIRECTION((1.,-0.,-0.));
#90=IFCDIRECTION((0.,1.,0.));
#91=IFCAXIS2PLACEMENT3D(#88,#89,#90);
#92=IFCLOCALPLACEMENT(#65,#91);
#93=IFCDISTRIBUTIONPORT('2w6LApvCrRuhXRS0tG$5Zv',$,'tee-0/a',$,$,#92,$,.SINK.,.PIPE.,$);
#94=IFCRELNESTS('2WRGzuG$vVfgUeGfTiAl2P',$,$,$,#66,(#93));
#95=IFCCARTESIANPOINT((0.25,0.,3.));
#96=IFCDIRECTION((1.,0.,0.));
#97=IFCDIRECTION((0.,1.,0.));
#98=IFCAXIS2PLACEMENT3D(#95,#96,#97);
#99=IFCLOCALPLACEMENT(#65,#98);
#100=IFCDISTRIBUTIONPORT('0cdybzBl5TMxqNQMRSpaQ7',$,'tee-0/b',$,$,#99,$,.SOURCE.,.PIPE.,$);
#101=IFCRELNESTS('3PNS2$iI9QevHEiNVWV1zL',$,$,$,#66,(#100));
#102=IFCCARTESIANPOINT((0.,0.25,3.));
#103=IFCDIRECTION((0.,1.,0.));
#104=IFCDIRECTION((1.,0.,0.));
#105=IFCAXIS2PLACEMENT3D(#102,#103,#104);
#106=IFCLOCALPLACEMENT(#65,#105);
#107=IFCDISTRIBUTIONPORT('3Uv280nnjLf8s$krMYnlyU',$,'tee-0/branch',$,$,#106,$,.SOURCE.,.PIPE.,$);
#108=IFCRELNESTS('29ZSBPIEHIuec6LIUbushE',$,$,$,#66,(#107));
#109=IFCCARTESIANPOINT((0.,0.,0.));
#110=IFCDIRECTION((0.,0.,1.));
#111=IFCDIRECTION((1.,0.,0.));
#112=IFCAXIS2PLACEMENT3D(#109,#110,#111);
#113=IFCLOCALPLACEMENT($,#112);
#114=IFCPIPEFITTING('1t9zboNbLOE91QcTLX9JL9',$,'generated-c4f44025c450f9ba6cfaf47a/tee-1',$,'OMA_NETWORK_TEE',#113,#135,$,.JUNCTION.);
#115=IFCCARTESIANPOINT((0.,0.));
#116=IFCAXIS2PLACEMENT2D(#115,$);
#117=IFCCIRCLEPROFILEDEF(.AREA.,$,#116,0.0625);
#118=IFCCARTESIANPOINT((1.75,0.,3.));
#119=IFCDIRECTION((1.,0.,0.));
#120=IFCDIRECTION((0.,1.,0.));
#121=IFCAXIS2PLACEMENT3D(#118,#119,#120);
#122=IFCDIRECTION((0.,0.,1.));
#123=IFCEXTRUDEDAREASOLID(#117,#121,#122,0.5);
#124=IFCCARTESIANPOINT((0.,0.));
#125=IFCAXIS2PLACEMENT2D(#124,$);
#126=IFCCIRCLEPROFILEDEF(.AREA.,$,#125,0.0625);
#127=IFCCARTESIANPOINT((2.,0.,3.));
#128=IFCDIRECTION((0.,1.,0.));
#129=IFCDIRECTION((1.,0.,0.));
#130=IFCAXIS2PLACEMENT3D(#127,#128,#129);
#131=IFCDIRECTION((0.,0.,1.));
#132=IFCEXTRUDEDAREASOLID(#126,#130,#131,0.25);
#133=IFCBOOLEANRESULT(.UNION.,#123,#132);
#134=IFCSHAPEREPRESENTATION(#12,'Body','CSG',(#133));
#135=IFCPRODUCTDEFINITIONSHAPE($,$,(#134));
#136=IFCCARTESIANPOINT((1.75,0.,3.));
#137=IFCDIRECTION((1.,-0.,-0.));
#138=IFCDIRECTION((0.,1.,0.));
#139=IFCAXIS2PLACEMENT3D(#136,#137,#138);
#140=IFCLOCALPLACEMENT(#113,#139);
#141=IFCDISTRIBUTIONPORT('1PF2MZMDjIuARzMYYeHapq',$,'tee-1/a',$,$,#140,$,.SINK.,.PIPE.,$);
#142=IFCRELNESTS('19o9lyNrbGKhS7dpMCOcNk',$,$,$,#114,(#141));
#143=IFCCARTESIANPOINT((2.25,0.,3.));
#144=IFCDIRECTION((1.,0.,0.));
#145=IFCDIRECTION((0.,1.,0.));
#146=IFCAXIS2PLACEMENT3D(#143,#144,#145);
#147=IFCLOCALPLACEMENT(#113,#146);
#148=IFCDISTRIBUTIONPORT('0qiOOmVZbS1AsAvlghMQ6s',$,'tee-1/b',$,$,#147,$,.SOURCE.,.PIPE.,$);
#149=IFCRELNESTS('0hj1LBb51I2Qy36S5HMBFb',$,$,$,#114,(#148));
#150=IFCCARTESIANPOINT((2.,0.25,3.));
#151=IFCDIRECTION((0.,1.,0.));
#152=IFCDIRECTION((1.,0.,0.));
#153=IFCAXIS2PLACEMENT3D(#150,#151,#152);
#154=IFCLOCALPLACEMENT(#113,#153);
#155=IFCDISTRIBUTIONPORT('3UPxM$2bbSQ9l7qdWwvxC9',$,'tee-1/branch',$,$,#154,$,.SOURCE.,.PIPE.,$);
#156=IFCRELNESTS('1QE1bTECvUBw6jh873ohqj',$,$,$,#114,(#155));
#157=IFCCARTESIANPOINT((0.,0.,0.));
#158=IFCDIRECTION((0.,0.,1.));
#159=IFCDIRECTION((1.,0.,0.));
#160=IFCAXIS2PLACEMENT3D(#157,#158,#159);
#161=IFCLOCALPLACEMENT($,#160);
#162=IFCPIPEFITTING('0PisWhIvTRwBYVLT6wZElm',$,'generated-c4f44025c450f9ba6cfaf47a/tee-2',$,'OMA_NETWORK_TEE',#161,#183,$,.JUNCTION.);
#163=IFCCARTESIANPOINT((0.,0.));
#164=IFCAXIS2PLACEMENT2D(#163,$);
#165=IFCCIRCLEPROFILEDEF(.AREA.,$,#164,0.0625);
#166=IFCCARTESIANPOINT((3.75,0.,3.));
#167=IFCDIRECTION((1.,0.,0.));
#168=IFCDIRECTION((0.,1.,0.));
#169=IFCAXIS2PLACEMENT3D(#166,#167,#168);
#170=IFCDIRECTION((0.,0.,1.));
#171=IFCEXTRUDEDAREASOLID(#165,#169,#170,0.5);
#172=IFCCARTESIANPOINT((0.,0.));
#173=IFCAXIS2PLACEMENT2D(#172,$);
#174=IFCCIRCLEPROFILEDEF(.AREA.,$,#173,0.0625);
#175=IFCCARTESIANPOINT((4.,0.,3.));
#176=IFCDIRECTION((0.,1.,0.));
#177=IFCDIRECTION((1.,0.,0.));
#178=IFCAXIS2PLACEMENT3D(#175,#176,#177);
#179=IFCDIRECTION((0.,0.,1.));
#180=IFCEXTRUDEDAREASOLID(#174,#178,#179,0.25);
#181=IFCBOOLEANRESULT(.UNION.,#171,#180);
#182=IFCSHAPEREPRESENTATION(#12,'Body','CSG',(#181));
#183=IFCPRODUCTDEFINITIONSHAPE($,$,(#182));
#184=IFCCARTESIANPOINT((3.75,0.,3.));
#185=IFCDIRECTION((1.,-0.,-0.));
#186=IFCDIRECTION((0.,1.,0.));
#187=IFCAXIS2PLACEMENT3D(#184,#185,#186);
#188=IFCLOCALPLACEMENT(#161,#187);
#189=IFCDISTRIBUTIONPORT('2QdiM3_YTJah49za2xELGj',$,'tee-2/a',$,$,#188,$,.SINK.,.PIPE.,$);
#190=IFCRELNESTS('29hyGTa5HGvf0FGfHeAeGJ',$,$,$,#162,(#189));
#191=IFCCARTESIANPOINT((4.25,0.,3.));
#192=IFCDIRECTION((1.,0.,0.));
#193=IFCDIRECTION((0.,1.,0.));
#194=IFCAXIS2PLACEMENT3D(#191,#192,#193);
#195=IFCLOCALPLACEMENT(#161,#194);
#196=IFCDISTRIBUTIONPORT('2spf0X8H9Mt9iBNkrFz7iC',$,'tee-2/b',$,$,#195,$,.SOURCE.,.PIPE.,$);
#197=IFCRELNESTS('05kvLH3PXHA8_oA$gCRJb0',$,$,$,#162,(#196));
#198=IFCCARTESIANPOINT((4.,0.25,3.));
#199=IFCDIRECTION((0.,1.,0.));
#200=IFCDIRECTION((1.,0.,0.));
#201=IFCAXIS2PLACEMENT3D(#198,#199,#200);
#202=IFCLOCALPLACEMENT(#161,#201);
#203=IFCDISTRIBUTIONPORT('3lraVuk9vSgRHzDYqqJNhV',$,'tee-2/branch',$,$,#202,$,.SOURCE.,.PIPE.,$);
#204=IFCRELNESTS('1GElOSYFHJsflfjEMRALtF',$,$,$,#162,(#203));
#205=IFCCARTESIANPOINT((0.,0.,0.));
#206=IFCDIRECTION((0.,0.,1.));
#207=IFCDIRECTION((1.,0.,0.));
#208=IFCAXIS2PLACEMENT3D(#205,#206,#207);
#209=IFCLOCALPLACEMENT($,#208);
#210=IFCPIPESEGMENT('14NJl4KvHM0RqrK0oBkgQZ',$,'generated-c4f44025c450f9ba6cfaf47a/connector-5f4d533bfcbd34340c589965-p0',$,'OMA_NETWORK_SEGMENT',#209,#221,$,.RIGIDSEGMENT.);
#211=IFCCARTESIANPOINT((0.,0.));
#212=IFCAXIS2PLACEMENT2D(#211,$);
#213=IFCCIRCLEPROFILEDEF(.AREA.,$,#212,0.0625);
#214=IFCCARTESIANPOINT((0.,0.25,3.));
#215=IFCDIRECTION((0.,1.,0.));
#216=IFCDIRECTION((1.,0.,0.));
#217=IFCAXIS2PLACEMENT3D(#214,#215,#216);
#218=IFCDIRECTION((0.,0.,1.));
#219=IFCEXTRUDEDAREASOLID(#213,#217,#218,1.75);
#220=IFCSHAPEREPRESENTATION(#12,'Body','SweptSolid',(#219));
#221=IFCPRODUCTDEFINITIONSHAPE($,$,(#220));
#222=IFCCARTESIANPOINT((0.,0.25,3.));
#223=IFCDIRECTION((-0.,1.,-0.));
#224=IFCDIRECTION((1.,0.,0.));
#225=IFCAXIS2PLACEMENT3D(#222,#223,#224);
#226=IFCLOCALPLACEMENT(#209,#225);
#227=IFCDISTRIBUTIONPORT('0ek_oVp1TJsgOgahUom9AS',$,'connector-5f4d533bfcbd34340c589965-p0/a',$,$,#226,$,.SINK.,.PIPE.,$);
#228=IFCRELNESTS('00wZ2VrSnIthSoD3XxRDxB',$,$,$,#210,(#227));
#229=IFCCARTESIANPOINT((0.,2.,3.));
#230=IFCDIRECTION((0.,1.,0.));
#231=IFCDIRECTION((1.,0.,0.));
#232=IFCAXIS2PLACEMENT3D(#229,#230,#231);
#233=IFCLOCALPLACEMENT(#209,#232);
#234=IFCDISTRIBUTIONPORT('2lhvQEt_1N4hQJe7kQsA7a',$,'connector-5f4d533bfcbd34340c589965-p0/b',$,$,#233,$,.SOURCE.,.PIPE.,$);
#235=IFCRELNESTS('1cPQFsEHvQ1hyDHKAPNXkh',$,$,$,#210,(#234));
#236=IFCCARTESIANPOINT((0.,0.,0.));
#237=IFCDIRECTION((0.,0.,1.));
#238=IFCDIRECTION((1.,0.,0.));
#239=IFCAXIS2PLACEMENT3D(#236,#237,#238);
#240=IFCLOCALPLACEMENT($,#239);
#241=IFCPIPEFITTING('3nacAwW6DKg8mJ7Q65lfEf',$,'generated-c4f44025c450f9ba6cfaf47a/connector-5f4d533bfcbd34340c589965-p1',$,'OMA_NETWORK_ELBOW',#240,#254,$,.BEND.);
#242=IFCCARTESIANPOINT((0.25,0.));
#243=IFCAXIS2PLACEMENT2D(#242,$);
#244=IFCCIRCLEPROFILEDEF(.AREA.,$,#243,0.0625);
#245=IFCCARTESIANPOINT((0.25,2.,3.));
#246=IFCDIRECTION((0.,1.,0.));
#247=IFCDIRECTION((-1.,0.,0.));
#248=IFCAXIS2PLACEMENT3D(#245,#246,#247);
#249=IFCCARTESIANPOINT((0.,0.,0.));
#250=IFCDIRECTION((0.,-1.,0.));
#251=IFCAXIS1PLACEMENT(#249,#250);
#252=IFCREVOLVEDAREASOLID(#244,#248,#251,1.5707963267948966);
#253=IFCSHAPEREPRESENTATION(#12,'Body','SweptSolid',(#252));
#254=IFCPRODUCTDEFINITIONSHAPE($,$,(#253));
#255=IFCCARTESIANPOINT((0.,2.,3.));
#256=IFCDIRECTION((-0.,1.,-0.));
#257=IFCDIRECTION((1.,0.,0.));
#258=IFCAXIS2PLACEMENT3D(#255,#256,#257);
#259=IFCLOCALPLACEMENT(#240,#258);
#260=IFCDISTRIBUTIONPORT('1SEmzeFOPNSATyQBN9_q7p',$,'connector-5f4d533bfcbd34340c589965-p1/a',$,$,#259,$,.SINK.,.PIPE.,$);
#261=IFCRELNESTS('1cuOS3dI1TwwE8ofXvl7ta',$,$,$,#241,(#260));
#262=IFCCARTESIANPOINT((0.25,2.25,3.));
#263=IFCDIRECTION((1.,0.,0.));
#264=IFCDIRECTION((0.,1.,0.));
#265=IFCAXIS2PLACEMENT3D(#262,#263,#264);
#266=IFCLOCALPLACEMENT(#240,#265);
#267=IFCDISTRIBUTIONPORT('1HoPISz2jP_9VWGCLN4ro$',$,'connector-5f4d533bfcbd34340c589965-p1/b',$,$,#266,$,.SOURCE.,.PIPE.,$);
#268=IFCRELNESTS('2agvdGg5jNkOY6ZPTvz6k4',$,$,$,#241,(#267));
#269=IFCCARTESIANPOINT((0.,0.,0.));
#270=IFCDIRECTION((0.,0.,1.));
#271=IFCDIRECTION((1.,0.,0.));
#272=IFCAXIS2PLACEMENT3D(#269,#270,#271);
#273=IFCLOCALPLACEMENT($,#272);
#274=IFCPIPESEGMENT('2q4k4tx_1OQu4qYl9$ZrGN',$,'generated-c4f44025c450f9ba6cfaf47a/connector-5f4d533bfcbd34340c589965-p2',$,'OMA_NETWORK_SEGMENT',#273,#285,$,.RIGIDSEGMENT.);
#275=IFCCARTESIANPOINT((0.,0.));
#276=IFCAXIS2PLACEMENT2D(#275,$);
#277=IFCCIRCLEPROFILEDEF(.AREA.,$,#276,0.0625);
#278=IFCCARTESIANPOINT((0.25,2.25,3.));
#279=IFCDIRECTION((1.,0.,0.));
#280=IFCDIRECTION((0.,1.,0.));
#281=IFCAXIS2PLACEMENT3D(#278,#279,#280);
#282=IFCDIRECTION((0.,0.,1.));
#283=IFCEXTRUDEDAREASOLID(#277,#281,#282,0.5);
#284=IFCSHAPEREPRESENTATION(#12,'Body','SweptSolid',(#283));
#285=IFCPRODUCTDEFINITIONSHAPE($,$,(#284));
#286=IFCCARTESIANPOINT((0.25,2.25,3.));
#287=IFCDIRECTION((1.,-0.,-0.));
#288=IFCDIRECTION((0.,1.,0.));
#289=IFCAXIS2PLACEMENT3D(#286,#287,#288);
#290=IFCLOCALPLACEMENT(#273,#289);
#291=IFCDISTRIBUTIONPORT('1eKDzZOaDPVeNdjSsD0Xx_',$,'connector-5f4d533bfcbd34340c589965-p2/a',$,$,#290,$,.SINK.,.PIPE.,$);
#292=IFCRELNESTS('2QvtpZI6jQBOEcYVPszW3w',$,$,$,#274,(#291));
#293=IFCCARTESIANPOINT((0.75,2.25,3.));
#294=IFCDIRECTION((1.,0.,0.));
#295=IFCDIRECTION((0.,1.,0.));
#296=IFCAXIS2PLACEMENT3D(#293,#294,#295);
#297=IFCLOCALPLACEMENT(#273,#296);
#298=IFCDISTRIBUTIONPORT('27iCRRr7PPlBubpcV7sxyP',$,'connector-5f4d533bfcbd34340c589965-p2/b',$,$,#297,$,.SOURCE.,.PIPE.,$);
#299=IFCRELNESTS('1sUT96gm1QnRhNMpJI3ENj',$,$,$,#274,(#298));
#300=IFCCARTESIANPOINT((0.,0.,0.));
#301=IFCDIRECTION((0.,0.,1.));
#302=IFCDIRECTION((1.,0.,0.));
#303=IFCAXIS2PLACEMENT3D(#300,#301,#302);
#304=IFCLOCALPLACEMENT($,#303);
#305=IFCPIPEFITTING('0lzXavJmzGeflwTeHXcOI$',$,'generated-c4f44025c450f9ba6cfaf47a/connector-5f4d533bfcbd34340c589965-p3',$,'OMA_NETWORK_ELBOW',#304,#318,$,.BEND.);
#306=IFCCARTESIANPOINT((0.25,0.));
#307=IFCAXIS2PLACEMENT2D(#306,$);
#308=IFCCIRCLEPROFILEDEF(.AREA.,$,#307,0.0625);
#309=IFCCARTESIANPOINT((0.75,2.5,3.));
#310=IFCDIRECTION((1.,0.,0.));
#311=IFCDIRECTION((0.,-1.,0.));
#312=IFCAXIS2PLACEMENT3D(#309,#310,#311);
#313=IFCCARTESIANPOINT((0.,0.,0.));
#314=IFCDIRECTION((0.,-1.,0.));
#315=IFCAXIS1PLACEMENT(#313,#314);
#316=IFCREVOLVEDAREASOLID(#308,#312,#315,1.5707963267948966);
#317=IFCSHAPEREPRESENTATION(#12,'Body','SweptSolid',(#316));
#318=IFCPRODUCTDEFINITIONSHAPE($,$,(#317));
#319=IFCCARTESIANPOINT((0.75,2.25,3.));
#320=IFCDIRECTION((1.,-0.,-0.));
#321=IFCDIRECTION((0.,1.,0.));
#322=IFCAXIS2PLACEMENT3D(#319,#320,#321);
#323=IFCLOCALPLACEMENT(#304,#322);
#324=IFCDISTRIBUTIONPORT('3vj$44CXrIrONZ$i8yvXRV',$,'connector-5f4d533bfcbd34340c589965-p3/a',$,$,#323,$,.SINK.,.PIPE.,$);
#325=IFCRELNESTS('0ZcNLxkKnUMh2MaWoQV$DA',$,$,$,#305,(#324));
#326=IFCCARTESIANPOINT((1.,2.5,3.));
#327=IFCDIRECTION((0.,1.,0.));
#328=IFCDIRECTION((1.,0.,0.));
#329=IFCAXIS2PLACEMENT3D(#326,#327,#328);
#330=IFCLOCALPLACEMENT(#304,#329);
#331=IFCDISTRIBUTIONPORT('0tundgUefM8gIlY9d8fTPA',$,'connector-5f4d533bfcbd34340c589965-p3/b',$,$,#330,$,.SOURCE.,.PIPE.,$);
#332=IFCRELNESTS('0$S_SJowLN2hibtrDDa3jv',$,$,$,#305,(#331));
#333=IFCCARTESIANPOINT((0.,0.,0.));
#334=IFCDIRECTION((0.,0.,1.));
#335=IFCDIRECTION((1.,0.,0.));
#336=IFCAXIS2PLACEMENT3D(#333,#334,#335);
#337=IFCLOCALPLACEMENT($,#336);
#338=IFCPIPESEGMENT('1c9UA_$ZrGD8WpMFGRq5CO',$,'generated-c4f44025c450f9ba6cfaf47a/connector-5f4d533bfcbd34340c589965-p4',$,'OMA_NETWORK_SEGMENT',#337,#349,$,.RIGIDSEGMENT.);
#339=IFCCARTESIANPOINT((0.,0.));
#340=IFCAXIS2PLACEMENT2D(#339,$);
#341=IFCCIRCLEPROFILEDEF(.AREA.,$,#340,0.0625);
#342=IFCCARTESIANPOINT((1.,2.5,3.));
#343=IFCDIRECTION((0.,1.,0.));
#344=IFCDIRECTION((1.,0.,0.));
#345=IFCAXIS2PLACEMENT3D(#342,#343,#344);
#346=IFCDIRECTION((0.,0.,1.));
#347=IFCEXTRUDEDAREASOLID(#341,#345,#346,0.5);
#348=IFCSHAPEREPRESENTATION(#12,'Body','SweptSolid',(#347));
#349=IFCPRODUCTDEFINITIONSHAPE($,$,(#348));
#350=IFCCARTESIANPOINT((1.,2.5,3.));
#351=IFCDIRECTION((-0.,1.,-0.));
#352=IFCDIRECTION((1.,0.,0.));
#353=IFCAXIS2PLACEMENT3D(#350,#351,#352);
#354=IFCLOCALPLACEMENT(#337,#353);
#355=IFCDISTRIBUTIONPORT('0xBhIyNB5OQhwjlwICJBi2',$,'connector-5f4d533bfcbd34340c589965-p4/a',$,$,#354,$,.SINK.,.PIPE.,$);
#356=IFCRELNESTS('3kw29N_ozMagwLykoK_G6B',$,$,$,#338,(#355));
#357=IFCCARTESIANPOINT((1.,3.,3.));
#358=IFCDIRECTION((0.,1.,0.));
#359=IFCDIRECTION((1.,0.,0.));
#360=IFCAXIS2PLACEMENT3D(#357,#358,#359);
#361=IFCLOCALPLACEMENT(#337,#360);
#362=IFCDISTRIBUTIONPORT('21ieFNebfQ8wPn7X9ph26B',$,'connector-5f4d533bfcbd34340c589965-p4/b',$,$,#361,$,.SOURCE.,.PIPE.,$);
#363=IFCRELNESTS('14SzJATj1S0fH3nw$ynfZi',$,$,$,#338,(#362));
#364=IFCCARTESIANPOINT((0.,0.,0.));
#365=IFCDIRECTION((0.,0.,1.));
#366=IFCDIRECTION((1.,0.,0.));
#367=IFCAXIS2PLACEMENT3D(#364,#365,#366);
#368=IFCLOCALPLACEMENT($,#367);
#369=IFCPIPESEGMENT('3tFzGtpD9HdRsYti221vy$',$,'generated-c4f44025c450f9ba6cfaf47a/connector-7d11bed117588215abe8f19d-p0',$,'OMA_NETWORK_SEGMENT',#368,#380,$,.RIGIDSEGMENT.);
#370=IFCCARTESIANPOINT((0.,0.));
#371=IFCAXIS2PLACEMENT2D(#370,$);
#372=IFCCIRCLEPROFILEDEF(.AREA.,$,#371,0.0625);
#373=IFCCARTESIANPOINT((0.25,0.,3.));
#374=IFCDIRECTION((1.,0.,0.));
#375=IFCDIRECTION((0.,1.,0.));
#376=IFCAXIS2PLACEMENT3D(#373,#374,#375);
#377=IFCDIRECTION((0.,0.,1.));
#378=IFCEXTRUDEDAREASOLID(#372,#376,#377,1.5);
#379=IFCSHAPEREPRESENTATION(#12,'Body','SweptSolid',(#378));
#380=IFCPRODUCTDEFINITIONSHAPE($,$,(#379));
#381=IFCCARTESIANPOINT((0.25,0.,3.));
#382=IFCDIRECTION((1.,-0.,-0.));
#383=IFCDIRECTION((0.,1.,0.));
#384=IFCAXIS2PLACEMENT3D(#381,#382,#383);
#385=IFCLOCALPLACEMENT(#368,#384);
#386=IFCDISTRIBUTIONPORT('1znBuwJLfVTuus$VL2POyy',$,'connector-7d11bed117588215abe8f19d-p0/a',$,$,#385,$,.SINK.,.PIPE.,$);
#387=IFCRELNESTS('1KacbyKPzHCOGgONwy7v5X',$,$,$,#369,(#386));
#388=IFCCARTESIANPOINT((1.75,0.,3.));
#389=IFCDIRECTION((1.,0.,0.));
#390=IFCDIRECTION((0.,1.,0.));
#391=IFCAXIS2PLACEMENT3D(#388,#389,#390);
#392=IFCLOCALPLACEMENT(#368,#391);
#393=IFCDISTRIBUTIONPORT('3GxEwvM1HUJ9J1y_eeX7A8',$,'connector-7d11bed117588215abe8f19d-p0/b',$,$,#392,$,.SOURCE.,.PIPE.,$);
#394=IFCRELNESTS('1WefHjyNPSQOmU8UXf7BxE',$,$,$,#369,(#393));
#395=IFCCARTESIANPOINT((0.,0.,0.));
#396=IFCDIRECTION((0.,0.,1.));
#397=IFCDIRECTION((1.,0.,0.));
#398=IFCAXIS2PLACEMENT3D(#395,#396,#397);
#399=IFCLOCALPLACEMENT($,#398);
#400=IFCPIPESEGMENT('2d2Ca79rnVzQHT$8dztCoR',$,'generated-c4f44025c450f9ba6cfaf47a/connector-85edc313e625ec7a9c38e5e9-p0',$,'OMA_NETWORK_SEGMENT',#399,#411,$,.RIGIDSEGMENT.);
#401=IFCCARTESIANPOINT((0.,0.));
#402=IFCAXIS2PLACEMENT2D(#401,$);
#403=IFCCIRCLEPROFILEDEF(.AREA.,$,#402,0.0625);
#404=IFCCARTESIANPOINT((-2.,0.,3.));
#405=IFCDIRECTION((1.,0.,0.));
#406=IFCDIRECTION((0.,1.,0.));
#407=IFCAXIS2PLACEMENT3D(#404,#405,#406);
#408=IFCDIRECTION((0.,0.,1.));
#409=IFCEXTRUDEDAREASOLID(#403,#407,#408,1.75);
#410=IFCSHAPEREPRESENTATION(#12,'Body','SweptSolid',(#409));
#411=IFCPRODUCTDEFINITIONSHAPE($,$,(#410));
#412=IFCCARTESIANPOINT((-2.,0.,3.));
#413=IFCDIRECTION((1.,-0.,-0.));
#414=IFCDIRECTION((0.,1.,0.));
#415=IFCAXIS2PLACEMENT3D(#412,#413,#414);
#416=IFCLOCALPLACEMENT(#399,#415);
#417=IFCDISTRIBUTIONPORT('0ZeoAiImTKA9EaNSeVQF22',$,'connector-85edc313e625ec7a9c38e5e9-p0/a',$,$,#416,$,.SINK.,.PIPE.,$);
#418=IFCRELNESTS('1TJwCeJ2fJYBwPuKmVnGSu',$,$,$,#400,(#417));
#419=IFCCARTESIANPOINT((-0.25,0.,3.));
#420=IFCDIRECTION((1.,0.,0.));
#421=IFCDIRECTION((0.,1.,0.));
#422=IFCAXIS2PLACEMENT3D(#419,#420,#421);
#423=IFCLOCALPLACEMENT(#399,#422);
#424=IFCDISTRIBUTIONPORT('1lklo66fjKmPhzSbc5lBb9',$,'connector-85edc313e625ec7a9c38e5e9-p0/b',$,$,#423,$,.SOURCE.,.PIPE.,$);
#425=IFCRELNESTS('0S0xMDjE9KsO5hARS8s2_p',$,$,$,#400,(#424));
#426=IFCCARTESIANPOINT((0.,0.,0.));
#427=IFCDIRECTION((0.,0.,1.));
#428=IFCDIRECTION((1.,0.,0.));
#429=IFCAXIS2PLACEMENT3D(#426,#427,#428);
#430=IFCLOCALPLACEMENT($,#429);
#431=IFCPIPESEGMENT('0fMo5WDEvGaATyfvwTAjr1',$,'generated-c4f44025c450f9ba6cfaf47a/connector-8bfebaf0aecd99f6f995999c-p0',$,'OMA_NETWORK_SEGMENT',#430,#442,$,.RIGIDSEGMENT.);
#432=IFCCARTESIANPOINT((0.,0.));
#433=IFCAXIS2PLACEMENT2D(#432,$);
#434=IFCCIRCLEPROFILEDEF(.AREA.,$,#433,0.0625);
#435=IFCCARTESIANPOINT((4.25,0.,3.));
#436=IFCDIRECTION((1.,0.,0.));
#437=IFCDIRECTION((0.,1.,0.));
#438=IFCAXIS2PLACEMENT3D(#435,#436,#437);
#439=IFCDIRECTION((0.,0.,1.));
#440=IFCEXTRUDEDAREASOLID(#434,#438,#439,1.75);
#441=IFCSHAPEREPRESENTATION(#12,'Body','SweptSolid',(#440));
#442=IFCPRODUCTDEFINITIONSHAPE($,$,(#441));
#443=IFCCARTESIANPOINT((4.25,0.,3.));
#444=IFCDIRECTION((1.,-0.,-0.));
#445=IFCDIRECTION((0.,1.,0.));
#446=IFCAXIS2PLACEMENT3D(#443,#444,#445);
#447=IFCLOCALPLACEMENT(#430,#446);
#448=IFCDISTRIBUTIONPORT('0Eb96pqRfMrxGr70clHh3s',$,'connector-8bfebaf0aecd99f6f995999c-p0/a',$,$,#447,$,.SINK.,.PIPE.,$);
#449=IFCRELNESTS('3CfXZI901Hh8GIz19N4_Qv',$,$,$,#431,(#448));
#450=IFCCARTESIANPOINT((6.,0.,3.));
#451=IFCDIRECTION((1.,0.,0.));
#452=IFCDIRECTION((0.,1.,0.));
#453=IFCAXIS2PLACEMENT3D(#450,#451,#452);
#454=IFCLOCALPLACEMENT(#430,#453);
#455=IFCDISTRIBUTIONPORT('3SBoQ97crSnOUJfq6o1nGb',$,'connector-8bfebaf0aecd99f6f995999c-p0/b',$,$,#454,$,.SOURCE.,.PIPE.,$);
#456=IFCRELNESTS('39VobhgITIsQg1MHSzBPn0',$,$,$,#431,(#455));
#457=IFCCARTESIANPOINT((0.,0.,0.));
#458=IFCDIRECTION((0.,0.,1.));
#459=IFCDIRECTION((1.,0.,0.));
#460=IFCAXIS2PLACEMENT3D(#457,#458,#459);
#461=IFCLOCALPLACEMENT($,#460);
#462=IFCPIPESEGMENT('1sk1zE$O9Mk8ZKM7D3I5bG',$,'generated-c4f44025c450f9ba6cfaf47a/connector-91dd85b1e98941d48fcb1f31-p0',$,'OMA_NETWORK_SEGMENT',#461,#473,$,.RIGIDSEGMENT.);
#463=IFCCARTESIANPOINT((0.,0.));
#464=IFCAXIS2PLACEMENT2D(#463,$);
#465=IFCCIRCLEPROFILEDEF(.AREA.,$,#464,0.0625);
#466=IFCCARTESIANPOINT((2.25,0.,3.));
#467=IFCDIRECTION((1.,0.,0.));
#468=IFCDIRECTION((0.,1.,0.));
#469=IFCAXIS2PLACEMENT3D(#466,#467,#468);
#470=IFCDIRECTION((0.,0.,1.));
#471=IFCEXTRUDEDAREASOLID(#465,#469,#470,1.5);
#472=IFCSHAPEREPRESENTATION(#12,'Body','SweptSolid',(#471));
#473=IFCPRODUCTDEFINITIONSHAPE($,$,(#472));
#474=IFCCARTESIANPOINT((2.25,0.,3.));
#475=IFCDIRECTION((1.,-0.,-0.));
#476=IFCDIRECTION((0.,1.,0.));
#477=IFCAXIS2PLACEMENT3D(#474,#475,#476);
#478=IFCLOCALPLACEMENT(#461,#477);
#479=IFCDISTRIBUTIONPORT('2VZdxIe0zG4gC6XuojPocL',$,'connector-91dd85b1e98941d48fcb1f31-p0/a',$,$,#478,$,.SINK.,.PIPE.,$);
#480=IFCRELNESTS('2DZ5dPLCXVnQNEO57iSRQf',$,$,$,#462,(#479));
#481=IFCCARTESIANPOINT((3.75,0.,3.));
#482=IFCDIRECTION((1.,0.,0.));
#483=IFCDIRECTION((0.,1.,0.));
#484=IFCAXIS2PLACEMENT3D(#481,#482,#483);
#485=IFCLOCALPLACEMENT(#461,#484);
#486=IFCDISTRIBUTIONPORT('3eYWivFsTH79NHvaRLkPBu',$,'connector-91dd85b1e98941d48fcb1f31-p0/b',$,$,#485,$,.SOURCE.,.PIPE.,$);
#487=IFCRELNESTS('09JeRa$LLJaP98U2_e7Pbe',$,$,$,#462,(#486));
#488=IFCCARTESIANPOINT((0.,0.,0.));
#489=IFCDIRECTION((0.,0.,1.));
#490=IFCDIRECTION((1.,0.,0.));
#491=IFCAXIS2PLACEMENT3D(#488,#489,#490);
#492=IFCLOCALPLACEMENT($,#491);
#493=IFCPIPESEGMENT('2yPYkch65KwOVt_KcI5aKp',$,'generated-c4f44025c450f9ba6cfaf47a/connector-ab082257969acef2995cd924-p0',$,'OMA_NETWORK_SEGMENT',#492,#504,$,.RIGIDSEGMENT.);
#494=IFCCARTESIANPOINT((0.,0.));
#495=IFCAXIS2PLACEMENT2D(#494,$);
#496=IFCCIRCLEPROFILEDEF(.AREA.,$,#495,0.0625);
#497=IFCCARTESIANPOINT((2.,0.25,3.));
#498=IFCDIRECTION((0.,1.,0.));
#499=IFCDIRECTION((1.,0.,0.));
#500=IFCAXIS2PLACEMENT3D(#497,#498,#499);
#501=IFCDIRECTION((0.,0.,1.));
#502=IFCEXTRUDEDAREASOLID(#496,#500,#501,2.75);
#503=IFCSHAPEREPRESENTATION(#12,'Body','SweptSolid',(#502));
#504=IFCPRODUCTDEFINITIONSHAPE($,$,(#503));
#505=IFCCARTESIANPOINT((2.,0.25,3.));
#506=IFCDIRECTION((-0.,1.,-0.));
#507=IFCDIRECTION((1.,0.,0.));
#508=IFCAXIS2PLACEMENT3D(#505,#506,#507);
#509=IFCLOCALPLACEMENT(#492,#508);
#510=IFCDISTRIBUTIONPORT('0x5IvdJELS0fD7IDt6LQCI',$,'connector-ab082257969acef2995cd924-p0/a',$,$,#509,$,.SINK.,.PIPE.,$);
#511=IFCRELNESTS('3SHDn0CEjIhBnU$aWcyZ16',$,$,$,#493,(#510));
#512=IFCCARTESIANPOINT((2.,3.,3.));
#513=IFCDIRECTION((0.,1.,0.));
#514=IFCDIRECTION((1.,0.,0.));
#515=IFCAXIS2PLACEMENT3D(#512,#513,#514);
#516=IFCLOCALPLACEMENT(#492,#515);
#517=IFCDISTRIBUTIONPORT('26QgIMIMPHGA3q5qUe9XVL',$,'connector-ab082257969acef2995cd924-p0/b',$,$,#516,$,.SOURCE.,.PIPE.,$);
#518=IFCRELNESTS('3IqcIJoJ9KzO4J_t2O_1Wr',$,$,$,#493,(#517));
#519=IFCCARTESIANPOINT((0.,0.,0.));
#520=IFCDIRECTION((0.,0.,1.));
#521=IFCDIRECTION((1.,0.,0.));
#522=IFCAXIS2PLACEMENT3D(#519,#520,#521);
#523=IFCLOCALPLACEMENT($,#522);
#524=IFCPIPESEGMENT('3zlVOPoF9GLR2Cc$csTyiL',$,'generated-c4f44025c450f9ba6cfaf47a/connector-da739e797b947d00fa67ccaf-p0',$,'OMA_NETWORK_SEGMENT',#523,#535,$,.RIGIDSEGMENT.);
#525=IFCCARTESIANPOINT((0.,0.));
#526=IFCAXIS2PLACEMENT2D(#525,$);
#527=IFCCIRCLEPROFILEDEF(.AREA.,$,#526,0.0625);
#528=IFCCARTESIANPOINT((4.,0.25,3.));
#529=IFCDIRECTION((0.,1.,0.));
#530=IFCDIRECTION((1.,0.,0.));
#531=IFCAXIS2PLACEMENT3D(#528,#529,#530);
#532=IFCDIRECTION((0.,0.,1.));
#533=IFCEXTRUDEDAREASOLID(#527,#531,#532,2.75);
#534=IFCSHAPEREPRESENTATION(#12,'Body','SweptSolid',(#533));
#535=IFCPRODUCTDEFINITIONSHAPE($,$,(#534));
#536=IFCCARTESIANPOINT((4.,0.25,3.));
#537=IFCDIRECTION((-0.,1.,-0.));
#538=IFCDIRECTION((1.,0.,0.));
#539=IFCAXIS2PLACEMENT3D(#536,#537,#538);
#540=IFCLOCALPLACEMENT(#523,#539);
#541=IFCDISTRIBUTIONPORT('1E5UABZNrVzQBsT8U1J88n',$,'connector-da739e797b947d00fa67ccaf-p0/a',$,$,#540,$,.SINK.,.PIPE.,$);
#542=IFCRELNESTS('3sEf0tjMPTpRvQn2cmWXAl',$,$,$,#524,(#541));
#543=IFCCARTESIANPOINT((4.,3.,3.));
#544=IFCDIRECTION((0.,1.,0.));
#545=IFCDIRECTION((1.,0.,0.));
#546=IFCAXIS2PLACEMENT3D(#543,#544,#545);
#547=IFCLOCALPLACEMENT(#523,#546);
#548=IFCDISTRIBUTIONPORT('3LLYJDqjDJGekEHDYrc9qM',$,'connector-da739e797b947d00fa67ccaf-p0/b',$,$,#547,$,.SOURCE.,.PIPE.,$);
#549=IFCRELNESTS('1BqUJqhBDU7Bf5$4idxKGF',$,$,$,#524,(#548));
#550=IFCRELCONNECTSPORTS('026T4Iv29Q$v4JkfzLUvFM',$,$,$,#234,#260,$);
#551=IFCRELCONNECTSPORTS('3Wc8$H87zRqfJt0AV8uapz',$,$,$,#267,#291,$);
#552=IFCRELCONNECTSPORTS('0eL7yGzyzKRhcTdaadkUVQ',$,$,$,#298,#324,$);
#553=IFCRELCONNECTSPORTS('1RItjP0UnO7RlS6EOKKK0q',$,$,$,#331,#355,$);
#554=IFCRELCONNECTSPORTS('2UyzigqU9UtuYDnyPGydkI',$,$,$,#107,#227,$);
#555=IFCRELCONNECTSPORTS('209_Q0bXbNsOGb$UTyzmhu',$,$,$,#100,#386,$);
#556=IFCRELCONNECTSPORTS('2Qi1edpvXMxusHbLJZXXxx',$,$,$,#393,#141,$);
#557=IFCRELCONNECTSPORTS('35WI2uuvbI0RN0LjH6ZSCX',$,$,$,#424,#93,$);
#558=IFCRELCONNECTSPORTS('0LlECzJprGUuthHo9QGT_2',$,$,$,#196,#448,$);
#559=IFCRELCONNECTSPORTS('03vXRfC$nGg8YE4qIrOSh4',$,$,$,#148,#479,$);
#560=IFCRELCONNECTSPORTS('24Hma51cvI$9e_PH_0hcnn',$,$,$,#486,#189,$);
#561=IFCRELCONNECTSPORTS('2p7n0ILFbJDeHux3Dw6iQI',$,$,$,#155,#510,$);
#562=IFCRELCONNECTSPORTS('0m_bu$a89PB9sTqeeI6YUL',$,$,$,#203,#541,$);
#563=IFCRELASSIGNSTOGROUP('1zpZBRDVfM1B7fh3qc$AZd',$,$,$,(#66,#114,#162,#210,#241,#274,#305,#338,#369,#400,#431,#462,#493,#524),$,#60);
#564=IFCRELCONTAINEDINSPATIALSTRUCTURE('2waJwVMtjG7OqgxBs4_rMz',$,$,$,(#66,#114,#162,#210,#241,#274,#305,#338,#369,#400,#431,#462,#493,#524),#13);
ENDSEC;
END-ISO-10303-21;
