DBRep_DrawableShape

CASCADE Topology V3, (c) Open Cascade
Locations 11
1
              1               0               0              33 
              0               1               0              64 
              0               0               1         173.875 
1
              0               0               1          -0.125 
              1               0               0               0 
              0               1               0               0 
1
              1               0               0               0 
             -0               0               1               0 
              0              -1               0               0 
2  2 -1 0
1
              1               0               0               0 
              0               1               0               0 
              0               0               1            0.25 
2  5 -1 0
2  5 1 2 1 0
2  3 -1 0
1
              1               0               0               0 
              0               1               0               0 
              0               0               1           0.125 
2  9 1 3 1 0
2  9 -1 0
Curve2ds 16
7 0 0  5 6 2  1.5707963267948746 -0.12500000000000103  1.2566370614358997 -0.13972621556370296  0.94247779607692372 -0.15446575996601553  0.62831853071795152 -0.16610795733833994  0.31415926535897498 -0.171875  1.2246467991473532e-16 -0.171875 
 1.5707963267949188 6 3.1415926535897931 6
7 0 0  5 6 2  4.7123889803847119 -1.0379638196505825e-15  5.0265482457436867 -0.014726215563702983  5.3407075111026643 -0.029465759966015637  5.6548667764616454 -0.041107957338339496  5.9690260418206114 -0.046874999999999993  6.2831853071795862 -0.046874999999999993 
 1.5707963267949188 6 3.1415926535897931 6
7 0 0  5 6 2  1.5707963267948746 -0.12499999999999897  1.2566370614358997 -0.11027378443629703  0.94247779607692195 -0.095534240033984141  0.62831853071795152 -0.083892042661660948  0.31415926535897509 -0.078125  2.4492935982947064e-16 -0.078125 
 4.7123889803847119 6 6.2831853071795862 6
7 0 0  5 6 2  4.7123889803846675 -1.0322232877795792e-15  4.3982297150256926 -0.014726215563702977  4.0840704496667186 -0.029465759966015748  3.7699111843077517 -0.041107957338339551  3.455751918948768 -0.046874999999999986  3.1415926535897931 -0.046874999999999993 
 4.7123889803847119 6 6.2831853071795862 6
1 0 0 0 -1 
1 6.2831853071795862 0 0 -1 
1 0 0 1 0 
1 0 -0.25 1 0 
7 0 0  5 6 2  6.2831853071795862 -0.078125  5.9690260418206114 -0.078125  5.6548667764616347 -0.083892042661660615  5.3407075111026607 -0.095534240033984474  5.0265482457436867 -0.11027378443629701  4.7123889803847119 -0.12499999999999896 
 0 6 1.5707963267948744 6
7 0 0  5 6 2  3.1415926535897931 -0.046874999999999993  2.8274333882308182 -0.046874999999999993  2.5132741228718452 -0.041107957338339496  2.1991148575128783 -0.029465759966015637  1.8849555921538939 -0.01472621556370299  1.570796326794919 -1.0437043515215857e-15 
 0 6 1.5707963267948744 6
7 0 0  5 6 2  6.2831853071795862 -0.171875  5.9690260418206114 -0.171875  5.6548667764616365 -0.16610795733833994  5.340707511102659 -0.15446575996601553  5.0265482457436867 -0.13972621556370299  4.7123889803847119 -0.12500000000000105 
 3.1415926535897931 6 4.7123889803846675 6
7 0 0  5 6 2  0 -0.046874999999999993  0.31415926535897487 -0.046874999999999993  0.62831853071794974 -0.041107957338339607  0.94247779607692728 -0.029465759966015526  1.2566370614358993 -0.014726215563702995  1.5707963267948741 -1.0494448833925889e-15 
 3.1415926535897931 6 4.7123889803846675 6
1 0 0 0 -1 
1 6.2831853071795862 0 0 -1 
1 0 0 1 0 
1 0 -0.125 1 0 
Curves 8
3 0 0 0 -0.70710678118654757 0.70710678118654757 0 -0.70710678118654757 -0.70710678118654757 0 0 0 1 0.066291260736238825 0.046875
3 0 0 0 -0.70710678118654757 -0.70710678118654757 0 -0.70710678118654757 0.70710678118654757 0 -0 0 -1 0.066291260736238825 0.046875
1 0.046875 0 0 0 0 1 
2 0 0 0 0 0 1 1 0 -0 -0 1 0 0.046875
3 0 0 0 -0.70710678118654757 -0.70710678118654757 0 -0.70710678118654757 0.70710678118654757 0 -0 0 -1 0.066291260736238825 0.046875
3 0 0 0 -0.70710678118654757 0.70710678118654757 0 -0.70710678118654757 -0.70710678118654757 0 0 0 1 0.066291260736238825 0.046875
1 0.046875 0 0 0 0 1 
2 0 0 0 0 0 1 1 0 -0 -0 1 0 0.046875
Polygon3D 0
PolygonOnTriangulations 0
Surfaces 4
2 0 0 0 -0 -0 -1 1 0 -0 -0 1 -0 0.046875
2 0 0 0 -0 -0 -1 1 0 -0 -0 1 -0 0.046875
1 -3.5610420118214143e-18 -1.3298961775703233e-19 0 0 0 1 1 0 -0 -0 1 0 
1 -3.5610420118214143e-18 -1.3298961775703233e-19 0 0 0 1 1 0 -0 -0 1 0 
Triangulations 0

TShapes 27
Ve
1.0000000001474e-05
-8.61079780650483e-18 0 0.046875
0 0

0101101
*
Ve
1.00000000000114e-05
0.046875 0.046875 0
0 0

0101101
*
Ed
 1e-05 1 1 0
1  1 0 1.57079632679492 3.14159265358979
2  1 1 2 1.57079632679492 3.14159265358979
2  2 2 3 1.57079632679492 3.14159265358979
0

0101000
+27 0 -26 0 *
Ve
1.00000000000151e-05
-0.046875 0.046875 0
0 0

0101101
*
Ed
 1e-05 1 1 0
1  2 0 4.71238898038471 6.28318530717959
2  3 1 2 4.71238898038471 6.28318530717959
2  4 2 3 4.71238898038471 6.28318530717959
0

0101000
+27 0 -24 0 *
Ve
1e-05
0.046875 0 0
0 0

0101101
*
Ed
 1e-05 1 1 0
1  3 0 0 0.078125
3  5 6CN 1 0 0 0.078125
0

0101000
+22 0 -24 4 *
Ed
 1e-05 1 1 0
1  4 0 0 6.28318530717959
2  7 1 0 0 6.28318530717959
2  8 1 6 0 6.28318530717959
0

0101000
+22 0 -22 0 *
Ve
1.00000000014821e-05
2.87026593550161e-18 0 -0.046875
0 0

0101101
*
Ed
 1e-05 1 1 0
1  5 0 0 1.57079632679487
2  9 1 2 0 1.57079632679487
2  10 2 3 0 1.57079632679487
0

0101000
+24 0 -19 0 *
Ed
 1e-05 1 1 0
1  6 0 3.14159265358979 4.71238898038467
2  11 1 2 3.14159265358979 4.71238898038467
2  12 2 3 3.14159265358979 4.71238898038467
0

0101000
+26 0 -19 0 *
Ed
 1e-05 1 1 0
1  3 0 0.171875 0.25
3  5 6CN 1 0 0.171875 0.25
0

0101000
+26 4 -22 5 *
Wi

0101100
+25 0 -23 0 +21 2 -20 2 -21 2 -18 0 +17 0 -16 2 +20 7 +16 2 
*
Fa
0  1e-05 1 2

0101000
+15 0 *
Ve
1e-05
0.046875 0 0
0 0

0101101
*
Ed
 1e-05 1 1 0
1  7 0 0.046875 0.125
3  13 14CN 2 0 0.046875 0.125
0

0101000
+26 8 -13 9 *
Ed
 1e-05 1 1 0
1  8 0 0 6.28318530717959
2  15 2 0 0 6.28318530717959
2  16 2 11 0 6.28318530717959
0

0101000
+13 0 -13 0 *
Wi

0101100
-17 0 +18 0 +23 0 -25 0 -12 3 +11 10 +12 3 *
Fa
0  1e-05 2 3

0101000
+10 0 *
Wi

0101100
+20 0 *
Fa
0  1e-07 3 0

0111000
+8 0 *
Wi

0101100
+11 0 *
Fa
0  1e-07 4 0

0111000
+6 0 *
Sh

0101100
-14 0 -9 0 -7 2 +7 7 +5 10 *
So

0100000
+4 0 *
Co

0100000
+3 0 *
Co

1100000
+2 1 *

+1 0 