ISO-10303-21;
HEADER;
FILE_DESCRIPTION(('ViewDefinition[DesignTransferView]'),'2;1');
FILE_NAME('/dev/null','2026-09-14T16:19:32-05:00',(''),(''),'IfcOpenShell 0.8.5','IfcOpenShell 0.8.5','Nobody');
FILE_SCHEMA(('IFC4'));
ENDSEC;
DATA;
#1=IFCPROJECT('0sun3$LMX1fPtPZRRRn$In',$,'Independent analytic boxes',$,$,$,$,(#11),#5);
#2=IFCSIUNIT(*,.LENGTHUNIT.,$,.METRE.);
#3=IFCSIUNIT(*,.AREAUNIT.,$,.SQUARE_METRE.);
#4=IFCSIUNIT(*,.VOLUMEUNIT.,$,.CUBIC_METRE.);
#5=IFCUNITASSIGNMENT((#2,#3,#4,#6));
#6=IFCSIUNIT(*,.PLANEANGLEUNIT.,$,.RADIAN.);
#7=IFCCARTESIANPOINT((0.,0.,0.));
#8=IFCDIRECTION((0.,0.,1.));
#9=IFCDIRECTION((1.,0.,0.));
#10=IFCAXIS2PLACEMENT3D(#7,#8,#9);
#11=IFCGEOMETRICREPRESENTATIONCONTEXT($,'Model',3,1.0000000000000001E-05,#10,$);
#12=IFCGEOMETRICREPRESENTATIONSUBCONTEXT('Body','Model',*,*,*,*,#11,$,.MODEL_VIEW.,$);
#13=IFCBUILDINGSTOREY('0$oXb7aLr8KBIk$ti6TaMr',$,'Ground',$,$,$,$,$,$,$);
#14=IFCRELAGGREGATES('0pGQamCAD4Z9U3kJwGznJZ',$,$,$,#1,(#13));
#15=IFCBUILDINGELEMENTPROXY('2csZNchyv3JxPJBcdKWl02',$,'Analytic solid',$,$,#37,#26,$,$);
#16=IFCCARTESIANPOINTLIST2D(((0.,0.),(0.,2.),(2.,2.),(2.,0.),(0.,0.)));
#17=IFCINDEXEDPOLYCURVE(#16,$,.F.);
#18=IFCDIRECTION((0.,0.,1.));
#19=IFCARBITRARYCLOSEDPROFILEDEF(.AREA.,$,#17);
#20=IFCCARTESIANPOINT((0.,0.,0.));
#21=IFCDIRECTION((0.,0.,1.));
#22=IFCDIRECTION((1.,0.,0.));
#23=IFCAXIS2PLACEMENT3D(#20,#21,#22);
#24=IFCEXTRUDEDAREASOLID(#19,#23,#18,2.);
#25=IFCSHAPEREPRESENTATION(#12,'Body','SweptSolid',(#24));
#26=IFCPRODUCTDEFINITIONSHAPE($,$,(#25));
#32=IFCRELCONTAINEDINSPATIALSTRUCTURE('0lcPIhTLHDPQXXS8iO$ViY',$,$,$,(#15),#13);
#33=IFCCARTESIANPOINT((0.,0.,0.));
#34=IFCDIRECTION((0.,0.,1.));
#35=IFCDIRECTION((1.,0.,0.));
#36=IFCAXIS2PLACEMENT3D(#33,#34,#35);
#37=IFCLOCALPLACEMENT($,#36);
#38=IFCSYSTEM('1fr$wRwDHH68O79r8bu$2Z',$,'example-shared-two-sink-network',$,'PRESSURE_PIPE');
#39=IFCCARTESIANPOINT((0.,0.,0.));
#40=IFCDIRECTION((0.,0.,1.));
#41=IFCDIRECTION((1.,0.,0.));
#42=IFCAXIS2PLACEMENT3D(#39,#40,#41);
#43=IFCLOCALPLACEMENT($,#42);
#44=IFCPIPESEGMENT('1vfC1Z3MnUnBcswxAo3F_d',$,'example-shared-two-sink-network/trunk',$,'OMA_NETWORK_SEGMENT',#43,#55,$,.RIGIDSEGMENT.);
#45=IFCCARTESIANPOINT((0.,0.));
#46=IFCAXIS2PLACEMENT2D(#45,$);
#47=IFCCIRCLEPROFILEDEF(.AREA.,$,#46,0.070000000000000007);
#48=IFCCARTESIANPOINT((-1.,4.,3.));
#49=IFCDIRECTION((1.,0.,0.));
#50=IFCDIRECTION((0.,1.,0.));
#51=IFCAXIS2PLACEMENT3D(#48,#49,#50);
#52=IFCDIRECTION((0.,0.,1.));
#53=IFCEXTRUDEDAREASOLID(#47,#51,#52,0.80000000000000004);
#54=IFCSHAPEREPRESENTATION(#12,'Body','SweptSolid',(#53));
#55=IFCPRODUCTDEFINITIONSHAPE($,$,(#54));
#56=IFCCARTESIANPOINT((-1.,4.,3.));
#57=IFCDIRECTION((1.,-0.,-0.));
#58=IFCDIRECTION((0.,1.,0.));
#59=IFCAXIS2PLACEMENT3D(#56,#57,#58);
#60=IFCLOCALPLACEMENT(#43,#59);
#61=IFCDISTRIBUTIONPORT('2PjV3TWtDTbQjd9GxLphq2',$,'trunk/a',$,$,#60,$,.SINK.,.PIPE.,$);
#62=IFCRELNESTS('3vRhUJWkHIluHfyVq7jLD9',$,$,$,#44,(#61));
#63=IFCCARTESIANPOINT((-0.20000000000000001,4.,3.));
#64=IFCDIRECTION((1.,0.,0.));
#65=IFCDIRECTION((0.,1.,0.));
#66=IFCAXIS2PLACEMENT3D(#63,#64,#65);
#67=IFCLOCALPLACEMENT(#43,#66);
#68=IFCDISTRIBUTIONPORT('2wWLIv8EDSp9SCjopHM_bR',$,'trunk/b',$,$,#67,$,.SOURCE.,.PIPE.,$);
#69=IFCRELNESTS('1uZDhnbuTP9uXm8dKNwP3U',$,$,$,#44,(#68));
#70=IFCCARTESIANPOINT((0.,0.,0.));
#71=IFCDIRECTION((0.,0.,1.));
#72=IFCDIRECTION((1.,0.,0.));
#73=IFCAXIS2PLACEMENT3D(#70,#71,#72);
#74=IFCLOCALPLACEMENT($,#73);
#75=IFCPIPEFITTING('0ke$Sjfk9HXxqj1wwTqn3$',$,'example-shared-two-sink-network/junction',$,'OMA_NETWORK_TEE',#74,#96,$,.JUNCTION.);
#76=IFCCARTESIANPOINT((0.,0.));
#77=IFCAXIS2PLACEMENT2D(#76,$);
#78=IFCCIRCLEPROFILEDEF(.AREA.,$,#77,0.070000000000000007);
#79=IFCCARTESIANPOINT((-0.20000000000000001,4.,3.));
#80=IFCDIRECTION((1.,0.,0.));
#81=IFCDIRECTION((0.,1.,0.));
#82=IFCAXIS2PLACEMENT3D(#79,#80,#81);
#83=IFCDIRECTION((0.,0.,1.));
#84=IFCEXTRUDEDAREASOLID(#78,#82,#83,0.40000000000000002);
#85=IFCCARTESIANPOINT((0.,0.));
#86=IFCAXIS2PLACEMENT2D(#85,$);
#87=IFCCIRCLEPROFILEDEF(.AREA.,$,#86,0.070000000000000007);
#88=IFCCARTESIANPOINT((0.,4.,3.));
#89=IFCDIRECTION((0.,1.,0.));
#90=IFCDIRECTION((1.,0.,0.));
#91=IFCAXIS2PLACEMENT3D(#88,#89,#90);
#92=IFCDIRECTION((0.,0.,1.));
#93=IFCEXTRUDEDAREASOLID(#87,#91,#92,0.20000000000000018);
#94=IFCBOOLEANRESULT(.UNION.,#84,#93);
#95=IFCSHAPEREPRESENTATION(#12,'Body','CSG',(#94));
#96=IFCPRODUCTDEFINITIONSHAPE($,$,(#95));
#97=IFCCARTESIANPOINT((-0.20000000000000001,4.,3.));
#98=IFCDIRECTION((1.,-0.,-0.));
#99=IFCDIRECTION((0.,1.,0.));
#100=IFCAXIS2PLACEMENT3D(#97,#98,#99);
#101=IFCLOCALPLACEMENT(#74,#100);
#102=IFCDISTRIBUTIONPORT('19T08k1DXH4erL5EfNO3i8',$,'junction/a',$,$,#101,$,.SINK.,.PIPE.,$);
#103=IFCRELNESTS('35hct6zQLQ4uh9NekbBnJ2',$,$,$,#75,(#102));
#104=IFCCARTESIANPOINT((0.20000000000000001,4.,3.));
#105=IFCDIRECTION((1.,0.,0.));
#106=IFCDIRECTION((0.,1.,0.));
#107=IFCAXIS2PLACEMENT3D(#104,#105,#106);
#108=IFCLOCALPLACEMENT(#74,#107);
#109=IFCDISTRIBUTIONPORT('3myruVbaHMw8PkAOwb__EI',$,'junction/b',$,$,#108,$,.SOURCE.,.PIPE.,$);
#110=IFCRELNESTS('1Met69upbQuuObYoKyiH8P',$,$,$,#75,(#109));
#111=IFCCARTESIANPOINT((0.,4.2000000000000002,3.));
#112=IFCDIRECTION((0.,1.,0.));
#113=IFCDIRECTION((1.,0.,0.));
#114=IFCAXIS2PLACEMENT3D(#111,#112,#113);
#115=IFCLOCALPLACEMENT(#74,#114);
#116=IFCDISTRIBUTIONPORT('17r$qr2W5MOxruhpxnKQC9',$,'junction/branch',$,$,#115,$,.SOURCE.,.PIPE.,$);
#117=IFCRELNESTS('2FkGL$OLzL0OmZ8fMVDzAw',$,$,$,#75,(#116));
#118=IFCCARTESIANPOINT((0.,0.,0.));
#119=IFCDIRECTION((0.,0.,1.));
#120=IFCDIRECTION((1.,0.,0.));
#121=IFCAXIS2PLACEMENT3D(#118,#119,#120);
#122=IFCLOCALPLACEMENT($,#121);
#123=IFCPIPESEGMENT('1iUBmMKTbKQRtYqlgw4TXq',$,'example-shared-two-sink-network/arm-a',$,'OMA_NETWORK_SEGMENT',#122,#134,$,.RIGIDSEGMENT.);
#124=IFCCARTESIANPOINT((0.,0.));
#125=IFCAXIS2PLACEMENT2D(#124,$);
#126=IFCCIRCLEPROFILEDEF(.AREA.,$,#125,0.070000000000000007);
#127=IFCCARTESIANPOINT((0.20000000000000001,4.,3.));
#128=IFCDIRECTION((1.,0.,0.));
#129=IFCDIRECTION((0.,1.,0.));
#130=IFCAXIS2PLACEMENT3D(#127,#128,#129);
#131=IFCDIRECTION((0.,0.,1.));
#132=IFCEXTRUDEDAREASOLID(#126,#130,#131,0.80000000000000004);
#133=IFCSHAPEREPRESENTATION(#12,'Body','SweptSolid',(#132));
#134=IFCPRODUCTDEFINITIONSHAPE($,$,(#133));
#135=IFCCARTESIANPOINT((0.20000000000000001,4.,3.));
#136=IFCDIRECTION((1.,-0.,-0.));
#137=IFCDIRECTION((0.,1.,0.));
#138=IFCAXIS2PLACEMENT3D(#135,#136,#137);
#139=IFCLOCALPLACEMENT(#122,#138);
#140=IFCDISTRIBUTIONPORT('0FgBdLr_HHeBnWcnc0kIz3',$,'arm-a/a',$,$,#139,$,.SINK.,.PIPE.,$);
#141=IFCRELNESTS('0A2KFbUzrUouNnJqyJq_XU',$,$,$,#123,(#140));
#142=IFCCARTESIANPOINT((1.,4.,3.));
#143=IFCDIRECTION((1.,0.,0.));
#144=IFCDIRECTION((0.,1.,0.));
#145=IFCAXIS2PLACEMENT3D(#142,#143,#144);
#146=IFCLOCALPLACEMENT(#122,#145);
#147=IFCDISTRIBUTIONPORT('1jajt7PgDT1e$4EE3FoFg2',$,'arm-a/b',$,$,#146,$,.SOURCE.,.PIPE.,$);
#148=IFCRELNESTS('0Qzg7_QmHIzvdqEn3u0xN1',$,$,$,#123,(#147));
#149=IFCCARTESIANPOINT((0.,0.,0.));
#150=IFCDIRECTION((0.,0.,1.));
#151=IFCDIRECTION((1.,0.,0.));
#152=IFCAXIS2PLACEMENT3D(#149,#150,#151);
#153=IFCLOCALPLACEMENT($,#152);
#154=IFCPIPESEGMENT('3t9avoeorOXBcOB7lsezl2',$,'example-shared-two-sink-network/arm-b',$,'OMA_NETWORK_SEGMENT',#153,#165,$,.RIGIDSEGMENT.);
#155=IFCCARTESIANPOINT((0.,0.));
#156=IFCAXIS2PLACEMENT2D(#155,$);
#157=IFCCIRCLEPROFILEDEF(.AREA.,$,#156,0.070000000000000007);
#158=IFCCARTESIANPOINT((0.,4.2000000000000002,3.));
#159=IFCDIRECTION((0.,1.,0.));
#160=IFCDIRECTION((1.,0.,0.));
#161=IFCAXIS2PLACEMENT3D(#158,#159,#160);
#162=IFCDIRECTION((0.,0.,1.));
#163=IFCEXTRUDEDAREASOLID(#157,#161,#162,0.79999999999999982);
#164=IFCSHAPEREPRESENTATION(#12,'Body','SweptSolid',(#163));
#165=IFCPRODUCTDEFINITIONSHAPE($,$,(#164));
#166=IFCCARTESIANPOINT((0.,4.2000000000000002,3.));
#167=IFCDIRECTION((-0.,1.,-0.));
#168=IFCDIRECTION((1.,0.,0.));
#169=IFCAXIS2PLACEMENT3D(#166,#167,#168);
#170=IFCLOCALPLACEMENT(#153,#169);
#171=IFCDISTRIBUTIONPORT('184XxXuMTLPfiuaiPJ1r1v',$,'arm-b/a',$,$,#170,$,.SINK.,.PIPE.,$);
#172=IFCRELNESTS('2$adoNAIbM3AUM_gMnjIG1',$,$,$,#154,(#171));
#173=IFCCARTESIANPOINT((0.,5.,3.));
#174=IFCDIRECTION((0.,1.,0.));
#175=IFCDIRECTION((1.,0.,0.));
#176=IFCAXIS2PLACEMENT3D(#173,#174,#175);
#177=IFCLOCALPLACEMENT(#153,#176);
#178=IFCDISTRIBUTIONPORT('1g_5h8D71PfR6PUsyiaShP',$,'arm-b/b',$,$,#177,$,.SOURCE.,.PIPE.,$);
#179=IFCRELNESTS('2yxV9ih7vNb9or1TAoShZu',$,$,$,#154,(#178));
#180=IFCRELCONNECTSPORTS('2sh8Tvmj5MlP7lbc5u1T1I',$,$,$,#68,#102,$);
#181=IFCRELCONNECTSPORTS('0UlDvfZ1XLwOiYAZO4l38A',$,$,$,#109,#140,$);
#182=IFCRELCONNECTSPORTS('3R28WWqGDJeuQ9_S_Oy6Ma',$,$,$,#116,#171,$);
#183=IFCRELASSIGNSTOGROUP('28BiMm6VXNoOTpM2AwuYqi',$,$,$,(#44,#75,#123,#154),$,#38);
#184=IFCRELCONTAINEDINSPATIALSTRUCTURE('3eHohg04nUg9vGMBQ9kVyB',$,$,$,(#44,#75,#123,#154),#13);
ENDSEC;
END-ISO-10303-21;
