ISO-10303-21;
HEADER;
FILE_DESCRIPTION(('ViewDefinition[DesignTransferView]'),'2;1');
FILE_NAME('/dev/null','2026-09-14T20:53:34-05:00',(''),(''),'IfcOpenShell 0.8.5','IfcOpenShell 0.8.5','Nobody');
FILE_SCHEMA(('IFC4'));
ENDSEC;
DATA;
#1=IFCPROJECT('0CqZ7ff0T94xQPWr2YhI1Z',$,'Frozen independent shared-tree catalogue source',$,$,$,$,(#11),#5);
#2=IFCSIUNIT(*,.LENGTHUNIT.,$,.METRE.);
#3=IFCSIUNIT(*,.AREAUNIT.,$,.SQUARE_METRE.);
#4=IFCSIUNIT(*,.VOLUMEUNIT.,$,.CUBIC_METRE.);
#5=IFCUNITASSIGNMENT((#4,#2,#3,#6));
#6=IFCSIUNIT(*,.PLANEANGLEUNIT.,$,.RADIAN.);
#7=IFCCARTESIANPOINT((0.,0.,0.));
#8=IFCDIRECTION((0.,0.,1.));
#9=IFCDIRECTION((1.,0.,0.));
#10=IFCAXIS2PLACEMENT3D(#7,#8,#9);
#11=IFCGEOMETRICREPRESENTATIONCONTEXT($,'Model',3,1.0000000000000001E-05,#10,$);
#12=IFCGEOMETRICREPRESENTATIONSUBCONTEXT('Body','Model',*,*,*,*,#11,$,.MODEL_VIEW.,$);
#13=IFCBUILDINGSTOREY('15CzlYstnFl9EVJxDNr2AT',$,'Protected original storey',$,$,$,$,$,$,$);
#14=IFCRELAGGREGATES('2uAInDoCH6ivXTkcI5hWJf',$,$,$,#1,(#13));
#15=IFCBUILDINGELEMENTPROXY('32MZCKK8fFBO5p6HkBcUol',$,'Protected obstacle 0',$,$,#37,#26,$,$);
#16=IFCCARTESIANPOINTLIST2D(((0.,0.),(0.,2.),(2.,2.),(2.,0.),(0.,0.)));
#17=IFCINDEXEDPOLYCURVE(#16,$,.F.);
#18=IFCDIRECTION((0.,0.,1.));
#19=IFCARBITRARYCLOSEDPROFILEDEF(.AREA.,$,#17);
#20=IFCCARTESIANPOINT((0.,0.,0.));
#21=IFCDIRECTION((0.,0.,1.));
#22=IFCDIRECTION((1.,0.,0.));
#23=IFCAXIS2PLACEMENT3D(#20,#21,#22);
#24=IFCEXTRUDEDAREASOLID(#19,#23,#18,2.);
#25=IFCSHAPEREPRESENTATION(#12,'Body','SweptSolid',(#24));
#26=IFCPRODUCTDEFINITIONSHAPE($,$,(#25));
#32=IFCRELCONTAINEDINSPATIALSTRUCTURE('2smBBYEtn0OeP_hy30cR6d',$,$,$,(#38,#15),#13);
#33=IFCCARTESIANPOINT((0.,0.,0.));
#34=IFCDIRECTION((0.,0.,1.));
#35=IFCDIRECTION((1.,0.,0.));
#36=IFCAXIS2PLACEMENT3D(#33,#34,#35);
#37=IFCLOCALPLACEMENT($,#36);
#38=IFCBUILDINGELEMENTPROXY('3Bt6DkVvPFHAMrlGLCGgIu',$,'Protected obstacle 1',$,$,#59,#49,$,$);
#39=IFCCARTESIANPOINTLIST2D(((0.,0.),(0.,0.25),(0.25,0.25),(0.25,0.),(0.,0.)));
#40=IFCINDEXEDPOLYCURVE(#39,$,.F.);
#41=IFCDIRECTION((0.,0.,1.));
#42=IFCARBITRARYCLOSEDPROFILEDEF(.AREA.,$,#40);
#43=IFCCARTESIANPOINT((0.,0.,0.));
#44=IFCDIRECTION((0.,0.,1.));
#45=IFCDIRECTION((1.,0.,0.));
#46=IFCAXIS2PLACEMENT3D(#43,#44,#45);
#47=IFCEXTRUDEDAREASOLID(#42,#46,#41,0.25);
#48=IFCSHAPEREPRESENTATION(#12,'Body','SweptSolid',(#47));
#49=IFCPRODUCTDEFINITIONSHAPE($,$,(#48));
#55=IFCCARTESIANPOINT((0.875,1.375,2.875));
#56=IFCDIRECTION((0.,0.,1.));
#57=IFCDIRECTION((1.,0.,0.));
#58=IFCAXIS2PLACEMENT3D(#55,#56,#57);
#59=IFCLOCALPLACEMENT($,#58);
#60=IFCSYSTEM('2EylftvDLL$xB_9oGLgJ8h',$,'generated-2408ac72daa1140273f93eb9',$,'PRESSURE_PIPE');
#61=IFCCARTESIANPOINT((0.,0.,0.));
#62=IFCDIRECTION((0.,0.,1.));
#63=IFCDIRECTION((1.,0.,0.));
#64=IFCAXIS2PLACEMENT3D(#61,#62,#63);
#65=IFCLOCALPLACEMENT($,#64);
#66=IFCPIPEFITTING('2Xs$t7T2fT1hHv4rcyUthi',$,'generated-2408ac72daa1140273f93eb9/tee-0',$,'OMA_NETWORK_TEE',#65,#87,$,.JUNCTION.);
#67=IFCCARTESIANPOINT((0.,0.));
#68=IFCAXIS2PLACEMENT2D(#67,$);
#69=IFCCIRCLEPROFILEDEF(.AREA.,$,#68,0.0625);
#70=IFCCARTESIANPOINT((-0.25,0.,3.));
#71=IFCDIRECTION((1.,0.,0.));
#72=IFCDIRECTION((0.,1.,0.));
#73=IFCAXIS2PLACEMENT3D(#70,#71,#72);
#74=IFCDIRECTION((0.,0.,1.));
#75=IFCEXTRUDEDAREASOLID(#69,#73,#74,0.5);
#76=IFCCARTESIANPOINT((0.,0.));
#77=IFCAXIS2PLACEMENT2D(#76,$);
#78=IFCCIRCLEPROFILEDEF(.AREA.,$,#77,0.0625);
#79=IFCCARTESIANPOINT((0.,0.,3.));
#80=IFCDIRECTION((0.,1.,0.));
#81=IFCDIRECTION((1.,0.,0.));
#82=IFCAXIS2PLACEMENT3D(#79,#80,#81);
#83=IFCDIRECTION((0.,0.,1.));
#84=IFCEXTRUDEDAREASOLID(#78,#82,#83,0.25);
#85=IFCBOOLEANRESULT(.UNION.,#75,#84);
#86=IFCSHAPEREPRESENTATION(#12,'Body','CSG',(#85));
#87=IFCPRODUCTDEFINITIONSHAPE($,$,(#86));
#88=IFCCARTESIANPOINT((-0.25,0.,3.));
#89=IFCDIRECTION((1.,-0.,-0.));
#90=IFCDIRECTION((0.,1.,0.));
#91=IFCAXIS2PLACEMENT3D(#88,#89,#90);
#92=IFCLOCALPLACEMENT(#65,#91);
#93=IFCDISTRIBUTIONPORT('0dzci17hPQHegizQbADRQD',$,'tee-0/a',$,$,#92,$,.SINK.,.PIPE.,$);
#94=IFCRELNESTS('3ppCEdXeXMv9kCiR1DNzoT',$,$,$,#66,(#93));
#95=IFCCARTESIANPOINT((0.25,0.,3.));
#96=IFCDIRECTION((1.,0.,0.));
#97=IFCDIRECTION((0.,1.,0.));
#98=IFCAXIS2PLACEMENT3D(#95,#96,#97);
#99=IFCLOCALPLACEMENT(#65,#98);
#100=IFCDISTRIBUTIONPORT('2Xcf$Q8ezUDv34q2ZANGId',$,'tee-0/b',$,$,#99,$,.SOURCE.,.PIPE.,$);
#101=IFCRELNESTS('1Rv3OUApHSGf5Cpz7pOCqR',$,$,$,#66,(#100));
#102=IFCCARTESIANPOINT((0.,0.25,3.));
#103=IFCDIRECTION((0.,1.,0.));
#104=IFCDIRECTION((1.,0.,0.));
#105=IFCAXIS2PLACEMENT3D(#102,#103,#104);
#106=IFCLOCALPLACEMENT(#65,#105);
#107=IFCDISTRIBUTIONPORT('2SIwD_d35IQgAUeOC5pUOo',$,'tee-0/branch',$,$,#106,$,.SOURCE.,.PIPE.,$);
#108=IFCRELNESTS('1bLl7AJS5KGP9LxHJcZcUK',$,$,$,#66,(#107));
#109=IFCCARTESIANPOINT((0.,0.,0.));
#110=IFCDIRECTION((0.,0.,1.));
#111=IFCDIRECTION((1.,0.,0.));
#112=IFCAXIS2PLACEMENT3D(#109,#110,#111);
#113=IFCLOCALPLACEMENT($,#112);
#114=IFCPIPEFITTING('1gp$V9WBDVeerZxemR3$79',$,'generated-2408ac72daa1140273f93eb9/tee-1',$,'OMA_NETWORK_TEE',#113,#135,$,.JUNCTION.);
#115=IFCCARTESIANPOINT((0.,0.));
#116=IFCAXIS2PLACEMENT2D(#115,$);
#117=IFCCIRCLEPROFILEDEF(.AREA.,$,#116,0.0625);
#118=IFCCARTESIANPOINT((1.75,0.,3.));
#119=IFCDIRECTION((1.,0.,0.));
#120=IFCDIRECTION((0.,1.,0.));
#121=IFCAXIS2PLACEMENT3D(#118,#119,#120);
#122=IFCDIRECTION((0.,0.,1.));
#123=IFCEXTRUDEDAREASOLID(#117,#121,#122,0.5);
#124=IFCCARTESIANPOINT((0.,0.));
#125=IFCAXIS2PLACEMENT2D(#124,$);
#126=IFCCIRCLEPROFILEDEF(.AREA.,$,#125,0.0625);
#127=IFCCARTESIANPOINT((2.,0.,3.));
#128=IFCDIRECTION((0.,1.,0.));
#129=IFCDIRECTION((1.,0.,0.));
#130=IFCAXIS2PLACEMENT3D(#127,#128,#129);
#131=IFCDIRECTION((0.,0.,1.));
#132=IFCEXTRUDEDAREASOLID(#126,#130,#131,0.25);
#133=IFCBOOLEANRESULT(.UNION.,#123,#132);
#134=IFCSHAPEREPRESENTATION(#12,'Body','CSG',(#133));
#135=IFCPRODUCTDEFINITIONSHAPE($,$,(#134));
#136=IFCCARTESIANPOINT((1.75,0.,3.));
#137=IFCDIRECTION((1.,-0.,-0.));
#138=IFCDIRECTION((0.,1.,0.));
#139=IFCAXIS2PLACEMENT3D(#136,#137,#138);
#140=IFCLOCALPLACEMENT(#113,#139);
#141=IFCDISTRIBUTIONPORT('2uVBgN5nzQMhSOqFItLIg1',$,'tee-1/a',$,$,#140,$,.SINK.,.PIPE.,$);
#142=IFCRELNESTS('2XBN8IyBHJyB24Di_DOnda',$,$,$,#114,(#141));
#143=IFCCARTESIANPOINT((2.25,0.,3.));
#144=IFCDIRECTION((1.,0.,0.));
#145=IFCDIRECTION((0.,1.,0.));
#146=IFCAXIS2PLACEMENT3D(#143,#144,#145);
#147=IFCLOCALPLACEMENT(#113,#146);
#148=IFCDISTRIBUTIONPORT('3nji9w6SzLSOAaNB1T0fNy',$,'tee-1/b',$,$,#147,$,.SOURCE.,.PIPE.,$);
#149=IFCRELNESTS('3xVbQeYjHRv8d4_pTLoDI9',$,$,$,#114,(#148));
#150=IFCCARTESIANPOINT((2.,0.25,3.));
#151=IFCDIRECTION((0.,1.,0.));
#152=IFCDIRECTION((1.,0.,0.));
#153=IFCAXIS2PLACEMENT3D(#150,#151,#152);
#154=IFCLOCALPLACEMENT(#113,#153);
#155=IFCDISTRIBUTIONPORT('0c9A0vfanVJQgJPLLgoGDy',$,'tee-1/branch',$,$,#154,$,.SOURCE.,.PIPE.,$);
#156=IFCRELNESTS('0P3XPdX_5M7e1gIF7hXFb1',$,$,$,#114,(#155));
#157=IFCCARTESIANPOINT((0.,0.,0.));
#158=IFCDIRECTION((0.,0.,1.));
#159=IFCDIRECTION((1.,0.,0.));
#160=IFCAXIS2PLACEMENT3D(#157,#158,#159);
#161=IFCLOCALPLACEMENT($,#160);
#162=IFCPIPEFITTING('0YdMO48ofTSe$3ZB_PSFIq',$,'generated-2408ac72daa1140273f93eb9/tee-2',$,'OMA_NETWORK_TEE',#161,#183,$,.JUNCTION.);
#163=IFCCARTESIANPOINT((0.,0.));
#164=IFCAXIS2PLACEMENT2D(#163,$);
#165=IFCCIRCLEPROFILEDEF(.AREA.,$,#164,0.0625);
#166=IFCCARTESIANPOINT((3.75,0.,3.));
#167=IFCDIRECTION((1.,0.,0.));
#168=IFCDIRECTION((0.,1.,0.));
#169=IFCAXIS2PLACEMENT3D(#166,#167,#168);
#170=IFCDIRECTION((0.,0.,1.));
#171=IFCEXTRUDEDAREASOLID(#165,#169,#170,0.5);
#172=IFCCARTESIANPOINT((0.,0.));
#173=IFCAXIS2PLACEMENT2D(#172,$);
#174=IFCCIRCLEPROFILEDEF(.AREA.,$,#173,0.0625);
#175=IFCCARTESIANPOINT((4.,0.,3.));
#176=IFCDIRECTION((0.,1.,0.));
#177=IFCDIRECTION((1.,0.,0.));
#178=IFCAXIS2PLACEMENT3D(#175,#176,#177);
#179=IFCDIRECTION((0.,0.,1.));
#180=IFCEXTRUDEDAREASOLID(#174,#178,#179,0.25);
#181=IFCBOOLEANRESULT(.UNION.,#171,#180);
#182=IFCSHAPEREPRESENTATION(#12,'Body','CSG',(#181));
#183=IFCPRODUCTDEFINITIONSHAPE($,$,(#182));
#184=IFCCARTESIANPOINT((3.75,0.,3.));
#185=IFCDIRECTION((1.,-0.,-0.));
#186=IFCDIRECTION((0.,1.,0.));
#187=IFCAXIS2PLACEMENT3D(#184,#185,#186);
#188=IFCLOCALPLACEMENT(#161,#187);
#189=IFCDISTRIBUTIONPORT('3dYDh7NfTIae7K_WoO36qs',$,'tee-2/a',$,$,#188,$,.SINK.,.PIPE.,$);
#190=IFCRELNESTS('3Jiu5RTVvUfx0MBF0ulste',$,$,$,#162,(#189));
#191=IFCCARTESIANPOINT((4.25,0.,3.));
#192=IFCDIRECTION((1.,0.,0.));
#193=IFCDIRECTION((0.,1.,0.));
#194=IFCAXIS2PLACEMENT3D(#191,#192,#193);
#195=IFCLOCALPLACEMENT(#161,#194);
#196=IFCDISTRIBUTIONPORT('21DSuvD15OPQvVMd2k32$$',$,'tee-2/b',$,$,#195,$,.SOURCE.,.PIPE.,$);
#197=IFCRELNESTS('1t7zTaOQjVlQPK$UUgmKY_',$,$,$,#162,(#196));
#198=IFCCARTESIANPOINT((4.,0.25,3.));
#199=IFCDIRECTION((0.,1.,0.));
#200=IFCDIRECTION((1.,0.,0.));
#201=IFCAXIS2PLACEMENT3D(#198,#199,#200);
#202=IFCLOCALPLACEMENT(#161,#201);
#203=IFCDISTRIBUTIONPORT('0I19pINTPSpR9EAyo7nPEl',$,'tee-2/branch',$,$,#202,$,.SOURCE.,.PIPE.,$);
#204=IFCRELNESTS('0kIeZSilLQlgpAiY9Jz3tP',$,$,$,#162,(#203));
#205=IFCCARTESIANPOINT((0.,0.,0.));
#206=IFCDIRECTION((0.,0.,1.));
#207=IFCDIRECTION((1.,0.,0.));
#208=IFCAXIS2PLACEMENT3D(#205,#206,#207);
#209=IFCLOCALPLACEMENT($,#208);
#210=IFCPIPEFITTING('03cyAsAjbM2eBp7L9WU87M',$,'generated-2408ac72daa1140273f93eb9/tee-3',$,'OMA_NETWORK_TEE',#209,#231,$,.JUNCTION.);
#211=IFCCARTESIANPOINT((0.,0.));
#212=IFCAXIS2PLACEMENT2D(#211,$);
#213=IFCCIRCLEPROFILEDEF(.AREA.,$,#212,0.0625);
#214=IFCCARTESIANPOINT((5.75,0.,3.));
#215=IFCDIRECTION((1.,0.,0.));
#216=IFCDIRECTION((0.,1.,0.));
#217=IFCAXIS2PLACEMENT3D(#214,#215,#216);
#218=IFCDIRECTION((0.,0.,1.));
#219=IFCEXTRUDEDAREASOLID(#213,#217,#218,0.5);
#220=IFCCARTESIANPOINT((0.,0.));
#221=IFCAXIS2PLACEMENT2D(#220,$);
#222=IFCCIRCLEPROFILEDEF(.AREA.,$,#221,0.0625);
#223=IFCCARTESIANPOINT((6.,0.,3.));
#224=IFCDIRECTION((0.,1.,0.));
#225=IFCDIRECTION((1.,0.,0.));
#226=IFCAXIS2PLACEMENT3D(#223,#224,#225);
#227=IFCDIRECTION((0.,0.,1.));
#228=IFCEXTRUDEDAREASOLID(#222,#226,#227,0.25);
#229=IFCBOOLEANRESULT(.UNION.,#219,#228);
#230=IFCSHAPEREPRESENTATION(#12,'Body','CSG',(#229));
#231=IFCPRODUCTDEFINITIONSHAPE($,$,(#230));
#232=IFCCARTESIANPOINT((5.75,0.,3.));
#233=IFCDIRECTION((1.,-0.,-0.));
#234=IFCDIRECTION((0.,1.,0.));
#235=IFCAXIS2PLACEMENT3D(#232,#233,#234);
#236=IFCLOCALPLACEMENT(#209,#235);
#237=IFCDISTRIBUTIONPORT('3l5dDJiQ1TauR239RBO3Og',$,'tee-3/a',$,$,#236,$,.SINK.,.PIPE.,$);
#238=IFCRELNESTS('3XWqdeZ$LMSe0gIhEorGjX',$,$,$,#210,(#237));
#239=IFCCARTESIANPOINT((6.25,0.,3.));
#240=IFCDIRECTION((1.,0.,0.));
#241=IFCDIRECTION((0.,1.,0.));
#242=IFCAXIS2PLACEMENT3D(#239,#240,#241);
#243=IFCLOCALPLACEMENT(#209,#242);
#244=IFCDISTRIBUTIONPORT('1Lb76wESDMnhk1ntl6QZxJ',$,'tee-3/b',$,$,#243,$,.SOURCE.,.PIPE.,$);
#245=IFCRELNESTS('2aV6z$RoTH1uICLDbnz6Zo',$,$,$,#210,(#244));
#246=IFCCARTESIANPOINT((6.,0.25,3.));
#247=IFCDIRECTION((0.,1.,0.));
#248=IFCDIRECTION((1.,0.,0.));
#249=IFCAXIS2PLACEMENT3D(#246,#247,#248);
#250=IFCLOCALPLACEMENT(#209,#249);
#251=IFCDISTRIBUTIONPORT('0zZAZkBLbJzBcnao7pyGnW',$,'tee-3/branch',$,$,#250,$,.SOURCE.,.PIPE.,$);
#252=IFCRELNESTS('23bj2BtUPKIv2HRSLv$W2b',$,$,$,#210,(#251));
#253=IFCCARTESIANPOINT((0.,0.,0.));
#254=IFCDIRECTION((0.,0.,1.));
#255=IFCDIRECTION((1.,0.,0.));
#256=IFCAXIS2PLACEMENT3D(#253,#254,#255);
#257=IFCLOCALPLACEMENT($,#256);
#258=IFCPIPEFITTING('1eqgIGKzPPkewvoFMH3P5c',$,'generated-2408ac72daa1140273f93eb9/tee-4',$,'OMA_NETWORK_TEE',#257,#279,$,.JUNCTION.);
#259=IFCCARTESIANPOINT((0.,0.));
#260=IFCAXIS2PLACEMENT2D(#259,$);
#261=IFCCIRCLEPROFILEDEF(.AREA.,$,#260,0.0625);
#262=IFCCARTESIANPOINT((7.75,0.,3.));
#263=IFCDIRECTION((1.,0.,0.));
#264=IFCDIRECTION((0.,1.,0.));
#265=IFCAXIS2PLACEMENT3D(#262,#263,#264);
#266=IFCDIRECTION((0.,0.,1.));
#267=IFCEXTRUDEDAREASOLID(#261,#265,#266,0.5);
#268=IFCCARTESIANPOINT((0.,0.));
#269=IFCAXIS2PLACEMENT2D(#268,$);
#270=IFCCIRCLEPROFILEDEF(.AREA.,$,#269,0.0625);
#271=IFCCARTESIANPOINT((8.,0.,3.));
#272=IFCDIRECTION((0.,1.,0.));
#273=IFCDIRECTION((1.,0.,0.));
#274=IFCAXIS2PLACEMENT3D(#271,#272,#273);
#275=IFCDIRECTION((0.,0.,1.));
#276=IFCEXTRUDEDAREASOLID(#270,#274,#275,0.25);
#277=IFCBOOLEANRESULT(.UNION.,#267,#276);
#278=IFCSHAPEREPRESENTATION(#12,'Body','CSG',(#277));
#279=IFCPRODUCTDEFINITIONSHAPE($,$,(#278));
#280=IFCCARTESIANPOINT((7.75,0.,3.));
#281=IFCDIRECTION((1.,-0.,-0.));
#282=IFCDIRECTION((0.,1.,0.));
#283=IFCAXIS2PLACEMENT3D(#280,#281,#282);
#284=IFCLOCALPLACEMENT(#257,#283);
#285=IFCDISTRIBUTIONPORT('06DdN3H1XPBxQysFaiQwYj',$,'tee-4/a',$,$,#284,$,.SINK.,.PIPE.,$);
#286=IFCRELNESTS('2trPusbYrOP8myiysi9bmF',$,$,$,#258,(#285));
#287=IFCCARTESIANPOINT((8.25,0.,3.));
#288=IFCDIRECTION((1.,0.,0.));
#289=IFCDIRECTION((0.,1.,0.));
#290=IFCAXIS2PLACEMENT3D(#287,#288,#289);
#291=IFCLOCALPLACEMENT(#257,#290);
#292=IFCDISTRIBUTIONPORT('2Q7daG3aPSz9VPh0nBIGQ3',$,'tee-4/b',$,$,#291,$,.SOURCE.,.PIPE.,$);
#293=IFCRELNESTS('3Ta1VNA1XGNudB6zl_yMu2',$,$,$,#258,(#292));
#294=IFCCARTESIANPOINT((8.,0.25,3.));
#295=IFCDIRECTION((0.,1.,0.));
#296=IFCDIRECTION((1.,0.,0.));
#297=IFCAXIS2PLACEMENT3D(#294,#295,#296);
#298=IFCLOCALPLACEMENT(#257,#297);
#299=IFCDISTRIBUTIONPORT('2tvznLk15SJeMqsuG5bLkk',$,'tee-4/branch',$,$,#298,$,.SOURCE.,.PIPE.,$);
#300=IFCRELNESTS('1FzYQdMn5Hz8thwKX6e_Ia',$,$,$,#258,(#299));
#301=IFCCARTESIANPOINT((0.,0.,0.));
#302=IFCDIRECTION((0.,0.,1.));
#303=IFCDIRECTION((1.,0.,0.));
#304=IFCAXIS2PLACEMENT3D(#301,#302,#303);
#305=IFCLOCALPLACEMENT($,#304);
#306=IFCPIPEFITTING('0ECAnq8L5OdQiIFIuZE1UL',$,'generated-2408ac72daa1140273f93eb9/tee-5',$,'OMA_NETWORK_TEE',#305,#327,$,.JUNCTION.);
#307=IFCCARTESIANPOINT((0.,0.));
#308=IFCAXIS2PLACEMENT2D(#307,$);
#309=IFCCIRCLEPROFILEDEF(.AREA.,$,#308,0.0625);
#310=IFCCARTESIANPOINT((9.75,0.,3.));
#311=IFCDIRECTION((1.,0.,0.));
#312=IFCDIRECTION((0.,1.,0.));
#313=IFCAXIS2PLACEMENT3D(#310,#311,#312);
#314=IFCDIRECTION((0.,0.,1.));
#315=IFCEXTRUDEDAREASOLID(#309,#313,#314,0.5);
#316=IFCCARTESIANPOINT((0.,0.));
#317=IFCAXIS2PLACEMENT2D(#316,$);
#318=IFCCIRCLEPROFILEDEF(.AREA.,$,#317,0.0625);
#319=IFCCARTESIANPOINT((10.,0.,3.));
#320=IFCDIRECTION((0.,1.,0.));
#321=IFCDIRECTION((1.,0.,0.));
#322=IFCAXIS2PLACEMENT3D(#319,#320,#321);
#323=IFCDIRECTION((0.,0.,1.));
#324=IFCEXTRUDEDAREASOLID(#318,#322,#323,0.25);
#325=IFCBOOLEANRESULT(.UNION.,#315,#324);
#326=IFCSHAPEREPRESENTATION(#12,'Body','CSG',(#325));
#327=IFCPRODUCTDEFINITIONSHAPE($,$,(#326));
#328=IFCCARTESIANPOINT((9.75,0.,3.));
#329=IFCDIRECTION((1.,-0.,-0.));
#330=IFCDIRECTION((0.,1.,0.));
#331=IFCAXIS2PLACEMENT3D(#328,#329,#330);
#332=IFCLOCALPLACEMENT(#305,#331);
#333=IFCDISTRIBUTIONPORT('1ApohmWBDHbOX8HeHzEOV8',$,'tee-5/a',$,$,#332,$,.SINK.,.PIPE.,$);
#334=IFCRELNESTS('0JuuPzp6DT1g_6y2WH4VJ9',$,$,$,#306,(#333));
#335=IFCCARTESIANPOINT((10.25,0.,3.));
#336=IFCDIRECTION((1.,0.,0.));
#337=IFCDIRECTION((0.,1.,0.));
#338=IFCAXIS2PLACEMENT3D(#335,#336,#337);
#339=IFCLOCALPLACEMENT(#305,#338);
#340=IFCDISTRIBUTIONPORT('2tsVKwdvfHVh_0cKof7lKx',$,'tee-5/b',$,$,#339,$,.SOURCE.,.PIPE.,$);
#341=IFCRELNESTS('0lb$5mM99H3912edLmEgkq',$,$,$,#306,(#340));
#342=IFCCARTESIANPOINT((10.,0.25,3.));
#343=IFCDIRECTION((0.,1.,0.));
#344=IFCDIRECTION((1.,0.,0.));
#345=IFCAXIS2PLACEMENT3D(#342,#343,#344);
#346=IFCLOCALPLACEMENT(#305,#345);
#347=IFCDISTRIBUTIONPORT('1BZLQaZ4nKjAO6EpO3IbPQ',$,'tee-5/branch',$,$,#346,$,.SOURCE.,.PIPE.,$);
#348=IFCRELNESTS('3hdnnxXnLRIuwvYjbla9m0',$,$,$,#306,(#347));
#349=IFCCARTESIANPOINT((0.,0.,0.));
#350=IFCDIRECTION((0.,0.,1.));
#351=IFCDIRECTION((1.,0.,0.));
#352=IFCAXIS2PLACEMENT3D(#349,#350,#351);
#353=IFCLOCALPLACEMENT($,#352);
#354=IFCPIPEFITTING('0bEqMms6jS_xQmYAtHVPc0',$,'generated-2408ac72daa1140273f93eb9/tee-6',$,'OMA_NETWORK_TEE',#353,#375,$,.JUNCTION.);
#355=IFCCARTESIANPOINT((0.,0.));
#356=IFCAXIS2PLACEMENT2D(#355,$);
#357=IFCCIRCLEPROFILEDEF(.AREA.,$,#356,0.0625);
#358=IFCCARTESIANPOINT((11.75,0.,3.));
#359=IFCDIRECTION((1.,0.,0.));
#360=IFCDIRECTION((0.,1.,0.));
#361=IFCAXIS2PLACEMENT3D(#358,#359,#360);
#362=IFCDIRECTION((0.,0.,1.));
#363=IFCEXTRUDEDAREASOLID(#357,#361,#362,0.5);
#364=IFCCARTESIANPOINT((0.,0.));
#365=IFCAXIS2PLACEMENT2D(#364,$);
#366=IFCCIRCLEPROFILEDEF(.AREA.,$,#365,0.0625);
#367=IFCCARTESIANPOINT((12.,0.,3.));
#368=IFCDIRECTION((0.,1.,0.));
#369=IFCDIRECTION((1.,0.,0.));
#370=IFCAXIS2PLACEMENT3D(#367,#368,#369);
#371=IFCDIRECTION((0.,0.,1.));
#372=IFCEXTRUDEDAREASOLID(#366,#370,#371,0.25);
#373=IFCBOOLEANRESULT(.UNION.,#363,#372);
#374=IFCSHAPEREPRESENTATION(#12,'Body','CSG',(#373));
#375=IFCPRODUCTDEFINITIONSHAPE($,$,(#374));
#376=IFCCARTESIANPOINT((11.75,0.,3.));
#377=IFCDIRECTION((1.,-0.,-0.));
#378=IFCDIRECTION((0.,1.,0.));
#379=IFCAXIS2PLACEMENT3D(#376,#377,#378);
#380=IFCLOCALPLACEMENT(#353,#379);
#381=IFCDISTRIBUTIONPORT('3w51LLxijK393wU5wRitGc',$,'tee-6/a',$,$,#380,$,.SINK.,.PIPE.,$);
#382=IFCRELNESTS('3cegoJ915ReAJJ5zlLAfWJ',$,$,$,#354,(#381));
#383=IFCCARTESIANPOINT((12.25,0.,3.));
#384=IFCDIRECTION((1.,0.,0.));
#385=IFCDIRECTION((0.,1.,0.));
#386=IFCAXIS2PLACEMENT3D(#383,#384,#385);
#387=IFCLOCALPLACEMENT(#353,#386);
#388=IFCDISTRIBUTIONPORT('24jYff2zvLafFEyOWJp0zg',$,'tee-6/b',$,$,#387,$,.SOURCE.,.PIPE.,$);
#389=IFCRELNESTS('3$saIm2wDS_Pv43LdEk$wZ',$,$,$,#354,(#388));
#390=IFCCARTESIANPOINT((12.,0.25,3.));
#391=IFCDIRECTION((0.,1.,0.));
#392=IFCDIRECTION((1.,0.,0.));
#393=IFCAXIS2PLACEMENT3D(#390,#391,#392);
#394=IFCLOCALPLACEMENT(#353,#393);
#395=IFCDISTRIBUTIONPORT('3he0LZkdbVs9Gn9Bexbt3X',$,'tee-6/branch',$,$,#394,$,.SOURCE.,.PIPE.,$);
#396=IFCRELNESTS('3cT$e1oOzVbub3hxP6FaGU',$,$,$,#354,(#395));
#397=IFCCARTESIANPOINT((0.,0.,0.));
#398=IFCDIRECTION((0.,0.,1.));
#399=IFCDIRECTION((1.,0.,0.));
#400=IFCAXIS2PLACEMENT3D(#397,#398,#399);
#401=IFCLOCALPLACEMENT($,#400);
#402=IFCPIPESEGMENT('0hEW59y5XUEgJRIvq7xxGO',$,'generated-2408ac72daa1140273f93eb9/connector-083ffffece7bb5f691a5394e-p0',$,'OMA_NETWORK_SEGMENT',#401,#413,$,.RIGIDSEGMENT.);
#403=IFCCARTESIANPOINT((0.,0.));
#404=IFCAXIS2PLACEMENT2D(#403,$);
#405=IFCCIRCLEPROFILEDEF(.AREA.,$,#404,0.0625);
#406=IFCCARTESIANPOINT((10.25,0.,3.));
#407=IFCDIRECTION((1.,0.,0.));
#408=IFCDIRECTION((0.,1.,0.));
#409=IFCAXIS2PLACEMENT3D(#406,#407,#408);
#410=IFCDIRECTION((0.,0.,1.));
#411=IFCEXTRUDEDAREASOLID(#405,#409,#410,1.5);
#412=IFCSHAPEREPRESENTATION(#12,'Body','SweptSolid',(#411));
#413=IFCPRODUCTDEFINITIONSHAPE($,$,(#412));
#414=IFCCARTESIANPOINT((10.25,0.,3.));
#415=IFCDIRECTION((1.,-0.,-0.));
#416=IFCDIRECTION((0.,1.,0.));
#417=IFCAXIS2PLACEMENT3D(#414,#415,#416);
#418=IFCLOCALPLACEMENT(#401,#417);
#419=IFCDISTRIBUTIONPORT('20Pw7Lk15L0BR3lvmKBOeU',$,'connector-083ffffece7bb5f691a5394e-p0/a',$,$,#418,$,.SINK.,.PIPE.,$);
#420=IFCRELNESTS('0mwWpL9QPM7ghWF9GUxrW8',$,$,$,#402,(#419));
#421=IFCCARTESIANPOINT((11.75,0.,3.));
#422=IFCDIRECTION((1.,0.,0.));
#423=IFCDIRECTION((0.,1.,0.));
#424=IFCAXIS2PLACEMENT3D(#421,#422,#423);
#425=IFCLOCALPLACEMENT(#401,#424);
#426=IFCDISTRIBUTIONPORT('0GUwHpCRXJLfnznHVtSGk6',$,'connector-083ffffece7bb5f691a5394e-p0/b',$,$,#425,$,.SOURCE.,.PIPE.,$);
#427=IFCRELNESTS('3H3ODjexDMdu8EZpAHloF0',$,$,$,#402,(#426));
#428=IFCCARTESIANPOINT((0.,0.,0.));
#429=IFCDIRECTION((0.,0.,1.));
#430=IFCDIRECTION((1.,0.,0.));
#431=IFCAXIS2PLACEMENT3D(#428,#429,#430);
#432=IFCLOCALPLACEMENT($,#431);
#433=IFCPIPESEGMENT('3FTLZRSoHN4xAlL_7V3Kxw',$,'generated-2408ac72daa1140273f93eb9/connector-0da587aec7b61b8576787aef-p0',$,'OMA_NETWORK_SEGMENT',#432,#444,$,.RIGIDSEGMENT.);
#434=IFCCARTESIANPOINT((0.,0.));
#435=IFCAXIS2PLACEMENT2D(#434,$);
#436=IFCCIRCLEPROFILEDEF(.AREA.,$,#435,0.0625);
#437=IFCCARTESIANPOINT((10.,0.25,3.));
#438=IFCDIRECTION((0.,1.,0.));
#439=IFCDIRECTION((1.,0.,0.));
#440=IFCAXIS2PLACEMENT3D(#437,#438,#439);
#441=IFCDIRECTION((0.,0.,1.));
#442=IFCEXTRUDEDAREASOLID(#436,#440,#441,2.75);
#443=IFCSHAPEREPRESENTATION(#12,'Body','SweptSolid',(#442));
#444=IFCPRODUCTDEFINITIONSHAPE($,$,(#443));
#445=IFCCARTESIANPOINT((10.,0.25,3.));
#446=IFCDIRECTION((-0.,1.,-0.));
#447=IFCDIRECTION((1.,0.,0.));
#448=IFCAXIS2PLACEMENT3D(#445,#446,#447);
#449=IFCLOCALPLACEMENT(#432,#448);
#450=IFCDISTRIBUTIONPORT('1OwQLRRHzKqwKvY2MqqeVG',$,'connector-0da587aec7b61b8576787aef-p0/a',$,$,#449,$,.SINK.,.PIPE.,$);
#451=IFCRELNESTS('22dTX5d1vJxvX3Axvf8aoa',$,$,$,#433,(#450));
#452=IFCCARTESIANPOINT((10.,3.,3.));
#453=IFCDIRECTION((0.,1.,0.));
#454=IFCDIRECTION((1.,0.,0.));
#455=IFCAXIS2PLACEMENT3D(#452,#453,#454);
#456=IFCLOCALPLACEMENT(#432,#455);
#457=IFCDISTRIBUTIONPORT('13ejFpH5TVD9nFf1hRbJOt',$,'connector-0da587aec7b61b8576787aef-p0/b',$,$,#456,$,.SOURCE.,.PIPE.,$);
#458=IFCRELNESTS('3MWAqxWqvHdPlmv8zOw1fn',$,$,$,#433,(#457));
#459=IFCCARTESIANPOINT((0.,0.,0.));
#460=IFCDIRECTION((0.,0.,1.));
#461=IFCDIRECTION((1.,0.,0.));
#462=IFCAXIS2PLACEMENT3D(#459,#460,#461);
#463=IFCLOCALPLACEMENT($,#462);
#464=IFCPIPESEGMENT('0fb$fSHwfTIfYgjktaqvpA',$,'generated-2408ac72daa1140273f93eb9/connector-1e492b3dbe6f3e239ee101d5-p0',$,'OMA_NETWORK_SEGMENT',#463,#475,$,.RIGIDSEGMENT.);
#465=IFCCARTESIANPOINT((0.,0.));
#466=IFCAXIS2PLACEMENT2D(#465,$);
#467=IFCCIRCLEPROFILEDEF(.AREA.,$,#466,0.0625);
#468=IFCCARTESIANPOINT((12.25,0.,3.));
#469=IFCDIRECTION((1.,0.,0.));
#470=IFCDIRECTION((0.,1.,0.));
#471=IFCAXIS2PLACEMENT3D(#468,#469,#470);
#472=IFCDIRECTION((0.,0.,1.));
#473=IFCEXTRUDEDAREASOLID(#467,#471,#472,1.75);
#474=IFCSHAPEREPRESENTATION(#12,'Body','SweptSolid',(#473));
#475=IFCPRODUCTDEFINITIONSHAPE($,$,(#474));
#476=IFCCARTESIANPOINT((12.25,0.,3.));
#477=IFCDIRECTION((1.,-0.,-0.));
#478=IFCDIRECTION((0.,1.,0.));
#479=IFCAXIS2PLACEMENT3D(#476,#477,#478);
#480=IFCLOCALPLACEMENT(#463,#479);
#481=IFCDISTRIBUTIONPORT('2erPzDk21MCxBKdIA4hAov',$,'connector-1e492b3dbe6f3e239ee101d5-p0/a',$,$,#480,$,.SINK.,.PIPE.,$);
#482=IFCRELNESTS('2MJ_ea_NzTPu_zRmJtxnfp',$,$,$,#464,(#481));
#483=IFCCARTESIANPOINT((14.,0.,3.));
#484=IFCDIRECTION((1.,0.,0.));
#485=IFCDIRECTION((0.,1.,0.));
#486=IFCAXIS2PLACEMENT3D(#483,#484,#485);
#487=IFCLOCALPLACEMENT(#463,#486);
#488=IFCDISTRIBUTIONPORT('0hETbCKOvP5QfuyJGpVLvc',$,'connector-1e492b3dbe6f3e239ee101d5-p0/b',$,$,#487,$,.SOURCE.,.PIPE.,$);
#489=IFCRELNESTS('2KxVZLnEjLFhcFmolBq0Cn',$,$,$,#464,(#488));
#490=IFCCARTESIANPOINT((0.,0.,0.));
#491=IFCDIRECTION((0.,0.,1.));
#492=IFCDIRECTION((1.,0.,0.));
#493=IFCAXIS2PLACEMENT3D(#490,#491,#492);
#494=IFCLOCALPLACEMENT($,#493);
#495=IFCPIPESEGMENT('03uM8UbpbRBP1X6T8OF4pc',$,'generated-2408ac72daa1140273f93eb9/connector-1e66afa7a72e3b5640a64c92-p0',$,'OMA_NETWORK_SEGMENT',#494,#506,$,.RIGIDSEGMENT.);
#496=IFCCARTESIANPOINT((0.,0.));
#497=IFCAXIS2PLACEMENT2D(#496,$);
#498=IFCCIRCLEPROFILEDEF(.AREA.,$,#497,0.0625);
#499=IFCCARTESIANPOINT((6.25,0.,3.));
#500=IFCDIRECTION((1.,0.,0.));
#501=IFCDIRECTION((0.,1.,0.));
#502=IFCAXIS2PLACEMENT3D(#499,#500,#501);
#503=IFCDIRECTION((0.,0.,1.));
#504=IFCEXTRUDEDAREASOLID(#498,#502,#503,1.5);
#505=IFCSHAPEREPRESENTATION(#12,'Body','SweptSolid',(#504));
#506=IFCPRODUCTDEFINITIONSHAPE($,$,(#505));
#507=IFCCARTESIANPOINT((6.25,0.,3.));
#508=IFCDIRECTION((1.,-0.,-0.));
#509=IFCDIRECTION((0.,1.,0.));
#510=IFCAXIS2PLACEMENT3D(#507,#508,#509);
#511=IFCLOCALPLACEMENT(#494,#510);
#512=IFCDISTRIBUTIONPORT('0kbT$Dzt5U9QbPYs3MEAnO',$,'connector-1e66afa7a72e3b5640a64c92-p0/a',$,$,#511,$,.SINK.,.PIPE.,$);
#513=IFCRELNESTS('3Y4zSQ24nJVueCDMA79coW',$,$,$,#495,(#512));
#514=IFCCARTESIANPOINT((7.75,0.,3.));
#515=IFCDIRECTION((1.,0.,0.));
#516=IFCDIRECTION((0.,1.,0.));
#517=IFCAXIS2PLACEMENT3D(#514,#515,#516);
#518=IFCLOCALPLACEMENT(#494,#517);
#519=IFCDISTRIBUTIONPORT('2YE0G5mXrS9v8upTiV10_2',$,'connector-1e66afa7a72e3b5640a64c92-p0/b',$,$,#518,$,.SOURCE.,.PIPE.,$);
#520=IFCRELNESTS('37kGbAWT5Gf9ChfMagT3Ai',$,$,$,#495,(#519));
#521=IFCCARTESIANPOINT((0.,0.,0.));
#522=IFCDIRECTION((0.,0.,1.));
#523=IFCDIRECTION((1.,0.,0.));
#524=IFCAXIS2PLACEMENT3D(#521,#522,#523);
#525=IFCLOCALPLACEMENT($,#524);
#526=IFCPIPESEGMENT('1DC6L8ScHRgOCvMHe$Wjfj',$,'generated-2408ac72daa1140273f93eb9/connector-2237e3cce47cd2c8812eade3-p0',$,'OMA_NETWORK_SEGMENT',#525,#537,$,.RIGIDSEGMENT.);
#527=IFCCARTESIANPOINT((0.,0.));
#528=IFCAXIS2PLACEMENT2D(#527,$);
#529=IFCCIRCLEPROFILEDEF(.AREA.,$,#528,0.0625);
#530=IFCCARTESIANPOINT((8.,0.25,3.));
#531=IFCDIRECTION((0.,1.,0.));
#532=IFCDIRECTION((1.,0.,0.));
#533=IFCAXIS2PLACEMENT3D(#530,#531,#532);
#534=IFCDIRECTION((0.,0.,1.));
#535=IFCEXTRUDEDAREASOLID(#529,#533,#534,2.75);
#536=IFCSHAPEREPRESENTATION(#12,'Body','SweptSolid',(#535));
#537=IFCPRODUCTDEFINITIONSHAPE($,$,(#536));
#538=IFCCARTESIANPOINT((8.,0.25,3.));
#539=IFCDIRECTION((-0.,1.,-0.));
#540=IFCDIRECTION((1.,0.,0.));
#541=IFCAXIS2PLACEMENT3D(#538,#539,#540);
#542=IFCLOCALPLACEMENT(#525,#541);
#543=IFCDISTRIBUTIONPORT('2JAQyVvtnO_epvC7ybcr3o',$,'connector-2237e3cce47cd2c8812eade3-p0/a',$,$,#542,$,.SINK.,.PIPE.,$);
#544=IFCRELNESTS('1gcI1cn8HKygef17Erx53v',$,$,$,#526,(#543));
#545=IFCCARTESIANPOINT((8.,3.,3.));
#546=IFCDIRECTION((0.,1.,0.));
#547=IFCDIRECTION((1.,0.,0.));
#548=IFCAXIS2PLACEMENT3D(#545,#546,#547);
#549=IFCLOCALPLACEMENT(#525,#548);
#550=IFCDISTRIBUTIONPORT('3GcBXdXJzLMBo1B18nYDHk',$,'connector-2237e3cce47cd2c8812eade3-p0/b',$,$,#549,$,.SOURCE.,.PIPE.,$);
#551=IFCRELNESTS('2$9wt3BTDK39W6kNTxBWLN',$,$,$,#526,(#550));
#552=IFCCARTESIANPOINT((0.,0.,0.));
#553=IFCDIRECTION((0.,0.,1.));
#554=IFCDIRECTION((1.,0.,0.));
#555=IFCAXIS2PLACEMENT3D(#552,#553,#554);
#556=IFCLOCALPLACEMENT($,#555);
#557=IFCPIPESEGMENT('2OX_MvHcXJGwyk04X1ypdJ',$,'generated-2408ac72daa1140273f93eb9/connector-33b62574439265f598c1d012-p0',$,'OMA_NETWORK_SEGMENT',#556,#568,$,.RIGIDSEGMENT.);
#558=IFCCARTESIANPOINT((0.,0.));
#559=IFCAXIS2PLACEMENT2D(#558,$);
#560=IFCCIRCLEPROFILEDEF(.AREA.,$,#559,0.0625);
#561=IFCCARTESIANPOINT((8.25,0.,3.));
#562=IFCDIRECTION((1.,0.,0.));
#563=IFCDIRECTION((0.,1.,0.));
#564=IFCAXIS2PLACEMENT3D(#561,#562,#563);
#565=IFCDIRECTION((0.,0.,1.));
#566=IFCEXTRUDEDAREASOLID(#560,#564,#565,1.5);
#567=IFCSHAPEREPRESENTATION(#12,'Body','SweptSolid',(#566));
#568=IFCPRODUCTDEFINITIONSHAPE($,$,(#567));
#569=IFCCARTESIANPOINT((8.25,0.,3.));
#570=IFCDIRECTION((1.,-0.,-0.));
#571=IFCDIRECTION((0.,1.,0.));
#572=IFCAXIS2PLACEMENT3D(#569,#570,#571);
#573=IFCLOCALPLACEMENT(#556,#572);
#574=IFCDISTRIBUTIONPORT('1fEJkmZP5U$RgJxjTVu0yR',$,'connector-33b62574439265f598c1d012-p0/a',$,$,#573,$,.SINK.,.PIPE.,$);
#575=IFCRELNESTS('2STgStHa1RL8yXkxzQIirD',$,$,$,#557,(#574));
#576=IFCCARTESIANPOINT((9.75,0.,3.));
#577=IFCDIRECTION((1.,0.,0.));
#578=IFCDIRECTION((0.,1.,0.));
#579=IFCAXIS2PLACEMENT3D(#576,#577,#578);
#580=IFCLOCALPLACEMENT(#556,#579);
#581=IFCDISTRIBUTIONPORT('06CsZaZA1HnfUu9W5IG7hG',$,'connector-33b62574439265f598c1d012-p0/b',$,$,#580,$,.SOURCE.,.PIPE.,$);
#582=IFCRELNESTS('1jD6dsnWzT$9cjcS9YTR24',$,$,$,#557,(#581));
#583=IFCCARTESIANPOINT((0.,0.,0.));
#584=IFCDIRECTION((0.,0.,1.));
#585=IFCDIRECTION((1.,0.,0.));
#586=IFCAXIS2PLACEMENT3D(#583,#584,#585);
#587=IFCLOCALPLACEMENT($,#586);
#588=IFCPIPESEGMENT('1tz$lx331KafgsINk7NX5H',$,'generated-2408ac72daa1140273f93eb9/connector-443108ba2ee05a9129f30e0e-p0',$,'OMA_NETWORK_SEGMENT',#587,#599,$,.RIGIDSEGMENT.);
#589=IFCCARTESIANPOINT((0.,0.));
#590=IFCAXIS2PLACEMENT2D(#589,$);
#591=IFCCIRCLEPROFILEDEF(.AREA.,$,#590,0.0625);
#592=IFCCARTESIANPOINT((4.25,0.,3.));
#593=IFCDIRECTION((1.,0.,0.));
#594=IFCDIRECTION((0.,1.,0.));
#595=IFCAXIS2PLACEMENT3D(#592,#593,#594);
#596=IFCDIRECTION((0.,0.,1.));
#597=IFCEXTRUDEDAREASOLID(#591,#595,#596,1.5);
#598=IFCSHAPEREPRESENTATION(#12,'Body','SweptSolid',(#597));
#599=IFCPRODUCTDEFINITIONSHAPE($,$,(#598));
#600=IFCCARTESIANPOINT((4.25,0.,3.));
#601=IFCDIRECTION((1.,-0.,-0.));
#602=IFCDIRECTION((0.,1.,0.));
#603=IFCAXIS2PLACEMENT3D(#600,#601,#602);
#604=IFCLOCALPLACEMENT(#587,#603);
#605=IFCDISTRIBUTIONPORT('06aYW5AMXJ3hEV1uG6O4IK',$,'connector-443108ba2ee05a9129f30e0e-p0/a',$,$,#604,$,.SINK.,.PIPE.,$);
#606=IFCRELNESTS('2xiuAe3Y5GF8Ct_kFyDmVn',$,$,$,#588,(#605));
#607=IFCCARTESIANPOINT((5.75,0.,3.));
#608=IFCDIRECTION((1.,0.,0.));
#609=IFCDIRECTION((0.,1.,0.));
#610=IFCAXIS2PLACEMENT3D(#607,#608,#609);
#611=IFCLOCALPLACEMENT(#587,#610);
#612=IFCDISTRIBUTIONPORT('1ZlyzXNMvHs92iPflw8qTD',$,'connector-443108ba2ee05a9129f30e0e-p0/b',$,$,#611,$,.SOURCE.,.PIPE.,$);
#613=IFCRELNESTS('3sHsHVm3DM9ONq8FXFfHi8',$,$,$,#588,(#612));
#614=IFCCARTESIANPOINT((0.,0.,0.));
#615=IFCDIRECTION((0.,0.,1.));
#616=IFCDIRECTION((1.,0.,0.));
#617=IFCAXIS2PLACEMENT3D(#614,#615,#616);
#618=IFCLOCALPLACEMENT($,#617);
#619=IFCPIPESEGMENT('0F$jo1YwzKMhgZXxGiE4ob',$,'generated-2408ac72daa1140273f93eb9/connector-5f4d533bfcbd34340c589965-p0',$,'OMA_NETWORK_SEGMENT',#618,#630,$,.RIGIDSEGMENT.);
#620=IFCCARTESIANPOINT((0.,0.));
#621=IFCAXIS2PLACEMENT2D(#620,$);
#622=IFCCIRCLEPROFILEDEF(.AREA.,$,#621,0.0625);
#623=IFCCARTESIANPOINT((0.,0.25,3.));
#624=IFCDIRECTION((0.,1.,0.));
#625=IFCDIRECTION((1.,0.,0.));
#626=IFCAXIS2PLACEMENT3D(#623,#624,#625);
#627=IFCDIRECTION((0.,0.,1.));
#628=IFCEXTRUDEDAREASOLID(#622,#626,#627,1.75);
#629=IFCSHAPEREPRESENTATION(#12,'Body','SweptSolid',(#628));
#630=IFCPRODUCTDEFINITIONSHAPE($,$,(#629));
#631=IFCCARTESIANPOINT((0.,0.25,3.));
#632=IFCDIRECTION((-0.,1.,-0.));
#633=IFCDIRECTION((1.,0.,0.));
#634=IFCAXIS2PLACEMENT3D(#631,#632,#633);
#635=IFCLOCALPLACEMENT(#618,#634);
#636=IFCDISTRIBUTIONPORT('0bQOHks6vUIhoYMRLaNSaA',$,'connector-5f4d533bfcbd34340c589965-p0/a',$,$,#635,$,.SINK.,.PIPE.,$);
#637=IFCRELNESTS('3PwmhOXv5JSAvM480Ng$Wf',$,$,$,#619,(#636));
#638=IFCCARTESIANPOINT((0.,2.,3.));
#639=IFCDIRECTION((0.,1.,0.));
#640=IFCDIRECTION((1.,0.,0.));
#641=IFCAXIS2PLACEMENT3D(#638,#639,#640);
#642=IFCLOCALPLACEMENT(#618,#641);
#643=IFCDISTRIBUTIONPORT('1sXOt9XobO6eSXpY$4dstP',$,'connector-5f4d533bfcbd34340c589965-p0/b',$,$,#642,$,.SOURCE.,.PIPE.,$);
#644=IFCRELNESTS('3wpIjrRWjVkuJpBmegNCuW',$,$,$,#619,(#643));
#645=IFCCARTESIANPOINT((0.,0.,0.));
#646=IFCDIRECTION((0.,0.,1.));
#647=IFCDIRECTION((1.,0.,0.));
#648=IFCAXIS2PLACEMENT3D(#645,#646,#647);
#649=IFCLOCALPLACEMENT($,#648);
#650=IFCPIPEFITTING('1$bb5cMLHIlgzdobPj591o',$,'generated-2408ac72daa1140273f93eb9/connector-5f4d533bfcbd34340c589965-p1',$,'OMA_NETWORK_ELBOW',#649,#663,$,.BEND.);
#651=IFCCARTESIANPOINT((0.25,0.));
#652=IFCAXIS2PLACEMENT2D(#651,$);
#653=IFCCIRCLEPROFILEDEF(.AREA.,$,#652,0.0625);
#654=IFCCARTESIANPOINT((0.25,2.,3.));
#655=IFCDIRECTION((0.,1.,0.));
#656=IFCDIRECTION((-1.,0.,0.));
#657=IFCAXIS2PLACEMENT3D(#654,#655,#656);
#658=IFCCARTESIANPOINT((0.,0.,0.));
#659=IFCDIRECTION((0.,-1.,0.));
#660=IFCAXIS1PLACEMENT(#658,#659);
#661=IFCREVOLVEDAREASOLID(#653,#657,#660,1.5707963267948966);
#662=IFCSHAPEREPRESENTATION(#12,'Body','SweptSolid',(#661));
#663=IFCPRODUCTDEFINITIONSHAPE($,$,(#662));
#664=IFCCARTESIANPOINT((0.,2.,3.));
#665=IFCDIRECTION((-0.,1.,-0.));
#666=IFCDIRECTION((1.,0.,0.));
#667=IFCAXIS2PLACEMENT3D(#664,#665,#666);
#668=IFCLOCALPLACEMENT(#649,#667);
#669=IFCDISTRIBUTIONPORT('0rSz8pYJfV4wR5cOoErlFY',$,'connector-5f4d533bfcbd34340c589965-p1/a',$,$,#668,$,.SINK.,.PIPE.,$);
#670=IFCRELNESTS('3C1h1VNSvMl9iFs5T8giL3',$,$,$,#650,(#669));
#671=IFCCARTESIANPOINT((0.25,2.25,3.));
#672=IFCDIRECTION((1.,0.,0.));
#673=IFCDIRECTION((0.,1.,0.));
#674=IFCAXIS2PLACEMENT3D(#671,#672,#673);
#675=IFCLOCALPLACEMENT(#649,#674);
#676=IFCDISTRIBUTIONPORT('3fj4yC_yDKZA4xYLX69kXr',$,'connector-5f4d533bfcbd34340c589965-p1/b',$,$,#675,$,.SOURCE.,.PIPE.,$);
#677=IFCRELNESTS('3RNtU63ljOxPpr82XxpuDW',$,$,$,#650,(#676));
#678=IFCCARTESIANPOINT((0.,0.,0.));
#679=IFCDIRECTION((0.,0.,1.));
#680=IFCDIRECTION((1.,0.,0.));
#681=IFCAXIS2PLACEMENT3D(#678,#679,#680);
#682=IFCLOCALPLACEMENT($,#681);
#683=IFCPIPESEGMENT('3HyNJeqqLOIRbyyL6kt_MA',$,'generated-2408ac72daa1140273f93eb9/connector-5f4d533bfcbd34340c589965-p2',$,'OMA_NETWORK_SEGMENT',#682,#694,$,.RIGIDSEGMENT.);
#684=IFCCARTESIANPOINT((0.,0.));
#685=IFCAXIS2PLACEMENT2D(#684,$);
#686=IFCCIRCLEPROFILEDEF(.AREA.,$,#685,0.0625);
#687=IFCCARTESIANPOINT((0.25,2.25,3.));
#688=IFCDIRECTION((1.,0.,0.));
#689=IFCDIRECTION((0.,1.,0.));
#690=IFCAXIS2PLACEMENT3D(#687,#688,#689);
#691=IFCDIRECTION((0.,0.,1.));
#692=IFCEXTRUDEDAREASOLID(#686,#690,#691,0.5);
#693=IFCSHAPEREPRESENTATION(#12,'Body','SweptSolid',(#692));
#694=IFCPRODUCTDEFINITIONSHAPE($,$,(#693));
#695=IFCCARTESIANPOINT((0.25,2.25,3.));
#696=IFCDIRECTION((1.,-0.,-0.));
#697=IFCDIRECTION((0.,1.,0.));
#698=IFCAXIS2PLACEMENT3D(#695,#696,#697);
#699=IFCLOCALPLACEMENT(#682,#698);
#700=IFCDISTRIBUTIONPORT('07wB_TPkXSFgkrN6L8TUzw',$,'connector-5f4d533bfcbd34340c589965-p2/a',$,$,#699,$,.SINK.,.PIPE.,$);
#701=IFCRELNESTS('3F6moWaaLIxBRviahc4zfJ',$,$,$,#683,(#700));
#702=IFCCARTESIANPOINT((0.75,2.25,3.));
#703=IFCDIRECTION((1.,0.,0.));
#704=IFCDIRECTION((0.,1.,0.));
#705=IFCAXIS2PLACEMENT3D(#702,#703,#704);
#706=IFCLOCALPLACEMENT(#682,#705);
#707=IFCDISTRIBUTIONPORT('30IKv3jgjV9x1BVAH8uTIN',$,'connector-5f4d533bfcbd34340c589965-p2/b',$,$,#706,$,.SOURCE.,.PIPE.,$);
#708=IFCRELNESTS('2U3YA4Kv9IbQ62LSSARZwy',$,$,$,#683,(#707));
#709=IFCCARTESIANPOINT((0.,0.,0.));
#710=IFCDIRECTION((0.,0.,1.));
#711=IFCDIRECTION((1.,0.,0.));
#712=IFCAXIS2PLACEMENT3D(#709,#710,#711);
#713=IFCLOCALPLACEMENT($,#712);
#714=IFCPIPEFITTING('3Q4y9QFyPIZQFKMbVV_BMF',$,'generated-2408ac72daa1140273f93eb9/connector-5f4d533bfcbd34340c589965-p3',$,'OMA_NETWORK_ELBOW',#713,#727,$,.BEND.);
#715=IFCCARTESIANPOINT((0.25,0.));
#716=IFCAXIS2PLACEMENT2D(#715,$);
#717=IFCCIRCLEPROFILEDEF(.AREA.,$,#716,0.0625);
#718=IFCCARTESIANPOINT((0.75,2.5,3.));
#719=IFCDIRECTION((1.,0.,0.));
#720=IFCDIRECTION((0.,-1.,0.));
#721=IFCAXIS2PLACEMENT3D(#718,#719,#720);
#722=IFCCARTESIANPOINT((0.,0.,0.));
#723=IFCDIRECTION((0.,-1.,0.));
#724=IFCAXIS1PLACEMENT(#722,#723);
#725=IFCREVOLVEDAREASOLID(#717,#721,#724,1.5707963267948966);
#726=IFCSHAPEREPRESENTATION(#12,'Body','SweptSolid',(#725));
#727=IFCPRODUCTDEFINITIONSHAPE($,$,(#726));
#728=IFCCARTESIANPOINT((0.75,2.25,3.));
#729=IFCDIRECTION((1.,-0.,-0.));
#730=IFCDIRECTION((0.,1.,0.));
#731=IFCAXIS2PLACEMENT3D(#728,#729,#730);
#732=IFCLOCALPLACEMENT(#713,#731);
#733=IFCDISTRIBUTIONPORT('2G7Wkh_NfGE9AVQjYxYiw8',$,'connector-5f4d533bfcbd34340c589965-p3/a',$,$,#732,$,.SINK.,.PIPE.,$);
#734=IFCRELNESTS('3VXnOlTGrTS8xyH121Xa8D',$,$,$,#714,(#733));
#735=IFCCARTESIANPOINT((1.,2.5,3.));
#736=IFCDIRECTION((0.,1.,0.));
#737=IFCDIRECTION((1.,0.,0.));
#738=IFCAXIS2PLACEMENT3D(#735,#736,#737);
#739=IFCLOCALPLACEMENT(#713,#738);
#740=IFCDISTRIBUTIONPORT('1kk7wdvnnKTAlFnwY2bOXT',$,'connector-5f4d533bfcbd34340c589965-p3/b',$,$,#739,$,.SOURCE.,.PIPE.,$);
#741=IFCRELNESTS('1t7RQkF$bOHf$dap3M0L6A',$,$,$,#714,(#740));
#742=IFCCARTESIANPOINT((0.,0.,0.));
#743=IFCDIRECTION((0.,0.,1.));
#744=IFCDIRECTION((1.,0.,0.));
#745=IFCAXIS2PLACEMENT3D(#742,#743,#744);
#746=IFCLOCALPLACEMENT($,#745);
#747=IFCPIPESEGMENT('3dvIlQ6rbMYOQthOtnZEW1',$,'generated-2408ac72daa1140273f93eb9/connector-5f4d533bfcbd34340c589965-p4',$,'OMA_NETWORK_SEGMENT',#746,#758,$,.RIGIDSEGMENT.);
#748=IFCCARTESIANPOINT((0.,0.));
#749=IFCAXIS2PLACEMENT2D(#748,$);
#750=IFCCIRCLEPROFILEDEF(.AREA.,$,#749,0.0625);
#751=IFCCARTESIANPOINT((1.,2.5,3.));
#752=IFCDIRECTION((0.,1.,0.));
#753=IFCDIRECTION((1.,0.,0.));
#754=IFCAXIS2PLACEMENT3D(#751,#752,#753);
#755=IFCDIRECTION((0.,0.,1.));
#756=IFCEXTRUDEDAREASOLID(#750,#754,#755,0.5);
#757=IFCSHAPEREPRESENTATION(#12,'Body','SweptSolid',(#756));
#758=IFCPRODUCTDEFINITIONSHAPE($,$,(#757));
#759=IFCCARTESIANPOINT((1.,2.5,3.));
#760=IFCDIRECTION((-0.,1.,-0.));
#761=IFCDIRECTION((1.,0.,0.));
#762=IFCAXIS2PLACEMENT3D(#759,#760,#761);
#763=IFCLOCALPLACEMENT(#746,#762);
#764=IFCDISTRIBUTIONPORT('2izW5SavjP0AmX9yYz_Haq',$,'connector-5f4d533bfcbd34340c589965-p4/a',$,$,#763,$,.SINK.,.PIPE.,$);
#765=IFCRELNESTS('13UB5pQTHJQekhO$9RL4eh',$,$,$,#747,(#764));
#766=IFCCARTESIANPOINT((1.,3.,3.));
#767=IFCDIRECTION((0.,1.,0.));
#768=IFCDIRECTION((1.,0.,0.));
#769=IFCAXIS2PLACEMENT3D(#766,#767,#768);
#770=IFCLOCALPLACEMENT(#746,#769);
#771=IFCDISTRIBUTIONPORT('3K3Iwh1fvJEAiDrDdXPtfc',$,'connector-5f4d533bfcbd34340c589965-p4/b',$,$,#770,$,.SOURCE.,.PIPE.,$);
#772=IFCRELNESTS('0uOJEKfmnJzAxNmZsLVji9',$,$,$,#747,(#771));
#773=IFCCARTESIANPOINT((0.,0.,0.));
#774=IFCDIRECTION((0.,0.,1.));
#775=IFCDIRECTION((1.,0.,0.));
#776=IFCAXIS2PLACEMENT3D(#773,#774,#775);
#777=IFCLOCALPLACEMENT($,#776);
#778=IFCPIPESEGMENT('2K4oeHNwvQiuvwlf8N2puy',$,'generated-2408ac72daa1140273f93eb9/connector-7d11bed117588215abe8f19d-p0',$,'OMA_NETWORK_SEGMENT',#777,#789,$,.RIGIDSEGMENT.);
#779=IFCCARTESIANPOINT((0.,0.));
#780=IFCAXIS2PLACEMENT2D(#779,$);
#781=IFCCIRCLEPROFILEDEF(.AREA.,$,#780,0.0625);
#782=IFCCARTESIANPOINT((0.25,0.,3.));
#783=IFCDIRECTION((1.,0.,0.));
#784=IFCDIRECTION((0.,1.,0.));
#785=IFCAXIS2PLACEMENT3D(#782,#783,#784);
#786=IFCDIRECTION((0.,0.,1.));
#787=IFCEXTRUDEDAREASOLID(#781,#785,#786,1.5);
#788=IFCSHAPEREPRESENTATION(#12,'Body','SweptSolid',(#787));
#789=IFCPRODUCTDEFINITIONSHAPE($,$,(#788));
#790=IFCCARTESIANPOINT((0.25,0.,3.));
#791=IFCDIRECTION((1.,-0.,-0.));
#792=IFCDIRECTION((0.,1.,0.));
#793=IFCAXIS2PLACEMENT3D(#790,#791,#792);
#794=IFCLOCALPLACEMENT(#777,#793);
#795=IFCDISTRIBUTIONPORT('0fhPBNlJTH$gf0fZXaLFhe',$,'connector-7d11bed117588215abe8f19d-p0/a',$,$,#794,$,.SINK.,.PIPE.,$);
#796=IFCRELNESTS('3ens7x6ULGMxesi57LMCRW',$,$,$,#778,(#795));
#797=IFCCARTESIANPOINT((1.75,0.,3.));
#798=IFCDIRECTION((1.,0.,0.));
#799=IFCDIRECTION((0.,1.,0.));
#800=IFCAXIS2PLACEMENT3D(#797,#798,#799);
#801=IFCLOCALPLACEMENT(#777,#800);
#802=IFCDISTRIBUTIONPORT('3OjSaEYnjREh7G7h6Fbq3A',$,'connector-7d11bed117588215abe8f19d-p0/b',$,$,#801,$,.SOURCE.,.PIPE.,$);
#803=IFCRELNESTS('0IPdsjT21JIvS$Hp4a_ocO',$,$,$,#778,(#802));
#804=IFCCARTESIANPOINT((0.,0.,0.));
#805=IFCDIRECTION((0.,0.,1.));
#806=IFCDIRECTION((1.,0.,0.));
#807=IFCAXIS2PLACEMENT3D(#804,#805,#806);
#808=IFCLOCALPLACEMENT($,#807);
#809=IFCPIPESEGMENT('3jUnnFIR9Pgh3PvFfNeW0f',$,'generated-2408ac72daa1140273f93eb9/connector-85edc313e625ec7a9c38e5e9-p0',$,'OMA_NETWORK_SEGMENT',#808,#820,$,.RIGIDSEGMENT.);
#810=IFCCARTESIANPOINT((0.,0.));
#811=IFCAXIS2PLACEMENT2D(#810,$);
#812=IFCCIRCLEPROFILEDEF(.AREA.,$,#811,0.0625);
#813=IFCCARTESIANPOINT((-2.,0.,3.));
#814=IFCDIRECTION((1.,0.,0.));
#815=IFCDIRECTION((0.,1.,0.));
#816=IFCAXIS2PLACEMENT3D(#813,#814,#815);
#817=IFCDIRECTION((0.,0.,1.));
#818=IFCEXTRUDEDAREASOLID(#812,#816,#817,1.75);
#819=IFCSHAPEREPRESENTATION(#12,'Body','SweptSolid',(#818));
#820=IFCPRODUCTDEFINITIONSHAPE($,$,(#819));
#821=IFCCARTESIANPOINT((-2.,0.,3.));
#822=IFCDIRECTION((1.,-0.,-0.));
#823=IFCDIRECTION((0.,1.,0.));
#824=IFCAXIS2PLACEMENT3D(#821,#822,#823);
#825=IFCLOCALPLACEMENT(#808,#824);
#826=IFCDISTRIBUTIONPORT('34AOtsqGPHvRT2xtvyHp17',$,'connector-85edc313e625ec7a9c38e5e9-p0/a',$,$,#825,$,.SINK.,.PIPE.,$);
#827=IFCRELNESTS('0zU1ZiSc1PxBwH5x3wl56q',$,$,$,#809,(#826));
#828=IFCCARTESIANPOINT((-0.25,0.,3.));
#829=IFCDIRECTION((1.,0.,0.));
#830=IFCDIRECTION((0.,1.,0.));
#831=IFCAXIS2PLACEMENT3D(#828,#829,#830);
#832=IFCLOCALPLACEMENT(#808,#831);
#833=IFCDISTRIBUTIONPORT('0$AbypW89L$8v5yyt6DZHe',$,'connector-85edc313e625ec7a9c38e5e9-p0/b',$,$,#832,$,.SOURCE.,.PIPE.,$);
#834=IFCRELNESTS('3NRdD0M69O_RC6cubDR4Oz',$,$,$,#809,(#833));
#835=IFCCARTESIANPOINT((0.,0.,0.));
#836=IFCDIRECTION((0.,0.,1.));
#837=IFCDIRECTION((1.,0.,0.));
#838=IFCAXIS2PLACEMENT3D(#835,#836,#837);
#839=IFCLOCALPLACEMENT($,#838);
#840=IFCPIPESEGMENT('2QKlktZ91HkOdBFv4pTntc',$,'generated-2408ac72daa1140273f93eb9/connector-91dd85b1e98941d48fcb1f31-p0',$,'OMA_NETWORK_SEGMENT',#839,#851,$,.RIGIDSEGMENT.);
#841=IFCCARTESIANPOINT((0.,0.));
#842=IFCAXIS2PLACEMENT2D(#841,$);
#843=IFCCIRCLEPROFILEDEF(.AREA.,$,#842,0.0625);
#844=IFCCARTESIANPOINT((2.25,0.,3.));
#845=IFCDIRECTION((1.,0.,0.));
#846=IFCDIRECTION((0.,1.,0.));
#847=IFCAXIS2PLACEMENT3D(#844,#845,#846);
#848=IFCDIRECTION((0.,0.,1.));
#849=IFCEXTRUDEDAREASOLID(#843,#847,#848,1.5);
#850=IFCSHAPEREPRESENTATION(#12,'Body','SweptSolid',(#849));
#851=IFCPRODUCTDEFINITIONSHAPE($,$,(#850));
#852=IFCCARTESIANPOINT((2.25,0.,3.));
#853=IFCDIRECTION((1.,-0.,-0.));
#854=IFCDIRECTION((0.,1.,0.));
#855=IFCAXIS2PLACEMENT3D(#852,#853,#854);
#856=IFCLOCALPLACEMENT(#839,#855);
#857=IFCDISTRIBUTIONPORT('0nF$qHROfGeQVavR1TDfYD',$,'connector-91dd85b1e98941d48fcb1f31-p0/a',$,$,#856,$,.SINK.,.PIPE.,$);
#858=IFCRELNESTS('3zkb7AgCjJDPyhNPuyW8wy',$,$,$,#840,(#857));
#859=IFCCARTESIANPOINT((3.75,0.,3.));
#860=IFCDIRECTION((1.,0.,0.));
#861=IFCDIRECTION((0.,1.,0.));
#862=IFCAXIS2PLACEMENT3D(#859,#860,#861);
#863=IFCLOCALPLACEMENT(#839,#862);
#864=IFCDISTRIBUTIONPORT('1sTyh5NBXHzheZevUI1nJx',$,'connector-91dd85b1e98941d48fcb1f31-p0/b',$,$,#863,$,.SOURCE.,.PIPE.,$);
#865=IFCRELNESTS('0eaK0qaZHOofz1b8ryomxI',$,$,$,#840,(#864));
#866=IFCCARTESIANPOINT((0.,0.,0.));
#867=IFCDIRECTION((0.,0.,1.));
#868=IFCDIRECTION((1.,0.,0.));
#869=IFCAXIS2PLACEMENT3D(#866,#867,#868);
#870=IFCLOCALPLACEMENT($,#869);
#871=IFCPIPESEGMENT('3asf7t5KLL3wIpY1Zr2DOG',$,'generated-2408ac72daa1140273f93eb9/connector-934fb3dd22875770e9fae3c6-p0',$,'OMA_NETWORK_SEGMENT',#870,#882,$,.RIGIDSEGMENT.);
#872=IFCCARTESIANPOINT((0.,0.));
#873=IFCAXIS2PLACEMENT2D(#872,$);
#874=IFCCIRCLEPROFILEDEF(.AREA.,$,#873,0.0625);
#875=IFCCARTESIANPOINT((6.,0.25,3.));
#876=IFCDIRECTION((0.,1.,0.));
#877=IFCDIRECTION((1.,0.,0.));
#878=IFCAXIS2PLACEMENT3D(#875,#876,#877);
#879=IFCDIRECTION((0.,0.,1.));
#880=IFCEXTRUDEDAREASOLID(#874,#878,#879,2.75);
#881=IFCSHAPEREPRESENTATION(#12,'Body','SweptSolid',(#880));
#882=IFCPRODUCTDEFINITIONSHAPE($,$,(#881));
#883=IFCCARTESIANPOINT((6.,0.25,3.));
#884=IFCDIRECTION((-0.,1.,-0.));
#885=IFCDIRECTION((1.,0.,0.));
#886=IFCAXIS2PLACEMENT3D(#883,#884,#885);
#887=IFCLOCALPLACEMENT(#870,#886);
#888=IFCDISTRIBUTIONPORT('1dSL7dO5PLhwiBDNjlsAFt',$,'connector-934fb3dd22875770e9fae3c6-p0/a',$,$,#887,$,.SINK.,.PIPE.,$);
#889=IFCRELNESTS('0qIryoq0HQCOOST_6XMAIg',$,$,$,#871,(#888));
#890=IFCCARTESIANPOINT((6.,3.,3.));
#891=IFCDIRECTION((0.,1.,0.));
#892=IFCDIRECTION((1.,0.,0.));
#893=IFCAXIS2PLACEMENT3D(#890,#891,#892);
#894=IFCLOCALPLACEMENT(#870,#893);
#895=IFCDISTRIBUTIONPORT('1v2YSti2vRjeniDBHwOQgy',$,'connector-934fb3dd22875770e9fae3c6-p0/b',$,$,#894,$,.SOURCE.,.PIPE.,$);
#896=IFCRELNESTS('3$jdFMwcHQeO7pqZasWrEz',$,$,$,#871,(#895));
#897=IFCCARTESIANPOINT((0.,0.,0.));
#898=IFCDIRECTION((0.,0.,1.));
#899=IFCDIRECTION((1.,0.,0.));
#900=IFCAXIS2PLACEMENT3D(#897,#898,#899);
#901=IFCLOCALPLACEMENT($,#900);
#902=IFCPIPESEGMENT('1QgmFrLZvMovUjSxYeO2_5',$,'generated-2408ac72daa1140273f93eb9/connector-ab082257969acef2995cd924-p0',$,'OMA_NETWORK_SEGMENT',#901,#913,$,.RIGIDSEGMENT.);
#903=IFCCARTESIANPOINT((0.,0.));
#904=IFCAXIS2PLACEMENT2D(#903,$);
#905=IFCCIRCLEPROFILEDEF(.AREA.,$,#904,0.0625);
#906=IFCCARTESIANPOINT((2.,0.25,3.));
#907=IFCDIRECTION((0.,1.,0.));
#908=IFCDIRECTION((1.,0.,0.));
#909=IFCAXIS2PLACEMENT3D(#906,#907,#908);
#910=IFCDIRECTION((0.,0.,1.));
#911=IFCEXTRUDEDAREASOLID(#905,#909,#910,2.75);
#912=IFCSHAPEREPRESENTATION(#12,'Body','SweptSolid',(#911));
#913=IFCPRODUCTDEFINITIONSHAPE($,$,(#912));
#914=IFCCARTESIANPOINT((2.,0.25,3.));
#915=IFCDIRECTION((-0.,1.,-0.));
#916=IFCDIRECTION((1.,0.,0.));
#917=IFCAXIS2PLACEMENT3D(#914,#915,#916);
#918=IFCLOCALPLACEMENT(#901,#917);
#919=IFCDISTRIBUTIONPORT('3FjNEpSODP1QToFL9JQYaN',$,'connector-ab082257969acef2995cd924-p0/a',$,$,#918,$,.SINK.,.PIPE.,$);
#920=IFCRELNESTS('1l2tcQXFfIgfrvHg_a3mnx',$,$,$,#902,(#919));
#921=IFCCARTESIANPOINT((2.,3.,3.));
#922=IFCDIRECTION((0.,1.,0.));
#923=IFCDIRECTION((1.,0.,0.));
#924=IFCAXIS2PLACEMENT3D(#921,#922,#923);
#925=IFCLOCALPLACEMENT(#901,#924);
#926=IFCDISTRIBUTIONPORT('2BwRgzwu9VNfKVfHt9VyK$',$,'connector-ab082257969acef2995cd924-p0/b',$,$,#925,$,.SOURCE.,.PIPE.,$);
#927=IFCRELNESTS('0wSPHTT7TKbxx0KkY0sStj',$,$,$,#902,(#926));
#928=IFCCARTESIANPOINT((0.,0.,0.));
#929=IFCDIRECTION((0.,0.,1.));
#930=IFCDIRECTION((1.,0.,0.));
#931=IFCAXIS2PLACEMENT3D(#928,#929,#930);
#932=IFCLOCALPLACEMENT($,#931);
#933=IFCPIPESEGMENT('0X72q89GXVf80kEmAPLW_e',$,'generated-2408ac72daa1140273f93eb9/connector-da739e797b947d00fa67ccaf-p0',$,'OMA_NETWORK_SEGMENT',#932,#944,$,.RIGIDSEGMENT.);
#934=IFCCARTESIANPOINT((0.,0.));
#935=IFCAXIS2PLACEMENT2D(#934,$);
#936=IFCCIRCLEPROFILEDEF(.AREA.,$,#935,0.0625);
#937=IFCCARTESIANPOINT((4.,0.25,3.));
#938=IFCDIRECTION((0.,1.,0.));
#939=IFCDIRECTION((1.,0.,0.));
#940=IFCAXIS2PLACEMENT3D(#937,#938,#939);
#941=IFCDIRECTION((0.,0.,1.));
#942=IFCEXTRUDEDAREASOLID(#936,#940,#941,2.75);
#943=IFCSHAPEREPRESENTATION(#12,'Body','SweptSolid',(#942));
#944=IFCPRODUCTDEFINITIONSHAPE($,$,(#943));
#945=IFCCARTESIANPOINT((4.,0.25,3.));
#946=IFCDIRECTION((-0.,1.,-0.));
#947=IFCDIRECTION((1.,0.,0.));
#948=IFCAXIS2PLACEMENT3D(#945,#946,#947);
#949=IFCLOCALPLACEMENT(#932,#948);
#950=IFCDISTRIBUTIONPORT('20rAyVHXvVDPrW$PVNEBOV',$,'connector-da739e797b947d00fa67ccaf-p0/a',$,$,#949,$,.SINK.,.PIPE.,$);
#951=IFCRELNESTS('29lbD_5tvU_eyIzYyzg$SF',$,$,$,#933,(#950));
#952=IFCCARTESIANPOINT((4.,3.,3.));
#953=IFCDIRECTION((0.,1.,0.));
#954=IFCDIRECTION((1.,0.,0.));
#955=IFCAXIS2PLACEMENT3D(#952,#953,#954);
#956=IFCLOCALPLACEMENT(#932,#955);
#957=IFCDISTRIBUTIONPORT('00$0b0z3DTXfeaoEPAYbaz',$,'connector-da739e797b947d00fa67ccaf-p0/b',$,$,#956,$,.SOURCE.,.PIPE.,$);
#958=IFCRELNESTS('3uAiao7lbPQwiPHAakHNRc',$,$,$,#933,(#957));
#959=IFCCARTESIANPOINT((0.,0.,0.));
#960=IFCDIRECTION((0.,0.,1.));
#961=IFCDIRECTION((1.,0.,0.));
#962=IFCAXIS2PLACEMENT3D(#959,#960,#961);
#963=IFCLOCALPLACEMENT($,#962);
#964=IFCPIPESEGMENT('1Mh01PD1vUIg0zyNCB52MZ',$,'generated-2408ac72daa1140273f93eb9/connector-f6923f0c0ba71d0d995ab356-p0',$,'OMA_NETWORK_SEGMENT',#963,#975,$,.RIGIDSEGMENT.);
#965=IFCCARTESIANPOINT((0.,0.));
#966=IFCAXIS2PLACEMENT2D(#965,$);
#967=IFCCIRCLEPROFILEDEF(.AREA.,$,#966,0.0625);
#968=IFCCARTESIANPOINT((12.,0.25,3.));
#969=IFCDIRECTION((0.,1.,0.));
#970=IFCDIRECTION((1.,0.,0.));
#971=IFCAXIS2PLACEMENT3D(#968,#969,#970);
#972=IFCDIRECTION((0.,0.,1.));
#973=IFCEXTRUDEDAREASOLID(#967,#971,#972,2.75);
#974=IFCSHAPEREPRESENTATION(#12,'Body','SweptSolid',(#973));
#975=IFCPRODUCTDEFINITIONSHAPE($,$,(#974));
#976=IFCCARTESIANPOINT((12.,0.25,3.));
#977=IFCDIRECTION((-0.,1.,-0.));
#978=IFCDIRECTION((1.,0.,0.));
#979=IFCAXIS2PLACEMENT3D(#976,#977,#978);
#980=IFCLOCALPLACEMENT(#963,#979);
#981=IFCDISTRIBUTIONPORT('2TbqZ6$$fICx0oO9UqleBV',$,'connector-f6923f0c0ba71d0d995ab356-p0/a',$,$,#980,$,.SINK.,.PIPE.,$);
#982=IFCRELNESTS('2wcZaopcXSleXBjWm_irjS',$,$,$,#964,(#981));
#983=IFCCARTESIANPOINT((12.,3.,3.));
#984=IFCDIRECTION((0.,1.,0.));
#985=IFCDIRECTION((1.,0.,0.));
#986=IFCAXIS2PLACEMENT3D(#983,#984,#985);
#987=IFCLOCALPLACEMENT(#963,#986);
#988=IFCDISTRIBUTIONPORT('3D_XvBG0zHbh6kF9q$hbvC',$,'connector-f6923f0c0ba71d0d995ab356-p0/b',$,$,#987,$,.SOURCE.,.PIPE.,$);
#989=IFCRELNESTS('3WnlEsymbSwAqpJgzDVaoX',$,$,$,#964,(#988));
#990=IFCRELCONNECTSPORTS('0Q4uswPE1G2RivODTXkdhV',$,$,$,#340,#419,$);
#991=IFCRELCONNECTSPORTS('1fByh68uHPZf6btlNN5I70',$,$,$,#426,#381,$);
#992=IFCRELCONNECTSPORTS('32OA6Cdp9J99rwGknCA5gw',$,$,$,#347,#450,$);
#993=IFCRELCONNECTSPORTS('3u92d29JnJi9p3HOJU7DRw',$,$,$,#388,#481,$);
#994=IFCRELCONNECTSPORTS('3mDYoRViHSRvS7lHi9ItFT',$,$,$,#244,#512,$);
#995=IFCRELCONNECTSPORTS('3d5B4qKFLIeOcHDTMHW5sG',$,$,$,#519,#285,$);
#996=IFCRELCONNECTSPORTS('3fw0vq9O5GFxZmts9krl2p',$,$,$,#299,#543,$);
#997=IFCRELCONNECTSPORTS('2CSPBP6XbIC8yT4gPJsKBo',$,$,$,#292,#574,$);
#998=IFCRELCONNECTSPORTS('1MMsbrkCPPh9HgqV$33Fg3',$,$,$,#581,#333,$);
#999=IFCRELCONNECTSPORTS('1RfPEep_5OAONnYGGL5rUI',$,$,$,#196,#605,$);
#1000=IFCRELCONNECTSPORTS('0JZAo__FXMWh8Iz0hvD2c0',$,$,$,#612,#237,$);
#1001=IFCRELCONNECTSPORTS('14WxJt3PHTEvNH$Ye2ayWg',$,$,$,#643,#669,$);
#1002=IFCRELCONNECTSPORTS('1x_GzsOFrGvAZRqXrU4XFA',$,$,$,#676,#700,$);
#1003=IFCRELCONNECTSPORTS('213bTn0SvIswhd65TY24T_',$,$,$,#707,#733,$);
#1004=IFCRELCONNECTSPORTS('2mwF1iarHPdPvYuD7CwXau',$,$,$,#740,#764,$);
#1005=IFCRELCONNECTSPORTS('0Hx9H9NrPRCPb7Ape$PUnq',$,$,$,#107,#636,$);
#1006=IFCRELCONNECTSPORTS('1hS_Ua485UJBqgxgY79dTS',$,$,$,#100,#795,$);
#1007=IFCRELCONNECTSPORTS('2GsE8uoIzUKgAh_ELE0gjU',$,$,$,#802,#141,$);
#1008=IFCRELCONNECTSPORTS('1TdV0BDPvUx9$gmUn_FQhP',$,$,$,#833,#93,$);
#1009=IFCRELCONNECTSPORTS('2RCRcRZkbRu8W8KS3dQJWT',$,$,$,#148,#857,$);
#1010=IFCRELCONNECTSPORTS('1tDwuOzErGVxUIHD8l2aNZ',$,$,$,#864,#189,$);
#1011=IFCRELCONNECTSPORTS('3e9Bz5bT5OLvgb94U4W1IK',$,$,$,#251,#888,$);
#1012=IFCRELCONNECTSPORTS('2jKYKUrRHUAw_w6f048TPk',$,$,$,#155,#919,$);
#1013=IFCRELCONNECTSPORTS('1xMDZbt1bPrxQ2FCfN7GNM',$,$,$,#203,#950,$);
#1014=IFCRELCONNECTSPORTS('1vSfM3YtDNMOo0VQtNLopv',$,$,$,#395,#981,$);
#1015=IFCRELASSIGNSTOGROUP('2gr76E56zTVumDI7Q_jYlT',$,$,$,(#66,#114,#162,#210,#258,#306,#354,#402,#433,#464,#495,#526,#557,#588,#619,#650,#683,#714,#747,#778,#809,#840,#871,#902,#933,#964),$,#60);
#1016=IFCRELCONTAINEDINSPATIALSTRUCTURE('3PS1jyvivJrOCbr5ZxPuB6',$,$,$,(#66,#114,#162,#210,#258,#306,#354,#402,#433,#464,#495,#526,#557,#588,#619,#650,#683,#714,#747,#778,#809,#840,#871,#902,#933,#964),#13);
ENDSEC;
END-ISO-10303-21;
